<svg xmlns="http://www.w3.org/2000/svg" xmlns:xlink="http://www.w3.org/1999/xlink" width="82" height="82" viewBox="0 0 82 82">
  <defs>
    <style>
      .cls-1 {
        clip-path: url(#clip-iconROPC);
      }

      .cls-2 {
        fill: #fdfcfd;
      }

      .cls-3 {
        fill: #276fba;
      }

      .cls-4 {
        fill: #2e72b9;
      }

      .cls-5 {
        fill: #9bc8fe;
      }

      .cls-6 {
        fill: #fff;
      }

      .cls-7 {
        fill: none;
      }
    </style>
    <clipPath id="clip-iconROPC">
      <rect width="82" height="82"/>
    </clipPath>
  </defs>
  <g id="iconROPC" class="cls-1">
    <g id="Grupo_22989" data-name="Grupo 22989" transform="translate(-591.235 -821.289)">
      <path id="Trazado_16969" data-name="Trazado 16969" class="cls-2" d="M63.35,6.022v39.34a4.791,4.791,0,0,1-4.659,4.913H5.684a4.79,4.79,0,0,1-4.657-4.913V6.022A4.789,4.789,0,0,1,5.684,1.111H58.693A4.789,4.789,0,0,1,63.35,6.022" transform="translate(597.145 835.094)"/>
      <path id="Trazado_16970" data-name="Trazado 16970" class="cls-3" d="M58.816,50.646H5.807A5.043,5.043,0,0,1,.9,45.487V6.147A5.044,5.044,0,0,1,5.807.986H58.818a5.04,5.04,0,0,1,4.9,5.159v39.34a5.044,5.044,0,0,1-4.9,5.161M5.807,1.482A4.548,4.548,0,0,0,1.4,6.147v39.34A4.546,4.546,0,0,0,5.807,50.15H58.816a4.547,4.547,0,0,0,4.409-4.665V6.145a4.546,4.546,0,0,0-4.407-4.663Z" transform="translate(597.022 834.971)"/>
      <path id="Trazado_16971" data-name="Trazado 16971" class="cls-3" d="M59.65,1.984a4.8,4.8,0,0,1,4.657,4.933V46.433a4.8,4.8,0,0,1-4.659,4.935H6.641a4.8,4.8,0,0,1-4.657-4.935V6.919A4.8,4.8,0,0,1,6.641,1.984ZM59.65,0H6.641A6.791,6.791,0,0,0,0,6.919V46.433a6.791,6.791,0,0,0,6.641,6.919H59.648a6.793,6.793,0,0,0,6.643-6.919V6.917A6.79,6.79,0,0,0,59.65,0" transform="translate(596.134 834.001)"/>
      <path id="Trazado_16972" data-name="Trazado 16972" class="cls-4" d="M12.019,23.3h-.06a5.86,5.86,0,0,1-5.8-5.917v-.02a5.752,5.752,0,0,1,5.7-5.786c.077,0,.151,0,.226,0A5.861,5.861,0,1,1,12.019,23.3M7.406,17.4a4.611,4.611,0,1,0,4.657-4.573c-.071,0-.131,0-.19,0a4.51,4.51,0,0,0-4.466,4.542V17.4" transform="translate(602.192 845.391)"/>
      <path id="Trazado_16973" data-name="Trazado 16973" class="cls-5" d="M18.95,23.4l-.008-.054,0-.052A7.327,7.327,0,0,0,16.2,17.372a.881.881,0,0,0-.6-.23.959.959,0,0,0-.365.073,7.9,7.9,0,0,1-4.163.431c-.03-.006-.06-.008-.089-.014-.149-.026-.3-.063-.444-.1-.1-.022-.194-.042-.29-.069-.079-.022-.157-.05-.236-.073-.165-.054-.329-.1-.492-.167a.914.914,0,0,0-.363-.073.879.879,0,0,0-.6.228,7.311,7.311,0,0,0-1.177,1.187c-.089.113-.175.228-.258.347l-.012.016-.06.081.006,0A7.313,7.313,0,0,0,5.814,23.3l0,.052-.008.054a.871.871,0,0,0,.609.958l.079.03a13.866,13.866,0,0,0,8.036,1.123c.1-.014.192-.028.29-.046l.062-.012a13.8,13.8,0,0,0,3.377-1.073l.079-.03a.87.87,0,0,0,.609-.958" transform="translate(601.842 850.871)"/>
      <path id="Trazado_16974" data-name="Trazado 16974" class="cls-4" d="M16.244,17.774a.876.876,0,0,1,.593.23,7.327,7.327,0,0,1,2.748,5.925v.054l.006.052a.87.87,0,0,1-.609.958l-.079.032A13.879,13.879,0,0,1,15.525,26.1l-.062.012c-.1.018-.192.032-.29.046A13.873,13.873,0,0,1,7.138,25.03L7.059,25a.87.87,0,0,1-.609-.958l.008-.054,0-.052A7.327,7.327,0,0,1,7.7,19.643s.234-.333.323-.444A7.233,7.233,0,0,1,9.2,18.012a.88.88,0,0,1,.593-.23h0a.959.959,0,0,1,.365.073c.161.063.325.115.49.167.079.024.157.054.236.075.1.026.194.046.292.069.147.034.294.071.444.1.028.006.058.008.087.014a7.912,7.912,0,0,0,4.165-.431.95.95,0,0,1,.363-.073Zm0-1.292h0a2.236,2.236,0,0,0-.845.167,6.56,6.56,0,0,1-2.383.444A6.687,6.687,0,0,1,11.924,17c-.026-.006-.056-.01-.085-.014-.085-.016-.179-.038-.278-.062l-.081-.02c-.038-.008-.077-.018-.119-.026s-.081-.018-.121-.03-.056-.018-.081-.026-.079-.028-.119-.04L11,16.776c-.131-.04-.252-.079-.359-.119a2.2,2.2,0,0,0-2.274.367A8.722,8.722,0,0,0,7.013,18.4a4.308,4.308,0,0,0-.411.569,8.579,8.579,0,0,0-1.441,4.954,2.152,2.152,0,0,0,1.466,2.3l0,0a15.176,15.176,0,0,0,8.744,1.208l.069-.01c.081-.012.163-.026.244-.04l.063-.012a15.164,15.164,0,0,0,3.655-1.155l0,0a2.15,2.15,0,0,0,1.466-2.3,8.677,8.677,0,0,0-3.208-6.9,2.164,2.164,0,0,0-1.427-.534" transform="translate(601.2 850.222)"/>
      <path id="Trazado_16975" data-name="Trazado 16975" class="cls-6" d="M6.748,16.793a4.588,4.588,0,0,1,4.55-4.627c.062,0,.121,0,.183,0a4.686,4.686,0,1,1-4.732,4.639v-.016" transform="translate(602.775 845.974)"/>
      <path id="Trazado_16976" data-name="Trazado 16976" class="cls-4" d="M27.2,23.3h-.06a5.86,5.86,0,0,1-5.8-5.917v-.02a5.752,5.752,0,0,1,5.7-5.786c.077,0,.151,0,.226,0A5.861,5.861,0,0,1,27.2,23.3m-4.613-5.9a4.611,4.611,0,1,0,4.657-4.573c-.071,0-.131,0-.19,0a4.51,4.51,0,0,0-4.466,4.542V17.4" transform="translate(617.132 845.391)"/>
      <path id="Trazado_16977" data-name="Trazado 16977" class="cls-5" d="M34.13,23.4l-.008-.054,0-.052a7.327,7.327,0,0,0-2.748-5.925.881.881,0,0,0-.6-.23.959.959,0,0,0-.365.073,7.9,7.9,0,0,1-4.163.431c-.03-.006-.06-.008-.089-.014-.149-.026-.3-.063-.444-.1-.1-.022-.194-.042-.29-.069-.079-.022-.157-.05-.236-.073-.165-.054-.329-.1-.492-.167a.914.914,0,0,0-.363-.073.879.879,0,0,0-.6.228,7.311,7.311,0,0,0-1.177,1.187c-.089.113-.175.228-.258.347l-.012.016c-.018.028-.04.054-.06.081l.006,0A7.313,7.313,0,0,0,20.994,23.3l0,.052-.008.054a.871.871,0,0,0,.609.958l.079.03a13.866,13.866,0,0,0,8.036,1.123c.1-.014.192-.028.29-.046l.062-.012a13.8,13.8,0,0,0,3.377-1.073l.079-.03a.87.87,0,0,0,.609-.958" transform="translate(616.781 850.871)"/>
      <path id="Trazado_16978" data-name="Trazado 16978" class="cls-4" d="M31.424,17.774a.876.876,0,0,1,.593.23,7.327,7.327,0,0,1,2.748,5.925v.054l.006.052a.87.87,0,0,1-.609.958l-.079.032A13.879,13.879,0,0,1,30.705,26.1l-.062.012c-.1.018-.192.032-.29.046a13.873,13.873,0,0,1-8.036-1.123L22.239,25a.87.87,0,0,1-.609-.958l.008-.054,0-.052a7.313,7.313,0,0,1,1.248-4.294s.234-.333.323-.444a7.233,7.233,0,0,1,1.177-1.187.88.88,0,0,1,.593-.23h0a.959.959,0,0,1,.365.073c.161.063.325.115.49.167.079.024.157.054.236.075.1.026.194.046.292.069.147.034.294.071.444.1.028.006.058.008.087.014a7.912,7.912,0,0,0,4.165-.431.949.949,0,0,1,.363-.073Zm0-1.292h0a2.236,2.236,0,0,0-.845.167,6.56,6.56,0,0,1-2.383.444A6.687,6.687,0,0,1,27.1,17c-.026-.006-.056-.01-.085-.014-.085-.016-.179-.038-.278-.062l-.081-.02c-.038-.008-.077-.018-.119-.026s-.081-.018-.121-.03-.056-.018-.081-.026-.079-.028-.119-.04l-.036-.012c-.131-.04-.252-.079-.359-.119a2.2,2.2,0,0,0-2.274.367A8.722,8.722,0,0,0,22.193,18.4a4.308,4.308,0,0,0-.411.569,8.579,8.579,0,0,0-1.441,4.954,2.152,2.152,0,0,0,1.466,2.3l0,0a15.176,15.176,0,0,0,8.744,1.208l.069-.01c.081-.012.163-.026.244-.04l.063-.012a15.164,15.164,0,0,0,3.655-1.155l0,0a2.15,2.15,0,0,0,1.466-2.3,8.677,8.677,0,0,0-3.208-6.9,2.164,2.164,0,0,0-1.427-.534" transform="translate(616.14 850.222)"/>
      <path id="Trazado_16979" data-name="Trazado 16979" class="cls-6" d="M21.928,16.793a4.588,4.588,0,0,1,4.55-4.627c.062,0,.121,0,.183,0a4.686,4.686,0,1,1-4.732,4.639v-.016" transform="translate(617.715 845.974)"/>
      <path id="Trazado_16980" data-name="Trazado 16980" class="cls-4" d="M19.606,25.117h-.06a5.86,5.86,0,0,1-5.8-5.917v-.02a5.752,5.752,0,0,1,5.7-5.786c.077,0,.151,0,.226,0a5.861,5.861,0,1,1-.067,11.722m-4.613-5.9a4.611,4.611,0,1,0,4.657-4.573c-.071,0-.131,0-.19,0a4.51,4.51,0,0,0-4.466,4.542v.036" transform="translate(609.659 847.184)"/>
      <path id="Trazado_16981" data-name="Trazado 16981" class="cls-5" d="M26.538,25.223l-.008-.054,0-.052a7.327,7.327,0,0,0-2.748-5.925.881.881,0,0,0-.6-.23.959.959,0,0,0-.365.073,7.9,7.9,0,0,1-4.163.431c-.03-.006-.06-.008-.089-.014-.149-.026-.3-.063-.444-.1-.1-.022-.194-.042-.29-.069-.079-.022-.157-.05-.236-.073-.165-.054-.329-.1-.492-.167a.914.914,0,0,0-.363-.073.879.879,0,0,0-.6.228,7.311,7.311,0,0,0-1.177,1.187c-.089.113-.175.228-.258.347l-.012.016c-.018.028-.04.054-.06.081l.006,0A7.313,7.313,0,0,0,13.4,25.126l0,.052-.008.054a.871.871,0,0,0,.609.958l.079.03a13.866,13.866,0,0,0,8.036,1.123c.1-.014.192-.028.29-.046l.062-.012a13.8,13.8,0,0,0,3.377-1.073l.079-.03a.87.87,0,0,0,.609-.958" transform="translate(609.309 852.663)"/>
      <path id="Trazado_16982" data-name="Trazado 16982" class="cls-4" d="M23.831,19.595a.876.876,0,0,1,.593.23,7.327,7.327,0,0,1,2.748,5.925V25.8l.006.052a.87.87,0,0,1-.609.958l-.079.032a13.879,13.879,0,0,1-3.377,1.071l-.062.012c-.1.018-.192.032-.29.046a13.873,13.873,0,0,1-8.036-1.123l-.079-.03a.87.87,0,0,1-.609-.958l.008-.054,0-.052a7.313,7.313,0,0,1,1.248-4.294s.234-.333.323-.444a7.311,7.311,0,0,1,1.177-1.187.88.88,0,0,1,.593-.23h0a.96.96,0,0,1,.365.073c.161.063.325.115.49.167.079.024.157.054.236.075.1.026.194.046.292.069.147.034.294.071.444.1.028.006.058.008.087.014a7.912,7.912,0,0,0,4.165-.431.95.95,0,0,1,.363-.073Zm0-1.292h0a2.236,2.236,0,0,0-.845.167,6.56,6.56,0,0,1-2.383.444,6.686,6.686,0,0,1-1.089-.089c-.026-.006-.056-.01-.085-.014-.085-.016-.179-.038-.278-.062l-.081-.02c-.038-.008-.077-.018-.119-.026s-.081-.018-.121-.03-.056-.018-.081-.026-.079-.028-.119-.04l-.036-.012c-.131-.04-.252-.079-.359-.119a2.2,2.2,0,0,0-2.274.367A8.722,8.722,0,0,0,14.6,20.22a4.309,4.309,0,0,0-.411.569,8.579,8.579,0,0,0-1.441,4.954,2.152,2.152,0,0,0,1.466,2.3l0,0a15.176,15.176,0,0,0,8.744,1.208l.069-.01c.081-.012.163-.026.244-.04l.063-.012A15.164,15.164,0,0,0,27,28.033l0,0a2.15,2.15,0,0,0,1.466-2.3,8.677,8.677,0,0,0-3.208-6.9,2.164,2.164,0,0,0-1.427-.534" transform="translate(608.667 852.014)"/>
      <path id="Trazado_16983" data-name="Trazado 16983" class="cls-6" d="M14.336,18.614a4.588,4.588,0,0,1,4.55-4.627c.062,0,.121,0,.183,0a4.686,4.686,0,1,1-4.732,4.639v-.016" transform="translate(610.243 847.766)"/>
      <path id="Trazado_16984" data-name="Trazado 16984" class="cls-3" d="M20.635,5.09l.728,2.238h2.353a1.237,1.237,0,0,1,.726,2.238l-1.9,1.383.726,2.238a1.236,1.236,0,0,1-1.9,1.383l-1.9-1.383-1.9,1.383a1.237,1.237,0,0,1-1.9-1.383l.728-2.238-1.9-1.383A1.238,1.238,0,0,1,15.2,7.328h2.353l.726-2.238a1.237,1.237,0,0,1,2.353,0" transform="translate(609.875 838.169)"/>
      <path id="Trazado_16985" data-name="Trazado 16985" class="cls-3" d="M27.8,5.09l.728,2.238h2.353a1.237,1.237,0,0,1,.726,2.238l-1.9,1.383.726,2.238a1.236,1.236,0,0,1-1.9,1.383l-1.9-1.383-1.9,1.383a1.237,1.237,0,0,1-1.9-1.383l.728-2.238-1.9-1.383a1.238,1.238,0,0,1,.728-2.238h2.353l.726-2.238a1.237,1.237,0,0,1,2.353,0" transform="translate(616.929 838.169)"/>
      <path id="Trazado_16986" data-name="Trazado 16986" class="cls-3" d="M13.468,5.09,14.2,7.328h2.353a1.237,1.237,0,0,1,.726,2.238l-1.9,1.383.726,2.238a1.236,1.236,0,0,1-1.9,1.383l-1.9-1.383-1.9,1.383a1.237,1.237,0,0,1-1.9-1.383l.728-2.238-1.9-1.383a1.238,1.238,0,0,1,.728-2.238h2.353l.726-2.238a1.237,1.237,0,0,1,2.353,0" transform="translate(602.822 838.169)"/>
      <g id="Grupo_22988" data-name="Grupo 22988" transform="translate(647.414 871.127)">
        <path id="Trazado_16987" data-name="Trazado 16987" class="cls-4" d="M27.665,34.391a11.29,11.29,0,0,1,1.1-8.632,11.419,11.419,0,0,1,4.83-4.525,11.92,11.92,0,0,1,5.279-1.109A11.223,11.223,0,1,1,27.758,34.642c-.027-.084-.062-.169-.093-.253" transform="translate(-26.9 -19.768)"/>
        <path id="Trazado_16988" data-name="Trazado 16988" class="cls-4" d="M38.679,43.111c-.133,0-.267,0-.4,0a11.585,11.585,0,0,1-10.664-8.163c-.016-.049-.036-.1-.053-.151l-.033-.087.311-.116-.32.089a11.658,11.658,0,0,1,6.11-13.567,12.178,12.178,0,0,1,5.443-1.147,11.575,11.575,0,0,1-.389,23.144m-10.49-8.641c.053.136.076.2.1.262A10.87,10.87,0,1,0,39.05,20.67a11.467,11.467,0,0,0-5.119,1.078,10.955,10.955,0,0,0-5.741,12.72" transform="translate(-27.097 -19.963)"/>
        <path id="Trazado_16989" data-name="Trazado 16989" class="cls-5" d="M37.8,40.64a9.956,9.956,0,1,1,.047,0H37.8" transform="translate(-26.215 -19.084)"/>
        <path id="Trazado_16990" data-name="Trazado 16990" class="cls-2" d="M31.087,32.687a1.153,1.153,0,0,1-1.147-1.147V30.6a1.678,1.678,0,0,1,.507-1.2l6.065-6.068L39.3,26.118l-6.065,6.065a1.746,1.746,0,0,1-.553.376,1.664,1.664,0,0,1-.653.129Z" transform="translate(-23.621 -15.851)"/>
        <path id="Trazado_16991" data-name="Trazado 16991" class="cls-4" d="M36.83,24.6,38.8,26.567l-5.656,5.656a1.138,1.138,0,0,1-.367.251,1.094,1.094,0,0,1-.429.084H31.4a.573.573,0,0,1-.565-.567V31.05a1.1,1.1,0,0,1,.082-.429,1.145,1.145,0,0,1,.253-.367Zm0-1.64-.82.82-5.656,5.656a2.324,2.324,0,0,0-.5.736,2.26,2.26,0,0,0-.173.88v.942A1.734,1.734,0,0,0,31.4,33.72h.942a2.262,2.262,0,0,0,.88-.176,2.3,2.3,0,0,0,.738-.5l5.654-5.654.82-.822-.82-.82L37.65,23.778Z" transform="translate(-23.939 -16.3)"/>
        <path id="Trazado_16992" data-name="Trazado 16992" class="cls-2" d="M32.754,24.285l1.207-1.207a.928.928,0,0,1,1.325,0l1.465,1.462a.936.936,0,0,1,0,1.322l-1.207,1.207Z" transform="translate(-20.181 -16.49)"/>
        <path id="Trazado_16993" data-name="Trazado 16993" class="cls-4" d="M35.073,23.7a.344.344,0,0,1,.251.1l1.467,1.467a.354.354,0,0,1,0,.5l-.8.8L34.026,24.6l.8-.8a.344.344,0,0,1,.251-.1m0-1.16A1.5,1.5,0,0,0,34,22.987l-.8.8-.822.82.822.822,1.967,1.967.822.822.82-.822.8-.8a1.513,1.513,0,0,0,0-2.143l-1.467-1.467a1.5,1.5,0,0,0-1.071-.445" transform="translate(-20.633 -16.809)"/>
      </g>
      <rect id="Rectángulo_11220" data-name="Rectángulo 11220" class="cls-7" width="74.444" height="60.277" transform="translate(596.134 834)"/>
    </g>
  </g>
</svg>
