<svg xmlns="http://www.w3.org/2000/svg" xmlns:xlink="http://www.w3.org/1999/xlink" width="82" height="82" viewBox="0 0 82 82">
  <defs>
    <style>
      .cls-1 {
        fill: none;
      }

      .cls-2 {
        clip-path: url(#clip-iconSIGEA);
      }

      .cls-3 {
        clip-path: url(#clip-path);
      }

      .cls-4 {
        fill: #2e72b9;
      }

      .cls-5 {
        fill: #7db5f0;
      }

      .cls-6 {
        fill: #9bc8fe;
      }

      .cls-7 {
        fill: #fefefe;
      }

      .cls-8 {
        fill: #7cb5f0;
      }

      .cls-9 {
        fill: #7db6f0;
      }

      .cls-10 {
        fill: #fdfdfe;
      }

      .cls-11 {
        fill: #fdfcfd;
      }

      .cls-12 {
        fill: #3b7cc5;
      }

      .cls-13 {
        fill: #3b7cc4;
      }
    </style>
    <clipPath id="clip-path">
      <rect id="Rect치ngulo_11130" data-name="Rect치ngulo 11130" class="cls-1" width="75.785" height="64.06"/>
    </clipPath>
    <clipPath id="clip-iconSIGEA">
      <rect width="82" height="82"/>
    </clipPath>
  </defs>
  <g id="iconSIGEA" class="cls-2">
    <g id="Grupo_22859" data-name="Grupo 22859" transform="translate(3.108 8.97)">
      <g id="Grupo_22789" data-name="Grupo 22789" class="cls-3">
        <path id="Trazado_16736" data-name="Trazado 16736" class="cls-4" d="M.7,88.232c.03-2.711-.183-4.545.915-7.119,2.208-5.175,7.134-6.657,12.068-8.251a15.425,15.425,0,0,0,1.641-.451,10.954,10.954,0,0,0-.059-1.905,9.3,9.3,0,0,0-1.017-.642A11.654,11.654,0,0,1,9.8,63.639c-.1-.347-.324-1.869-.4-1.936-.043-.04-.89-.142-1.16-.24a3.93,3.93,0,0,1-.6-7.08c.343-.186,1.6-.509,1.647-.582.139-.215-.047-4.383.015-5.116a6.392,6.392,0,0,1,5.573-5.623l16.247-.029a2.273,2.273,0,0,1,1.922,2.328c-.87,8.451,3.065,19.766-5.844,24.954-.289.169-1.829.824-1.888.911a6.114,6.114,0,0,0-.052,1.386A17.316,17.316,0,0,0,27.2,73.6c4.041,1.916,7.708,2.677,9.625,7.273L40.213,90.6l4.961.014,2.875-14.593a4.11,4.11,0,0,1,3.809-3.033h21.26a3.476,3.476,0,0,1,1.6.626,3.559,3.559,0,0,1,1.024,3.149L72.021,95.54c-.021.216.014.135.156.157.668.1,1.54-.265,1.773.718A31.49,31.49,0,0,1,74,101.35a1.147,1.147,0,0,1-1.09,1.191q-6.921,0-13.842,0c-17.241.022-34.49.063-51.73,0-1.849-.007-4.424.212-6.171,0-.761-.091-1.028-.585-1.09-1.294A28.693,28.693,0,0,1,.1,96.706c.06-.358.381-.934.755-1.008.145-.029.534.026.568,0,.065-.057-.329-.747-.385-.91-.617-1.8-.361-4.6-.34-6.554M30.869,45.21c-1.607-.007-3.217.007-4.825,0-3.649-.007-7.379-.027-11.061.023-1.447.136-3.5,1.967-3.5,3.446v5.961a2.857,2.857,0,0,0,2.754-1.859c.26-1.089-.112-2.189.927-3.013,1.556-1.235,3.845.253,5.564.656a15.883,15.883,0,0,0,8.789-.3,8.352,8.352,0,0,0,1.352-.618Zm0,6.635a16.982,16.982,0,0,1-10.163.781c-1.393-.287-2.706-.832-4.077-1.187-.29.092-.144,1.058-.181,1.38a4.773,4.773,0,0,1-4.965,3.9c-.05,3.19-.226,6.142,1.636,8.888a9.708,9.708,0,0,0,16.073-.043,10.782,10.782,0,0,0,1.678-4.542ZM9.306,56.1a1.735,1.735,0,0,0,0,3.421ZM23.094,71.853a10.942,10.942,0,0,1-5.6-.415v2.436A5.489,5.489,0,0,0,17.927,75a2.778,2.778,0,0,0,4.755-.084,5.956,5.956,0,0,0,.412-1.039ZM14.8,95.593c.1-.153,0-3.137,0-3.628a7.7,7.7,0,0,0-1.3,0,35.52,35.52,0,0,1-5.078.111,1.246,1.246,0,0,1-1.091-1.19c-.181-1.919.125-4.146.029-6.1a1.106,1.106,0,0,1,1.63-.744,2.083,2.083,0,0,1,.523.617v5.235l7.775-.1c.044-.354-.183-.646-.21-.986a1.087,1.087,0,0,1,2.1-.541,15.831,15.831,0,0,0,.446,2.042c.078.117,1.191.635,1.5.884a6.582,6.582,0,0,1,2.1,3.084c.084.273.237,1.371.289,1.421a24.464,24.464,0,0,0,2.747.01c.182,0,.351-.085.514-.087.194,0,1.4.257,1.4-.073V84.656a1.66,1.66,0,0,1,.419-.515,1.2,1.2,0,0,1,1.654.412l2.7,6.064h4.976c-.525-1.649-1.076-3.3-1.657-4.926-1.413-3.967-1.833-6.323-5.874-8.329-1.721-.854-3.572-1.491-5.273-2.4-1.508,4.374-7.662,4.841-9.431.41-.159-.4-.038-.769-.4-.7-2.258.413-7.166,2.275-8.934,3.714-4.841,3.94-3.208,9.379-3.474,14.873a2.651,2.651,0,0,0,1.733,2.31,31.387,31.387,0,0,0,5.164.131c1.5,0,3.065-.027,4.559,0a2.138,2.138,0,0,0,.464-.105m31.619.1c.087.089,2.151-.066,2.488,0L52.95,75.17c-1.21-.118-2.435.115-2.748,1.451-.911,6.106-2.978,12.457-3.755,18.534a2.054,2.054,0,0,0-.029.541m23.325,0,3.807-19.155c.139-.806.023-1.3-.847-1.376H55.294L51.239,95.7Zm-39.5-5.6v5.443c0,.241,1.557.182,1.556.1,0-.182-.36-.946-.4-1.359-.183-1.759.1-2.2-.892-3.877-.067-.114-.106-.285-.261-.309m-9.019,5.6a4.191,4.191,0,0,0-4.25-3.732v3.577a1.034,1.034,0,0,0,.156.156Zm23.533-2.9h-11.2V94.4a1.646,1.646,0,0,0,1.516,1.283l8.994.02ZM2.147,100.361h69.67V97.77H2.147Z" transform="translate(0 -38.572)"/>
        <path id="Trazado_16737" data-name="Trazado 16737" class="cls-4" d="M414.913,0a4.073,4.073,0,0,1,3.41,3.484l.015,19.379a4.528,4.528,0,0,1-.73,2.018,4.285,4.285,0,0,1-3.06,1.657h-11.9L399.3,30.888a1.1,1.1,0,0,1-1.6-.043L394.385,26.6c-2.483-.247-5.16.146-7.622-.049a4.231,4.231,0,0,1-3.987-3.789V3.581A4.043,4.043,0,0,1,386.349,0ZM398.635,28.3l2.493-3.365.693-.552,12.729-.022a1.865,1.865,0,0,0,1.612-1.6V3.783a1.866,1.866,0,0,0-1.918-1.71h-27.48a1.863,1.863,0,0,0-1.814,1.814V22.556a1.871,1.871,0,0,0,1.714,1.81l8.662.046a29.878,29.878,0,0,1,3.05,3.792c.049.085.194.145.26.1" transform="translate(-343.096)"/>
        <path id="Trazado_16738" data-name="Trazado 16738" class="cls-5" d="M39.174,369.087a2.136,2.136,0,0,1-.464.105c-1.494-.025-3.06.007-4.559,0a31.406,31.406,0,0,1-5.164-.131,2.651,2.651,0,0,1-1.733-2.31c.266-5.494-1.367-10.933,3.474-14.873,1.768-1.439,6.676-3.3,8.934-3.714.358-.065.236.305.4.7,1.769,4.43,7.923,3.964,9.431-.41,1.7.9,3.553,1.542,5.273,2.4,4.04,2.005,4.46,4.362,5.874,8.329.581,1.63,1.131,3.277,1.657,4.926H57.316l-2.7-6.064a1.2,1.2,0,0,0-1.654-.412,1.656,1.656,0,0,0-.419.515v10.885c0,.329-1.205.069-1.4.073-.163,0-.332.084-.514.087a24.421,24.421,0,0,1-2.747-.01c-.052-.05-.205-1.148-.289-1.421a6.582,6.582,0,0,0-2.1-3.084c-.309-.249-1.423-.767-1.5-.884a15.846,15.846,0,0,1-.447-2.042,1.087,1.087,0,0,0-2.1.541c.027.339.254.632.21.986l-7.775.1V358.15a2.086,2.086,0,0,0-.523-.617,1.106,1.106,0,0,0-1.63.744c.1,1.951-.21,4.179-.029,6.1a1.246,1.246,0,0,0,1.091,1.19,35.511,35.511,0,0,0,5.078-.111,7.728,7.728,0,0,1,1.3,0c0,.492.1,3.476,0,3.628" transform="translate(-24.374 -312.066)"/>
        <path id="Trazado_16739" data-name="Trazado 16739" class="cls-6" d="M512.771,373.508H494.266l4.055-20.532H515.73c.871.08.987.571.847,1.376ZM509.2,363.282a3.824,3.824,0,1,0-3.824,3.824,3.824,3.824,0,0,0,3.824-3.824" transform="translate(-443.027 -316.384)"/>
        <path id="Trazado_16740" data-name="Trazado 16740" class="cls-7" d="M129.9,124.523V133.7a10.783,10.783,0,0,1-1.678,4.542,9.708,9.708,0,0,1-16.073.043c-1.862-2.745-1.686-5.7-1.636-8.888a4.773,4.773,0,0,0,4.965-3.9c.037-.322-.109-1.288.181-1.38,1.371.355,2.683.9,4.077,1.187a16.982,16.982,0,0,0,10.163-.781" transform="translate(-99.034 -111.25)"/>
        <rect id="Rect치ngulo_11129" data-name="Rect치ngulo 11129" class="cls-8" width="69.67" height="2.592" transform="translate(2.147 59.198)"/>
        <path id="Trazado_16741" data-name="Trazado 16741" class="cls-9" d="M130.153,63.987v4.3a8.352,8.352,0,0,1-1.352.618,15.884,15.884,0,0,1-8.789.3c-1.719-.4-4.008-1.89-5.564-.656-1.039.824-.666,1.924-.926,3.013a2.857,2.857,0,0,1-2.754,1.859V67.459c0-1.479,2.053-3.31,3.5-3.446,3.682-.05,7.413-.029,11.061-.023,1.608,0,3.218-.011,4.825,0" transform="translate(-99.284 -57.348)"/>
        <path id="Trazado_16742" data-name="Trazado 16742" class="cls-7" d="M447.655,373.332a2.065,2.065,0,0,1,.029-.541c.776-6.077,2.843-12.429,3.755-18.534.313-1.335,1.538-1.568,2.748-1.451l-4.043,20.526c-.337-.067-2.4.088-2.488,0" transform="translate(-401.236 -316.207)"/>
        <path id="Trazado_16743" data-name="Trazado 16743" class="cls-6" d="M334.963,523.036l-.685,2.909-8.994-.019a1.647,1.647,0,0,1-1.516-1.283v-1.607Z" transform="translate(-290.203 -468.814)"/>
        <path id="Trazado_16744" data-name="Trazado 16744" class="cls-7" d="M174.365,317.451v2.022a5.948,5.948,0,0,1-.412,1.039,2.778,2.778,0,0,1-4.755.084,5.493,5.493,0,0,1-.431-1.123v-2.436a10.939,10.939,0,0,0,5.6.414" transform="translate(-151.271 -284.17)"/>
        <path id="Trazado_16745" data-name="Trazado 16745" class="cls-10" d="M168.017,518.768h-4.095a1.035,1.035,0,0,1-.156-.155v-3.577a4.19,4.19,0,0,1,4.25,3.732" transform="translate(-146.79 -461.643)"/>
        <path id="Trazado_16746" data-name="Trazado 16746" class="cls-11" d="M77.288,169.036v3.421a1.735,1.735,0,0,1,0-3.421" transform="translate(-67.982 -151.512)"/>
        <path id="Trazado_16747" data-name="Trazado 16747" class="cls-6" d="M417.412,46.227c-.066.044-.21-.015-.26-.1a29.873,29.873,0,0,0-3.05-3.792l-8.662-.046a1.871,1.871,0,0,1-1.714-1.81V21.81A1.863,1.863,0,0,1,405.54,20h27.48a1.866,1.866,0,0,1,1.918,1.71V40.687a1.866,1.866,0,0,1-1.612,1.6l-12.73.022-.692.552Zm-8.218-20.815a1.122,1.122,0,0,0,.287,2.158h19.7a1.1,1.1,0,0,0,.1-2.182Zm0,5.08c-1.321.62-.7,2.26.7,2.159l19.182,0c1.321-.045,1.538-2.022.21-2.179Zm-.1,5.079a1.089,1.089,0,0,0,.287,2.054l14.52,0a1.057,1.057,0,0,0,0-2.08Z" transform="translate(-361.873 -17.923)"/>
        <path id="Trazado_16748" data-name="Trazado 16748" class="cls-4" d="M572.227,419.333a3.824,3.824,0,1,1-3.824-3.824,3.824,3.824,0,0,1,3.824,3.824m-2.223.016a1.61,1.61,0,1,0-1.61,1.611,1.61,1.61,0,0,0,1.61-1.611" transform="translate(-506.051 -372.434)"/>
        <path id="Trazado_16749" data-name="Trazado 16749" class="cls-12" d="M450.312,72.037l20.092-.024a1.1,1.1,0,0,1-.1,2.182H450.6a1.122,1.122,0,0,1-.287-2.157" transform="translate(-402.99 -64.548)"/>
        <path id="Trazado_16750" data-name="Trazado 16750" class="cls-13" d="M450.186,121.037l20.092-.024c1.328.157,1.111,2.134-.21,2.179l-19.182,0c-1.4.1-2.021-1.539-.7-2.159" transform="translate(-402.864 -108.468)"/>
        <path id="Trazado_16751" data-name="Trazado 16751" class="cls-13" d="M450.2,170.038l14.805-.024a1.057,1.057,0,0,1,0,2.08l-14.52,0a1.089,1.089,0,0,1-.287-2.054" transform="translate(-402.984 -152.389)"/>
        <path id="Trazado_16752" data-name="Trazado 16752" class="cls-7" d="M589.063,438.627a1.61,1.61,0,1,1-1.61-1.611,1.61,1.61,0,0,1,1.61,1.611" transform="translate(-525.109 -391.712)"/>
      </g>
    </g>
  </g>
</svg>
