<svg xmlns="http://www.w3.org/2000/svg" xmlns:xlink="http://www.w3.org/1999/xlink" width="82" height="82" viewBox="0 0 82 82">
  <defs>
    <style>
      .cls-1 {
        fill: none;
      }

      .cls-2 {
        clip-path: url(#clip-iconSGCAE);
      }

      .cls-3 {
        clip-path: url(#clip-path);
      }

      .cls-4 {
        fill: #fff;
      }

      .cls-5 {
        fill: #276fba;
      }

      .cls-6 {
        fill: #2e72b9;
      }

      .cls-7 {
        fill: #9bc8fe;
      }

      .cls-8 {
        fill: #fdfcfd;
      }
    </style>
    <clipPath id="clip-path">
      <rect id="Rectángulo_11225" data-name="Rectángulo 11225" class="cls-1" width="51.54" height="67.674"/>
    </clipPath>
    <clipPath id="clip-iconSGCAE">
      <rect width="82" height="82"/>
    </clipPath>
  </defs>
  <g id="iconSGCAE" class="cls-2">
    <g id="Grupo_22974" data-name="Grupo 22974" transform="translate(15.39 6.953)">
      <g id="Grupo_22973" data-name="Grupo 22973" class="cls-3" transform="translate(0 0)">
        <path id="Trazado_17065" data-name="Trazado 17065" class="cls-4" d="M42.158,2.163V33.184c0,.914-1.056,1.655-2.355,1.655H9.406c-1.3,0-2.355-.742-2.355-1.657V2.163c0-.915,1.054-1.657,2.355-1.657H39.8c1.3,0,2.355.742,2.355,1.657" transform="translate(-0.104 -0.008)"/>
        <path id="Trazado_17066" data-name="Trazado 17066" class="cls-5" d="M5.951,32.692V3.413A3.417,3.417,0,0,1,9.364,0H39.4a3.417,3.417,0,0,1,3.413,3.413V32.695A3.416,3.416,0,0,1,39.4,36.108H9.364a3.416,3.416,0,0,1-3.413-3.413M40.645,3.413a1.243,1.243,0,0,0-1.239-1.245H9.364A1.243,1.243,0,0,0,8.123,3.409V32.691a1.242,1.242,0,0,0,1.241,1.241H39.4a1.242,1.242,0,0,0,1.241-1.241Z" transform="translate(-0.088 0)"/>
        <path id="Trazado_17067" data-name="Trazado 17067" class="cls-5" d="M38.036,10.282H10.591a1.084,1.084,0,0,1,0-2.168H38.036a1.084,1.084,0,0,1,0,2.168" transform="translate(-0.128 -0.12)"/>
        <path id="Trazado_17068" data-name="Trazado 17068" class="cls-5" d="M35.465,18.293H10.619a1.084,1.084,0,0,1,0-2.168H35.465a1.084,1.084,0,0,1,0,2.168" transform="translate(-0.156 -0.238)"/>
        <path id="Trazado_17069" data-name="Trazado 17069" class="cls-5" d="M27.921,26.3H10.165a1.1,1.1,0,0,1,0-2.168H27.921a1.1,1.1,0,0,1,0,2.168" transform="translate(0.178 -0.356)"/>
        <path id="Trazado_17070" data-name="Trazado 17070" class="cls-6" d="M8.865,53.937H8.8a6.586,6.586,0,0,1-6.519-6.651v-.022a6.465,6.465,0,0,1,6.412-6.507h.254a6.59,6.59,0,1,1-.078,13.179M3.683,47.306a5.182,5.182,0,1,0,5.234-5.139H8.7a5.066,5.066,0,0,0-5.018,5.1v.036" transform="translate(-0.034 -0.601)"/>
        <path id="Trazado_17071" data-name="Trazado 17071" class="cls-7" d="M16.25,60.4l-.008-.06v-.059a8.236,8.236,0,0,0-3.09-6.657.989.989,0,0,0-.669-.259,1.06,1.06,0,0,0-.409.083,8.9,8.9,0,0,1-4.679.484c-.033-.006-.066-.009-.1-.014-.167-.031-.332-.073-.5-.111-.109-.027-.219-.047-.327-.078-.089-.025-.176-.057-.264-.083-.185-.058-.37-.115-.552-.187a1.065,1.065,0,0,0-.41-.083.989.989,0,0,0-.669.258,8.319,8.319,0,0,0-1.326,1.333c-.1.126-.2.256-.289.389l-.015.019c-.021.032-.044.06-.065.092h0a8.233,8.233,0,0,0-1.4,4.824v.06l-.008.059a.979.979,0,0,0,.684,1.078l.09.034a15.583,15.583,0,0,0,9.034,1.262c.109-.018.218-.033.325-.051l.069-.015a15.555,15.555,0,0,0,3.8-1.2l.089-.034A.981.981,0,0,0,16.25,60.4" transform="translate(-0.022 -0.787)"/>
        <path id="Trazado_17072" data-name="Trazado 17072" class="cls-6" d="M12.465,53.318a.989.989,0,0,1,.663.258,8.237,8.237,0,0,1,3.093,6.658v.06l.008.06a.979.979,0,0,1-.685,1.077l-.089.034a15.546,15.546,0,0,1-3.793,1.2l-.069.014c-.108.019-.217.034-.326.052a15.6,15.6,0,0,1-9.034-1.262l-.089-.034a.981.981,0,0,1-.685-1.078l.008-.059v-.06a8.236,8.236,0,0,1,1.4-4.824s.263-.375.365-.5a8.2,8.2,0,0,1,1.326-1.333.989.989,0,0,1,.663-.258,1.042,1.042,0,0,1,.409.083c.182.071.368.128.553.186.089.028.174.06.264.084.107.031.218.052.327.078.166.039.332.083.5.11.033.006.065.009.1.015a8.908,8.908,0,0,0,4.679-.483,1.047,1.047,0,0,1,.41-.083Zm0-1.451h0a2.5,2.5,0,0,0-.951.188,7.4,7.4,0,0,1-2.676.5,7.5,7.5,0,0,1-1.225-.1l-.1-.014c-.094-.018-.2-.043-.31-.07l-.093-.023-.133-.031c-.045-.01-.091-.019-.136-.033s-.063-.02-.093-.03l-.134-.043-.04-.012c-.146-.046-.283-.09-.4-.135a2.478,2.478,0,0,0-.947-.188,2.439,2.439,0,0,0-1.606.6A9.749,9.749,0,0,0,2.1,54.018a5.178,5.178,0,0,0-.462.64A9.634,9.634,0,0,0,.017,60.225a2.415,2.415,0,0,0,1.646,2.58h0A17.052,17.052,0,0,0,11.5,64.164l.077-.012c.091-.014.182-.028.274-.044l.072-.014a17.093,17.093,0,0,0,4.1-1.293h.006a2.419,2.419,0,0,0,1.646-2.581,9.746,9.746,0,0,0-3.609-7.752,2.432,2.432,0,0,0-1.6-.6" transform="translate(0 -0.765)"/>
        <path id="Trazado_17073" data-name="Trazado 17073" class="cls-4" d="M3.619,47.3A5.155,5.155,0,0,1,8.73,42.1h.206a5.265,5.265,0,1,1-5.317,5.213V47.3" transform="translate(-0.053 -0.621)"/>
        <path id="Trazado_17074" data-name="Trazado 17074" class="cls-6" d="M43.219,53.937h-.067a6.586,6.586,0,0,1-6.52-6.651v-.022a6.465,6.465,0,0,1,6.411-6.507H43.3a6.59,6.59,0,0,1-.078,13.179m-5.183-6.631a5.181,5.181,0,1,0,5.233-5.139h-.215a5.065,5.065,0,0,0-5.017,5.1v.036" transform="translate(-0.54 -0.601)"/>
        <path id="Trazado_17075" data-name="Trazado 17075" class="cls-7" d="M50.6,60.4l-.008-.06v-.059A8.236,8.236,0,0,0,47.5,53.62a.989.989,0,0,0-.669-.259,1.06,1.06,0,0,0-.409.083,8.9,8.9,0,0,1-4.679.484c-.033-.006-.066-.009-.1-.014-.167-.031-.332-.073-.5-.111-.109-.027-.219-.047-.327-.078-.089-.025-.176-.057-.264-.083-.185-.058-.37-.115-.552-.187a1.065,1.065,0,0,0-.41-.083.989.989,0,0,0-.669.258A8.319,8.319,0,0,0,37.6,54.963c-.1.126-.2.256-.289.389l-.015.019c-.021.032-.044.06-.065.092h0a8.232,8.232,0,0,0-1.4,4.824v.06l-.009.059a.981.981,0,0,0,.685,1.078l.089.034a15.588,15.588,0,0,0,9.035,1.262c.108-.018.218-.033.325-.051l.069-.015a15.554,15.554,0,0,0,3.8-1.2l.089-.034A.981.981,0,0,0,50.6,60.4" transform="translate(-0.528 -0.787)"/>
        <path id="Trazado_17076" data-name="Trazado 17076" class="cls-6" d="M46.818,53.318a.988.988,0,0,1,.662.258,8.234,8.234,0,0,1,3.09,6.658v.059l.009.06a.979.979,0,0,1-.685,1.077l-.089.034a15.562,15.562,0,0,1-3.8,1.2l-.069.014c-.107.019-.216.034-.325.052a15.6,15.6,0,0,1-9.035-1.262l-.088-.033a.982.982,0,0,1-.686-1.078l.009-.06v-.059a8.234,8.234,0,0,1,1.4-4.824s.262-.375.365-.5a8.245,8.245,0,0,1,1.326-1.334.986.986,0,0,1,.663-.257,1.041,1.041,0,0,1,.408.083c.182.07.368.127.553.186.089.028.175.06.265.083.106.031.218.052.327.078.166.04.331.083.5.111.033.006.066.008.1.014A8.894,8.894,0,0,0,46.4,53.4a1.033,1.033,0,0,1,.41-.083Zm0-1.451h0a2.5,2.5,0,0,0-.951.188,7.4,7.4,0,0,1-2.677.5,7.484,7.484,0,0,1-1.224-.1l-.1-.014c-.093-.018-.2-.043-.31-.07l-.093-.023-.133-.031c-.045-.01-.09-.019-.136-.033s-.063-.02-.092-.03c-.045-.015-.089-.03-.135-.043l-.04-.012c-.145-.046-.282-.09-.4-.135a2.477,2.477,0,0,0-.946-.188,2.439,2.439,0,0,0-1.608.6,9.841,9.841,0,0,0-1.526,1.545,5.383,5.383,0,0,0-.462.639,9.647,9.647,0,0,0-1.617,5.568,2.415,2.415,0,0,0,1.648,2.58h0a17.047,17.047,0,0,0,9.826,1.359l.076-.012c.092-.014.183-.029.274-.045l.072-.014a17.075,17.075,0,0,0,4.108-1.3h.006a2.418,2.418,0,0,0,1.645-2.581,9.749,9.749,0,0,0-3.605-7.752,2.437,2.437,0,0,0-1.6-.6" transform="translate(-0.506 -0.765)"/>
        <path id="Trazado_17077" data-name="Trazado 17077" class="cls-4" d="M37.972,47.3a5.155,5.155,0,0,1,5.111-5.2h.206a5.265,5.265,0,1,1-5.317,5.213V47.3" transform="translate(-0.56 -0.621)"/>
        <path id="Trazado_17078" data-name="Trazado 17078" class="cls-6" d="M26.036,58.056h-.067A6.586,6.586,0,0,1,19.45,51.4v-.022a6.464,6.464,0,0,1,6.41-6.5h.255a6.586,6.586,0,0,1-.077,13.171m-5.184-6.631a5.182,5.182,0,1,0,5.234-5.139h-.215a5.066,5.066,0,0,0-5.018,5.1v.04" transform="translate(-0.287 -0.662)"/>
        <path id="Trazado_17079" data-name="Trazado 17079" class="cls-7" d="M33.42,64.517l-.008-.06V64.4a8.236,8.236,0,0,0-3.09-6.657.989.989,0,0,0-.669-.259,1.06,1.06,0,0,0-.409.083,8.9,8.9,0,0,1-4.679.484c-.033-.006-.066-.009-.1-.014-.167-.031-.332-.073-.5-.111-.109-.027-.219-.047-.327-.078-.089-.025-.176-.057-.264-.083-.185-.058-.37-.115-.552-.187a1.065,1.065,0,0,0-.41-.083.989.989,0,0,0-.669.258,8.319,8.319,0,0,0-1.326,1.333c-.1.126-.2.256-.289.389l-.015.019c-.021.032-.044.06-.065.092h0a8.228,8.228,0,0,0-1.4,4.824v.06l-.009.059a.981.981,0,0,0,.684,1.078l.09.034A15.587,15.587,0,0,0,28.455,66.9c.108-.018.217-.033.325-.051l.068-.015a15.545,15.545,0,0,0,3.8-1.206l.089-.034a.98.98,0,0,0,.685-1.078" transform="translate(-0.275 -0.848)"/>
        <path id="Trazado_17080" data-name="Trazado 17080" class="cls-6" d="M29.637,57.44a.989.989,0,0,1,.663.258,8.234,8.234,0,0,1,3.09,6.658v.059l.009.06a.979.979,0,0,1-.685,1.077l-.089.035a15.575,15.575,0,0,1-3.8,1.2l-.069.014c-.108.019-.217.034-.326.052A15.6,15.6,0,0,1,19.4,65.6l-.089-.034a.981.981,0,0,1-.685-1.078l.008-.06v-.059a8.234,8.234,0,0,1,1.4-4.824s.263-.375.365-.5a8.245,8.245,0,0,1,1.326-1.334.988.988,0,0,1,.663-.257,1.042,1.042,0,0,1,.409.083c.181.07.368.127.553.186.089.028.174.06.264.083.107.031.218.052.327.078.166.04.332.083.5.111.033.006.065.008.1.014a8.9,8.9,0,0,0,4.679-.482,1.047,1.047,0,0,1,.41-.083Zm0-1.451h0a2.5,2.5,0,0,0-.951.188,7.4,7.4,0,0,1-2.676.5,7.5,7.5,0,0,1-1.225-.1l-.1-.014c-.094-.018-.2-.043-.31-.07l-.093-.023-.133-.031c-.045-.01-.091-.019-.136-.033s-.063-.02-.093-.03l-.134-.043-.04-.012c-.146-.046-.283-.09-.4-.135A2.478,2.478,0,0,0,22.4,56a2.438,2.438,0,0,0-1.607.6,9.756,9.756,0,0,0-1.526,1.545,5.272,5.272,0,0,0-.462.639,9.64,9.64,0,0,0-1.617,5.568,2.415,2.415,0,0,0,1.647,2.58h0a17.048,17.048,0,0,0,9.826,1.359l.077-.012c.092-.014.182-.029.274-.044l.072-.015a17.067,17.067,0,0,0,4.107-1.3H33.2a2.418,2.418,0,0,0,1.646-2.581,9.745,9.745,0,0,0-3.609-7.752,2.43,2.43,0,0,0-1.6-.6" transform="translate(-0.253 -0.826)"/>
        <path id="Trazado_17081" data-name="Trazado 17081" class="cls-4" d="M20.79,51.422a5.155,5.155,0,0,1,5.111-5.2h.206a5.265,5.265,0,1,1-5.317,5.213v-.013" transform="translate(-0.306 -0.682)"/>
        <g id="Grupo_22990" data-name="Grupo 22990" transform="translate(29.037 18.541)">
          <path id="Trazado_16987" data-name="Trazado 16987" class="cls-6" d="M27.617,32.729a9.975,9.975,0,0,1,.97-7.627,10.089,10.089,0,0,1,4.267-4,10.531,10.531,0,0,1,4.664-.98A9.915,9.915,0,1,1,27.7,32.951c-.024-.075-.055-.149-.082-.224" transform="translate(-26.941 -19.809)"/>
          <path id="Trazado_16988" data-name="Trazado 16988" class="cls-6" d="M37.33,40.415c-.118,0-.236,0-.355,0A10.236,10.236,0,0,1,27.553,33.2c-.014-.043-.031-.088-.047-.134l-.029-.077.275-.1-.283.079a10.3,10.3,0,0,1,5.4-11.986,10.759,10.759,0,0,1,4.809-1.013,10.227,10.227,0,0,1-.344,20.447m-9.268-7.635c.047.12.067.175.086.232a9.6,9.6,0,1,0,9.508-12.422,10.132,10.132,0,0,0-4.522.952,9.679,9.679,0,0,0-5.072,11.238" transform="translate(-27.097 -19.963)"/>
          <path id="Trazado_16989" data-name="Trazado 16989" class="cls-7" d="M36.635,38.315a8.8,8.8,0,1,1,.041,0h-.041" transform="translate(-26.402 -19.27)"/>
          <path id="Trazado_16990" data-name="Trazado 16990" class="cls-8" d="M30.953,31.6a1.019,1.019,0,0,1-1.013-1.013v-.833a1.482,1.482,0,0,1,.448-1.064l5.359-5.361,2.464,2.466-5.359,5.359a1.543,1.543,0,0,1-.489.332,1.47,1.47,0,0,1-.577.114Z" transform="translate(-24.357 -16.721)"/>
          <path id="Trazado_16991" data-name="Trazado 16991" class="cls-6" d="M36,24.407l1.74,1.74-5,5a1.006,1.006,0,0,1-.324.222.967.967,0,0,1-.379.075H31.2a.506.506,0,0,1-.5-.5v-.833a.972.972,0,0,1,.073-.379A1.012,1.012,0,0,1,31,29.4Zm0-1.449-.725.725-5,5a2.053,2.053,0,0,0-.442.65,2,2,0,0,0-.153.778v.833A1.532,1.532,0,0,0,31.2,32.466h.833a2,2,0,0,0,.778-.155,2.029,2.029,0,0,0,.652-.442l5-5,.725-.727-.725-.725-1.74-1.74Z" transform="translate(-24.608 -17.076)"/>
          <path id="Trazado_16992" data-name="Trazado 16992" class="cls-8" d="M32.754,24.113l1.066-1.066a.82.82,0,0,1,1.17,0l1.294,1.292a.827.827,0,0,1,0,1.168l-1.066,1.066Z" transform="translate(-21.645 -17.225)"/>
          <path id="Trazado_16993" data-name="Trazado 16993" class="cls-6" d="M34.76,23.567a.3.3,0,0,1,.222.092l1.3,1.3a.313.313,0,0,1,0,.444l-.7.7-1.74-1.74.7-.7a.3.3,0,0,1,.222-.092m0-1.025a1.329,1.329,0,0,0-.946.393l-.7.7-.727.725.727.727,1.738,1.738.727.727.725-.727.7-.7a1.337,1.337,0,0,0,0-1.893l-1.3-1.3a1.329,1.329,0,0,0-.946-.393" transform="translate(-22.002 -17.477)"/>
        </g>
      </g>
    </g>
  </g>
</svg>
