<svg xmlns="http://www.w3.org/2000/svg" xmlns:xlink="http://www.w3.org/1999/xlink" width="82" height="82" viewBox="0 0 82 82">
  <defs>
    <style>
      .cls-1 {
        fill: none;
      }

      .cls-2 {
        clip-path: url(#clip-iconSIDEMM);
      }

      .cls-3 {
        clip-path: url(#clip-path);
      }

      .cls-4 {
        opacity: 0.98;
      }

      .cls-5 {
        fill: #2a70b8;
      }

      .cls-6 {
        fill: #fefefe;
      }

      .cls-7 {
        fill: #9ac7fe;
      }

      .cls-8 {
        fill: #fdfefe;
      }
    </style>
    <clipPath id="clip-path">
      <rect id="Rect치ngulo_11063" data-name="Rect치ngulo 11063" class="cls-1" width="71.624" height="64.528"/>
    </clipPath>
    <clipPath id="clip-iconSIDEMM">
      <rect width="82" height="82"/>
    </clipPath>
  </defs>
  <g id="iconSIDEMM" class="cls-2">
    <g id="Grupo_22920" data-name="Grupo 22920" transform="translate(5.188 8.736)">
      <g id="Grupo_22670" data-name="Grupo 22670" class="cls-3">
        <g id="Grupo_22669" data-name="Grupo 22669">
          <g id="Grupo_22668" data-name="Grupo 22668" class="cls-3">
            <g id="Grupo_22667" data-name="Grupo 22667" class="cls-4">
              <g id="Grupo_22666" data-name="Grupo 22666">
                <g id="Grupo_22665" data-name="Grupo 22665" class="cls-3">
                  <path id="Trazado_16521" data-name="Trazado 16521" class="cls-5" d="M42.235,218.44c2.78-.991,5.46-1.946,8.14-2.9Q57.5,213,64.618,210.452a5.913,5.913,0,0,1,5.073.425,3.306,3.306,0,0,1,.183,5.923c-1.356.866-2.8,1.592-4.211,2.374-6.476,3.589-12.963,7.16-19.426,10.772a12.219,12.219,0,0,1-7.721,1.346c-3.222-.4-6.451-.75-9.663-1.227q-6.41-.954-12.818-1.921c-.762-.114-1.526-.216-2.287-.343a.491.491,0,0,0-.629.355,2.822,2.822,0,0,1-2.785,1.752q-3.649.005-7.3,0A2.861,2.861,0,0,1,0,226.871Q0,217.678,0,208.485a2.835,2.835,0,0,1,3.075-3.046c2.292-.006,4.587.052,6.877-.019a3.077,3.077,0,0,1,3.431,2.531c.961-.232,1.925-.468,2.89-.7a27.546,27.546,0,0,1,3.286-.687,9.78,9.78,0,0,1,4.948.664q7.646,3.226,15.257,6.534a4.081,4.081,0,0,1,2.58,3.1,5.08,5.08,0,0,1-.111,1.576" transform="translate(0.001 -166.887)"/>
                  <path id="Trazado_16522" data-name="Trazado 16522" class="cls-5" d="M76.335,34.983q-13.057,0-26.115.008a3.666,3.666,0,0,1-2.763-.964,3.565,3.565,0,0,1-1.025-2.67q.013-12.355,0-24.711c0-1.03,0-2.059,0-3.089A3.387,3.387,0,0,1,50.021,0q26.325,0,52.651,0a3.386,3.386,0,0,1,3.569,3.569q.006,13.9,0,27.8a3.344,3.344,0,0,1-3.58,3.607c-5.406.013-10.811,0-16.217,0H76.335" transform="translate(-37.724 -0.001)"/>
                  <path id="Trazado_16523" data-name="Trazado 16523" class="cls-6" d="M71.145,229.173c0-2.527.018-5.055-.014-7.581-.007-.559.18-.745.709-.858,1.6-.341,3.178-.76,4.77-1.128a8.145,8.145,0,0,1,5.09.41q7.617,3.213,15.2,6.512a2.305,2.305,0,0,1,1.681,2.122,2.411,2.411,0,0,1-1.818,2.247,5.221,5.221,0,0,1-4.093-.065q-4.152-1.782-8.309-3.553c-.275-.118-.548-.284-.87-.144a.8.8,0,0,0-.5.708.733.733,0,0,0,.507.761c.986.426,1.975.845,2.963,1.265,1.784.758,3.582,1.483,5.348,2.28a6.915,6.915,0,0,0,4.977.328c4.108-1.194,8.1-2.723,12.111-4.185,4.365-1.589,8.7-3.277,13.122-4.691a7.924,7.924,0,0,1,2.934-.6,3.415,3.415,0,0,1,2.317,1.023,1.633,1.633,0,0,1-.165,2.614,5.682,5.682,0,0,1-.824.531q-11.5,6.371-22.99,12.744a10.788,10.788,0,0,1-6.98,1.163c-3.8-.528-7.6-.98-11.4-1.511-3.563-.5-7.118-1.056-10.676-1.589-.808-.121-1.613-.283-2.425-.359-.537-.05-.685-.26-.679-.791.028-2.55.013-5.1.013-7.651" transform="translate(-57.789 -178.229)"/>
                  <path id="Trazado_16524" data-name="Trazado 16524" class="cls-7" d="M18.439,224.109q0,4.457,0,8.915c0,1.344-.424,1.76-1.756,1.761q-3.475,0-6.949,0c-1.1,0-1.571-.481-1.571-1.581,0-6.107.016-12.214-.018-18.32A1.478,1.478,0,0,1,9.7,213.31c2.41-.009,4.82-.013,7.23,0a1.354,1.354,0,0,1,1.5,1.532c.01,3.089,0,6.177,0,9.266" transform="translate(-6.615 -173.293)"/>
                  <path id="Trazado_16525" data-name="Trazado 16525" class="cls-7" d="M82.942,8.076c8.727,0,17.454.019,26.181-.022a2.067,2.067,0,0,1,2.166,2.15q-.068,13.827,0,27.655a2.126,2.126,0,0,1-2.2,2.228q-26.181-.017-52.363,0a2.129,2.129,0,0,1-2.205-2.229q.069-13.827,0-27.655A2.072,2.072,0,0,1,56.69,8.054c8.75.041,17.5.022,26.252.022" transform="translate(-44.291 -6.543)"/>
                  <path id="Trazado_16526" data-name="Trazado 16526" class="cls-5" d="M27.347,229.18c0,.7.012,1.4,0,2.1a1.1,1.1,0,0,1-1.173,1.192c-.84.02-1.682.023-2.522,0a1.171,1.171,0,0,1-1.217-1.251q-.026-2.1,0-4.2a1.086,1.086,0,0,1,1.192-1.159q1.261-.019,2.522,0a1.088,1.088,0,0,1,1.2,1.219c.012.7,0,1.4,0,2.1" transform="translate(-18.213 -183.487)"/>
                  <path id="Trazado_16527" data-name="Trazado 16527" class="cls-5" d="M33.01,280.437c0,.865.008,1.73,0,2.6-.008.637-.226.9-.721.9-.54.011-.8-.262-.808-.906q-.017-2.561,0-5.122c0-.679.306-1.031.806-1,.474.026.721.361.726,1,.005.842,0,1.684,0,2.526" transform="translate(-25.567 -224.966)"/>
                  <path id="Trazado_16528" data-name="Trazado 16528" class="cls-5" d="M83.859,40.96A8.577,8.577,0,0,1,74.985,32a8.88,8.88,0,0,1,17.758.068,8.566,8.566,0,0,1-8.885,8.892" transform="translate(-60.92 -18.899)"/>
                  <path id="Trazado_16529" data-name="Trazado 16529" class="cls-5" d="M208.614,29.82c1.731,0,3.462,0,5.193,0a1.233,1.233,0,0,1,1.408,1.354q.025,1.544,0,3.088a1.288,1.288,0,0,1-1.423,1.448q-5.228.019-10.456,0a1.208,1.208,0,0,1-1.331-1.356q-.012-1.614,0-3.228c.008-.91.411-1.3,1.344-1.306,1.754-.007,3.509,0,5.263,0" transform="translate(-164.111 -24.225)"/>
                  <path id="Trazado_16530" data-name="Trazado 16530" class="cls-5" d="M214.476,148.882h11.23a3.461,3.461,0,0,1,.56.014.741.741,0,0,1,.186,1.421,1.505,1.505,0,0,1-.687.1q-11.335,0-22.67,0a1.461,1.461,0,0,1-.486-.035.738.738,0,0,1-.574-.779.707.707,0,0,1,.65-.706,3.428,3.428,0,0,1,.56-.013h11.23" transform="translate(-164.139 -120.953)"/>
                  <path id="Trazado_16531" data-name="Trazado 16531" class="cls-5" d="M214.543,125.605q5.72,0,11.44,0c.455,0,.857.044.929.608a.667.667,0,0,1-.638.823,4.813,4.813,0,0,1-.561.011h-22.46a4.837,4.837,0,0,1-.631-.016.633.633,0,0,1-.584-.735.616.616,0,0,1,.573-.673,4.809,4.809,0,0,1,.631-.014h11.3" transform="translate(-164.143 -102.043)"/>
                  <path id="Trazado_16532" data-name="Trazado 16532" class="cls-5" d="M212.511,103.274q-4.631,0-9.263,0a2.718,2.718,0,0,1-.694-.052.669.669,0,0,1-.519-.668.7.7,0,0,1,.492-.759,1.736,1.736,0,0,1,.551-.061q9.4,0,18.807,0a1.732,1.732,0,0,1,.419.015.752.752,0,0,1,.666.776.741.741,0,0,1-.638.729,2.576,2.576,0,0,1-.629.023h-9.193" transform="translate(-164.139 -82.644)"/>
                  <path id="Trazado_16533" data-name="Trazado 16533" class="cls-5" d="M212.47,79.918q-4.734,0-9.468,0c-.722,0-.965-.189-.965-.713a.634.634,0,0,1,.609-.714,4.987,4.987,0,0,1,.561-.01h18.585c.117,0,.234,0,.351,0,.557.02.82.249.832.721s-.243.713-.826.714q-4.839.011-9.678,0" transform="translate(-164.141 -63.757)"/>
                  <path id="Trazado_16534" data-name="Trazado 16534" class="cls-5" d="M144.718,132.827a.518.518,0,0,1,.009-.139,1.374,1.374,0,0,0-.553-1.663c-.715-.615-.479-1.249.452-1.477a1.326,1.326,0,0,1,.413-.056.748.748,0,0,0,.814-.508c.22-.466.346-1.072,1.056-1.042.67.028.739.638.957,1.071a.727.727,0,0,0,.763.473,1.731,1.731,0,0,1,.552.068c.8.227.971.779.445,1.409a.942.942,0,0,1-.2.2,1.123,1.123,0,0,0-.447,1.44.971.971,0,0,1-.034.81.757.757,0,0,1-1.2.207,1.429,1.429,0,0,0-1.758-.023c-.849.493-1.3.178-1.274-.768" transform="translate(-116.792 -103.943)"/>
                  <path id="Trazado_16535" data-name="Trazado 16535" class="cls-5" d="M68.793,132.654c.528-.863-.056-1.457-.677-2.112a.653.653,0,0,1,.408-1.154,1.955,1.955,0,0,0,1.845-1.341c.22-.572.941-.509,1.306.019a1.307,1.307,0,0,1,.167.307c.2.575.5.985,1.208.9a1.145,1.145,0,0,1,.6.172.664.664,0,0,1,.267,1.048,1.178,1.178,0,0,1-.279.312,1.2,1.2,0,0,0-.52,1.556,1.251,1.251,0,0,1,.006.624.647.647,0,0,1-.874.535.981.981,0,0,1-.39-.145c-.618-.539-1.184-.357-1.818.015s-1.223.045-1.247-.735" transform="translate(-55.154 -103.702)"/>
                  <path id="Trazado_16536" data-name="Trazado 16536" class="cls-5" d="M106.976,132.629c.013-.054.043-.214.089-.369a.921.921,0,0,0-.346-1.111,2.207,2.207,0,0,1-.4-.394c-.412-.51-.271-1.161.359-1.236a2,2,0,0,0,1.852-1.373.681.681,0,0,1,1.131-.105,1.349,1.349,0,0,1,.306.462,1.15,1.15,0,0,0,1.235.9.863.863,0,0,1,.949.575.922.922,0,0,1-.433,1.03,1.164,1.164,0,0,0-.439,1.465.9.9,0,0,1-.272,1.08.79.79,0,0,1-1.03-.088,1.41,1.41,0,0,0-1.715.019c-.771.435-1.329.076-1.289-.85" transform="translate(-86.189 -103.823)"/>
                  <path id="Trazado_16537" data-name="Trazado 16537" class="cls-8" d="M30.655,237.258c0-1.07,0-2.069,0-3.067,0-.138.015-.276.026-.455a8.056,8.056,0,0,1,1.768-.044v3.566Z" transform="translate(-24.905 -189.837)"/>
                  <path id="Trazado_16538" data-name="Trazado 16538" class="cls-6" d="M87.484,40.042a5.273,5.273,0,0,0-2.06,3.742c-1.834-1.268-2.63-4.593-1.776-7.211A7.246,7.246,0,0,1,90.913,31.4a7.345,7.345,0,0,1,6.8,5.437c.885,3.111-.562,6.1-1.869,6.923a5.3,5.3,0,0,0-2.079-3.736,4.215,4.215,0,0,0,1.016-3.895,4.438,4.438,0,0,0-1.632-2.543,4.228,4.228,0,0,0-5.41.327c-1.7,1.629-1.8,3.82-.251,6.128" transform="translate(-67.68 -25.51)"/>
                  <path id="Trazado_16539" data-name="Trazado 16539" class="cls-6" d="M109.96,86.191c.124.472-.186.748-.708.965a7.491,7.491,0,0,1-6.177-.072.776.776,0,0,1-.538-.848,4.083,4.083,0,0,1,1.526-3.311.78.78,0,0,1,.831-.144,3.771,3.771,0,0,0,2.673.023.883.883,0,0,1,.954.2,3.921,3.921,0,0,1,1.441,3.188" transform="translate(-83.302 -67.204)"/>
                  <path id="Trazado_16540" data-name="Trazado 16540" class="cls-6" d="M107.785,49.833a2.651,2.651,0,0,1,2.733-2.672,2.706,2.706,0,1,1-2.733,2.672" transform="translate(-87.567 -38.315)"/>
                  <rect id="Rect치ngulo_11060" data-name="Rect치ngulo 11060" class="cls-6" width="10.074" height="2.747" transform="translate(39.462 7.162)"/>
                </g>
              </g>
            </g>
          </g>
        </g>
      </g>
    </g>
  </g>
</svg>
