<svg xmlns="http://www.w3.org/2000/svg" xmlns:xlink="http://www.w3.org/1999/xlink" width="82" height="82" viewBox="0 0 82 82">
  <defs>
    <style>
      .cls-1 {
        fill: none;
      }

      .cls-2 {
        clip-path: url(#clip-iconSASA);
      }

      .cls-3 {
        clip-path: url(#clip-path);
      }

      .cls-4 {
        fill: #9bc8fe;
      }

      .cls-5 {
        fill: #2e72b9;
      }

      .cls-6 {
        fill: #fdfcfd;
      }

      .cls-7 {
        fill: #276fba;
      }
    </style>
    <clipPath id="clip-path">
      <rect id="Rectángulo_11153" data-name="Rectángulo 11153" class="cls-1" width="64.264" height="64.177"/>
    </clipPath>
    <clipPath id="clip-iconSASA">
      <rect width="82" height="82"/>
    </clipPath>
  </defs>
  <g id="iconSASA" class="cls-2">
    <g id="Grupo_22918" data-name="Grupo 22918" transform="translate(8.868 8.912)">
      <g id="Grupo_22820" data-name="Grupo 22820" class="cls-3" transform="translate(0 0)">
        <path id="Trazado_16828" data-name="Trazado 16828" class="cls-4" d="M34.78,50.919A16.895,16.895,0,0,1,55.688,34.455a67.845,67.845,0,0,0,2-16.975V11.53a3.12,3.12,0,0,0-2.925-3.109,60.369,60.369,0,0,1-15.6-3,49.089,49.089,0,0,1-8.042-3.5,3.094,3.094,0,0,0-3.023,0,49.065,49.065,0,0,1-8.041,3.5,60.368,60.368,0,0,1-15.606,3A3.12,3.12,0,0,0,1.521,11.53v5.95c0,8.805,1.341,16.575,3.987,23.095a37.616,37.616,0,0,0,8.926,13.337,32.7,32.7,0,0,0,14.472,7.975,3.132,3.132,0,0,0,1.394,0,30.308,30.308,0,0,0,6.743-2.532,16.847,16.847,0,0,1-2.262-8.436" transform="translate(0.345 0.345)"/>
        <path id="Trazado_16829" data-name="Trazado 16829" class="cls-5" d="M39.411,22.1a4.71,4.71,0,0,1-1.464,3.466l-2.466,2.486c-2.586,2.6-5.512,5.543-8.48,8.461a4.965,4.965,0,0,1-7.017.244c-.079-.074-.156-.151-.231-.231q-2.085-2.013-4.1-4.105a5.031,5.031,0,1,1,6.94-7.285c.723.667,1.039.483,1.608-.1q3.292-3.375,6.666-6.669a5.011,5.011,0,0,1,8.54,3.735" transform="translate(3.197 3.836)"/>
        <path id="Trazado_16830" data-name="Trazado 16830" class="cls-6" d="M22.91,34.564a2.3,2.3,0,0,1-1.78-.748c-1.251-1.253-2.516-2.486-3.748-3.759a2.379,2.379,0,0,1-.234-3.354c.04-.047.085-.093.129-.137A2.349,2.349,0,0,1,20.6,26.5a2.385,2.385,0,0,1,.171.182c2.507,2.71,2.648,1.6,4.4-.12,2.114-2.076,4.195-4.195,6.291-6.278A2.439,2.439,0,1,1,34.85,23.7q-4.917,4.941-9.857,9.876a2.593,2.593,0,0,1-2.08.989" transform="translate(3.758 4.374)"/>
        <path id="Trazado_16831" data-name="Trazado 16831" class="cls-5" d="M52.133,51.723l-.6-1.684a9.93,9.93,0,0,0,1.27-1.8,9.388,9.388,0,0,0,.809-2.007l1.742-.4a1.8,1.8,0,0,0,1.147-.753,2.022,2.022,0,0,0,.391-1.283L56.84,43a1.847,1.847,0,0,0-.49-1.218,1.956,1.956,0,0,0-1.193-.626l-1.607-.234a8.629,8.629,0,0,0-.943-1.953,10.328,10.328,0,0,0-1.393-1.7l.519-1.477a2.2,2.2,0,0,0-.015-1.433,1.877,1.877,0,0,0-.905-1.065l-.586-.319a1.9,1.9,0,0,0-1.38-.194,2.165,2.165,0,0,0-1.207.756l-.969,1.255a10.3,10.3,0,0,0-2.181-.25,8.664,8.664,0,0,0-2.153.264l-1.067-1.223a1.9,1.9,0,0,0-1.191-.649,1.937,1.937,0,0,0-1.308.261l-.658.378a2,2,0,0,0-.862,1.016,1.8,1.8,0,0,0-.007,1.363l.568,1.664a9.546,9.546,0,0,0-2.078,3.812l-1.705.426a1.786,1.786,0,0,0-1.137.735,1.985,1.985,0,0,0-.382,1.266l.027.822a1.849,1.849,0,0,0,.49,1.218,1.955,1.955,0,0,0,1.193.626l1.607.234a8.629,8.629,0,0,0,.943,1.953,10.336,10.336,0,0,0,1.392,1.7l-.519,1.475a2.208,2.208,0,0,0,.015,1.434,1.882,1.882,0,0,0,.905,1.065l.586.319a1.905,1.905,0,0,0,1.38.194,2.158,2.158,0,0,0,1.207-.756l.969-1.254a11.151,11.151,0,0,0,2.172.267,7.4,7.4,0,0,0,2.163-.282l1.067,1.223a1.9,1.9,0,0,0,1.191.649,1.931,1.931,0,0,0,1.308-.261l.658-.378a2.122,2.122,0,0,0,.872-1.034,1.783,1.783,0,0,0,0-1.345m-5.89-2.6a5.491,5.491,0,1,1,3.283-2.643,5.305,5.305,0,0,1-3.283,2.643" transform="translate(7.375 7.426)"/>
        <path id="Trazado_16832" data-name="Trazado 16832" class="cls-7" d="M36.544,58.041a28.283,28.283,0,0,1-6.32,2.374,1.25,1.25,0,0,1-.556,0A30.738,30.738,0,0,1,16.06,52.9,35.757,35.757,0,0,1,7.582,40.221c-2.556-6.3-3.851-13.832-3.851-22.4V11.876A1.25,1.25,0,0,1,4.9,10.63a62.306,62.306,0,0,0,16.089-3.1,50.782,50.782,0,0,0,8.348-3.64,1.234,1.234,0,0,1,1.213,0A50.77,50.77,0,0,0,38.9,7.53a62.306,62.306,0,0,0,16.089,3.1,1.25,1.25,0,0,1,1.173,1.247v5.949A65.9,65.9,0,0,1,54.2,34.464a16.794,16.794,0,0,1,3.624.875A69.656,69.656,0,0,0,59.9,17.825V11.876A4.989,4.989,0,0,0,55.221,6.9,58.391,58.391,0,0,1,40.1,4,47.051,47.051,0,0,1,32.364.629a4.959,4.959,0,0,0-4.833,0A46.908,46.908,0,0,1,19.8,4,58.391,58.391,0,0,1,4.677,6.9,4.989,4.989,0,0,0,0,11.876v5.949c0,9.047,1.389,17.054,4.127,23.8A39.426,39.426,0,0,0,13.5,55.613,34.659,34.659,0,0,0,28.83,64.05a5.017,5.017,0,0,0,1.116.126,4.966,4.966,0,0,0,1.115-.126,32.441,32.441,0,0,0,7.35-2.785,16.843,16.843,0,0,1-1.869-3.224" transform="translate(0 0.001)"/>
      </g>
    </g>
  </g>
</svg>
