<svg xmlns="http://www.w3.org/2000/svg" xmlns:xlink="http://www.w3.org/1999/xlink" width="82" height="82" viewBox="0 0 82 82">
  <defs>
    <style>
      .cls-1 {
        fill: none;
      }

      .cls-2 {
        clip-path: url(#clip-iconSISPLAN);
      }

      .cls-3 {
        clip-path: url(#clip-path);
      }

      .cls-4 {
        fill: #fdfcfd;
      }

      .cls-5 {
        fill: #2e72b9;
      }

      .cls-6 {
        fill: #9bc8fe;
      }
    </style>
    <clipPath id="clip-path">
      <rect id="Rectángulo_11207" data-name="Rectángulo 11207" class="cls-1" width="54.017" height="61.239"/>
    </clipPath>
    <clipPath id="clip-iconSISPLAN">
      <rect width="82" height="82"/>
    </clipPath>
  </defs>
  <g id="iconSISPLAN" class="cls-2">
    <g id="Grupo_23023" data-name="Grupo 23023" transform="translate(-1608.986 -808.936)">
      <g id="Grupo_22992" data-name="Grupo 22992" transform="translate(1616.132 816.31)">
        <g id="Grupo_22927" data-name="Grupo 22927" class="cls-3">
          <path id="Trazado_16855" data-name="Trazado 16855" class="cls-4" d="M7.1,2.76H41.871A4.342,4.342,0,0,1,46.213,7.1V56.5a4.341,4.341,0,0,1-4.341,4.341H7.1A4.341,4.341,0,0,1,2.764,56.5V7.1A4.34,4.34,0,0,1,7.1,2.76" transform="translate(-1.662 -1.659)"/>
          <path id="Trazado_16856" data-name="Trazado 16856" class="cls-5" d="M38.793,2.2a4.657,4.657,0,0,1,4.657,4.657V53.424a4.658,4.658,0,0,1-4.657,4.658H6.859A4.658,4.658,0,0,1,2.2,53.424V6.859A4.657,4.657,0,0,1,6.859,2.2Zm0-2.2H6.859A6.867,6.867,0,0,0,0,6.859V53.424a6.867,6.867,0,0,0,6.859,6.859H38.793a6.867,6.867,0,0,0,6.855-6.859V6.859A6.867,6.867,0,0,0,38.793,0"/>
          <path id="Trazado_16857" data-name="Trazado 16857" class="cls-5" d="M35.1,84.916H21.183a3.058,3.058,0,0,1-.653-.027.731.731,0,0,1-.635-.772.708.708,0,0,1,.618-.708,3.314,3.314,0,0,1,.653-.034H49.213c.145,0,.292-.007.437,0,.5.035.856.242.837.8-.017.506-.351.714-.82.74-.193.011-.389,0-.581,0H35.1" transform="translate(-11.961 -50.129)"/>
          <path id="Trazado_16858" data-name="Trazado 16858" class="cls-5" d="M35.234,101.319H21.32c-.195,0-.39.007-.581,0-.473-.027-.813-.258-.83-.747-.014-.532.348-.765.847-.8.145-.01.291,0,.437,0H49.245a2.875,2.875,0,0,1,.72.064.681.681,0,0,1,.543.687.7.7,0,0,1-.559.747,2.813,2.813,0,0,1-.722.048q-6.994,0-13.987,0" transform="translate(-11.97 -59.981)"/>
          <path id="Trazado_16859" data-name="Trazado 16859" class="cls-5" d="M29.427,117.749H21.21a3.473,3.473,0,0,1-.653-.028.724.724,0,0,1-.652-.754.74.74,0,0,1,.668-.747,2.606,2.606,0,0,1,.508-.024H37.815a2.532,2.532,0,0,1,.581.034.753.753,0,0,1-.017,1.481,3.046,3.046,0,0,1-.652.034H29.435" transform="translate(-11.968 -69.862)"/>
          <path id="Trazado_16860" data-name="Trazado 16860" class="cls-5" d="M35.1,52.067H21.183a3.059,3.059,0,0,1-.653-.027.731.731,0,0,1-.635-.772.708.708,0,0,1,.618-.708,3.314,3.314,0,0,1,.653-.034H49.213c.145,0,.292-.007.437,0,.5.035.856.242.837.8-.017.506-.351.714-.82.74-.193.011-.389,0-.581,0H35.1" transform="translate(-11.961 -30.378)"/>
          <path id="Trazado_16861" data-name="Trazado 16861" class="cls-5" d="M35.234,68.47H21.32c-.195,0-.39.007-.581,0-.473-.027-.813-.258-.83-.747-.014-.532.348-.765.847-.8.145-.01.291,0,.437,0H49.245a2.876,2.876,0,0,1,.72.064.681.681,0,0,1,.543.687.7.7,0,0,1-.559.747,2.813,2.813,0,0,1-.722.048q-6.994,0-13.987,0" transform="translate(-11.97 -40.231)"/>
          <path id="Trazado_16862" data-name="Trazado 16862" class="cls-5" d="M35.1,35.652H21.183a3.059,3.059,0,0,1-.653-.027.731.731,0,0,1-.635-.772.708.708,0,0,1,.618-.708,3.314,3.314,0,0,1,.653-.034H49.213c.145,0,.292-.007.437,0,.5.035.856.242.837.8-.017.506-.351.714-.82.74-.193.011-.389,0-.581,0H35.1" transform="translate(-11.961 -20.508)"/>
        </g>
      </g>
      <g id="Grupo_22993" data-name="Grupo 22993" transform="translate(1629.823 822.324)">
        <g id="Grupo_22927-2" data-name="Grupo 22927" class="cls-3">
          <path id="Trazado_16855-2" data-name="Trazado 16855" class="cls-4" d="M7.1,2.76H41.871A4.342,4.342,0,0,1,46.213,7.1V56.5a4.341,4.341,0,0,1-4.341,4.341H7.1A4.341,4.341,0,0,1,2.764,56.5V7.1A4.34,4.34,0,0,1,7.1,2.76" transform="translate(-1.662 -1.659)"/>
          <path id="Trazado_16856-2" data-name="Trazado 16856" class="cls-5" d="M38.793,2.2a4.657,4.657,0,0,1,4.657,4.657V53.424a4.658,4.658,0,0,1-4.657,4.658H6.859A4.658,4.658,0,0,1,2.2,53.424V6.859A4.657,4.657,0,0,1,6.859,2.2Zm0-2.2H6.859A6.867,6.867,0,0,0,0,6.859V53.424a6.867,6.867,0,0,0,6.859,6.859H38.793a6.867,6.867,0,0,0,6.855-6.859V6.859A6.867,6.867,0,0,0,38.793,0"/>
          <path id="Trazado_16857-2" data-name="Trazado 16857" class="cls-5" d="M35.1,84.916H21.183a3.058,3.058,0,0,1-.653-.027.731.731,0,0,1-.635-.772.708.708,0,0,1,.618-.708,3.314,3.314,0,0,1,.653-.034H49.213c.145,0,.292-.007.437,0,.5.035.856.242.837.8-.017.506-.351.714-.82.74-.193.011-.389,0-.581,0H35.1" transform="translate(-11.961 -50.129)"/>
          <path id="Trazado_16858-2" data-name="Trazado 16858" class="cls-5" d="M35.234,101.319H21.32c-.195,0-.39.007-.581,0-.473-.027-.813-.258-.83-.747-.014-.532.348-.765.847-.8.145-.01.291,0,.437,0H49.245a2.875,2.875,0,0,1,.72.064.681.681,0,0,1,.543.687.7.7,0,0,1-.559.747,2.813,2.813,0,0,1-.722.048q-6.994,0-13.987,0" transform="translate(-11.97 -59.981)"/>
          <path id="Trazado_16859-2" data-name="Trazado 16859" class="cls-5" d="M29.427,117.749H21.21a3.473,3.473,0,0,1-.653-.028.724.724,0,0,1-.652-.754.74.74,0,0,1,.668-.747,2.606,2.606,0,0,1,.508-.024H37.815a2.532,2.532,0,0,1,.581.034.753.753,0,0,1-.017,1.481,3.046,3.046,0,0,1-.652.034H29.435" transform="translate(-11.968 -69.862)"/>
          <path id="Trazado_16860-2" data-name="Trazado 16860" class="cls-5" d="M35.1,52.067H21.183a3.059,3.059,0,0,1-.653-.027.731.731,0,0,1-.635-.772.708.708,0,0,1,.618-.708,3.314,3.314,0,0,1,.653-.034H49.213c.145,0,.292-.007.437,0,.5.035.856.242.837.8-.017.506-.351.714-.82.74-.193.011-.389,0-.581,0H35.1" transform="translate(-11.961 -30.378)"/>
          <path id="Trazado_16861-2" data-name="Trazado 16861" class="cls-5" d="M35.234,68.47H21.32c-.195,0-.39.007-.581,0-.473-.027-.813-.258-.83-.747-.014-.532.348-.765.847-.8.145-.01.291,0,.437,0H49.245a2.876,2.876,0,0,1,.72.064.681.681,0,0,1,.543.687.7.7,0,0,1-.559.747,2.813,2.813,0,0,1-.722.048q-6.994,0-13.987,0" transform="translate(-11.97 -40.231)"/>
          <path id="Trazado_16862-2" data-name="Trazado 16862" class="cls-5" d="M35.1,35.652H21.183a3.059,3.059,0,0,1-.653-.027.731.731,0,0,1-.635-.772.708.708,0,0,1,.618-.708,3.314,3.314,0,0,1,.653-.034H49.213c.145,0,.292-.007.437,0,.5.035.856.242.837.8-.017.506-.351.714-.82.74-.193.011-.389,0-.581,0H35.1" transform="translate(-11.961 -20.508)"/>
          <path id="Trazado_16863" data-name="Trazado 16863" class="cls-5" d="M68.958,103.351a13.226,13.226,0,0,1,1.285-10.109,13.378,13.378,0,0,1,5.657-5.3,13.936,13.936,0,0,1,6.18-1.3,13.142,13.142,0,1,1-13.014,17c-.031-.1-.071-.2-.109-.3" transform="translate(-41.176 -52.095)"/>
          <path id="Trazado_16864" data-name="Trazado 16864" class="cls-5" d="M81.006,112.706q-.235,0-.472-.007a13.565,13.565,0,0,1-12.487-9.559c-.019-.057-.041-.117-.064-.175l-.038-.1.364-.134-.375.1A13.652,13.652,0,0,1,75.09,86.944,14.251,14.251,0,0,1,81.463,85.6a13.554,13.554,0,0,1-.456,27.1m-12.283-10.12c.061.16.089.232.114.306a12.728,12.728,0,1,0,12.6-16.462,13.415,13.415,0,0,0-5.993,1.26,12.828,12.828,0,0,0-6.723,14.895" transform="translate(-40.551 -51.467)"/>
          <path id="Trazado_16865" data-name="Trazado 16865" class="cls-6" d="M83.831,113.7a11.657,11.657,0,1,1,.056,0h-.056" transform="translate(-43.378 -54.313)"/>
          <path id="Trazado_16866" data-name="Trazado 16866" class="cls-4" d="M86.079,115.879a1.98,1.98,0,0,1-.968-.254l-.35-.191a1.931,1.931,0,0,1-.931-1.1,2.152,2.152,0,0,1-.01-1.386l.162-.462a7.178,7.178,0,0,1-.609-.8,6.117,6.117,0,0,1-.49-.915l-.526-.077a1.986,1.986,0,0,1-1.21-.64,1.931,1.931,0,0,1-.505-1.266l-.016-.5a2.013,2.013,0,0,1,.387-1.276,1.881,1.881,0,0,1,1.169-.758l.6-.149a6.514,6.514,0,0,1,1-1.84l-.2-.583a1.889,1.889,0,0,1,.017-1.421,2.006,2.006,0,0,1,.863-1.006l.406-.234a1.966,1.966,0,0,1,1.021-.282,2.026,2.026,0,0,1,.305.024,1.957,1.957,0,0,1,1.218.676l.341.39a6.117,6.117,0,0,1,1.006-.084,7.349,7.349,0,0,1,1.03.078l.3-.386a2.133,2.133,0,0,1,1.191-.753,1.937,1.937,0,0,1,.452-.053,1.971,1.971,0,0,1,.966.254l.349.189a1.957,1.957,0,0,1,.931,1.1,2.165,2.165,0,0,1,.012,1.387l-.163.463a7.1,7.1,0,0,1,.608.8,6.136,6.136,0,0,1,.49.915l.525.076a2,2,0,0,1,1.209.642,1.915,1.915,0,0,1,.506,1.266l.028.45a2.059,2.059,0,0,1-.394,1.309,1.873,1.873,0,0,1-1.2.774l-.6.14a6.669,6.669,0,0,1-.421.941,6.893,6.893,0,0,1-.577.884l.182.508.029.069a1.885,1.885,0,0,1,0,1.428,2.1,2.1,0,0,1-.864,1.017l-.416.24a1.971,1.971,0,0,1-1.021.282,2.01,2.01,0,0,1-.305-.024,1.96,1.96,0,0,1-1.216-.667l-.336-.387a5.3,5.3,0,0,1-.96.087H89a7.706,7.706,0,0,1-.988-.089l-.3.384a2.149,2.149,0,0,1-1.188.754,1.954,1.954,0,0,1-.453.053m2.828-10.208a2.586,2.586,0,1,0,.62,5.1l.1-.031a2.584,2.584,0,0,0-.723-5.064" transform="translate(-48.477 -60.509)"/>
          <path id="Trazado_16867" data-name="Trazado 16867" class="cls-5" d="M90.531,100.231a1.167,1.167,0,0,1,.573.151l.362.2a1.167,1.167,0,0,1,.556.655,1.364,1.364,0,0,1,.01.881l-.32.907a6.29,6.29,0,0,1,.855,1.042,5.291,5.291,0,0,1,.581,1.2l.987.143a1.2,1.2,0,0,1,.731.386,1.124,1.124,0,0,1,.3.747l.029.483a1.243,1.243,0,0,1-.24.789,1.108,1.108,0,0,1-.7.463l-1.071.249a5.777,5.777,0,0,1-.5,1.233,6.062,6.062,0,0,1-.78,1.108l.371,1.034h0a1.1,1.1,0,0,1,0,.827,1.3,1.3,0,0,1-.537.634l-.4.232a1.2,1.2,0,0,1-.623.175,1.226,1.226,0,0,1-.915-.413l-.655-.752a4.546,4.546,0,0,1-1.246.175h-.083a6.833,6.833,0,0,1-1.335-.165l-.595.77a1.337,1.337,0,0,1-.739.466,1.179,1.179,0,0,1-.848-.12l-.36-.2a1.151,1.151,0,0,1-.556-.654,1.354,1.354,0,0,1-.009-.881l.318-.906a6.391,6.391,0,0,1-.855-1.044,5.3,5.3,0,0,1-.58-1.2l-.987-.144a1.2,1.2,0,0,1-.732-.385,1.138,1.138,0,0,1-.3-.748l-.017-.506a1.218,1.218,0,0,1,.234-.778,1.1,1.1,0,0,1,.7-.451l1.047-.261a6.119,6.119,0,0,1,.5-1.245,6,6,0,0,1,.774-1.1l-.349-1.023a1.1,1.1,0,0,1,0-.838,1.222,1.222,0,0,1,.528-.624l.4-.232a1.2,1.2,0,0,1,.806-.161,1.17,1.17,0,0,1,.731.4l.656.751a5.294,5.294,0,0,1,1.3-.162h.023a6.312,6.312,0,0,1,1.34.153l.6-.77a1.32,1.32,0,0,1,.739-.464,1.156,1.156,0,0,1,.274-.033m-2.824,10.206a3.381,3.381,0,0,0,.954-.138l0,0,.012,0a3.369,3.369,0,1,0-.962.144m2.824-11.8a2.745,2.745,0,0,0-.64.075,2.929,2.929,0,0,0-1.619,1.022l-.007.009-.007.009-.023.03c-.213-.019-.427-.029-.641-.031h-.035q-.344,0-.687.034l-.061-.07a2.762,2.762,0,0,0-1.706-.939,2.792,2.792,0,0,0-1.85.366l-.389.224a2.83,2.83,0,0,0-1.213,1.416,2.678,2.678,0,0,0-.02,1.976l.06.177c-.138.2-.267.411-.385.626s-.227.446-.323.674l-.18.045a2.681,2.681,0,0,0-1.646,1.078,2.822,2.822,0,0,0-.531,1.769l.016.488a2.729,2.729,0,0,0,.721,1.784,2.786,2.786,0,0,0,1.685.884l.093.014a6.881,6.881,0,0,0,.358.62q.179.273.378.529l-.008.024,0,.013,0,.013a2.962,2.962,0,0,0,.015,1.9,2.735,2.735,0,0,0,1.309,1.538l.344.187a2.773,2.773,0,0,0,1.987.275,2.942,2.942,0,0,0,1.616-1.02l.009-.011.009-.011.018-.023q.305.03.61.037H87.9a6.173,6.173,0,0,0,.643-.034l.055.063a2.757,2.757,0,0,0,1.706.93,2.8,2.8,0,0,0,1.846-.366l.389-.224.014-.008.013-.008a2.914,2.914,0,0,0,1.2-1.413,2.673,2.673,0,0,0-.005-2.015l-.028-.068-.029-.083q.206-.3.382-.625t.311-.644l.2-.045a2.682,2.682,0,0,0,1.668-1.1,2.845,2.845,0,0,0,.533-1.778v-.028l-.028-.458a2.719,2.719,0,0,0-.719-1.754,2.8,2.8,0,0,0-1.7-.89l-.085-.012a6.77,6.77,0,0,0-.36-.621q-.177-.271-.376-.526l.008-.023.006-.016.005-.016a2.975,2.975,0,0,0-.017-1.9,2.751,2.751,0,0,0-1.313-1.541l-.341-.185a2.764,2.764,0,0,0-1.343-.349m-2.824,10.206a1.8,1.8,0,0,1-1.717-1.288,1.783,1.783,0,0,1,1.716-2.288,1.79,1.79,0,0,1,1.712,1.283,1.783,1.783,0,0,1-1.193,2.213h0l-.021.006-.089.026a1.777,1.777,0,0,1-.4.047" transform="translate(-47.275 -59.306)"/>
        </g>
      </g>
    </g>
  </g>
</svg>
