<svg xmlns="http://www.w3.org/2000/svg" xmlns:xlink="http://www.w3.org/1999/xlink" width="82" height="82" viewBox="0 0 82 82">
  <defs>
    <style>
      .cls-1 {
        fill: none;
      }

      .cls-2 {
        clip-path: url(#clip-iconSIDE);
      }

      .cls-3 {
        clip-path: url(#clip-path);
      }

      .cls-4 {
        fill: #9bc8fe;
      }

      .cls-5 {
        fill: #2e72b9;
      }

      .cls-6 {
        fill: #fdfcfd;
      }
    </style>
    <clipPath id="clip-path">
      <rect id="Rectángulo_11094" data-name="Rectángulo 11094" class="cls-1" width="65.539" height="64.404"/>
    </clipPath>
    <clipPath id="clip-iconSIDE">
      <rect width="82" height="82"/>
    </clipPath>
  </defs>
  <g id="iconSIDE" class="cls-2">
    <g id="Grupo_22919" data-name="Grupo 22919" transform="translate(8.23 8.798)">
      <g id="Enmascarar_grupo_22733" data-name="Enmascarar grupo 22733" class="cls-3">
        <path id="Trazado_16655" data-name="Trazado 16655" class="cls-4" d="M63.175,31.084l1.424,0a2.949,2.949,0,0,0,1.862.472,6.225,6.225,0,0,1,3.117.718,4.838,4.838,0,0,1,2.482,4.315c.067,3.232.026,6.466.014,9.7,0,.814-.161.952-.971.98-.22.008-.44,0-.66,0H11.781c-1.636,0-1.637,0-1.637-1.643,0-2.947-.034-5.9.011-8.842a4.908,4.908,0,0,1,3.212-4.846,6.4,6.4,0,0,1,2.4-.384,2.919,2.919,0,0,0,1.863-.472l1.424,0c.265.244.18.57.193.868a21.623,21.623,0,0,0,.073,2.3,4.489,4.489,0,0,0,8.938-.662c.018-.593,0-1.186.008-1.779.006-.256-.045-.536.2-.731l1.425.008a2.319,2.319,0,0,0,1.76.481,16.116,16.116,0,0,1,1.826,0,1.42,1.42,0,0,0,1.455-.62,1.71,1.71,0,0,0,.367.127c1.035.114,1.045.08,1.076-.954a6.6,6.6,0,0,1,.1-2.078c.274.237.2.564.207.862.009,1.6.017,3.206,0,4.809a4.432,4.432,0,0,0,8.865,0c.009-1.6,0-3.206.006-4.809,0-.3-.067-.624.206-.862a6.559,6.559,0,0,1,.1,2.078c.03,1.035.041,1.068,1.075.955a1.7,1.7,0,0,0,.366-.127,1.421,1.421,0,0,0,1.46.622c.653-.036,1.311-.031,1.964,0a2.1,2.1,0,0,0,1.581-.458l1.461-.032c.244.195.194.475.2.731.013.637-.01,1.275.008,1.911a4.6,4.6,0,0,0,3.612,4.317,4.523,4.523,0,0,0,5.235-3.335,13.173,13.173,0,0,0,.164-2.755c.01-.3-.073-.624.192-.868" transform="translate(-8.345 -23.098)"/>
        <path id="Trazado_16656" data-name="Trazado 16656" class="cls-5" d="M65.515,44.337h0a6.655,6.655,0,0,0-4.464-6.159,8.81,8.81,0,0,0-3.056-.4c-.21,0-.42,0-.629-.009a1.442,1.442,0,0,0-1.631,1.215l-.028.137.043.133a1.46,1.46,0,0,0,1.669,1.057,5.476,5.476,0,0,1,.67-.008l.262.006a4.323,4.323,0,0,1,4.64,4.7q0,1.234,0,2.468v.118c0,2.2-.007,4.479.019,6.724a1.3,1.3,0,0,1-.013.235,1.614,1.614,0,0,1-.267.016c-7.612-.016-15.266-.016-23.09-.014H28.569c-8.465,0-17.219,0-25.831.012a1.692,1.692,0,0,1-.2-.01,1.314,1.314,0,0,1-.008-.175c.017-1.709.015-3.444.014-5.132,0-1.495,0-3.041.009-4.569a4.191,4.191,0,0,1,1.865-3.61,6,6,0,0,1,3.735-.751,1.5,1.5,0,0,0,1.634-1.063l.043-.133L9.8,38.989a1.445,1.445,0,0,0-1.653-1.212c-.236.017-.482.012-.719.008H7.393l-.332,0A6.743,6.743,0,0,0,0,44.8C0,59.329,0,74.028,0,88.493A6.7,6.7,0,0,0,7,95.5c8.367.006,16.834.007,25.184.007H58.538a7.236,7.236,0,0,0,2.579-.411,6.782,6.782,0,0,0,4.414-6.672q.005-15.484,0-30.968V54.176q0-1.265,0-2.529V51.52c0-2.352.009-4.784-.02-7.184" transform="translate(0 -31.107)"/>
        <path id="Trazado_16657" data-name="Trazado 16657" class="cls-5" d="M67.817,8.44V8.408c0-.279-.005-.558-.008-.852,0-.606-.01-1.233-.025-1.86A5.276,5.276,0,0,0,57.3,4.958a10.557,10.557,0,0,0-.092,1.975,11.8,11.8,0,0,1-.031,1.427l0,.067,0,.049a12.855,12.855,0,0,1,.029,1.4,10.436,10.436,0,0,0,.117,2.13,5.267,5.267,0,0,0,10.348,0,10.34,10.34,0,0,0,.118-2.134,12.735,12.735,0,0,1,.029-1.4Z" transform="translate(-47.083 -0.431)"/>
        <path id="Trazado_16658" data-name="Trazado 16658" class="cls-5" d="M264.241,8.024V7.985c0-.275-.006-.55-.009-.833-.006-.594-.012-1.207-.027-1.813a5.4,5.4,0,0,0-4.8-5.309,5.3,5.3,0,0,0-5.871,4.481,10.11,10.11,0,0,0-.1,2.053,11.952,11.952,0,0,1-.02,1.363l-.006.066.006.066a11.891,11.891,0,0,1,.021,1.384,9.147,9.147,0,0,0,.15,2.313,5.5,5.5,0,0,0,5.232,4.2h.114a5.481,5.481,0,0,0,5.157-4.42,10.376,10.376,0,0,0,.112-2.1,12.311,12.311,0,0,1,.028-1.373Z" transform="translate(-208.706 -0.008)"/>
        <path id="Trazado_16659" data-name="Trazado 16659" class="cls-5" d="M166.04,10.388c-.044-1.245-.032-2.521-.02-3.755.005-.561.011-1.123.011-1.7l0-.057a5.367,5.367,0,0,0-10.689.02l0,.057c0,.613,0,1.225-.008,1.839-.011,1.367-.022,2.781.039,4.181a5.1,5.1,0,0,0,1.732,3.619,5.324,5.324,0,0,0,3.539,1.342c.132,0,.265,0,.394-.015a5.31,5.31,0,0,0,5.009-5.528" transform="translate(-127.916)"/>
        <path id="Trazado_16660" data-name="Trazado 16660" class="cls-5" d="M123.259,37.3h-.028c-1.089.013-2.1.013-3.078,0h-.035a1.492,1.492,0,0,0-1.6,1.3l-.03.157.05.152a1.543,1.543,0,0,0,1.613,1.119l.1,0c.87-.031,1.815-.032,2.973,0a1.375,1.375,0,0,0,1.557-1.424l0-.09-.023-.087a1.427,1.427,0,0,0-1.5-1.117" transform="translate(-97.582 -30.72)"/>
        <path id="Trazado_16661" data-name="Trazado 16661" class="cls-5" d="M223.5,38.605a1.521,1.521,0,0,0-1.74-1.342c-.889.033-1.8.021-2.673.009l-.3,0a1.426,1.426,0,0,0-1.5,1.119l-.022.086,0,.089a1.384,1.384,0,0,0,1.563,1.425c1.005-.025,2.035-.025,3.061,0h.064a1.447,1.447,0,0,0,1.529-1.122l.036-.129Z" transform="translate(-178.936 -30.687)"/>
        <path id="Trazado_16662" data-name="Trazado 16662" class="cls-6" d="M45.723,147.214q14.61,0,29.22-.013c.582,0,.746.14.745.738q-.029,15.125-.015,30.25a4.661,4.661,0,0,1-4.95,4.964q-25.037,0-50.073,0a4.659,4.659,0,0,1-4.946-4.967q0-15.125-.015-30.25c0-.6.174-.735.749-.734q14.642.025,29.284.012" transform="translate(-12.921 -121.23)"/>
        <path id="Trazado_16663" data-name="Trazado 16663" class="cls-6" d="M75.813,18.2c0,.9.026,1.8-.005,2.7a3.126,3.126,0,0,1-6.25-.034q-.042-2.7,0-5.408a3.125,3.125,0,0,1,6.246-.032c.034.922.006,1.846.006,2.77h0" transform="translate(-57.268 -10.233)"/>
        <path id="Trazado_16664" data-name="Trazado 16664" class="cls-6" d="M272.5,18.16c0,.9.019,1.8,0,2.7a3.084,3.084,0,0,1-3.074,3.059,3.049,3.049,0,0,1-3.175-3.014q-.059-2.736,0-5.474a3.125,3.125,0,0,1,6.246.02c.026.9,0,1.8.005,2.7" transform="translate(-219.25 -10.232)"/>
        <path id="Trazado_16665" data-name="Trazado 16665" class="cls-6" d="M167.788,18.154c0-.858-.016-1.716,0-2.573a3.155,3.155,0,0,1,6.31,0c.026,1.715.022,3.431,0,5.146a3.158,3.158,0,1,1-6.315,0c-.011-.858,0-1.715,0-2.573" transform="translate(-138.181 -10.237)"/>
        <path id="Trazado_16666" data-name="Trazado 16666" class="cls-5" d="M131.413,170.837a1.142,1.142,0,0,0-2.1.208l-.572,1.89A13.473,13.473,0,0,0,123,167.723c-6.861-3.369-15.608-1.225-19.5,4.78a11.9,11.9,0,0,0-1.45,3.154,1.142,1.142,0,0,0,.779,1.414,1.141,1.141,0,0,0,1.415-.779,9.6,9.6,0,0,1,1.173-2.548c3.283-5.067,10.72-6.849,16.577-3.972a11.231,11.231,0,0,1,4.748,4.257l-2.407-.553a1.142,1.142,0,1,0-.512,2.225l5.013,1.151a1.155,1.155,0,0,0,.255.029,1.136,1.136,0,0,0,1.092-.811l1.321-4.364a1.135,1.135,0,0,0-.086-.87" transform="translate(-84.004 -136.818)"/>
        <path id="Trazado_16667" data-name="Trazado 16667" class="cls-4" d="M235.416,255.882a6.645,6.645,0,1,1-6.645-6.645,6.645,6.645,0,0,1,6.645,6.645" transform="translate(-182.935 -205.264)"/>
        <path id="Trazado_16668" data-name="Trazado 16668" class="cls-5" d="M223.619,242.981a7.749,7.749,0,1,0,7.749,7.749,7.758,7.758,0,0,0-7.749-7.749m0,13.291a5.542,5.542,0,1,1,5.542-5.542,5.548,5.548,0,0,1-5.542,5.542" transform="translate(-177.784 -200.112)"/>
        <path id="Trazado_16669" data-name="Trazado 16669" class="cls-4" d="M87.315,255.882a6.645,6.645,0,1,1-6.645-6.645,6.645,6.645,0,0,1,6.645,6.645" transform="translate(-60.964 -205.264)"/>
        <path id="Trazado_16670" data-name="Trazado 16670" class="cls-5" d="M75.518,242.981a7.749,7.749,0,1,0,7.749,7.749,7.758,7.758,0,0,0-7.749-7.749m0,13.291a5.542,5.542,0,1,1,5.542-5.542,5.548,5.548,0,0,1-5.542,5.542" transform="translate(-55.812 -200.112)"/>
      </g>
    </g>
  </g>
</svg>
