<svg xmlns="http://www.w3.org/2000/svg" xmlns:xlink="http://www.w3.org/1999/xlink" width="117" height="62" viewBox="0 0 117 62">
  <defs>
    <style>
      .cls-1 {
        fill: none;
      }

      .cls-2 {
        clip-path: url(#clip-iconETLV);
      }

      .cls-3 {
        clip-path: url(#clip-path);
      }

      .cls-4 {
        fill: #fff;
      }

      .cls-5 {
        fill: #276fba;
      }

      .cls-6 {
        fill: #2d72b9;
      }

      .cls-7 {
        fill: #9bc8fe;
      }
    </style>
    <clipPath id="clip-path">
      <rect id="Rectángulo_11152" data-name="Rectángulo 11152" class="cls-1" width="115.982" height="58.912" transform="translate(0 0)"/>
    </clipPath>
    <clipPath id="clip-iconETLV">
      <rect width="117" height="62"/>
    </clipPath>
  </defs>
  <g id="iconETLV" class="cls-2">
    <g id="Grupo_22890" data-name="Grupo 22890" transform="translate(0 1)">
      <g id="Grupo_22818" data-name="Grupo 22818" class="cls-3" transform="translate(0 0)">
        <path id="Trazado_16818" data-name="Trazado 16818" class="cls-4" d="M81.294,12.515c.12,0,.238.006.354.01s.237-.01.356-.01Z" transform="translate(17.859 2.749)"/>
        <path id="Trazado_16819" data-name="Trazado 16819" class="cls-5" d="M81.676,13.654H81.5c-.068,0-.135,0-.2,0v-1.92h.711v1.915c-.068,0-.135,0-.2,0Z" transform="translate(17.859 2.577)"/>
        <path id="Trazado_16820" data-name="Trazado 16820" class="cls-4" d="M84.38,12.522A15.809,15.809,0,0,0,68.863,28.385c0,4.487,1.862,7.882,4.324,11.548,2.628,3.886,6.021,8.046,8.374,13.354A3.172,3.172,0,0,0,84.354,55.2,3.1,3.1,0,0,0,87.2,53.289c2.354-5.309,5.747-9.468,8.374-13.354,2.463-3.666,4.324-7.061,4.324-11.548A15.809,15.809,0,0,0,84.38,12.522m-.021,23.886a6.021,6.021,0,1,1,6.02-6.02,6.021,6.021,0,0,1-6.02,6.02" transform="translate(15.128 2.751)"/>
        <path id="Trazado_16821" data-name="Trazado 16821" class="cls-6" d="M84.525,56.333a4.141,4.141,0,0,1-3.665-2.482,58.975,58.975,0,0,0-6.32-10.388c-.685-.964-1.35-1.9-1.973-2.822-2.273-3.382-4.49-7.1-4.49-12.085A16.712,16.712,0,0,1,84.532,11.737h.041a16.712,16.712,0,0,1,16.454,16.819c0,4.986-2.216,8.7-4.487,12.082-.623.923-1.292,1.86-1.974,2.822a59.077,59.077,0,0,0-6.32,10.387,4.062,4.062,0,0,1-3.721,2.485m.028-41.819A14.184,14.184,0,0,0,70.609,28.788c0,3.86,1.461,6.791,3.985,10.548.587.868,1.217,1.754,1.864,2.665a58.91,58.91,0,0,1,6.234,10.265,2.13,2.13,0,0,0,1.833,1.288,2.038,2.038,0,0,0,1.883-1.273A58.938,58.938,0,0,1,92.648,42c.646-.911,1.276-1.8,1.865-2.666,2.522-3.755,3.983-6.686,3.983-10.547A14.184,14.184,0,0,0,84.553,14.514m-.022,23.395a7.35,7.35,0,1,1,7.351-7.351,7.351,7.351,0,0,1-7.351,7.351m0-12.411a5.062,5.062,0,1,0,5.062,5.063A5.063,5.063,0,0,0,84.532,25.5" transform="translate(14.955 2.578)"/>
        <path id="Trazado_16822" data-name="Trazado 16822" class="cls-4" d="M13.218,12.515c.12,0,.238.006.355.01s.237-.01.356-.01Z" transform="translate(2.904 2.749)"/>
        <path id="Trazado_16823" data-name="Trazado 16823" class="cls-5" d="M13.6,13.654h-.177c-.068,0-.135,0-.2,0v-1.92h.711v1.915c-.068,0-.135,0-.2,0Z" transform="translate(2.904 2.577)"/>
        <path id="Trazado_16824" data-name="Trazado 16824" class="cls-4" d="M16.3,12.522A15.809,15.809,0,0,0,.787,28.385c0,4.487,1.862,7.882,4.324,11.548,2.628,3.886,6.022,8.046,8.374,13.354A3.172,3.172,0,0,0,16.278,55.2a3.1,3.1,0,0,0,2.846-1.915c2.354-5.309,5.747-9.468,8.374-13.354,2.463-3.666,4.324-7.061,4.324-11.548A15.809,15.809,0,0,0,16.3,12.522m-.021,23.886a6.021,6.021,0,1,1,6.02-6.02,6.02,6.02,0,0,1-6.02,6.02" transform="translate(0.173 2.751)"/>
        <path id="Trazado_16825" data-name="Trazado 16825" class="cls-6" d="M16.449,56.333a4.141,4.141,0,0,1-3.665-2.482,58.974,58.974,0,0,0-6.32-10.388c-.685-.964-1.35-1.9-1.973-2.822C2.216,37.259,0,33.542,0,28.556A16.712,16.712,0,0,1,16.456,11.737H16.5A16.712,16.712,0,0,1,32.951,28.556c0,4.986-2.216,8.7-4.487,12.082-.623.923-1.292,1.86-1.973,2.822a59.082,59.082,0,0,0-6.32,10.387,4.062,4.062,0,0,1-3.721,2.485m.028-41.819A14.184,14.184,0,0,0,2.533,28.788c0,3.86,1.461,6.791,3.985,10.548C7.1,40.2,7.735,41.09,8.382,42a58.9,58.9,0,0,1,6.234,10.265,2.13,2.13,0,0,0,1.833,1.288,2.038,2.038,0,0,0,1.883-1.273A58.937,58.937,0,0,1,24.572,42c.646-.911,1.276-1.8,1.865-2.666,2.522-3.755,3.983-6.686,3.983-10.547A14.185,14.185,0,0,0,16.477,14.514m-.022,23.395a7.35,7.35,0,1,1,7.351-7.351,7.351,7.351,0,0,1-7.351,7.351m0-12.411a5.062,5.062,0,1,0,5.062,5.063A5.063,5.063,0,0,0,16.456,25.5" transform="translate(0 2.578)"/>
        <path id="Trazado_16826" data-name="Trazado 16826" class="cls-7" d="M51.24,1.036a20.883,20.883,0,0,0-20.5,20.955c0,5.929,2.459,10.412,5.712,15.256,3.471,5.134,7.954,10.628,11.063,17.641a4.19,4.19,0,0,0,3.69,2.531,4.093,4.093,0,0,0,3.759-2.53c3.109-7.013,7.591-12.508,11.063-17.641,3.253-4.843,5.712-9.327,5.712-15.256A20.884,20.884,0,0,0,51.24,1.036M51.212,32.59a7.954,7.954,0,1,1,7.954-7.954,7.954,7.954,0,0,1-7.954,7.954" transform="translate(6.753 0.228)"/>
        <path id="Trazado_16827" data-name="Trazado 16827" class="cls-6" d="M51.431,58.912a5.466,5.466,0,0,1-4.841-3.277,78.052,78.052,0,0,0-8.35-13.724c-.9-1.273-1.783-2.51-2.606-3.727-3-4.469-5.931-9.378-5.931-15.964A22.076,22.076,0,0,1,51.44,0H51.5A22.076,22.076,0,0,1,73.23,22.219c0,6.586-2.927,11.5-5.926,15.961-.824,1.22-1.708,2.456-2.608,3.729a78.011,78.011,0,0,0-8.349,13.72,5.366,5.366,0,0,1-4.917,3.282m.037-55.6A19,19,0,0,0,32.794,22.43c0,5.169,1.958,9.094,5.337,14.125.787,1.164,1.63,2.348,2.5,3.568A78.827,78.827,0,0,1,48.974,53.87,2.856,2.856,0,0,0,51.431,55.6a2.731,2.731,0,0,0,2.522-1.706,78.9,78.9,0,0,1,8.355-13.767c.867-1.22,1.709-2.4,2.5-3.57,3.379-5.029,5.335-8.952,5.335-14.123A19,19,0,0,0,51.467,3.314m-.028,31.259a9.709,9.709,0,1,1,9.71-9.711,9.708,9.708,0,0,1-9.71,9.711m0-16.4a6.688,6.688,0,1,0,6.686,6.689h0a6.694,6.694,0,0,0-6.688-6.688" transform="translate(6.525 0)"/>
      </g>
    </g>
  </g>
</svg>
