<svg xmlns="http://www.w3.org/2000/svg" xmlns:xlink="http://www.w3.org/1999/xlink" width="82" height="82" viewBox="0 0 82 82">
  <defs>
    <style>
      .cls-1 {
        fill: none;
      }

      .cls-2 {
        clip-path: url(#clip-iconSCE);
      }

      .cls-3 {
        clip-path: url(#clip-path);
      }

      .cls-4 {
        fill: #fff;
      }

      .cls-5 {
        fill: #9bc8fe;
      }

      .cls-6 {
        fill: #2d72b9;
      }

      .cls-7 {
        fill: #2e72b9;
      }

      .cls-8 {
        fill: #fdfcfd;
      }
    </style>
    <clipPath id="clip-path">
      <rect id="Rectángulo_11146" data-name="Rectángulo 11146" class="cls-1" width="70.631" height="67.213"/>
    </clipPath>
    <clipPath id="clip-iconSCE">
      <rect width="82" height="82"/>
    </clipPath>
  </defs>
  <g id="iconSCE" class="cls-2">
    <g id="Grupo_22897" data-name="Grupo 22897" transform="translate(6 7)">
      <g id="Grupo_22806" data-name="Grupo 22806" class="cls-3" transform="translate(0 0)">
        <path id="Trazado_16760" data-name="Trazado 16760" class="cls-4" d="M14.938,52.021a7.192,7.192,0,0,0-7.192,7.192H22.13a7.192,7.192,0,0,0-7.192-7.192" transform="translate(-2.151 -14.445)"/>
        <path id="Trazado_16761" data-name="Trazado 16761" class="cls-4" d="M44.771,42.77c-4.28,0-7.749,3.818-7.749,8.528h15.5c0-4.71-3.469-8.528-7.749-8.528" transform="translate(-10.28 -11.876)"/>
        <path id="Trazado_16762" data-name="Trazado 16762" class="cls-4" d="M74.985,57.771c-3.972,0-7.192,3.544-7.192,7.915H82.177c0-4.372-3.22-7.915-7.192-7.915" transform="translate(-18.824 -16.042)"/>
        <path id="Trazado_16763" data-name="Trazado 16763" class="cls-4" d="M81.712,44.776a6.436,6.436,0,1,1-6.436-6.436,6.436,6.436,0,0,1,6.436,6.436" transform="translate(-19.115 -10.646)"/>
        <path id="Trazado_16764" data-name="Trazado 16764" class="cls-4" d="M51.712,28.819a6.436,6.436,0,1,1-6.436-6.436,6.436,6.436,0,0,1,6.436,6.436" transform="translate(-10.785 -6.215)"/>
        <path id="Trazado_16765" data-name="Trazado 16765" class="cls-4" d="M21.712,38.276a6.436,6.436,0,1,1-6.436-6.436,6.436,6.436,0,0,1,6.436,6.436" transform="translate(-2.455 -8.841)"/>
        <path id="Trazado_16766" data-name="Trazado 16766" class="cls-5" d="M6.639,63.25H21.086a2.889,2.889,0,0,1,2.889,2.889V80.586a2.889,2.889,0,0,1-2.889,2.889H6.639A2.889,2.889,0,0,1,3.75,80.586V66.139A2.889,2.889,0,0,1,6.639,63.25" transform="translate(-1.041 -17.563)"/>
        <path id="Trazado_16767" data-name="Trazado 16767" class="cls-5" d="M36.639,55.25H51.086a2.889,2.889,0,0,1,2.889,2.889V78.365a2.889,2.889,0,0,1-2.889,2.889H36.639a2.889,2.889,0,0,1-2.889-2.889V58.139a2.889,2.889,0,0,1,2.889-2.889" transform="translate(-9.371 -15.342)"/>
        <path id="Trazado_16768" data-name="Trazado 16768" class="cls-5" d="M66.639,69.25H81.086a2.889,2.889,0,0,1,2.889,2.889V82.252a2.889,2.889,0,0,1-2.889,2.889H66.639a2.889,2.889,0,0,1-2.889-2.889V72.139a2.889,2.889,0,0,1,2.889-2.889" transform="translate(-17.701 -19.229)"/>
        <path id="Trazado_16769" data-name="Trazado 16769" class="cls-6" d="M67.718,70.251h-.53a4.135,4.135,0,0,0,.35-1.663V58.476A4.16,4.16,0,0,0,64.6,54.5a8.577,8.577,0,0,0-5-7.452,8.126,8.126,0,1,0-6.859,0,8.577,8.577,0,0,0-5,7.452,4.151,4.151,0,0,0-1.859,1.2V48.363A4.159,4.159,0,0,0,42.92,44.39a1.239,1.239,0,0,0,.059-.36c0-4.054-1.952-7.193-5.025-8.519a8.126,8.126,0,1,0-6.924,0C27.956,36.836,26,39.975,26,44.029a1.239,1.239,0,0,0,.059.36,4.159,4.159,0,0,0-2.948,3.974v2.991A4.159,4.159,0,0,0,21.3,50.183c-.105-3.732-1.888-6.64-4.676-8.006a8.126,8.126,0,1,0-7.6,0c-2.787,1.365-4.57,4.273-4.676,8.006a4.16,4.16,0,0,0-2.9,3.959V68.589a4.135,4.135,0,0,0,.35,1.663h-.53a1.264,1.264,0,1,0,0,2.528H67.718a1.264,1.264,0,1,0,0-2.528M50.563,39.7a5.6,5.6,0,1,1,5.6,5.6,5.6,5.6,0,0,1-5.6-5.6m5.6,9.21c3.173,0,5.415,2.131,5.87,5.417H50.291c.455-3.287,2.7-5.417,5.87-5.417m-8.849,9.571a1.627,1.627,0,0,1,1.625-1.625H63.384a1.627,1.627,0,0,1,1.625,1.625V68.589a1.627,1.627,0,0,1-1.625,1.625H48.938a1.627,1.627,0,0,1-1.625-1.625ZM28.893,28.168a5.6,5.6,0,1,1,5.6,5.6,5.6,5.6,0,0,1-5.6-5.6m-.361,15.861c0-4,2.395-6.682,5.959-6.682s5.959,2.686,5.959,6.682a1.233,1.233,0,0,0,.018.181H28.514a1.233,1.233,0,0,0,.018-.181m-2.889,4.334a1.627,1.627,0,0,1,1.625-1.625H41.715a1.627,1.627,0,0,1,1.625,1.625V68.589a1.627,1.627,0,0,1-1.625,1.625H27.268a1.627,1.627,0,0,1-1.625-1.625ZM7.223,35a5.6,5.6,0,1,1,5.6,5.6,5.6,5.6,0,0,1-5.6-5.6m5.6,8.849c3.4,0,5.73,2.447,5.939,6.14H6.882c.209-3.693,2.539-6.14,5.939-6.14M3.973,54.142A1.627,1.627,0,0,1,5.6,52.517H20.045a1.627,1.627,0,0,1,1.625,1.625V68.589a1.627,1.627,0,0,1-1.625,1.625H5.6a1.627,1.627,0,0,1-1.625-1.625Z" transform="translate(0 -5.566)"/>
        <path id="Trazado_16770" data-name="Trazado 16770" class="cls-5" d="M70.366,1.75h13A4.334,4.334,0,0,1,87.7,6.084v13a4.334,4.334,0,0,1-4.334,4.334h-13a4.334,4.334,0,0,1-4.334-4.334v-13A4.334,4.334,0,0,1,70.366,1.75" transform="translate(-18.335 -0.486)"/>
        <path id="Trazado_16771" data-name="Trazado 16771" class="cls-6" d="M82.882,24.2h-13a5.6,5.6,0,0,1-5.6-5.6V5.6A5.6,5.6,0,0,1,69.88,0h13a5.6,5.6,0,0,1,5.6,5.6v13a5.6,5.6,0,0,1-5.6,5.6m-13-21.67A3.074,3.074,0,0,0,66.81,5.6v13a3.074,3.074,0,0,0,3.07,3.07h13a3.074,3.074,0,0,0,3.07-3.07V5.6a3.074,3.074,0,0,0-3.07-3.07Z" transform="translate(-17.849 0)"/>
        <path id="Trazado_16805" data-name="Trazado 16805" class="cls-7" d="M43.969,40.294a2.687,2.687,0,0,1-.835,1.979l-1.408,1.414c-1.476,1.483-3.151,3.165-4.842,4.832a2.834,2.834,0,0,1-4.138.007q-1.19-1.15-2.342-2.344a2.873,2.873,0,0,1,3.964-4.156c.413.379.593.277.918-.056q1.88-1.927,3.806-3.808a2.866,2.866,0,0,1,4.876,2.132" transform="translate(21.771 -31.278)"/>
        <path id="Trazado_16806" data-name="Trazado 16806" class="cls-8" d="M34.583,47.446a1.311,1.311,0,0,1-1.011-.426c-.711-.712-1.431-1.414-2.131-2.138a1.351,1.351,0,0,1-.057-1.987,1.334,1.334,0,0,1,1.985.065c1.424,1.54,1.505.907,2.5-.069,1.2-1.18,2.381-2.382,3.576-3.569a1.386,1.386,0,1,1,1.929,1.943q-2.8,2.813-5.609,5.617a1.477,1.477,0,0,1-1.182.563" transform="translate(22.066 -31.024)"/>
      </g>
    </g>
  </g>
</svg>
