<svg xmlns="http://www.w3.org/2000/svg" xmlns:xlink="http://www.w3.org/1999/xlink" width="82" height="82" viewBox="0 0 82 82">
  <defs>
    <style>
      .cls-1 {
        fill: none;
      }

      .cls-2 {
        clip-path: url(#clip-iconSIGMA);
      }

      .cls-3 {
        clip-path: url(#clip-path);
      }

      .cls-4 {
        fill: #fdfcfd;
      }

      .cls-5 {
        fill: #2e72b9;
      }

      .cls-6 {
        fill: #9bc8fe;
      }
    </style>
    <clipPath id="clip-path">
      <rect id="Rectángulo_11207" data-name="Rectángulo 11207" class="cls-1" width="63.279" height="71.74"/>
    </clipPath>
    <clipPath id="clip-iconSIGMA">
      <rect width="82" height="82"/>
    </clipPath>
  </defs>
  <g id="iconSIGMA" class="cls-2">
    <g id="Grupo_23035" data-name="Grupo 23035" transform="translate(11.566 4.363)">
      <g id="Grupo_22927" data-name="Grupo 22927" class="cls-3">
        <path id="Trazado_16855" data-name="Trazado 16855" class="cls-4" d="M7.848,2.76H48.577a5.086,5.086,0,0,1,5.086,5.086V65.718A5.085,5.085,0,0,1,48.578,70.8H7.849a5.085,5.085,0,0,1-5.085-5.085V7.844A5.084,5.084,0,0,1,7.848,2.76" transform="translate(-1.473 -1.471)"/>
        <path id="Trazado_16856" data-name="Trazado 16856" class="cls-5" d="M45.445,2.579A5.455,5.455,0,0,1,50.9,8.035V62.585a5.456,5.456,0,0,1-5.455,5.456H8.035a5.457,5.457,0,0,1-5.455-5.456V8.035A5.455,5.455,0,0,1,8.035,2.579Zm0-2.579H8.035A8.045,8.045,0,0,0,0,8.035V62.585a8.044,8.044,0,0,0,8.035,8.036h37.41a8.044,8.044,0,0,0,8.031-8.036V8.035A8.044,8.044,0,0,0,45.445,0"/>
        <path id="Trazado_16857" data-name="Trazado 16857" class="cls-5" d="M37.705,85.181H21.4a3.583,3.583,0,0,1-.765-.031.856.856,0,0,1-.744-.9.83.83,0,0,1,.724-.83,3.882,3.882,0,0,1,.765-.04H54.241c.17,0,.342-.008.512,0,.583.041,1,.283.981.931-.02.592-.411.836-.96.866-.227.013-.455,0-.681,0H37.705" transform="translate(-10.601 -44.428)"/>
        <path id="Trazado_16858" data-name="Trazado 16858" class="cls-5" d="M37.862,101.586h-16.3c-.228,0-.457.008-.681,0-.554-.031-.953-.3-.973-.875-.016-.623.407-.9.992-.94.17-.012.341,0,.512,0H54.276a3.368,3.368,0,0,1,.844.075.8.8,0,0,1,.636.805.821.821,0,0,1-.655.875,3.3,3.3,0,0,1-.846.057q-8.194.006-16.386,0" transform="translate(-10.609 -53.16)"/>
        <path id="Trazado_16859" data-name="Trazado 16859" class="cls-5" d="M31.06,118.016H21.434a4.069,4.069,0,0,1-.765-.033.848.848,0,0,1-.763-.884.867.867,0,0,1,.783-.875,3.052,3.052,0,0,1,.6-.028h19.6a2.967,2.967,0,0,1,.681.04.883.883,0,0,1-.02,1.735,3.568,3.568,0,0,1-.763.04H31.069" transform="translate(-10.607 -61.917)"/>
        <path id="Trazado_16860" data-name="Trazado 16860" class="cls-5" d="M37.705,52.332H21.4a3.584,3.584,0,0,1-.765-.031.856.856,0,0,1-.744-.9.83.83,0,0,1,.724-.83,3.882,3.882,0,0,1,.765-.04H54.241c.17,0,.342-.008.512,0,.583.041,1,.283.981.931-.02.592-.411.836-.96.866-.227.013-.455,0-.681,0H37.705" transform="translate(-10.601 -26.923)"/>
        <path id="Trazado_16861" data-name="Trazado 16861" class="cls-5" d="M37.862,68.737h-16.3c-.228,0-.457.008-.681,0-.554-.031-.953-.3-.973-.875-.016-.623.407-.9.992-.94.17-.012.341,0,.512,0H54.276a3.369,3.369,0,0,1,.844.075.8.8,0,0,1,.636.805.821.821,0,0,1-.655.875,3.3,3.3,0,0,1-.846.057q-8.194.006-16.386,0" transform="translate(-10.609 -35.656)"/>
        <path id="Trazado_16862" data-name="Trazado 16862" class="cls-5" d="M37.705,35.917H21.4a3.584,3.584,0,0,1-.765-.031.856.856,0,0,1-.744-.9.83.83,0,0,1,.724-.83,3.882,3.882,0,0,1,.765-.04H54.241c.17,0,.342-.008.512,0,.583.041,1,.283.981.931-.02.592-.411.836-.96.866-.227.013-.455,0-.681,0H37.705" transform="translate(-10.601 -18.176)"/>
        <path id="Trazado_16863" data-name="Trazado 16863" class="cls-5" d="M69.04,106.216a15.494,15.494,0,0,1,1.505-11.843,15.672,15.672,0,0,1,6.627-6.206,16.325,16.325,0,0,1,7.24-1.52,15.4,15.4,0,1,1-15.245,19.914c-.036-.118-.084-.233-.128-.348" transform="translate(-36.494 -46.171)"/>
        <path id="Trazado_16864" data-name="Trazado 16864" class="cls-5" d="M83.332,117.354q-.275,0-.553-.008a15.891,15.891,0,0,1-14.628-11.2c-.022-.067-.048-.137-.075-.206l-.044-.121.426-.157-.44.121A15.993,15.993,0,0,1,76.4,87.175,16.7,16.7,0,0,1,83.867,85.6a15.878,15.878,0,0,1-.534,31.748M68.943,105.5c.072.187.1.272.133.359A14.911,14.911,0,1,0,83.841,86.569a15.715,15.715,0,0,0-7.021,1.477,15.027,15.027,0,0,0-7.875,17.449" transform="translate(-35.939 -45.615)"/>
        <path id="Trazado_16865" data-name="Trazado 16865" class="cls-6" d="M85.835,117.71a13.655,13.655,0,1,1,.065,0h-.065" transform="translate(-38.445 -48.137)"/>
        <path id="Trazado_16866" data-name="Trazado 16866" class="cls-4" d="M87.014,118.493a2.32,2.32,0,0,1-1.134-.3l-.41-.224a2.262,2.262,0,0,1-1.09-1.289,2.521,2.521,0,0,1-.012-1.623l.19-.541a8.411,8.411,0,0,1-.713-.937,7.166,7.166,0,0,1-.574-1.072l-.616-.09a2.327,2.327,0,0,1-1.417-.75,2.262,2.262,0,0,1-.592-1.483l-.019-.58a2.359,2.359,0,0,1,.454-1.494,2.2,2.2,0,0,1,1.37-.888l.7-.174a7.632,7.632,0,0,1,1.175-2.155l-.233-.683a2.213,2.213,0,0,1,.02-1.665,2.35,2.35,0,0,1,1.011-1.179l.476-.274a2.3,2.3,0,0,1,1.2-.331,2.371,2.371,0,0,1,.358.028,2.292,2.292,0,0,1,1.427.792l.4.457a7.167,7.167,0,0,1,1.179-.1,8.609,8.609,0,0,1,1.207.092l.35-.452a2.5,2.5,0,0,1,1.4-.882,2.269,2.269,0,0,1,.529-.062,2.308,2.308,0,0,1,1.131.3l.409.222a2.292,2.292,0,0,1,1.09,1.288,2.536,2.536,0,0,1,.014,1.625l-.191.543a8.313,8.313,0,0,1,.713.936,7.188,7.188,0,0,1,.575,1.072l.615.089a2.338,2.338,0,0,1,1.417.752,2.244,2.244,0,0,1,.593,1.483l.032.527A2.412,2.412,0,0,1,99.574,111a2.195,2.195,0,0,1-1.4.906l-.7.164a7.812,7.812,0,0,1-.493,1.1,8.074,8.074,0,0,1-.675,1.036l.213.595.034.081a2.208,2.208,0,0,1,0,1.673,2.46,2.46,0,0,1-1.013,1.191l-.487.281a2.309,2.309,0,0,1-1.2.33,2.357,2.357,0,0,1-.357-.028,2.3,2.3,0,0,1-1.425-.782l-.394-.453a6.211,6.211,0,0,1-1.125.1h-.114a9.031,9.031,0,0,1-1.157-.1l-.347.449a2.517,2.517,0,0,1-1.392.884,2.289,2.289,0,0,1-.531.062m3.313-11.959a3.029,3.029,0,1,0,.727,5.969l.12-.036a3.027,3.027,0,0,0-.847-5.933" transform="translate(-42.964 -53.628)"/>
        <path id="Trazado_16867" data-name="Trazado 16867" class="cls-5" d="M92.573,100.5a1.367,1.367,0,0,1,.671.177l.424.23a1.367,1.367,0,0,1,.651.767,1.6,1.6,0,0,1,.011,1.032l-.375,1.062a7.368,7.368,0,0,1,1,1.221,6.2,6.2,0,0,1,.681,1.406l1.157.168a1.4,1.4,0,0,1,.857.453A1.317,1.317,0,0,1,98,107.9l.034.566a1.457,1.457,0,0,1-.282.924,1.3,1.3,0,0,1-.825.542l-1.254.292a6.767,6.767,0,0,1-.583,1.444,7.1,7.1,0,0,1-.913,1.3l.435,1.212h.006a1.289,1.289,0,0,1,0,.969,1.524,1.524,0,0,1-.63.743l-.472.272a1.4,1.4,0,0,1-.73.205,1.436,1.436,0,0,1-1.072-.483L90.95,115a5.326,5.326,0,0,1-1.46.2h-.1a8,8,0,0,1-1.563-.194l-.7.9a1.567,1.567,0,0,1-.866.546,1.381,1.381,0,0,1-.994-.14l-.422-.23a1.349,1.349,0,0,1-.652-.766,1.586,1.586,0,0,1-.011-1.032l.373-1.062a7.487,7.487,0,0,1-1-1.223,6.212,6.212,0,0,1-.679-1.405l-1.157-.169a1.4,1.4,0,0,1-.858-.451,1.333,1.333,0,0,1-.352-.876l-.02-.593a1.427,1.427,0,0,1,.274-.912,1.292,1.292,0,0,1,.819-.528l1.227-.306a7.168,7.168,0,0,1,.59-1.459,7.033,7.033,0,0,1,.907-1.285l-.409-1.2a1.29,1.29,0,0,1,.005-.982,1.432,1.432,0,0,1,.619-.731l.472-.272a1.4,1.4,0,0,1,.944-.189,1.371,1.371,0,0,1,.857.472l.769.88a6.2,6.2,0,0,1,1.523-.19h.027a7.394,7.394,0,0,1,1.569.179l.7-.9a1.546,1.546,0,0,1,.866-.544,1.354,1.354,0,0,1,.32-.038M89.265,112.46a3.961,3.961,0,0,0,1.117-.161l0,0,.014,0a3.947,3.947,0,1,0-1.127.168m3.308-13.824a3.216,3.216,0,0,0-.75.088,3.431,3.431,0,0,0-1.9,1.2l-.008.011-.008.011-.027.035c-.249-.022-.5-.034-.751-.036h-.041q-.4,0-.805.04l-.071-.082a3.236,3.236,0,0,0-2-1.1,3.271,3.271,0,0,0-2.167.428l-.456.263a3.316,3.316,0,0,0-1.421,1.659,3.138,3.138,0,0,0-.024,2.315l.071.207c-.162.237-.313.482-.451.733s-.266.523-.378.789l-.211.053a3.141,3.141,0,0,0-1.928,1.263,3.306,3.306,0,0,0-.622,2.072l.019.572a3.2,3.2,0,0,0,.844,2.089,3.264,3.264,0,0,0,1.974,1.036l.109.016a8.063,8.063,0,0,0,.42.726q.209.319.442.619l-.01.029-.006.015,0,.015a3.47,3.47,0,0,0,.018,2.231,3.2,3.2,0,0,0,1.534,1.8l.4.22a3.249,3.249,0,0,0,2.328.322,3.447,3.447,0,0,0,1.893-1.195l.01-.013.01-.013.021-.027q.357.035.715.044h.142a7.232,7.232,0,0,0,.753-.04l.065.074a3.23,3.23,0,0,0,2,1.09,3.278,3.278,0,0,0,2.163-.429l.455-.263.016-.009.015-.009a3.414,3.414,0,0,0,1.4-1.655,3.131,3.131,0,0,0-.006-2.361l-.033-.08-.035-.1q.241-.355.448-.732t.365-.754l.229-.053a3.142,3.142,0,0,0,1.953-1.288,3.333,3.333,0,0,0,.624-2.082v-.033l-.032-.536a3.185,3.185,0,0,0-.842-2.055,3.277,3.277,0,0,0-1.986-1.043l-.1-.014a7.933,7.933,0,0,0-.421-.727q-.207-.317-.44-.616l.009-.027.007-.018.006-.018a3.485,3.485,0,0,0-.02-2.228,3.223,3.223,0,0,0-1.538-1.8l-.4-.217a3.239,3.239,0,0,0-1.574-.409m-3.308,11.956a2.109,2.109,0,0,1-2.012-1.509,2.088,2.088,0,0,1,2.01-2.68,2.1,2.1,0,0,1,2.005,1.5,2.089,2.089,0,0,1-1.4,2.592h0l-.025.007-.1.031a2.081,2.081,0,0,1-.473.055" transform="translate(-41.899 -52.562)"/>
      </g>
    </g>
  </g>
</svg>
