<svg xmlns="http://www.w3.org/2000/svg" xmlns:xlink="http://www.w3.org/1999/xlink" width="82" height="82" viewBox="0 0 82 82">
  <defs>
    <style>
      .cls-1 {
        fill: none;
      }

      .cls-2 {
        clip-path: url(#clip-iconONPEDUCA);
      }

      .cls-3 {
        clip-path: url(#clip-path);
      }

      .cls-4 {
        fill: #fff;
      }

      .cls-5 {
        fill: #276fba;
      }

      .cls-6 {
        fill: #2a70b8;
      }

      .cls-7 {
        fill: #9bc8fe;
      }

      .cls-8 {
        fill: #fefefe;
      }
    </style>
    <clipPath id="clip-path">
      <rect id="Rectángulo_11155" data-name="Rectángulo 11155" class="cls-1" width="61.417" height="72.393"/>
    </clipPath>
    <clipPath id="clip-iconONPEDUCA">
      <rect width="82" height="82"/>
    </clipPath>
  </defs>
  <g id="iconONPEDUCA" class="cls-2">
    <g id="Grupo_23033" data-name="Grupo 23033" transform="translate(-815.979 -592.207)">
      <g id="Grupo_23006" data-name="Grupo 23006" transform="translate(816.957 598.165)">
        <g id="Grupo_22826" data-name="Grupo 22826" class="cls-3" transform="translate(0 0)">
          <path id="Trazado_16845" data-name="Trazado 16845" class="cls-4" d="M54.066,70.2H6.089A5.157,5.157,0,0,1,.931,65.04V6.09A5.157,5.157,0,0,1,6.089.932H54.066A5.157,5.157,0,0,1,59.223,6.09V65.04A5.157,5.157,0,0,1,54.066,70.2" transform="translate(0.631 0.633)"/>
          <path id="Trazado_16846" data-name="Trazado 16846" class="cls-5" d="M54.7,72.392H6.72A6.728,6.728,0,0,1,0,65.672V6.722A6.729,6.729,0,0,1,6.72,0H54.7a6.729,6.729,0,0,1,6.72,6.722v58.95a6.728,6.728,0,0,1-6.72,6.72M6.72,3.126a3.6,3.6,0,0,0-3.594,3.6v58.95A3.6,3.6,0,0,0,6.72,69.266H54.7a3.6,3.6,0,0,0,3.592-3.594V6.722a3.6,3.6,0,0,0-3.592-3.6Z" transform="translate(0 0.001)"/>
          <path id="Trazado_16847" data-name="Trazado 16847" class="cls-6" d="M27.716,33.761H47.951c.805,0,1.51.077,1.644,1.076a1.175,1.175,0,0,1-.857,1.423,1.227,1.227,0,0,1-.27.034,8.506,8.506,0,0,1-.992.018H7.748a8.538,8.538,0,0,1-1.116-.029,1.121,1.121,0,0,1-1.045-1.191.8.8,0,0,1,.012-.109,1.091,1.091,0,0,1,.982-1.19l.025,0a8.537,8.537,0,0,1,1.116-.023H27.708" transform="translate(3.786 22.885)"/>
          <path id="Trazado_16848" data-name="Trazado 16848" class="cls-6" d="M24.127,31.77H7.743a4.776,4.776,0,0,1-1.227-.092A1.175,1.175,0,0,1,5.6,30.5a1.229,1.229,0,0,1,.871-1.342,3.082,3.082,0,0,1,.975-.107H40.709a3.049,3.049,0,0,1,.742.027,1.33,1.33,0,0,1,1.175,1.372A1.312,1.312,0,0,1,41.5,31.742a4.572,4.572,0,0,1-1.112.04H24.125" transform="translate(3.788 19.688)"/>
          <path id="Trazado_16849" data-name="Trazado 16849" class="cls-6" d="M24.05,26.992H7.3c-1.277,0-1.706-.336-1.706-1.262a1.121,1.121,0,0,1,.968-1.255c.037-.005.072-.007.109-.008a8.891,8.891,0,0,1,.992-.018H41.159c.985.035,1.45.44,1.471,1.275s-.43,1.26-1.461,1.263q-8.557.018-17.114,0" transform="translate(3.788 16.57)"/>
          <path id="Trazado_16850" data-name="Trazado 16850" class="cls-6" d="M20.365,35.714A15.17,15.17,0,0,1,4.664,21.1q-.02-.614.007-1.228a15.707,15.707,0,0,1,31.41.121A15.152,15.152,0,0,1,21.526,35.714q-.579.023-1.161,0" transform="translate(3.155 3.012)"/>
          <path id="Trazado_16851" data-name="Trazado 16851" class="cls-7" d="M13.7,21.323a9.326,9.326,0,0,0-3.644,6.619C6.814,25.7,5.4,19.818,6.916,15.191A12.817,12.817,0,0,1,19.765,6.038a12.992,12.992,0,0,1,12.02,9.616c1.567,5.5-.993,10.784-3.305,12.248A9.385,9.385,0,0,0,24.8,21.293,7.458,7.458,0,0,0,26.6,14.4a7.853,7.853,0,0,0-2.886-4.5,7.478,7.478,0,0,0-9.564.579c-3,2.881-3.188,6.757-.445,10.839" transform="translate(4.277 4.085)"/>
          <path id="Trazado_16852" data-name="Trazado 16852" class="cls-4" d="M23.25,22.319c.218.839-.336,1.324-1.252,1.706A13.259,13.259,0,0,1,11.072,23.9a1.373,1.373,0,0,1-.953-1.5,7.213,7.213,0,0,1,2.7-5.856,1.379,1.379,0,0,1,1.47-.253,6.672,6.672,0,0,0,4.728.04,1.56,1.56,0,0,1,1.686.351,6.937,6.937,0,0,1,2.55,5.639" transform="translate(6.851 10.969)"/>
          <path id="Trazado_16853" data-name="Trazado 16853" class="cls-8" d="M11.151,13.876A4.686,4.686,0,0,1,15.8,9.149c.059,0,.122,0,.183,0a4.787,4.787,0,1,1-4.832,4.74v-.015" transform="translate(7.559 6.202)"/>
        </g>
      </g>
      <path id="Trazado_17130" data-name="Trazado 17130" class="cls-7" d="M54.25,57.038a5.98,5.98,0,0,1-2.94-.74L37.97,48.537a3.423,3.423,0,0,1-.013-5.955l13.334-7.757a6.205,6.205,0,0,1,5.9-.01l13.338,7.76a3.422,3.422,0,0,1,.013,5.955L57.208,56.287a5.993,5.993,0,0,1-2.958.751" transform="translate(824.126 597.273)"/>
      <path id="Trazado_17131" data-name="Trazado 17131" class="cls-5" d="M54.316,35.209a4.9,4.9,0,0,1,2.421.605l13.321,7.75a2.355,2.355,0,0,1,0,4.117l-13.321,7.75a5.145,5.145,0,0,1-4.843,0l-13.321-7.75a2.355,2.355,0,0,1,0-4.117l13.321-7.75a4.9,4.9,0,0,1,2.421-.605m0-2.135a7.027,7.027,0,0,0-3.459.874L37.5,41.719a4.489,4.489,0,0,0-.026,7.794l13.345,7.765a7.281,7.281,0,0,0,6.955.021l13.356-7.771a4.489,4.489,0,0,0,.026-7.794L57.812,33.969a7.064,7.064,0,0,0-3.5-.895" transform="translate(824.058 597.206)"/>
      <path id="Trazado_17132" data-name="Trazado 17132" class="cls-7" d="M54.019,72.647a5.98,5.98,0,0,1-2.94-.74l-8.488-4.85a5.644,5.644,0,0,1-2.15-2.148,5.933,5.933,0,0,1-.81-3.017V52.656l12.5,7.221a4.078,4.078,0,0,0,3.792-.009l12.484-7.213v9.236a5.937,5.937,0,0,1-.809,3.017,5.659,5.659,0,0,1-2.161,2.154L56.971,71.9a5.993,5.993,0,0,1-2.952.746" transform="translate(824.356 598.53)"/>
      <path id="Trazado_17133" data-name="Trazado 17133" class="cls-5" d="M67.407,54.622v7.387a4.868,4.868,0,0,1-.666,2.482,4.587,4.587,0,0,1-1.756,1.756l-8.476,4.844a5.148,5.148,0,0,1-4.844,0l-8.477-4.844a4.591,4.591,0,0,1-1.755-1.756,4.868,4.868,0,0,1-.666-2.482V54.622l10.9,6.3a5.148,5.148,0,0,0,4.844,0Zm-28.776-3.7V62.009a7,7,0,0,0,.953,3.552,6.7,6.7,0,0,0,2.567,2.553l8.455,4.831a7.275,7.275,0,0,0,6.94.013l8.5-4.857a6.69,6.69,0,0,0,2.545-2.54,7.006,7.006,0,0,0,.953-3.552V50.923l-3.2,1.851-10.9,6.3a3.024,3.024,0,0,1-2.738-.017L41.835,52.774Z" transform="translate(824.288 598.413)"/>
    </g>
  </g>
</svg>
