<svg xmlns="http://www.w3.org/2000/svg" xmlns:xlink="http://www.w3.org/1999/xlink" width="20" height="20" viewBox="0 0 20 20">
  <defs>
    <style>
      .cls-1 {
        fill: none;
      }

      .cls-2 {
        clip-path: url(#clip-iconCLARIDAD2);
      }

      .cls-3 {
        clip-path: url(#clip-path);
      }

      .cls-4 {
        fill: #fdfcfd;
      }

      .cls-5 {
        fill: #2e72b9;
      }

      .cls-6 {
        fill: #9bc8fe;
      }
    </style>
    <clipPath id="clip-path">
      <rect id="Rectángulo_11116" data-name="Rectángulo 11116" class="cls-1" width="17.047" height="19.33"/>
    </clipPath>
    <clipPath id="clip-iconCLARIDAD2">
      <rect width="20" height="20"/>
    </clipPath>
  </defs>
  <g id="iconCLARIDAD2" class="cls-2">
    <g id="Grupo_22898" data-name="Grupo 22898" transform="translate(1.476 0.538)">
      <g id="Grupo_22771" data-name="Grupo 22771" class="cls-3" transform="translate(0 0)">
        <rect id="Rectángulo_11111" data-name="Rectángulo 11111" class="cls-4" width="13.714" height="18.334" rx="1" transform="translate(0.348 0.347)"/>
        <path id="Trazado_16705" data-name="Trazado 16705" class="cls-5" d="M12.245.7a1.47,1.47,0,0,1,1.47,1.47v14.7a1.47,1.47,0,0,1-1.47,1.47H2.165A1.47,1.47,0,0,1,.7,16.863V2.165A1.47,1.47,0,0,1,2.165.7Zm0-.7H2.165A2.168,2.168,0,0,0,0,2.165v14.7a2.168,2.168,0,0,0,2.165,2.165h10.08a2.168,2.168,0,0,0,2.165-2.165V2.165A2.168,2.168,0,0,0,12.245,0" transform="translate(0 0)"/>
        <path id="Rectángulo_11112" data-name="Rectángulo 11112" class="cls-6" d="M.75,0h0A.751.751,0,0,1,1.5.751v.422a.75.75,0,0,1-.75.75h0A.751.751,0,0,1,0,1.172V.75A.75.75,0,0,1,.75,0Z" transform="translate(3.254 7.017)"/>
        <path id="Trazado_16706" data-name="Trazado 16706" class="cls-5" d="M10.148,19.983a.033.033,0,0,1,.033.033V21.4a.033.033,0,0,1-.033.033H9.188a.033.033,0,0,1-.033-.033V20.016a.033.033,0,0,1,.033-.033Zm0-.476H9.188a.51.51,0,0,0-.509.509V21.4a.51.51,0,0,0,.509.509h.959a.51.51,0,0,0,.509-.509V20.016a.51.51,0,0,0-.509-.509" transform="translate(-5.663 -12.728)"/>
        <rect id="Rectángulo_11113" data-name="Rectángulo 11113" class="cls-6" width="1.501" height="4.219" rx="0.751" transform="translate(5.388 4.72)"/>
        <path id="Trazado_16707" data-name="Trazado 16707" class="cls-5" d="M16.268,13.374a.053.053,0,0,1,.053.053v3.637a.053.053,0,0,1-.053.053h-.919a.053.053,0,0,1-.053-.053V13.427a.053.053,0,0,1,.053-.053Zm0-.476h-.919a.53.53,0,0,0-.529.529v3.637a.53.53,0,0,0,.529.529h.919a.53.53,0,0,0,.529-.529V13.427a.53.53,0,0,0-.529-.529" transform="translate(-9.67 -8.416)"/>
        <path id="Rectángulo_11114" data-name="Rectángulo 11114" class="cls-6" d="M.751,0h0A.751.751,0,0,1,1.5.751V2.456a.75.75,0,0,1-.75.75h0A.751.751,0,0,1,0,2.456V.751A.751.751,0,0,1,.751,0Z" transform="translate(7.522 5.734)"/>
        <path id="Trazado_16708" data-name="Trazado 16708" class="cls-5" d="M22.418,16.29a.046.046,0,0,1,.046.046v2.639a.046.046,0,0,1-.046.046h-.934a.046.046,0,0,1-.046-.046V16.336a.046.046,0,0,1,.046-.046Zm0-.476h-.934a.522.522,0,0,0-.521.522v2.639a.522.522,0,0,0,.521.521h.934a.522.522,0,0,0,.522-.521V16.336a.522.522,0,0,0-.522-.522" transform="translate(-13.677 -10.318)"/>
        <path id="Rectángulo_11115" data-name="Rectángulo 11115" class="cls-6" d="M.751,0h0A.751.751,0,0,1,1.5.751V4.762a.75.75,0,0,1-.75.75h0A.751.751,0,0,1,0,4.761V.751A.751.751,0,0,1,.751,0Z" transform="translate(9.654 3.428)"/>
        <path id="Trazado_16709" data-name="Trazado 16709" class="cls-5" d="M28.536,9.656a.062.062,0,0,1,.062.062V14.63a.062.062,0,0,1-.062.062h-.9a.062.062,0,0,1-.062-.062V9.718a.062.062,0,0,1,.062-.062Zm0-.476h-.9a.538.538,0,0,0-.538.538V14.63a.538.538,0,0,0,.538.538h.9a.538.538,0,0,0,.538-.538V9.718a.538.538,0,0,0-.538-.538" transform="translate(-17.681 -5.99)"/>
        <path id="Trazado_16710" data-name="Trazado 16710" class="cls-5" d="M12,31.407H7.612a.968.968,0,0,1-.206-.008.231.231,0,0,1-.2-.244.224.224,0,0,1,.195-.223,1.043,1.043,0,0,1,.206-.011H16.46c.046,0,.092,0,.138,0,.156.011.27.076.264.251-.005.16-.111.225-.259.234-.061,0-.123,0-.184,0H12" transform="translate(-4.702 -20.174)"/>
        <path id="Trazado_16711" data-name="Trazado 16711" class="cls-5" d="M12.047,37.35H7.655c-.062,0-.123,0-.184,0-.149-.008-.257-.081-.261-.235s.11-.242.267-.253c.046,0,.092,0,.138,0h8.854a.9.9,0,0,1,.227.02.215.215,0,0,1,.171.217.221.221,0,0,1-.177.237.887.887,0,0,1-.228.015H12.047" transform="translate(-4.704 -24.05)"/>
        <path id="Trazado_16712" data-name="Trazado 16712" class="cls-5" d="M10.213,43.3H7.618a1.1,1.1,0,0,1-.206-.009.228.228,0,0,1-.206-.238.234.234,0,0,1,.211-.235.819.819,0,0,1,.16-.008h5.282a.8.8,0,0,1,.182.011.238.238,0,0,1-.005.468.965.965,0,0,1-.206.011H10.213" transform="translate(-4.702 -27.933)"/>
        <path id="Trazado_16713" data-name="Trazado 16713" class="cls-5" d="M24.953,36.654a4.174,4.174,0,0,1,.406-3.191,4.222,4.222,0,0,1,1.786-1.672,4.4,4.4,0,0,1,1.951-.41,4.148,4.148,0,1,1-4.108,5.366c-.01-.032-.023-.063-.034-.094" transform="translate(-16.184 -20.475)"/>
        <path id="Trazado_16714" data-name="Trazado 16714" class="cls-5" d="M28.712,39.56l-.149,0a4.282,4.282,0,0,1-3.941-3.017c-.006-.018-.013-.037-.02-.055l-.012-.032.115-.042-.118.033a4.309,4.309,0,0,1,2.259-5.014,4.5,4.5,0,0,1,2.011-.424,4.278,4.278,0,0,1-.144,8.554m-3.878-3.194c.019.05.028.073.036.1a4.018,4.018,0,1,0,3.979-5.2,4.234,4.234,0,0,0-1.892.4,4.049,4.049,0,0,0-2.123,4.7" transform="translate(-15.942 -20.23)"/>
        <path id="Trazado_16715" data-name="Trazado 16715" class="cls-6" d="M29.818,40.094a3.688,3.688,0,1,1,3.688-3.706,3.688,3.688,0,0,1-3.688,3.706" transform="translate(-17.05 -21.348)"/>
        <path id="Trazado_16716" data-name="Trazado 16716" class="cls-5" d="M34.458,38.341a.914.914,0,0,1-.284.673l-.479.481c-.5.5-1.072,1.077-1.647,1.644a.964.964,0,0,1-1.408,0q-.405-.391-.8-.8a.978.978,0,0,1,1.349-1.414c.14.129.2.094.312-.019q.64-.656,1.3-1.3a.975.975,0,0,1,1.659.726" transform="translate(-19.283 -24.36)"/>
        <path id="Trazado_16717" data-name="Trazado 16717" class="cls-4" d="M32.265,41.859a.469.469,0,0,1-.362-.152c-.254-.255-.512-.506-.762-.765a.483.483,0,0,1-.021-.711.477.477,0,0,1,.71.023c.509.551.538.325.894-.025.43-.422.852-.852,1.279-1.276a.5.5,0,1,1,.69.7q-1,1.006-2.006,2.009a.528.528,0,0,1-.423.2" transform="translate(-20.211 -25.283)"/>
      </g>
    </g>
  </g>
</svg>
