<svg xmlns="http://www.w3.org/2000/svg" xmlns:xlink="http://www.w3.org/1999/xlink" width="20" height="20" viewBox="0 0 20 20">
  <defs>
    <style>
      .cls-1 {
        clip-path: url(#clip-iconROPC2);
      }

      .cls-2 {
        fill: #fdfcfd;
      }

      .cls-3 {
        fill: #276fba;
      }

      .cls-4 {
        fill: #2e72b9;
      }

      .cls-5 {
        fill: #9bc8fe;
      }

      .cls-6 {
        fill: #fff;
      }

      .cls-7 {
        fill: none;
      }
    </style>
    <clipPath id="clip-iconROPC2">
      <rect width="20" height="20"/>
    </clipPath>
  </defs>
  <g id="iconROPC2" class="cls-1">
    <g id="Grupo_23017" data-name="Grupo 23017" transform="translate(-595.625 -831.584)">
      <path id="Trazado_16969" data-name="Trazado 16969" class="cls-2" d="M16.71,2.347v9.9a1.206,1.206,0,0,1-1.172,1.236H2.2a1.205,1.205,0,0,1-1.172-1.236v-9.9A1.205,1.205,0,0,1,2.2,1.111H15.538A1.205,1.205,0,0,1,16.71,2.347" transform="translate(595.62 833.444)"/>
      <path id="Trazado_16970" data-name="Trazado 16970" class="cls-3" d="M15.475,13.482H2.136A1.269,1.269,0,0,1,.9,12.184v-9.9A1.269,1.269,0,0,1,2.136.986h13.34a1.268,1.268,0,0,1,1.234,1.3v9.9a1.269,1.269,0,0,1-1.234,1.3M2.136,1.111A1.144,1.144,0,0,0,1.027,2.285v9.9a1.144,1.144,0,0,0,1.109,1.173H15.475a1.144,1.144,0,0,0,1.109-1.174v-9.9a1.144,1.144,0,0,0-1.109-1.173Z" transform="translate(595.682 833.506)"/>
      <path id="Trazado_16971" data-name="Trazado 16971" class="cls-3" d="M15.01.5a1.208,1.208,0,0,1,1.172,1.241v9.944a1.209,1.209,0,0,1-1.172,1.242H1.671A1.208,1.208,0,0,1,.5,11.684V1.741A1.208,1.208,0,0,1,1.671.5Zm0-.5H1.671A1.709,1.709,0,0,0,0,1.741v9.943a1.709,1.709,0,0,0,1.671,1.741H15.01a1.709,1.709,0,0,0,1.672-1.741V1.741A1.709,1.709,0,0,0,15.01,0" transform="translate(596.134 834)"/>
      <path id="Trazado_16972" data-name="Trazado 16972" class="cls-4" d="M7.631,14.524H7.616a1.475,1.475,0,0,1-1.46-1.489v0a1.447,1.447,0,0,1,1.435-1.456h.057a1.475,1.475,0,1,1-.017,2.95M6.47,13.04a1.16,1.16,0,1,0,1.172-1.151H7.594A1.135,1.135,0,0,0,6.47,13.031v.009" transform="translate(593.052 828.205)"/>
      <path id="Trazado_16973" data-name="Trazado 16973" class="cls-5" d="M9.109,18.717l0-.013v-.013A1.844,1.844,0,0,0,8.416,17.2a.222.222,0,0,0-.15-.058.241.241,0,0,0-.092.018,1.988,1.988,0,0,1-1.048.108l-.022,0c-.037-.006-.074-.016-.112-.025s-.049-.01-.073-.017L6.86,17.2c-.041-.013-.083-.026-.124-.042a.23.23,0,0,0-.091-.018.221.221,0,0,0-.15.057,1.84,1.84,0,0,0-.3.3c-.022.028-.044.057-.065.087l0,0-.015.02h0a1.84,1.84,0,0,0-.314,1.08v.013l0,.013a.219.219,0,0,0,.153.241l.02.007A3.489,3.489,0,0,0,8,19.251l.073-.011.015,0a3.472,3.472,0,0,0,.85-.27l.02-.007a.219.219,0,0,0,.153-.241" transform="translate(593.23 825.417)"/>
      <path id="Trazado_16974" data-name="Trazado 16974" class="cls-4" d="M7.94,16.807a.22.22,0,0,1,.149.058,1.844,1.844,0,0,1,.692,1.491v.026a.219.219,0,0,1-.153.241l-.02.008a3.492,3.492,0,0,1-.85.27l-.015,0-.073.011a3.491,3.491,0,0,1-2.022-.283l-.02-.007a.219.219,0,0,1-.153-.241l0-.013v-.013a1.844,1.844,0,0,1,.314-1.08s.059-.084.081-.112a1.82,1.82,0,0,1,.3-.3.221.221,0,0,1,.149-.058h0a.241.241,0,0,1,.092.018c.04.016.082.029.123.042l.059.019.073.017c.037.008.074.018.112.024l.022,0a1.991,1.991,0,0,0,1.048-.108.239.239,0,0,1,.091-.018Zm0-.325h0a.563.563,0,0,0-.213.042,1.651,1.651,0,0,1-.6.112,1.683,1.683,0,0,1-.274-.022l-.021,0-.07-.015-.02,0-.03-.006-.03-.007-.02-.006-.03-.01-.009,0c-.033-.01-.063-.02-.09-.03a.552.552,0,0,0-.572.092,2.195,2.195,0,0,0-.342.346,1.084,1.084,0,0,0-.1.143,2.159,2.159,0,0,0-.362,1.247.541.541,0,0,0,.369.578h0a3.819,3.819,0,0,0,2.2.3l.017,0,.061-.01.016,0a3.816,3.816,0,0,0,.92-.291h0a.541.541,0,0,0,.369-.578A2.184,2.184,0,0,0,8.3,16.616a.544.544,0,0,0-.359-.134" transform="translate(593.557 825.747)"/>
      <path id="Trazado_16975" data-name="Trazado 16975" class="cls-6" d="M6.748,13.33a1.154,1.154,0,0,1,1.145-1.164h.046a1.179,1.179,0,1,1-1.191,1.167v0" transform="translate(592.755 827.909)"/>
      <path id="Trazado_16976" data-name="Trazado 16976" class="cls-4" d="M22.811,14.524H22.8a1.475,1.475,0,0,1-1.46-1.489v0a1.447,1.447,0,0,1,1.435-1.456h.057a1.475,1.475,0,0,1-.017,2.95M21.65,13.04a1.16,1.16,0,1,0,1.172-1.151h-.048a1.135,1.135,0,0,0-1.124,1.143v.009" transform="translate(585.451 828.205)"/>
      <path id="Trazado_16977" data-name="Trazado 16977" class="cls-5" d="M24.289,18.717l0-.013v-.013A1.844,1.844,0,0,0,23.6,17.2a.222.222,0,0,0-.15-.058.241.241,0,0,0-.092.018,1.988,1.988,0,0,1-1.048.108l-.022,0c-.037-.006-.074-.016-.112-.025s-.049-.01-.073-.017L22.04,17.2c-.041-.013-.083-.026-.124-.042a.23.23,0,0,0-.091-.018.221.221,0,0,0-.15.057,1.84,1.84,0,0,0-.3.3c-.022.028-.044.057-.065.087l0,0-.015.02h0a1.84,1.84,0,0,0-.314,1.08v.013l0,.013a.219.219,0,0,0,.153.241l.02.007a3.489,3.489,0,0,0,2.022.283l.073-.011.015,0a3.472,3.472,0,0,0,.85-.27l.02-.007a.219.219,0,0,0,.153-.241" transform="translate(585.629 825.417)"/>
      <path id="Trazado_16978" data-name="Trazado 16978" class="cls-4" d="M23.12,16.807a.22.22,0,0,1,.149.058,1.844,1.844,0,0,1,.692,1.491v.026a.219.219,0,0,1-.153.241l-.02.008a3.492,3.492,0,0,1-.85.27l-.015,0-.073.011a3.491,3.491,0,0,1-2.022-.283l-.02-.007a.219.219,0,0,1-.153-.241l0-.013v-.013a1.84,1.84,0,0,1,.314-1.08s.059-.084.081-.112a1.82,1.82,0,0,1,.3-.3.221.221,0,0,1,.149-.058h0a.241.241,0,0,1,.092.018c.04.016.082.029.123.042l.059.019.073.017c.037.008.074.018.112.024l.022,0a1.991,1.991,0,0,0,1.048-.108.239.239,0,0,1,.091-.018Zm0-.325h0a.563.563,0,0,0-.213.042,1.651,1.651,0,0,1-.6.112,1.683,1.683,0,0,1-.274-.022l-.021,0-.07-.015-.02,0-.03-.006-.03-.007-.02-.006-.03-.01-.009,0c-.033-.01-.063-.02-.09-.03a.552.552,0,0,0-.572.092,2.195,2.195,0,0,0-.342.346,1.084,1.084,0,0,0-.1.143,2.159,2.159,0,0,0-.362,1.247.541.541,0,0,0,.369.578h0a3.819,3.819,0,0,0,2.2.3l.017,0,.061-.01.016,0a3.816,3.816,0,0,0,.92-.291h0a.541.541,0,0,0,.369-.578,2.184,2.184,0,0,0-.807-1.736.544.544,0,0,0-.359-.134" transform="translate(585.956 825.747)"/>
      <path id="Trazado_16979" data-name="Trazado 16979" class="cls-6" d="M21.928,13.33a1.154,1.154,0,0,1,1.145-1.164h.046a1.179,1.179,0,1,1-1.191,1.167v0" transform="translate(585.155 827.909)"/>
      <path id="Trazado_16980" data-name="Trazado 16980" class="cls-4" d="M15.218,16.345H15.2a1.475,1.475,0,0,1-1.46-1.489v0A1.447,1.447,0,0,1,15.178,13.4h.057a1.475,1.475,0,0,1-.017,2.95m-1.161-1.484a1.16,1.16,0,1,0,1.172-1.151h-.048a1.135,1.135,0,0,0-1.124,1.143v.009" transform="translate(589.253 827.293)"/>
      <path id="Trazado_16981" data-name="Trazado 16981" class="cls-5" d="M16.7,20.538l0-.013v-.013A1.844,1.844,0,0,0,16,19.021a.222.222,0,0,0-.15-.058.241.241,0,0,0-.092.018,1.988,1.988,0,0,1-1.048.108l-.022,0c-.037-.006-.074-.016-.112-.025s-.049-.01-.073-.017l-.059-.018c-.041-.013-.083-.026-.124-.042a.23.23,0,0,0-.091-.018.221.221,0,0,0-.15.057,1.84,1.84,0,0,0-.3.3c-.022.028-.044.057-.065.087l0,0-.015.02h0a1.84,1.84,0,0,0-.314,1.08v.013l0,.013a.219.219,0,0,0,.153.241l.02.007a3.489,3.489,0,0,0,2.022.283l.073-.011.015,0a3.472,3.472,0,0,0,.85-.27l.02-.007a.219.219,0,0,0,.153-.241" transform="translate(589.431 824.505)"/>
      <path id="Trazado_16982" data-name="Trazado 16982" class="cls-4" d="M15.527,18.628a.22.22,0,0,1,.149.058,1.844,1.844,0,0,1,.692,1.491V20.2a.219.219,0,0,1-.153.241l-.02.008a3.492,3.492,0,0,1-.85.27l-.015,0-.073.011a3.491,3.491,0,0,1-2.022-.283l-.02-.007a.219.219,0,0,1-.153-.241l0-.013v-.013a1.84,1.84,0,0,1,.314-1.08s.059-.084.081-.112a1.84,1.84,0,0,1,.3-.3.221.221,0,0,1,.149-.058h0a.241.241,0,0,1,.092.018c.04.016.082.029.123.042l.059.019.073.017c.037.008.074.018.112.024l.022,0a1.991,1.991,0,0,0,1.048-.108.239.239,0,0,1,.091-.018Zm0-.325h0a.563.563,0,0,0-.213.042,1.651,1.651,0,0,1-.6.112,1.682,1.682,0,0,1-.274-.022l-.021,0-.07-.015-.02,0L14.3,18.4l-.03-.007-.02-.006-.03-.01-.009,0c-.033-.01-.063-.02-.09-.03a.552.552,0,0,0-.572.092,2.195,2.195,0,0,0-.342.346,1.084,1.084,0,0,0-.1.143,2.159,2.159,0,0,0-.362,1.247.541.541,0,0,0,.369.578h0a3.819,3.819,0,0,0,2.2.3l.017,0,.061-.01.016,0a3.816,3.816,0,0,0,.92-.291h0a.541.541,0,0,0,.369-.578,2.184,2.184,0,0,0-.807-1.736.544.544,0,0,0-.359-.134" transform="translate(589.758 824.836)"/>
      <path id="Trazado_16983" data-name="Trazado 16983" class="cls-6" d="M14.336,15.151a1.154,1.154,0,0,1,1.145-1.164h.046a1.179,1.179,0,1,1-1.191,1.167v0" transform="translate(588.956 826.997)"/>
      <path id="Trazado_16984" data-name="Trazado 16984" class="cls-3" d="M15.641,4.45l.183.563h.592a.311.311,0,0,1,.183.563l-.479.348.183.563a.311.311,0,0,1-.479.348l-.479-.348-.479.348a.311.311,0,0,1-.479-.348l.183-.563-.479-.348a.311.311,0,0,1,.183-.563h.592l.183-.563a.311.311,0,0,1,.592,0" transform="translate(589.143 831.879)"/>
      <path id="Trazado_16985" data-name="Trazado 16985" class="cls-3" d="M22.808,4.45l.183.563h.592a.311.311,0,0,1,.183.563l-.479.348.183.563a.311.311,0,0,1-.479.348l-.479-.348-.479.348a.311.311,0,0,1-.479-.348l.183-.563-.479-.348a.311.311,0,0,1,.183-.563h.592l.183-.563a.311.311,0,0,1,.592,0" transform="translate(585.554 831.879)"/>
      <path id="Trazado_16986" data-name="Trazado 16986" class="cls-3" d="M8.474,4.45l.183.563H9.25a.311.311,0,0,1,.183.563l-.479.348.183.563a.311.311,0,0,1-.479.348l-.479-.348L7.7,6.836a.311.311,0,0,1-.479-.348L7.4,5.925l-.479-.348a.311.311,0,0,1,.183-.563H7.7l.183-.563a.311.311,0,0,1,.592,0" transform="translate(592.732 831.879)"/>
      <g id="Grupo_22988" data-name="Grupo 22988" transform="translate(609.038 843.343)">
        <path id="Trazado_16987" data-name="Trazado 16987" class="cls-4" d="M27.36,23.713a2.841,2.841,0,0,1,.276-2.172A2.873,2.873,0,0,1,28.852,20.4a3,3,0,0,1,1.328-.279,2.824,2.824,0,1,1-2.8,3.653c-.007-.021-.016-.043-.023-.064" transform="translate(-27.168 -20.033)"/>
        <path id="Trazado_16988" data-name="Trazado 16988" class="cls-4" d="M30.011,25.788h-.1a2.915,2.915,0,0,1-2.683-2.054c0-.012-.009-.025-.013-.038l-.008-.022.078-.029-.081.022a2.934,2.934,0,0,1,1.537-3.414,3.065,3.065,0,0,1,1.37-.289,2.913,2.913,0,0,1-.1,5.824m-2.64-2.174c.013.034.019.05.025.066A2.735,2.735,0,1,0,30.1,20.141a2.886,2.886,0,0,0-1.288.271,2.757,2.757,0,0,0-1.445,3.2" transform="translate(-27.097 -19.963)"/>
        <path id="Trazado_16989" data-name="Trazado 16989" class="cls-5" d="M30.329,25.7a2.505,2.505,0,1,1,.012,0h-.012" transform="translate(-27.415 -20.279)"/>
        <path id="Trazado_16990" data-name="Trazado 16990" class="cls-2" d="M30.229,25.682a.29.29,0,0,1-.289-.289v-.237a.422.422,0,0,1,.128-.3l1.526-1.527.7.7-1.526,1.526a.439.439,0,0,1-.139.095.419.419,0,0,1-.164.032Z" transform="translate(-28.35 -21.445)"/>
        <path id="Trazado_16991" data-name="Trazado 16991" class="cls-4" d="M31.479,23.371l.5.5L30.551,25.29a.286.286,0,0,1-.092.063.275.275,0,0,1-.108.021h-.237a.144.144,0,0,1-.142-.143v-.237a.277.277,0,0,1,.021-.108.288.288,0,0,1,.064-.092Zm0-.413-.206.206-1.423,1.423a.585.585,0,0,0-.126.185.569.569,0,0,0-.044.221v.237a.436.436,0,0,0,.434.435h.237a.569.569,0,0,0,.221-.044.578.578,0,0,0,.186-.126l1.423-1.423.206-.207-.206-.206-.5-.5Z" transform="translate(-28.235 -21.283)"/>
        <path id="Trazado_16992" data-name="Trazado 16992" class="cls-2" d="M32.754,23.176l.3-.3a.234.234,0,0,1,.333,0l.369.368a.236.236,0,0,1,0,.333l-.3.3Z" transform="translate(-29.59 -21.214)"/>
        <path id="Trazado_16993" data-name="Trazado 16993" class="cls-4" d="M33.061,22.834a.087.087,0,0,1,.063.026l.369.369a.089.089,0,0,1,0,.126l-.2.2-.5-.5.2-.2a.087.087,0,0,1,.063-.026m0-.292a.379.379,0,0,0-.27.112l-.2.2-.207.206.207.207.495.495.207.207.206-.207.2-.2a.381.381,0,0,0,0-.539l-.369-.369a.379.379,0,0,0-.27-.112" transform="translate(-29.427 -21.099)"/>
      </g>
      <rect id="Rectángulo_11220" data-name="Rectángulo 11220" class="cls-7" width="18.733" height="15.168" transform="translate(596.134 834)"/>
    </g>
  </g>
</svg>
