<svg xmlns="http://www.w3.org/2000/svg" xmlns:xlink="http://www.w3.org/1999/xlink" width="20" height="20" viewBox="0 0 20 20">
  <defs>
    <style>
      .cls-1 {
        fill: none;
      }

      .cls-2 {
        clip-path: url(#clip-iconSASA2);
      }

      .cls-3 {
        clip-path: url(#clip-path);
      }

      .cls-4 {
        fill: #9bc8fe;
      }

      .cls-5 {
        fill: #2e72b9;
      }

      .cls-6 {
        fill: #fdfcfd;
      }

      .cls-7 {
        fill: #276fba;
      }
    </style>
    <clipPath id="clip-path">
      <rect id="Rectángulo_11153" data-name="Rectángulo 11153" class="cls-1" width="17.945" height="17.921"/>
    </clipPath>
    <clipPath id="clip-iconSASA2">
      <rect width="20" height="20"/>
    </clipPath>
  </defs>
  <g id="iconSASA2" class="cls-2">
    <g id="Grupo_22918" data-name="Grupo 22918" transform="translate(1.027 1.04)">
      <g id="Grupo_22820" data-name="Grupo 22820" class="cls-3" transform="translate(0 0)">
        <path id="Trazado_16828" data-name="Trazado 16828" class="cls-4" d="M10.808,15.315a4.718,4.718,0,0,1,5.838-4.6,18.945,18.945,0,0,0,.558-4.74V4.316a.871.871,0,0,0-.817-.868,16.857,16.857,0,0,1-4.357-.839,13.708,13.708,0,0,1-2.246-.978.864.864,0,0,0-.844,0A13.7,13.7,0,0,1,6.7,2.609a16.857,16.857,0,0,1-4.358.839.871.871,0,0,0-.816.868V5.977a17.162,17.162,0,0,0,1.113,6.449,10.5,10.5,0,0,0,2.492,3.724,9.131,9.131,0,0,0,4.041,2.227.875.875,0,0,0,.389,0,8.463,8.463,0,0,0,1.883-.707,4.7,4.7,0,0,1-.632-2.356" transform="translate(-1 -1)"/>
        <path id="Trazado_16829" data-name="Trazado 16829" class="cls-5" d="M21.162,18.356a1.315,1.315,0,0,1-.409.968l-.689.694c-.722.725-1.539,1.548-2.368,2.363a1.386,1.386,0,0,1-1.959.068c-.022-.021-.044-.042-.064-.064q-.582-.562-1.146-1.146A1.4,1.4,0,1,1,16.465,19.2c.2.186.29.135.449-.028q.919-.942,1.861-1.862a1.4,1.4,0,0,1,2.385,1.043" transform="translate(-9.264 -11.114)"/>
        <path id="Trazado_16830" data-name="Trazado 16830" class="cls-6" d="M18.337,23.546a.643.643,0,0,1-.5-.209c-.349-.35-.7-.694-1.047-1.05a.664.664,0,0,1-.065-.937l.036-.038a.656.656,0,0,1,.927-.019.666.666,0,0,1,.048.051c.7.757.739.446,1.228-.034.59-.58,1.171-1.171,1.757-1.753a.681.681,0,1,1,.947.955q-1.373,1.38-2.752,2.758a.724.724,0,0,1-.581.276" transform="translate(-10.89 -12.673)"/>
        <path id="Trazado_16831" data-name="Trazado 16831" class="cls-5" d="M37.986,38.034l-.169-.47a2.773,2.773,0,0,0,.355-.5,2.622,2.622,0,0,0,.226-.56l.486-.113a.5.5,0,0,0,.32-.21.565.565,0,0,0,.109-.358L39.3,35.6a.516.516,0,0,0-.137-.34.546.546,0,0,0-.333-.175l-.449-.065a2.41,2.41,0,0,0-.263-.545A2.884,2.884,0,0,0,37.73,34l.145-.412a.616.616,0,0,0,0-.4.524.524,0,0,0-.253-.3l-.164-.089a.53.53,0,0,0-.385-.054.6.6,0,0,0-.337.211l-.271.35a2.875,2.875,0,0,0-.609-.07,2.419,2.419,0,0,0-.6.074l-.3-.342a.53.53,0,0,0-.333-.181.541.541,0,0,0-.365.073l-.184.106a.559.559,0,0,0-.241.284.5.5,0,0,0,0,.381l.159.465a2.666,2.666,0,0,0-.58,1.064l-.476.119a.5.5,0,0,0-.318.205.554.554,0,0,0-.107.354l.008.23a.516.516,0,0,0,.137.34.546.546,0,0,0,.333.175l.449.065a2.409,2.409,0,0,0,.263.545,2.886,2.886,0,0,0,.389.474l-.145.412a.617.617,0,0,0,0,.4.526.526,0,0,0,.253.3l.164.089a.532.532,0,0,0,.385.054.6.6,0,0,0,.337-.211l.271-.35a3.114,3.114,0,0,0,.606.075,2.066,2.066,0,0,0,.6-.079l.3.342a.531.531,0,0,0,.333.181.539.539,0,0,0,.365-.073l.184-.106a.593.593,0,0,0,.244-.289.5.5,0,0,0,0-.375m-1.645-.727a1.533,1.533,0,1,1,.917-.738,1.481,1.481,0,0,1-.917.738" transform="translate(-21.369 -21.517)"/>
        <path id="Trazado_16832" data-name="Trazado 16832" class="cls-7" d="M10.2,16.208a7.9,7.9,0,0,1-1.765.663.349.349,0,0,1-.155,0,8.583,8.583,0,0,1-3.8-2.1,9.985,9.985,0,0,1-2.367-3.541A16.654,16.654,0,0,1,1.042,4.978V3.317a.349.349,0,0,1,.328-.348A17.4,17.4,0,0,0,5.862,2.1,14.18,14.18,0,0,0,8.193,1.087a.344.344,0,0,1,.339,0A14.177,14.177,0,0,0,10.864,2.1a17.4,17.4,0,0,0,4.493.865.349.349,0,0,1,.328.348V4.978a18.4,18.4,0,0,1-.55,4.646,4.69,4.69,0,0,1,1.012.244,19.451,19.451,0,0,0,.58-4.891V3.317A1.393,1.393,0,0,0,15.42,1.929,16.305,16.305,0,0,1,11.2,1.116a13.139,13.139,0,0,1-2.16-.94,1.385,1.385,0,0,0-1.349,0,13.1,13.1,0,0,1-2.159.94,16.305,16.305,0,0,1-4.223.812A1.393,1.393,0,0,0,0,3.317V4.978a17.668,17.668,0,0,0,1.152,6.645A11.009,11.009,0,0,0,3.769,15.53a9.678,9.678,0,0,0,4.282,2.356,1.4,1.4,0,0,0,.312.035,1.387,1.387,0,0,0,.311-.035,9.059,9.059,0,0,0,2.052-.778,4.7,4.7,0,0,1-.522-.9" transform="translate(0 0)"/>
      </g>
    </g>
  </g>
</svg>
