<svg xmlns="http://www.w3.org/2000/svg" xmlns:xlink="http://www.w3.org/1999/xlink" width="25" height="14" viewBox="0 0 25 14">
  <defs>
    <style>
      .cls-1 {
        fill: none;
      }

      .cls-2 {
        clip-path: url(#clip-iconETLV2);
      }

      .cls-3 {
        clip-path: url(#clip-path);
      }

      .cls-4 {
        fill: #fff;
      }

      .cls-5 {
        fill: #276fba;
      }

      .cls-6 {
        fill: #2d72b9;
      }

      .cls-7 {
        fill: #9bc8fe;
      }
    </style>
    <clipPath id="clip-path">
      <rect id="Rectángulo_11152" data-name="Rectángulo 11152" class="cls-1" width="24.441" height="12.415" transform="translate(0 0)"/>
    </clipPath>
    <clipPath id="clip-iconETLV2">
      <rect width="25" height="14"/>
    </clipPath>
  </defs>
  <g id="iconETLV2" class="cls-2">
    <g id="Grupo_22890" data-name="Grupo 22890" transform="translate(0 1)">
      <g id="Grupo_22818" data-name="Grupo 22818" class="cls-3" transform="translate(0 0)">
        <path id="Trazado_16818" data-name="Trazado 16818" class="cls-4" d="M81.294,12.515l.075,0c.025,0,.05,0,.075,0Z" transform="translate(-60.399 -9.298)"/>
        <path id="Trazado_16819" data-name="Trazado 16819" class="cls-5" d="M81.375,12.135h-.08v-.4h.15v.4h-.07Z" transform="translate(-60.4 -8.714)"/>
        <path id="Trazado_16820" data-name="Trazado 16820" class="cls-4" d="M72.133,12.522a3.331,3.331,0,0,0-3.27,3.343,4.221,4.221,0,0,0,.911,2.434,17.643,17.643,0,0,1,1.765,2.814.668.668,0,0,0,.589.4.653.653,0,0,0,.6-.4A17.665,17.665,0,0,1,74.492,18.3a4.22,4.22,0,0,0,.911-2.434,3.331,3.331,0,0,0-3.27-3.343m0,5.034A1.269,1.269,0,1,1,73.4,16.287a1.269,1.269,0,0,1-1.269,1.269" transform="translate(-51.163 -9.304)"/>
        <path id="Trazado_16821" data-name="Trazado 16821" class="cls-6" d="M71.542,21.135a.873.873,0,0,1-.772-.523,12.428,12.428,0,0,0-1.332-2.189c-.144-.2-.285-.4-.416-.595a4.439,4.439,0,0,1-.946-2.547,3.522,3.522,0,0,1,3.468-3.544h.009a3.522,3.522,0,0,1,3.467,3.544,4.439,4.439,0,0,1-.946,2.546c-.131.195-.272.392-.416.595a12.45,12.45,0,0,0-1.332,2.189.856.856,0,0,1-.784.524m.006-8.813A2.989,2.989,0,0,0,68.61,15.33a3.81,3.81,0,0,0,.84,2.223c.124.183.257.37.393.562a12.414,12.414,0,0,1,1.314,2.163.449.449,0,0,0,.386.271.429.429,0,0,0,.4-.268,12.42,12.42,0,0,1,1.315-2.166c.136-.192.269-.379.393-.562a3.81,3.81,0,0,0,.839-2.222,2.989,2.989,0,0,0-2.938-3.008m0,4.93A1.549,1.549,0,1,1,73.092,15.7a1.549,1.549,0,0,1-1.549,1.549m0-2.615A1.067,1.067,0,1,0,72.61,15.7a1.067,1.067,0,0,0-1.067-1.067" transform="translate(-50.579 -8.72)"/>
        <path id="Trazado_16822" data-name="Trazado 16822" class="cls-4" d="M13.218,12.515l.075,0c.025,0,.05,0,.075,0Z" transform="translate(-9.821 -9.298)"/>
        <path id="Trazado_16823" data-name="Trazado 16823" class="cls-5" d="M13.3,12.135h-.08v-.4h.15v.4H13.3Z" transform="translate(-9.821 -8.714)"/>
        <path id="Trazado_16824" data-name="Trazado 16824" class="cls-4" d="M4.057,12.522a3.331,3.331,0,0,0-3.27,3.343A4.221,4.221,0,0,0,1.7,18.3a17.641,17.641,0,0,1,1.765,2.814.668.668,0,0,0,.589.4.653.653,0,0,0,.6-.4A17.666,17.666,0,0,1,6.416,18.3a4.22,4.22,0,0,0,.911-2.434,3.331,3.331,0,0,0-3.27-3.343m0,5.034a1.269,1.269,0,1,1,1.269-1.269,1.269,1.269,0,0,1-1.269,1.269" transform="translate(-0.585 -9.304)"/>
        <path id="Trazado_16825" data-name="Trazado 16825" class="cls-6" d="M3.466,21.135a.873.873,0,0,1-.772-.523,12.428,12.428,0,0,0-1.332-2.189c-.144-.2-.285-.4-.416-.595A4.439,4.439,0,0,1,0,15.281a3.522,3.522,0,0,1,3.468-3.544h.009a3.522,3.522,0,0,1,3.467,3.544A4.439,4.439,0,0,1,6,17.827c-.131.195-.272.392-.416.595A12.45,12.45,0,0,0,4.25,20.611a.856.856,0,0,1-.784.524m.006-8.813A2.989,2.989,0,0,0,.534,15.33a3.81,3.81,0,0,0,.84,2.223c.124.183.257.37.393.562A12.413,12.413,0,0,1,3.08,20.278a.449.449,0,0,0,.386.271.429.429,0,0,0,.4-.268,12.42,12.42,0,0,1,1.315-2.166c.136-.192.269-.379.393-.562A3.81,3.81,0,0,0,6.41,15.33a2.989,2.989,0,0,0-2.938-3.008m0,4.93A1.549,1.549,0,1,1,5.016,15.7a1.549,1.549,0,0,1-1.549,1.549m0-2.615A1.067,1.067,0,1,0,4.534,15.7a1.067,1.067,0,0,0-1.067-1.067" transform="translate(0 -8.72)"/>
        <path id="Trazado_16826" data-name="Trazado 16826" class="cls-7" d="M35.061,1.036a4.4,4.4,0,0,0-4.32,4.416,5.574,5.574,0,0,0,1.2,3.215,23.324,23.324,0,0,1,2.331,3.718.883.883,0,0,0,.777.533.863.863,0,0,0,.792-.533,23.324,23.324,0,0,1,2.331-3.718,5.574,5.574,0,0,0,1.2-3.215,4.4,4.4,0,0,0-4.32-4.416m-.006,6.649a1.676,1.676,0,1,1,1.676-1.676,1.676,1.676,0,0,1-1.676,1.676" transform="translate(-22.84 -0.77)"/>
        <path id="Trazado_16827" data-name="Trazado 16827" class="cls-6" d="M34.281,12.415a1.152,1.152,0,0,1-1.02-.691A16.448,16.448,0,0,0,31.5,8.832c-.191-.268-.376-.529-.549-.785A5.865,5.865,0,0,1,29.7,4.682,4.652,4.652,0,0,1,34.283,0h.012a4.652,4.652,0,0,1,4.58,4.682,5.866,5.866,0,0,1-1.249,3.363c-.174.257-.36.518-.55.786a16.439,16.439,0,0,0-1.759,2.891,1.131,1.131,0,0,1-1.036.692M34.288.7a4,4,0,0,0-3.935,4.029A5.1,5.1,0,0,0,31.478,7.7c.166.245.343.495.526.752a16.611,16.611,0,0,1,1.759,2.9.6.6,0,0,0,.518.364.576.576,0,0,0,.532-.36,16.627,16.627,0,0,1,1.761-2.9c.183-.257.36-.507.526-.752a5.1,5.1,0,0,0,1.124-2.976A4,4,0,0,0,34.288.7m-.006,6.587a2.046,2.046,0,1,1,2.046-2.046,2.046,2.046,0,0,1-2.046,2.046m0-3.455a1.409,1.409,0,1,0,1.409,1.41h0A1.411,1.411,0,0,0,34.282,3.83" transform="translate(-22.068 0)"/>
      </g>
    </g>
  </g>
</svg>
