<svg xmlns="http://www.w3.org/2000/svg" xmlns:xlink="http://www.w3.org/1999/xlink" width="20" height="20" viewBox="0 0 20 20">
  <defs>
    <style>
      .cls-1 {
        fill: none;
      }

      .cls-2 {
        clip-path: url(#clip-iconSISGOE2);
      }

      .cls-3 {
        clip-path: url(#clip-path);
      }

      .cls-4 {
        fill: #fff;
      }

      .cls-5 {
        fill: #276fba;
      }

      .cls-6 {
        fill: #9bc8fe;
      }

      .cls-7 {
        fill: #2e72b9;
      }

      .cls-8 {
        fill: #fdfcfd;
      }
    </style>
    <clipPath id="clip-path">
      <rect id="Rectángulo_11226" data-name="Rectángulo 11226" class="cls-1" width="18.271" height="15.794"/>
    </clipPath>
    <clipPath id="clip-iconSISGOE2">
      <rect width="20" height="20"/>
    </clipPath>
  </defs>
  <g id="iconSISGOE2" class="cls-2">
    <g id="Grupo_23021" data-name="Grupo 23021" transform="translate(-1400.65 -830.912)">
      <g id="Grupo_22977" data-name="Grupo 22977" transform="translate(1401.65 832.912)">
        <g id="Grupo_22976" data-name="Grupo 22976" class="cls-3" transform="translate(0 0)">
          <path id="Trazado_17091" data-name="Trazado 17091" class="cls-4" d="M1.464,4.318H14.639a1.089,1.089,0,0,1,1.089,1.09v7.343a1.088,1.088,0,0,1-1.089,1.089H1.464a1.089,1.089,0,0,1-1.09-1.089V5.408a1.09,1.09,0,0,1,1.09-1.09" transform="translate(-0.014 -0.161)"/>
          <path id="Trazado_17092" data-name="Trazado 17092" class="cls-5" d="M14.626,14.188H1.45A1.452,1.452,0,0,1,0,12.737V5.394A1.452,1.452,0,0,1,1.45,3.943H14.626a1.451,1.451,0,0,1,1.449,1.451v7.343a1.451,1.451,0,0,1-1.449,1.451M1.45,4.665a.729.729,0,0,0-.728.729v7.343a.729.729,0,0,0,.728.729H14.626a.729.729,0,0,0,.727-.729V5.394a.729.729,0,0,0-.727-.729Z" transform="translate(0 -0.147)"/>
          <path id="Trazado_17093" data-name="Trazado 17093" class="cls-5" d="M13.977,6.48H2.237a.361.361,0,1,1,0-.722h11.74a.361.361,0,0,1,0,.722" transform="translate(-0.07 -0.215)"/>
          <path id="Trazado_17099" data-name="Trazado 17099" class="cls-6" d="M11.364,5.919H5.088V1.124A.75.75,0,0,1,5.837.375h4.778a.749.749,0,0,1,.749.749Z" transform="translate(-0.189 -0.014)"/>
          <path id="Trazado_17100" data-name="Trazado 17100" class="cls-5" d="M11.712,6.266h-7V1.111A1.112,1.112,0,0,1,5.823,0H10.6a1.113,1.113,0,0,1,1.111,1.111ZM5.436,5.544H10.99V1.111A.389.389,0,0,0,10.6.722H5.823a.389.389,0,0,0-.387.389Z" transform="translate(-0.175 0)"/>
        </g>
      </g>
      <g id="Grupo_22986" data-name="Grupo 22986" transform="translate(1412.971 842.495)">
        <path id="Trazado_16863" data-name="Trazado 16863" class="cls-7" d="M68.6,90.924a3.389,3.389,0,0,1,.329-2.59,3.427,3.427,0,0,1,1.449-1.357,3.571,3.571,0,0,1,1.583-.333A3.367,3.367,0,1,1,68.632,91c-.008-.026-.018-.051-.028-.076" transform="translate(-68.376 -86.536)"/>
        <path id="Trazado_16864" data-name="Trazado 16864" class="cls-7" d="M70.917,92.544l-.121,0a3.475,3.475,0,0,1-3.2-2.449c0-.015-.01-.03-.016-.045l-.01-.027.093-.034-.1.027a3.5,3.5,0,0,1,1.833-4.07,3.652,3.652,0,0,1,1.633-.344,3.473,3.473,0,0,1-.117,6.944M67.77,89.95c.016.041.023.06.029.078a3.261,3.261,0,1,0,3.229-4.218,3.437,3.437,0,0,0-1.536.323,3.287,3.287,0,0,0-1.722,3.816" transform="translate(-67.442 -85.599)"/>
        <path id="Trazado_16865" data-name="Trazado 16865" class="cls-6" d="M75.139,96.32a2.987,2.987,0,1,1,.014,0h-.014" transform="translate(-71.665 -89.848)"/>
        <path id="Trazado_16866" data-name="Trazado 16866" class="cls-8" d="M82.022,104.541a.507.507,0,0,1-.248-.065l-.09-.049a.5.5,0,0,1-.238-.282.551.551,0,0,1,0-.355l.042-.118a1.841,1.841,0,0,1-.156-.2,1.569,1.569,0,0,1-.125-.234l-.135-.02a.509.509,0,0,1-.31-.164.5.5,0,0,1-.129-.324l0-.127a.516.516,0,0,1,.1-.327.482.482,0,0,1,.3-.194l.153-.038a1.669,1.669,0,0,1,.257-.471l-.051-.149a.484.484,0,0,1,0-.364.514.514,0,0,1,.221-.258l.1-.06a.5.5,0,0,1,.262-.072.519.519,0,0,1,.078.006.5.5,0,0,1,.312.173l.087.1a1.567,1.567,0,0,1,.258-.021,1.88,1.88,0,0,1,.264.02l.077-.1a.547.547,0,0,1,.305-.193.5.5,0,0,1,.116-.014.5.5,0,0,1,.247.065l.09.049a.5.5,0,0,1,.238.282.555.555,0,0,1,0,.355l-.042.119a1.819,1.819,0,0,1,.156.2,1.572,1.572,0,0,1,.126.234l.134.02a.511.511,0,0,1,.31.164.491.491,0,0,1,.13.324l.007.115a.528.528,0,0,1-.1.335.48.48,0,0,1-.306.2l-.153.036a1.708,1.708,0,0,1-.108.241,1.765,1.765,0,0,1-.148.226l.047.13.007.018a.483.483,0,0,1,0,.366.538.538,0,0,1-.221.261l-.107.062a.505.505,0,0,1-.262.072.517.517,0,0,1-.078-.006.5.5,0,0,1-.312-.171l-.086-.1a1.358,1.358,0,0,1-.246.022h-.025a1.976,1.976,0,0,1-.253-.023l-.076.1a.551.551,0,0,1-.3.193.5.5,0,0,1-.116.013m.725-2.615a.662.662,0,1,0,.159,1.306l.026-.008a.662.662,0,0,0-.185-1.3" transform="translate(-79.278 -99.1)"/>
        <path id="Trazado_16867" data-name="Trazado 16867" class="cls-7" d="M81.676,99.045a.3.3,0,0,1,.147.039l.093.05a.3.3,0,0,1,.142.168.349.349,0,0,1,0,.226l-.082.232a1.612,1.612,0,0,1,.219.267,1.356,1.356,0,0,1,.149.308l.253.037a.307.307,0,0,1,.187.1.288.288,0,0,1,.077.191l.007.124a.319.319,0,0,1-.062.2.284.284,0,0,1-.181.119l-.274.064a1.479,1.479,0,0,1-.127.316,1.553,1.553,0,0,1-.2.284l.1.265h0a.282.282,0,0,1,0,.212.333.333,0,0,1-.138.163l-.1.059a.306.306,0,0,1-.16.045.314.314,0,0,1-.235-.106l-.168-.193a1.165,1.165,0,0,1-.319.045H80.98a1.751,1.751,0,0,1-.342-.042l-.152.2a.343.343,0,0,1-.189.119.3.3,0,0,1-.217-.031l-.092-.05a.3.3,0,0,1-.143-.167.347.347,0,0,1,0-.226l.082-.232a1.637,1.637,0,0,1-.219-.267,1.358,1.358,0,0,1-.149-.307l-.253-.037a.307.307,0,0,1-.188-.1.292.292,0,0,1-.077-.192l0-.13a.312.312,0,0,1,.06-.2.283.283,0,0,1,.179-.115l.268-.067a1.568,1.568,0,0,1,.129-.319,1.538,1.538,0,0,1,.2-.281l-.089-.262a.282.282,0,0,1,0-.215.313.313,0,0,1,.135-.16l.1-.06a.305.305,0,0,1,.159-.045.31.31,0,0,1,.234.107l.168.192a1.356,1.356,0,0,1,.333-.042h.006a1.617,1.617,0,0,1,.343.039l.153-.2a.338.338,0,0,1,.189-.119.3.3,0,0,1,.07-.008m-.724,2.615a.866.866,0,0,0,.244-.035h0a.863.863,0,1,0-.246.037m.724-3.023a.7.7,0,0,0-.164.019.75.75,0,0,0-.415.262l0,0,0,0-.006.008c-.055,0-.109-.007-.164-.008h-.009q-.088,0-.176.009l-.016-.018a.708.708,0,0,0-.437-.241.715.715,0,0,0-.474.094l-.1.058a.725.725,0,0,0-.311.363.686.686,0,0,0-.005.506l.015.045c-.035.052-.068.105-.1.16s-.058.114-.083.173l-.046.012a.687.687,0,0,0-.422.276.723.723,0,0,0-.136.453l0,.125a.7.7,0,0,0,.185.457.714.714,0,0,0,.432.227l.024,0a1.762,1.762,0,0,0,.092.159q.046.07.1.135l0,.006v.007a.759.759,0,0,0,0,.488.7.7,0,0,0,.335.394l.088.048a.711.711,0,0,0,.509.07.754.754,0,0,0,.414-.261l0,0,0,0,0-.006q.078.008.156.01H81a1.582,1.582,0,0,0,.165-.009l.014.016a.706.706,0,0,0,.437.238.717.717,0,0,0,.473-.094l.1-.057,0,0,0,0a.747.747,0,0,0,.307-.362.685.685,0,0,0,0-.516l-.007-.017-.008-.021q.053-.078.1-.16t.08-.165l.05-.012a.687.687,0,0,0,.427-.282.729.729,0,0,0,.136-.455v-.007l-.007-.117a.7.7,0,0,0-.184-.45.717.717,0,0,0-.434-.228l-.022,0a1.735,1.735,0,0,0-.092-.159q-.045-.069-.1-.135l0-.006v-.008a.762.762,0,0,0,0-.487.7.7,0,0,0-.336-.395l-.087-.047a.708.708,0,0,0-.344-.089m-.724,2.615a.461.461,0,0,1-.44-.33.457.457,0,0,1,.44-.586.459.459,0,0,1,.439.329.457.457,0,0,1-.306.567h0l-.005,0-.023.007a.455.455,0,0,1-.1.012" transform="translate(-77.483 -97.304)"/>
      </g>
    </g>
  </g>
</svg>
