<svg xmlns="http://www.w3.org/2000/svg" xmlns:xlink="http://www.w3.org/1999/xlink" width="20" height="20" viewBox="0 0 20 20">
  <defs>
    <style>
      .cls-1 {
        fill: none;
      }

      .cls-2 {
        clip-path: url(#clip-iconSCM2);
      }

      .cls-3 {
        clip-path: url(#clip-path);
      }

      .cls-4 {
        fill: #fff;
      }

      .cls-5 {
        fill: #276fba;
      }

      .cls-6 {
        fill: #9bc8fe;
      }

      .cls-7 {
        fill: #2e72b9;
      }

      .cls-8 {
        fill: #fdfcfd;
      }
    </style>
    <clipPath id="clip-path">
      <rect id="Rectángulo_11228" data-name="Rectángulo 11228" class="cls-1" width="18.059" height="14.473"/>
    </clipPath>
    <clipPath id="clip-iconSCM2">
      <rect width="20" height="20"/>
    </clipPath>
  </defs>
  <g id="iconSCM2" class="cls-2">
    <g id="Grupo_23028" data-name="Grupo 23028" transform="translate(1.034 2.814)">
      <g id="Grupo_22979" data-name="Grupo 22979" class="cls-3" transform="translate(0 0.001)">
        <path id="Trazado_17101" data-name="Trazado 17101" class="cls-4" d="M2.866,4.319H14.938a1,1,0,0,1,1,1v6.729a1,1,0,0,1-1,1H2.866a1,1,0,0,1-1-1V5.318a1,1,0,0,1,1-1" transform="translate(-0.22 -0.509)"/>
        <path id="Trazado_17102" data-name="Trazado 17102" class="cls-5" d="M14.894,13.331H2.822A1.331,1.331,0,0,1,1.492,12V5.273a1.331,1.331,0,0,1,1.33-1.33H14.894a1.33,1.33,0,0,1,1.329,1.33V12a1.33,1.33,0,0,1-1.329,1.33M2.822,4.6a.669.669,0,0,0-.668.668V12a.669.669,0,0,0,.668.668H14.894A.668.668,0,0,0,15.561,12V5.273a.668.668,0,0,0-.667-.668Z" transform="translate(-0.176 -0.465)"/>
        <path id="Trazado_17103" data-name="Trazado 17103" class="cls-5" d="M14.459,6.42H3.7a.331.331,0,1,1,0-.662H14.459a.331.331,0,1,1,0,.662" transform="translate(-0.397 -0.679)"/>
        <path id="Trazado_17104" data-name="Trazado 17104" class="cls-6" d="M12.333,5.455H6.582V1.061A.687.687,0,0,1,7.267.375h4.378a.687.687,0,0,1,.687.686Z" transform="translate(-0.775 -0.045)"/>
        <path id="Trazado_17105" data-name="Trazado 17105" class="cls-5" d="M12.62,5.742H6.207V1.018A1.019,1.019,0,0,1,7.223,0H11.6A1.02,1.02,0,0,1,12.62,1.018ZM6.869,5.08h5.09V1.018A.357.357,0,0,0,11.6.662H7.223a.356.356,0,0,0-.355.356Z" transform="translate(-0.731 0)"/>
        <path id="Trazado_17106" data-name="Trazado 17106" class="cls-5" d="M15.614,15.032H.3a.3.3,0,0,1-.3-.3v-.547a.3.3,0,0,1,.3-.3H15.614a.3.3,0,0,1,.3.3v.547a.3.3,0,0,1-.3.3" transform="translate(0 -1.636)"/>
        <path id="Trazado_17107" data-name="Trazado 17107" class="cls-7" d="M13.8,13.374a2.959,2.959,0,0,1,.288-2.262,2.991,2.991,0,0,1,1.266-1.186,3.12,3.12,0,0,1,1.383-.291,2.941,2.941,0,1,1-2.912,3.805c-.007-.023-.017-.045-.025-.067" transform="translate(-1.613 -1.135)"/>
        <path id="Trazado_17108" data-name="Trazado 17108" class="cls-7" d="M16.625,15.6l-.106,0a3.037,3.037,0,0,1-2.795-2.139.343.343,0,0,0-.014-.039l-.008-.024.081-.03-.084.024a3.055,3.055,0,0,1,1.6-3.555,3.185,3.185,0,0,1,1.427-.3,3.033,3.033,0,0,1-.1,6.065M13.876,13.33c.014.035.02.052.026.069a2.848,2.848,0,1,0,2.82-3.685A3,3,0,0,0,15.381,10a2.872,2.872,0,0,0-1.505,3.334" transform="translate(-1.601 -1.123)"/>
        <path id="Trazado_17109" data-name="Trazado 17109" class="cls-6" d="M16.68,15.238a2.609,2.609,0,1,1,.012,0H16.68" transform="translate(-1.657 -1.179)"/>
        <path id="Trazado_17110" data-name="Trazado 17110" class="cls-7" d="M18.5,12.012a.65.65,0,0,1-.2.477l-.341.341c-.356.358-.76.764-1.168,1.165a.683.683,0,0,1-.966.034A.368.368,0,0,1,15.792,14q-.287-.277-.566-.566a.693.693,0,0,1,.956-1c.1.091.144.066.221-.014q.454-.464.918-.918a.691.691,0,0,1,1.177.514" transform="translate(-1.77 -1.331)"/>
        <path id="Trazado_17111" data-name="Trazado 17111" class="cls-8" d="M16.333,13.9a.334.334,0,0,1-.257-.108c-.18-.181-.363-.359-.54-.543a.343.343,0,0,1-.034-.483l.019-.02A.338.338,0,0,1,16,12.734c.009.009.018.018.026.027.361.39.382.23.634-.018.3-.3.6-.6.907-.905a.351.351,0,1,1,.489.492q-.709.713-1.422,1.424a.375.375,0,0,1-.3.143" transform="translate(-1.816 -1.378)"/>
      </g>
    </g>
  </g>
</svg>
