<svg xmlns="http://www.w3.org/2000/svg" xmlns:xlink="http://www.w3.org/1999/xlink" width="20" height="20" viewBox="0 0 20 20">
  <defs>
    <style>
      .cls-1 {
        fill: none;
      }

      .cls-2 {
        clip-path: url(#clip-iconCAE2);
      }

      .cls-3 {
        clip-path: url(#clip-path);
      }

      .cls-4 {
        fill: #fff;
      }

      .cls-5 {
        fill: #276fba;
      }

      .cls-6 {
        fill: #9bc8fe;
      }

      .cls-7 {
        fill: #2d72b9;
      }

      .cls-8 {
        fill: #2e72b9;
      }

      .cls-9 {
        fill: #fdfcfd;
      }
    </style>
    <clipPath id="clip-path">
      <rect id="Rectángulo_11221" data-name="Rectángulo 11221" class="cls-1" width="15.787" height="18.315"/>
    </clipPath>
    <clipPath id="clip-iconCAE2">
      <rect width="20" height="20"/>
    </clipPath>
  </defs>
  <g id="iconCAE2" class="cls-2">
    <g id="Grupo_23025" data-name="Grupo 23025" transform="translate(2.106 0.843)">
      <g id="Grupo_22955" data-name="Grupo 22955" class="cls-3" transform="translate(0 0)">
        <path id="Trazado_16994" data-name="Trazado 16994" class="cls-4" d="M1.676,1.1H15.84a.55.55,0,0,1,.549.55v7.1a.55.55,0,0,1-.55.55H1.676a.55.55,0,0,1-.55-.55v-7.1a.55.55,0,0,1,.55-.55" transform="translate(-0.864 -0.845)"/>
        <path id="Trazado_16995" data-name="Trazado 16995" class="cls-5" d="M14.994,8.716H.831a.808.808,0,0,1-.807-.807V.807A.808.808,0,0,1,.831,0H14.995A.808.808,0,0,1,15.8.807v7.1a.808.808,0,0,1-.807.807M.831.513A.294.294,0,0,0,.537.806h0v7.1A.294.294,0,0,0,.83,8.2H14.994a.294.294,0,0,0,.294-.294V.807a.294.294,0,0,0-.294-.294Z" transform="translate(-0.018 0)"/>
        <path id="Trazado_16996" data-name="Trazado 16996" class="cls-6" d="M42.075,9.993H44.5a.8.8,0,0,1,.807.8v2.4a.8.8,0,0,1-.807.8H42.075a.8.8,0,0,1-.807-.8h0v-2.4a.8.8,0,0,1,.807-.8h0" transform="translate(-31.654 -7.665)"/>
        <path id="Trazado_16997" data-name="Trazado 16997" class="cls-7" d="M43.719,13.465H41.3a1.04,1.04,0,0,1-1.042-1.035V10.025A1.04,1.04,0,0,1,41.3,8.99h2.423a1.04,1.04,0,0,1,1.042,1.035V12.43a1.04,1.04,0,0,1-1.042,1.035M41.3,9.457a.57.57,0,0,0-.571.568V12.43A.57.57,0,0,0,41.3,13h2.422a.57.57,0,0,0,.572-.568V10.025a.57.57,0,0,0-.572-.568Z" transform="translate(-30.876 -6.896)"/>
        <path id="Trazado_16998" data-name="Trazado 16998" class="cls-8" d="M46.868,14.35a.5.5,0,0,1-.156.366l-.262.262c-.275.274-.587.585-.9.894a.53.53,0,0,1-.745.026l-.023-.023q-.222-.213-.436-.433a.529.529,0,0,1,0-.748l0,0a.538.538,0,0,1,.737-.017c.077.07.111.051.171-.01q.349-.356.709-.7a.536.536,0,0,1,.755.005.528.528,0,0,1,.154.389" transform="translate(-33.893 -10.588)"/>
        <path id="Trazado_16999" data-name="Trazado 16999" class="cls-9" d="M46.218,16.733a.244.244,0,0,1-.188-.079c-.132-.132-.267-.261-.4-.4a.249.249,0,0,1-.026-.351v0l.014-.015a.25.25,0,0,1,.351-.007l.018.02c.265.285.281.167.466-.013.224-.218.443-.441.666-.66a.259.259,0,0,1,.361-.056.256.256,0,0,1,.057.358h0a.255.255,0,0,1-.058.057q-.521.521-1.045,1.039a.276.276,0,0,1-.22.1" transform="translate(-34.936 -11.601)"/>
        <path id="Trazado_17000" data-name="Trazado 17000" class="cls-5" d="M13,9.882H6.353a.256.256,0,1,1,0-.513H13a.256.256,0,1,1,0,.513" transform="translate(-4.677 -7.186)"/>
        <path id="Trazado_17001" data-name="Trazado 17001" class="cls-5" d="M12.4,17.895H6.381a.256.256,0,1,1,0-.513H12.4a.256.256,0,1,1,0,.513" transform="translate(-4.698 -13.333)"/>
        <path id="Trazado_17002" data-name="Trazado 17002" class="cls-5" d="M11.8,25.9H6.37a.258.258,0,0,1,0-.513H11.8a.258.258,0,0,1,0,.513" transform="translate(-4.712 -19.477)"/>
        <path id="Trazado_17003" data-name="Trazado 17003" class="cls-8" d="M7.568,49.125H7.549a1.851,1.851,0,0,1-1.832-1.869V47.25a1.817,1.817,0,0,1,1.8-1.829H7.59a1.852,1.852,0,1,1-.022,3.7M6.111,47.261a1.457,1.457,0,1,0,1.471-1.444h-.06a1.424,1.424,0,0,0-1.41,1.434v.01" transform="translate(-4.385 -34.84)"/>
        <path id="Trazado_17004" data-name="Trazado 17004" class="cls-6" d="M8.909,62.379l0-.017v-.017a2.315,2.315,0,0,0-.868-1.871A.278.278,0,0,0,7.85,60.4a.3.3,0,0,0-.115.023,2.5,2.5,0,0,1-1.315.136l-.028,0c-.047-.008-.093-.02-.14-.031-.031-.007-.062-.013-.092-.022l-.074-.023c-.052-.016-.1-.032-.155-.052a.3.3,0,0,0-.115-.023.278.278,0,0,0-.188.072,2.325,2.325,0,0,0-.373.375c-.028.035-.055.072-.081.109l0,.005-.018.026h0a2.313,2.313,0,0,0-.393,1.356v.017l0,.017a.275.275,0,0,0,.192.3l.025.01a4.381,4.381,0,0,0,2.539.355l.091-.014.019,0a4.377,4.377,0,0,0,1.067-.339l.025-.01a.275.275,0,0,0,.192-.3" transform="translate(-3.647 -46.331)"/>
        <path id="Trazado_17005" data-name="Trazado 17005" class="cls-8" d="M6.512,59.034a.279.279,0,0,1,.186.072,2.316,2.316,0,0,1,.869,1.872v.017l0,.017a.276.276,0,0,1-.192.3l-.025.01a4.383,4.383,0,0,1-1.066.338l-.019,0-.092.015a4.385,4.385,0,0,1-2.539-.355l-.025-.01a.276.276,0,0,1-.192-.3l0-.017V60.98a2.313,2.313,0,0,1,.394-1.356s.074-.106.1-.14a2.306,2.306,0,0,1,.373-.375.279.279,0,0,1,.186-.072.3.3,0,0,1,.115.023c.051.02.1.036.155.052.025.008.049.017.074.023s.061.015.092.022c.047.011.093.023.14.031l.028,0A2.5,2.5,0,0,0,6.4,59.057a.3.3,0,0,1,.115-.023Zm0-.408h0a.7.7,0,0,0-.267.053,2.077,2.077,0,0,1-.752.14,2.1,2.1,0,0,1-.344-.028l-.027,0c-.027,0-.056-.012-.087-.02l-.026-.006-.037-.009-.038-.009-.026-.008-.038-.012-.011,0c-.041-.013-.08-.025-.113-.038a.7.7,0,0,0-.266-.053.685.685,0,0,0-.451.168,2.738,2.738,0,0,0-.429.434,1.468,1.468,0,0,0-.13.18,2.706,2.706,0,0,0-.455,1.565.679.679,0,0,0,.463.725h0a4.792,4.792,0,0,0,2.762.382l.022,0,.077-.013.02,0A4.806,4.806,0,0,0,7.511,61.7h0a.679.679,0,0,0,.463-.725,2.739,2.739,0,0,0-1.014-2.179.685.685,0,0,0-.451-.169" transform="translate(-2.308 -44.968)"/>
        <path id="Trazado_17006" data-name="Trazado 17006" class="cls-4" d="M7.309,48.478a1.449,1.449,0,0,1,1.436-1.462H8.8a1.48,1.48,0,1,1-1.494,1.465v0" transform="translate(-5.606 -36.063)"/>
        <path id="Trazado_17007" data-name="Trazado 17007" class="cls-8" d="M48.4,49.125h-.019a1.851,1.851,0,0,1-1.833-1.869V47.25a1.817,1.817,0,0,1,1.8-1.829h.072a1.852,1.852,0,0,1-.022,3.7m-1.457-1.864a1.456,1.456,0,1,0,1.471-1.444h-.06a1.424,1.424,0,0,0-1.41,1.434v.01" transform="translate(-35.707 -34.84)"/>
        <path id="Trazado_17008" data-name="Trazado 17008" class="cls-6" d="M49.744,62.379l0-.017v-.017a2.315,2.315,0,0,0-.868-1.871.277.277,0,0,0-.188-.073.3.3,0,0,0-.115.023,2.5,2.5,0,0,1-1.315.136l-.028,0c-.047-.008-.093-.02-.14-.031-.031-.007-.062-.013-.092-.022l-.074-.023c-.052-.016-.1-.032-.155-.052a.3.3,0,0,0-.115-.023.278.278,0,0,0-.188.072,2.325,2.325,0,0,0-.373.375c-.028.035-.055.072-.081.109l0,.005-.018.026h0a2.315,2.315,0,0,0-.393,1.356v.017l0,.017a.275.275,0,0,0,.192.3l.025.01a4.381,4.381,0,0,0,2.539.355l.091-.014.019,0a4.377,4.377,0,0,0,1.067-.339l.025-.01a.275.275,0,0,0,.192-.3" transform="translate(-34.969 -46.331)"/>
        <path id="Trazado_17009" data-name="Trazado 17009" class="cls-8" d="M47.346,59.032a.279.279,0,0,1,.186.072,2.315,2.315,0,0,1,.868,1.871v.017l0,.017a.276.276,0,0,1-.192.3l-.025.01a4.375,4.375,0,0,1-1.067.339l-.019,0-.092.015a4.385,4.385,0,0,1-2.539-.355l-.025-.01a.276.276,0,0,1-.192-.3l0-.017v-.017a2.313,2.313,0,0,1,.394-1.356s.074-.106.1-.14a2.306,2.306,0,0,1,.373-.375.279.279,0,0,1,.186-.072.3.3,0,0,1,.115.023c.051.02.1.036.155.052.025.008.049.017.074.023s.061.015.092.022c.047.011.093.023.14.031l.028,0a2.5,2.5,0,0,0,1.315-.136.3.3,0,0,1,.115-.023Zm0-.408h0a.7.7,0,0,0-.267.053,2.077,2.077,0,0,1-.752.14,2.1,2.1,0,0,1-.344-.028l-.027,0c-.027,0-.056-.012-.087-.02l-.026-.006L45.8,58.75l-.038-.009-.026-.008L45.7,58.72l-.011,0c-.041-.013-.08-.025-.113-.038a.7.7,0,0,0-.266-.053.685.685,0,0,0-.452.169,2.738,2.738,0,0,0-.429.434,1.468,1.468,0,0,0-.13.18,2.706,2.706,0,0,0-.455,1.565.679.679,0,0,0,.463.725h0a4.792,4.792,0,0,0,2.762.382l.022,0,.077-.013.02,0a4.792,4.792,0,0,0,1.154-.365h0a.679.679,0,0,0,.463-.725A2.739,2.739,0,0,0,47.8,58.792a.685.685,0,0,0-.451-.169" transform="translate(-33.629 -44.966)"/>
        <path id="Trazado_17010" data-name="Trazado 17010" class="cls-4" d="M48.144,48.478a1.449,1.449,0,0,1,1.436-1.462h.058a1.48,1.48,0,1,1-1.494,1.465v0" transform="translate(-36.928 -36.063)"/>
        <path id="Trazado_17011" data-name="Trazado 17011" class="cls-8" d="M27.979,54.025H27.96a1.851,1.851,0,0,1-1.832-1.869v-.006a1.817,1.817,0,0,1,1.8-1.827H28a1.851,1.851,0,0,1-.021,3.7M26.522,52.16a1.457,1.457,0,1,0,1.471-1.444h-.06a1.424,1.424,0,0,0-1.41,1.434v.011" transform="translate(-20.041 -38.599)"/>
        <path id="Trazado_17012" data-name="Trazado 17012" class="cls-6" d="M29.317,67.277l0-.017v-.017a2.314,2.314,0,0,0-.868-1.871.277.277,0,0,0-.188-.073.3.3,0,0,0-.115.023,2.5,2.5,0,0,1-1.315.136l-.028,0c-.047-.008-.093-.02-.14-.031-.031-.007-.062-.013-.092-.022l-.074-.023c-.052-.016-.1-.032-.155-.052a.3.3,0,0,0-.115-.023.278.278,0,0,0-.188.072,2.325,2.325,0,0,0-.373.375c-.028.035-.055.072-.081.109l0,.005-.018.026h0a2.313,2.313,0,0,0-.394,1.356v.017l0,.017a.275.275,0,0,0,.192.3l.025.01a4.381,4.381,0,0,0,2.539.355l.091-.014.019,0A4.367,4.367,0,0,0,29.1,67.59l.025-.01a.275.275,0,0,0,.192-.3" transform="translate(-19.3 -50.088)"/>
        <path id="Trazado_17013" data-name="Trazado 17013" class="cls-8" d="M26.924,63.933a.279.279,0,0,1,.186.072,2.315,2.315,0,0,1,.868,1.871v.017l0,.017a.276.276,0,0,1-.192.3l-.025.01a4.376,4.376,0,0,1-1.067.339l-.019,0-.092.015a4.385,4.385,0,0,1-2.539-.355l-.025-.01a.276.276,0,0,1-.192-.3l0-.017v-.017a2.313,2.313,0,0,1,.394-1.356s.074-.106.1-.14a2.306,2.306,0,0,1,.373-.375.279.279,0,0,1,.186-.072A.3.3,0,0,1,25,63.96c.051.02.1.036.155.052.025.008.049.017.074.023s.061.015.092.022c.047.011.093.023.14.031l.028,0a2.5,2.5,0,0,0,1.315-.136.3.3,0,0,1,.115-.023Zm0-.408h0a.7.7,0,0,0-.267.053,2.077,2.077,0,0,1-.752.14,2.1,2.1,0,0,1-.344-.028l-.027,0c-.027,0-.056-.012-.087-.02l-.026-.006-.037-.009-.038-.009-.026-.008-.038-.012-.011,0c-.041-.013-.08-.025-.113-.038a.7.7,0,0,0-.266-.053.685.685,0,0,0-.452.169,2.738,2.738,0,0,0-.429.434,1.467,1.467,0,0,0-.13.18,2.706,2.706,0,0,0-.455,1.565.679.679,0,0,0,.463.725h0a4.792,4.792,0,0,0,2.762.382l.022,0,.077-.013.02,0a4.792,4.792,0,0,0,1.154-.365h0a.679.679,0,0,0,.463-.725,2.74,2.74,0,0,0-1.014-2.179.685.685,0,0,0-.45-.168" transform="translate(-17.964 -48.726)"/>
        <path id="Trazado_17014" data-name="Trazado 17014" class="cls-4" d="M27.72,53.378a1.449,1.449,0,0,1,1.436-1.462h.058a1.48,1.48,0,1,1-1.494,1.465v0" transform="translate(-21.262 -39.822)"/>
        <line id="Línea_508" data-name="Línea 508" class="cls-9" y2="2.61" transform="translate(0.245 7.385)"/>
        <path id="Trazado_17015" data-name="Trazado 17015" class="cls-8" d="M.245,33.749A.245.245,0,0,1,0,33.5v-2.61a.245.245,0,0,1,.489,0V33.5a.245.245,0,0,1-.245.245" transform="translate(0 -23.51)"/>
        <line id="Línea_509" data-name="Línea 509" class="cls-9" y2="2.61" transform="translate(15.542 7.385)"/>
        <path id="Trazado_17016" data-name="Trazado 17016" class="cls-8" d="M65.912,33.749a.245.245,0,0,1-.245-.245v-2.61a.245.245,0,0,1,.489,0V33.5a.245.245,0,0,1-.245.245" transform="translate(-50.369 -23.51)"/>
      </g>
    </g>
  </g>
</svg>
