<svg xmlns="http://www.w3.org/2000/svg" xmlns:xlink="http://www.w3.org/1999/xlink" width="20" height="20" viewBox="0 0 20 20">
  <defs>
    <style>
      .cls-1 {
        fill: none;
      }

      .cls-2 {
        clip-path: url(#clip-iconSIDEMM2);
      }

      .cls-3 {
        clip-path: url(#clip-path);
      }

      .cls-4 {
        opacity: 0.98;
      }

      .cls-5 {
        fill: #2a70b8;
      }

      .cls-6 {
        fill: #fefefe;
      }

      .cls-7 {
        fill: #9ac7fe;
      }

      .cls-8 {
        fill: #fdfefe;
      }
    </style>
    <clipPath id="clip-path">
      <rect id="Rect치ngulo_11063" data-name="Rect치ngulo 11063" class="cls-1" width="20" height="18.019"/>
    </clipPath>
    <clipPath id="clip-iconSIDEMM2">
      <rect width="20" height="20"/>
    </clipPath>
  </defs>
  <g id="iconSIDEMM2" class="cls-2">
    <g id="Grupo_22920" data-name="Grupo 22920" transform="translate(0 0.991)">
      <g id="Grupo_22670" data-name="Grupo 22670" class="cls-3">
        <g id="Grupo_22669" data-name="Grupo 22669">
          <g id="Grupo_22668" data-name="Grupo 22668" class="cls-3">
            <g id="Grupo_22667" data-name="Grupo 22667" class="cls-4">
              <g id="Grupo_22666" data-name="Grupo 22666">
                <g id="Grupo_22665" data-name="Grupo 22665" class="cls-3">
                  <path id="Trazado_16521" data-name="Trazado 16521" class="cls-5" d="M11.793,209.054l2.273-.811q1.989-.71,3.977-1.42a1.651,1.651,0,0,1,1.417.119.923.923,0,0,1,.051,1.654c-.379.242-.782.445-1.176.663-1.808,1-3.62,2-5.425,3.008a3.412,3.412,0,0,1-2.156.376c-.9-.112-1.8-.209-2.7-.343q-1.79-.266-3.579-.536c-.213-.032-.426-.06-.639-.1a.137.137,0,0,0-.176.1.788.788,0,0,1-.778.489q-1.019,0-2.038,0A.8.8,0,0,1,0,211.408q0-2.567,0-5.134a.792.792,0,0,1,.859-.851c.64,0,1.281.015,1.92-.005a.859.859,0,0,1,.958.707c.268-.065.537-.131.807-.194a7.689,7.689,0,0,1,.918-.192,2.731,2.731,0,0,1,1.382.186q2.135.9,4.26,1.824a1.14,1.14,0,0,1,.72.865,1.419,1.419,0,0,1-.031.44" transform="translate(0.001 -194.658)"/>
                  <path id="Trazado_16522" data-name="Trazado 16522" class="cls-5" d="M54.783,9.769q-3.646,0-7.292,0a1.024,1.024,0,0,1-.771-.269,1,1,0,0,1-.286-.745q0-3.45,0-6.9c0-.288,0-.575,0-.863a.946.946,0,0,1,1-.993h14.7a.946.946,0,0,1,1,1q0,3.881,0,7.763a.934.934,0,0,1-1,1.007c-1.509,0-3.019,0-4.528,0H54.783" transform="translate(-44.001 -0.001)"/>
                  <path id="Trazado_16523" data-name="Trazado 16523" class="cls-6" d="M71.135,222.113c0-.706,0-1.411,0-2.117,0-.156.05-.208.2-.24.446-.1.887-.212,1.332-.315a2.274,2.274,0,0,1,1.421.115q2.127.9,4.244,1.818a.644.644,0,0,1,.469.592.673.673,0,0,1-.508.628,1.458,1.458,0,0,1-1.143-.018q-1.159-.5-2.32-.992c-.077-.033-.153-.079-.243-.04a.224.224,0,0,0-.14.2.2.2,0,0,0,.141.212c.275.119.551.236.827.353.5.212,1,.414,1.493.637a1.931,1.931,0,0,0,1.39.091c1.147-.333,2.261-.76,3.382-1.169,1.219-.444,2.428-.915,3.664-1.31a2.213,2.213,0,0,1,.819-.168.954.954,0,0,1,.647.286.456.456,0,0,1-.046.73,1.585,1.585,0,0,1-.23.148q-3.21,1.779-6.42,3.559a3.012,3.012,0,0,1-1.949.325c-1.06-.147-2.122-.274-3.182-.422-.995-.139-1.988-.295-2.981-.444-.226-.034-.45-.079-.677-.1-.15-.014-.191-.073-.19-.221.008-.712,0-1.424,0-2.137" transform="translate(-67.405 -207.888)"/>
                  <path id="Trazado_16524" data-name="Trazado 16524" class="cls-7" d="M11.018,216.32q0,1.245,0,2.489c0,.375-.118.492-.49.492H8.587c-.306,0-.439-.134-.439-.441,0-1.705,0-3.411-.005-5.116a.413.413,0,0,1,.435-.439c.673,0,1.346,0,2.019,0a.378.378,0,0,1,.42.428c0,.862,0,1.725,0,2.587" transform="translate(-7.716 -202.13)"/>
                  <path id="Trazado_16525" data-name="Trazado 16525" class="cls-7" d="M62.454,8.06c2.437,0,4.874.005,7.311-.006a.577.577,0,0,1,.6.6q-.019,3.861,0,7.722a.594.594,0,0,1-.615.622q-7.311,0-14.622,0a.594.594,0,0,1-.616-.622q.019-3.861,0-7.722a.579.579,0,0,1,.606-.6c2.443.011,4.887.006,7.33.006" transform="translate(-51.661 -7.632)"/>
                  <path id="Trazado_16526" data-name="Trazado 16526" class="cls-5" d="M23.795,226.78c0,.2,0,.391,0,.587a.308.308,0,0,1-.328.333c-.235.005-.47.006-.7,0a.327.327,0,0,1-.34-.349q-.007-.587,0-1.174a.3.3,0,0,1,.333-.324q.352-.005.7,0a.3.3,0,0,1,.335.34c0,.2,0,.391,0,.587" transform="translate(-21.244 -214.021)"/>
                  <path id="Trazado_16527" data-name="Trazado 16527" class="cls-5" d="M31.9,277.891c0,.242,0,.483,0,.725,0,.178-.063.25-.2.253s-.224-.073-.226-.253q0-.715,0-1.43c0-.19.085-.288.225-.28s.2.1.2.281c0,.235,0,.47,0,.705" transform="translate(-29.821 -262.402)"/>
                  <path id="Trazado_16528" data-name="Trazado 16528" class="cls-5" d="M77.463,28.2a2.4,2.4,0,0,1-2.478-2.5,2.48,2.48,0,0,1,4.959.019A2.392,2.392,0,0,1,77.463,28.2" transform="translate(-71.058 -22.044)"/>
                  <path id="Trazado_16529" data-name="Trazado 16529" class="cls-5" d="M203.846,29.819c.483,0,.967,0,1.45,0a.344.344,0,0,1,.393.378q.007.431,0,.862a.36.36,0,0,1-.4.4q-1.46.005-2.92,0a.337.337,0,0,1-.372-.379q0-.451,0-.9c0-.254.115-.364.375-.365.49,0,.98,0,1.47,0" transform="translate(-191.42 -28.256)"/>
                  <path id="Trazado_16530" data-name="Trazado 16530" class="cls-5" d="M205.509,148.879h3.136a.966.966,0,0,1,.156,0,.207.207,0,0,1,.052.4.42.42,0,0,1-.192.027h-6.33a.408.408,0,0,1-.136-.01.206.206,0,0,1-.16-.218.2.2,0,0,1,.181-.2.956.956,0,0,1,.156,0h3.136" transform="translate(-191.453 -141.08)"/>
                  <path id="Trazado_16531" data-name="Trazado 16531" class="cls-5" d="M205.531,125.6q1.6,0,3.195,0c.127,0,.239.012.259.17a.186.186,0,0,1-.178.23,1.345,1.345,0,0,1-.157,0h-6.272a1.352,1.352,0,0,1-.176,0,.177.177,0,0,1-.163-.205.172.172,0,0,1,.16-.188,1.342,1.342,0,0,1,.176,0h3.155" transform="translate(-191.457 -119.024)"/>
                  <path id="Trazado_16532" data-name="Trazado 16532" class="cls-5" d="M204.96,102.157h-2.587a.759.759,0,0,1-.194-.015.187.187,0,0,1-.145-.186.194.194,0,0,1,.137-.212.485.485,0,0,1,.154-.017h5.252a.483.483,0,0,1,.117,0,.21.21,0,0,1,.186.217.207.207,0,0,1-.178.2.719.719,0,0,1-.176.006H204.96" transform="translate(-191.452 -96.397)"/>
                  <path id="Trazado_16533" data-name="Trazado 16533" class="cls-5" d="M204.95,78.879h-2.644c-.2,0-.269-.053-.269-.2a.177.177,0,0,1,.17-.2,1.392,1.392,0,0,1,.157,0h5.19c.033,0,.065,0,.1,0,.155.006.229.069.232.2s-.068.2-.231.2q-1.351,0-2.7,0" transform="translate(-191.455 -74.366)"/>
                  <path id="Trazado_16534" data-name="Trazado 16534" class="cls-5" d="M144.025,129.305a.145.145,0,0,1,0-.039.384.384,0,0,0-.154-.464c-.2-.172-.134-.349.126-.412a.37.37,0,0,1,.115-.016.209.209,0,0,0,.227-.142c.061-.13.1-.3.295-.291s.206.178.267.3a.2.2,0,0,0,.213.132.483.483,0,0,1,.154.019c.223.063.271.217.124.394a.263.263,0,0,1-.055.055.314.314,0,0,0-.125.4.271.271,0,0,1-.009.226.211.211,0,0,1-.335.058.4.4,0,0,0-.491-.006c-.237.138-.362.05-.356-.214" transform="translate(-136.227 -121.24)"/>
                  <path id="Trazado_16535" data-name="Trazado 16535" class="cls-5" d="M68.14,129.043c.147-.241-.016-.407-.189-.59a.182.182,0,0,1,.114-.322.546.546,0,0,0,.515-.375c.061-.16.263-.142.365.005a.365.365,0,0,1,.047.086c.056.161.139.275.337.251a.32.32,0,0,1,.167.048.185.185,0,0,1,.075.293.329.329,0,0,1-.078.087.334.334,0,0,0-.145.435.349.349,0,0,1,0,.174.181.181,0,0,1-.244.149.274.274,0,0,1-.109-.04c-.173-.151-.33-.1-.508,0s-.342.013-.348-.205" transform="translate(-64.332 -120.958)"/>
                  <path id="Trazado_16536" data-name="Trazado 16536" class="cls-5" d="M106.336,129.143c0-.015.012-.06.025-.1a.257.257,0,0,0-.1-.31.616.616,0,0,1-.111-.11c-.115-.142-.076-.324.1-.345a.557.557,0,0,0,.517-.383.19.19,0,0,1,.316-.029.377.377,0,0,1,.086.129.321.321,0,0,0,.345.25.241.241,0,0,1,.265.16.257.257,0,0,1-.121.288.325.325,0,0,0-.123.409.252.252,0,0,1-.076.3.221.221,0,0,1-.288-.025.394.394,0,0,0-.479.005c-.215.122-.371.021-.36-.237" transform="translate(-100.531 -121.099)"/>
                  <path id="Trazado_16537" data-name="Trazado 16537" class="cls-8" d="M30.655,234.669c0-.3,0-.578,0-.856,0-.039,0-.077.007-.127a2.25,2.25,0,0,1,.494-.012v1Z" transform="translate(-29.049 -221.427)"/>
                  <path id="Trazado_16538" data-name="Trazado 16538" class="cls-6" d="M84.472,33.813a1.473,1.473,0,0,0-.575,1.045,1.9,1.9,0,0,1-.5-2.014A2.023,2.023,0,0,1,85.43,31.4a2.051,2.051,0,0,1,1.9,1.518,1.863,1.863,0,0,1-.522,1.933,1.481,1.481,0,0,0-.581-1.043,1.177,1.177,0,0,0,.284-1.087,1.239,1.239,0,0,0-.456-.71,1.181,1.181,0,0,0-1.511.091,1.239,1.239,0,0,0-.07,1.711" transform="translate(-78.942 -29.755)"/>
                  <path id="Trazado_16539" data-name="Trazado 16539" class="cls-6" d="M104.608,83.689c.035.132-.052.209-.2.269a2.092,2.092,0,0,1-1.725-.02.217.217,0,0,1-.15-.237,1.14,1.14,0,0,1,.426-.924.218.218,0,0,1,.232-.04,1.053,1.053,0,0,0,.746.006.246.246,0,0,1,.266.055,1.1,1.1,0,0,1,.4.89" transform="translate(-97.164 -78.387)"/>
                  <path id="Trazado_16540" data-name="Trazado 16540" class="cls-6" d="M107.785,47.908a.74.74,0,0,1,.763-.746.756.756,0,1,1-.763.746" transform="translate(-102.139 -44.691)"/>
                  <rect id="Rect치ngulo_11060" data-name="Rect치ngulo 11060" class="cls-6" width="2.813" height="0.767" transform="translate(11.019 2)"/>
                </g>
              </g>
            </g>
          </g>
        </g>
      </g>
    </g>
  </g>
</svg>
