<svg xmlns="http://www.w3.org/2000/svg" xmlns:xlink="http://www.w3.org/1999/xlink" width="20" height="20" viewBox="0 0 20 20">
  <defs>
    <style>
      .cls-1 {
        fill: none;
      }

      .cls-2 {
        clip-path: url(#clip-iconSISPLAN2);
      }

      .cls-3 {
        clip-path: url(#clip-path);
      }

      .cls-4 {
        fill: #fdfcfd;
      }

      .cls-5 {
        fill: #2e72b9;
      }

      .cls-6 {
        fill: #9bc8fe;
      }
    </style>
    <clipPath id="clip-path">
      <rect id="Rectángulo_11207" data-name="Rectángulo 11207" class="cls-1" width="13.116" height="14.87"/>
    </clipPath>
    <clipPath id="clip-iconSISPLAN2">
      <rect width="20" height="20"/>
    </clipPath>
  </defs>
  <g id="iconSISPLAN2" class="cls-2">
    <g id="Grupo_23024" data-name="Grupo 23024" transform="translate(-1614.353 -814.475)">
      <g id="Grupo_22992" data-name="Grupo 22992" transform="translate(1616.132 816.31)">
        <g id="Grupo_22927" data-name="Grupo 22927" class="cls-3">
          <path id="Trazado_16855" data-name="Trazado 16855" class="cls-4" d="M3.818,2.76H12.26a1.054,1.054,0,0,1,1.054,1.054v12a1.054,1.054,0,0,1-1.054,1.054H3.818A1.054,1.054,0,0,1,2.764,15.81v-12A1.054,1.054,0,0,1,3.818,2.76" transform="translate(-2.496 -2.493)"/>
          <path id="Trazado_16856" data-name="Trazado 16856" class="cls-5" d="M9.42.535A1.131,1.131,0,0,1,10.55,1.665V12.972A1.131,1.131,0,0,1,9.42,14.1H1.665A1.131,1.131,0,0,1,.535,12.972V1.665A1.131,1.131,0,0,1,1.665.535ZM9.42,0H1.665A1.667,1.667,0,0,0,0,1.665V12.972a1.667,1.667,0,0,0,1.665,1.666H9.42a1.667,1.667,0,0,0,1.665-1.666V1.665A1.667,1.667,0,0,0,9.42,0"/>
          <path id="Trazado_16857" data-name="Trazado 16857" class="cls-5" d="M23.585,83.747H20.206a.743.743,0,0,1-.159-.006.177.177,0,0,1-.154-.187.172.172,0,0,1,.15-.172.8.8,0,0,1,.159-.008h6.811c.035,0,.071,0,.106,0,.121.009.208.059.2.193s-.085.173-.2.18c-.047,0-.094,0-.141,0h-3.4" transform="translate(-17.967 -75.3)"/>
          <path id="Trazado_16858" data-name="Trazado 16858" class="cls-5" d="M23.629,100.138H20.251c-.047,0-.095,0-.141,0-.115-.006-.2-.063-.2-.181s.084-.186.206-.195c.035,0,.071,0,.106,0h6.812a.7.7,0,0,1,.175.015.165.165,0,0,1,.132.167.17.17,0,0,1-.136.181.683.683,0,0,1-.175.012h-3.4" transform="translate(-17.981 -90.1)"/>
          <path id="Trazado_16859" data-name="Trazado 16859" class="cls-5" d="M22.217,116.569h-2a.844.844,0,0,1-.159-.007.176.176,0,0,1-.158-.183.18.18,0,0,1,.162-.181.633.633,0,0,1,.123-.006h4.063a.615.615,0,0,1,.141.008.183.183,0,0,1,0,.36.74.74,0,0,1-.158.008H22.219" transform="translate(-17.978 -104.941)"/>
          <path id="Trazado_16860" data-name="Trazado 16860" class="cls-5" d="M23.585,50.9H20.206a.743.743,0,0,1-.159-.006.177.177,0,0,1-.154-.187.172.172,0,0,1,.15-.172.8.8,0,0,1,.159-.008h6.811c.035,0,.071,0,.106,0,.121.009.208.059.2.193s-.085.173-.2.18c-.047,0-.094,0-.141,0h-3.4" transform="translate(-17.967 -45.631)"/>
          <path id="Trazado_16861" data-name="Trazado 16861" class="cls-5" d="M23.629,67.289H20.251c-.047,0-.095,0-.141,0-.115-.006-.2-.063-.2-.181s.084-.186.206-.195c.035,0,.071,0,.106,0h6.812a.7.7,0,0,1,.175.015.165.165,0,0,1,.132.167.17.17,0,0,1-.136.181.683.683,0,0,1-.175.012h-3.4" transform="translate(-17.981 -60.432)"/>
          <path id="Trazado_16862" data-name="Trazado 16862" class="cls-5" d="M23.585,34.483H20.206a.743.743,0,0,1-.159-.006.177.177,0,0,1-.154-.187.172.172,0,0,1,.15-.172.8.8,0,0,1,.159-.008h6.811c.035,0,.071,0,.106,0,.121.009.208.059.2.193s-.085.173-.2.18c-.047,0-.094,0-.141,0h-3.4" transform="translate(-17.967 -30.805)"/>
        </g>
      </g>
      <g id="Grupo_22993" data-name="Grupo 22993" transform="translate(1619.457 817.77)">
        <g id="Grupo_22927-2" data-name="Grupo 22927" class="cls-3">
          <path id="Trazado_16855-2" data-name="Trazado 16855" class="cls-4" d="M3.818,2.76H12.26a1.054,1.054,0,0,1,1.054,1.054v12a1.054,1.054,0,0,1-1.054,1.054H3.818A1.054,1.054,0,0,1,2.764,15.81v-12A1.054,1.054,0,0,1,3.818,2.76" transform="translate(-2.496 -2.493)"/>
          <path id="Trazado_16856-2" data-name="Trazado 16856" class="cls-5" d="M9.42.535A1.131,1.131,0,0,1,10.55,1.665V12.972A1.131,1.131,0,0,1,9.42,14.1H1.665A1.131,1.131,0,0,1,.535,12.972V1.665A1.131,1.131,0,0,1,1.665.535ZM9.42,0H1.665A1.667,1.667,0,0,0,0,1.665V12.972a1.667,1.667,0,0,0,1.665,1.666H9.42a1.667,1.667,0,0,0,1.665-1.666V1.665A1.667,1.667,0,0,0,9.42,0"/>
          <path id="Trazado_16857-2" data-name="Trazado 16857" class="cls-5" d="M23.585,83.747H20.206a.743.743,0,0,1-.159-.006.177.177,0,0,1-.154-.187.172.172,0,0,1,.15-.172.8.8,0,0,1,.159-.008h6.811c.035,0,.071,0,.106,0,.121.009.208.059.2.193s-.085.173-.2.18c-.047,0-.094,0-.141,0h-3.4" transform="translate(-17.967 -75.3)"/>
          <path id="Trazado_16858-2" data-name="Trazado 16858" class="cls-5" d="M23.629,100.138H20.251c-.047,0-.095,0-.141,0-.115-.006-.2-.063-.2-.181s.084-.186.206-.195c.035,0,.071,0,.106,0h6.812a.7.7,0,0,1,.175.015.165.165,0,0,1,.132.167.17.17,0,0,1-.136.181.683.683,0,0,1-.175.012h-3.4" transform="translate(-17.981 -90.1)"/>
          <path id="Trazado_16859-2" data-name="Trazado 16859" class="cls-5" d="M22.217,116.569h-2a.844.844,0,0,1-.159-.007.176.176,0,0,1-.158-.183.18.18,0,0,1,.162-.181.633.633,0,0,1,.123-.006h4.063a.615.615,0,0,1,.141.008.183.183,0,0,1,0,.36.74.74,0,0,1-.158.008H22.219" transform="translate(-17.978 -104.941)"/>
          <path id="Trazado_16860-2" data-name="Trazado 16860" class="cls-5" d="M23.585,50.9H20.206a.743.743,0,0,1-.159-.006.177.177,0,0,1-.154-.187.172.172,0,0,1,.15-.172.8.8,0,0,1,.159-.008h6.811c.035,0,.071,0,.106,0,.121.009.208.059.2.193s-.085.173-.2.18c-.047,0-.094,0-.141,0h-3.4" transform="translate(-17.967 -45.631)"/>
          <path id="Trazado_16861-2" data-name="Trazado 16861" class="cls-5" d="M23.629,67.289H20.251c-.047,0-.095,0-.141,0-.115-.006-.2-.063-.2-.181s.084-.186.206-.195c.035,0,.071,0,.106,0h6.812a.7.7,0,0,1,.175.015.165.165,0,0,1,.132.167.17.17,0,0,1-.136.181.683.683,0,0,1-.175.012h-3.4" transform="translate(-17.981 -60.432)"/>
          <path id="Trazado_16862-2" data-name="Trazado 16862" class="cls-5" d="M23.585,34.483H20.206a.743.743,0,0,1-.159-.006.177.177,0,0,1-.154-.187.172.172,0,0,1,.15-.172.8.8,0,0,1,.159-.008h6.811c.035,0,.071,0,.106,0,.121.009.208.059.2.193s-.085.173-.2.18c-.047,0-.094,0-.141,0h-3.4" transform="translate(-17.967 -30.805)"/>
          <path id="Trazado_16863" data-name="Trazado 16863" class="cls-5" d="M68.6,90.7a3.211,3.211,0,0,1,.312-2.455,3.248,3.248,0,0,1,1.374-1.286,3.384,3.384,0,0,1,1.5-.315,3.191,3.191,0,1,1-3.16,4.128c-.007-.024-.017-.048-.026-.072" transform="translate(-61.852 -78.254)"/>
          <path id="Trazado_16864" data-name="Trazado 16864" class="cls-5" d="M70.736,92.181l-.115,0a3.294,3.294,0,0,1-3.032-2.321c0-.014-.01-.028-.016-.043l-.009-.025.088-.033-.091.025A3.315,3.315,0,0,1,69.3,85.925a3.461,3.461,0,0,1,1.547-.326,3.291,3.291,0,0,1-.111,6.581m-2.983-2.457c.015.039.022.056.028.074a3.091,3.091,0,1,0,3.06-4,3.257,3.257,0,0,0-1.455.306,3.115,3.115,0,0,0-1.632,3.617" transform="translate(-60.912 -77.311)"/>
          <path id="Trazado_16865" data-name="Trazado 16865" class="cls-6" d="M74.983,96.007a2.83,2.83,0,1,1,.014,0h-.014" transform="translate(-65.16 -81.586)"/>
          <path id="Trazado_16866" data-name="Trazado 16866" class="cls-4" d="M81.949,104.337a.481.481,0,0,1-.235-.062l-.085-.046a.469.469,0,0,1-.226-.267.522.522,0,0,1,0-.336l.039-.112a1.742,1.742,0,0,1-.148-.194,1.485,1.485,0,0,1-.119-.222l-.128-.019a.482.482,0,0,1-.294-.155.469.469,0,0,1-.123-.307l0-.12a.489.489,0,0,1,.094-.31A.457.457,0,0,1,81,102l.145-.036a1.582,1.582,0,0,1,.243-.447l-.048-.142a.459.459,0,0,1,0-.345.487.487,0,0,1,.21-.244l.1-.057a.478.478,0,0,1,.248-.069.492.492,0,0,1,.074.006.475.475,0,0,1,.3.164l.083.095a1.485,1.485,0,0,1,.244-.02,1.783,1.783,0,0,1,.25.019l.073-.094a.518.518,0,0,1,.289-.183.47.47,0,0,1,.11-.013.479.479,0,0,1,.235.062l.085.046a.475.475,0,0,1,.226.267.526.526,0,0,1,0,.337l-.04.113a1.723,1.723,0,0,1,.148.194,1.49,1.49,0,0,1,.119.222l.127.018a.485.485,0,0,1,.294.156.465.465,0,0,1,.123.307l.007.109a.5.5,0,0,1-.1.318.455.455,0,0,1-.29.188l-.145.034a1.619,1.619,0,0,1-.1.228,1.673,1.673,0,0,1-.14.215l.044.123.007.017a.458.458,0,0,1,0,.347.51.51,0,0,1-.21.247l-.1.058a.479.479,0,0,1-.248.068.488.488,0,0,1-.074-.006.476.476,0,0,1-.3-.162l-.082-.094a1.287,1.287,0,0,1-.233.021h-.024a1.871,1.871,0,0,1-.24-.021l-.072.093a.522.522,0,0,1-.289.183.474.474,0,0,1-.11.013m.687-2.479a.628.628,0,1,0,.151,1.237l.025-.008a.627.627,0,0,0-.176-1.23" transform="translate(-72.818 -90.892)"/>
          <path id="Trazado_16867" data-name="Trazado 16867" class="cls-5" d="M81.516,99.023a.283.283,0,0,1,.139.037l.088.048a.283.283,0,0,1,.135.159.331.331,0,0,1,0,.214l-.078.22a1.527,1.527,0,0,1,.208.253,1.285,1.285,0,0,1,.141.292l.24.035a.291.291,0,0,1,.178.094.273.273,0,0,1,.073.181l.007.117a.3.3,0,0,1-.058.192.269.269,0,0,1-.171.112l-.26.061a1.4,1.4,0,0,1-.121.3,1.472,1.472,0,0,1-.189.269l.09.251h0a.267.267,0,0,1,0,.2.316.316,0,0,1-.131.154l-.1.056a.29.29,0,0,1-.151.043.3.3,0,0,1-.222-.1l-.159-.183a1.1,1.1,0,0,1-.3.042h-.02a1.659,1.659,0,0,1-.324-.04l-.144.187a.325.325,0,0,1-.179.113A.286.286,0,0,1,80,102.3l-.087-.048a.28.28,0,0,1-.135-.159.329.329,0,0,1,0-.214l.077-.22a1.552,1.552,0,0,1-.208-.253,1.288,1.288,0,0,1-.141-.291l-.24-.035a.291.291,0,0,1-.178-.093.276.276,0,0,1-.073-.182l0-.123a.3.3,0,0,1,.057-.189.268.268,0,0,1,.17-.109l.254-.063a1.486,1.486,0,0,1,.122-.3,1.458,1.458,0,0,1,.188-.266l-.085-.248a.267.267,0,0,1,0-.2.3.3,0,0,1,.128-.151l.1-.056a.29.29,0,0,1,.2-.039.284.284,0,0,1,.178.1l.159.182a1.286,1.286,0,0,1,.316-.039H80.8a1.533,1.533,0,0,1,.325.037l.145-.187a.32.32,0,0,1,.179-.113.281.281,0,0,1,.066-.008m-.686,2.478a.821.821,0,0,0,.232-.033h0a.818.818,0,1,0-.234.035m.686-2.865a.666.666,0,0,0-.155.018.711.711,0,0,0-.393.248l0,0,0,0-.006.007c-.052,0-.1-.007-.156-.007h-.008q-.084,0-.167.008l-.015-.017a.671.671,0,0,0-.414-.228.678.678,0,0,0-.449.089l-.094.055a.687.687,0,0,0-.295.344.65.65,0,0,0,0,.48l.015.043c-.034.049-.065.1-.094.152s-.055.108-.078.164l-.044.011a.651.651,0,0,0-.4.262.685.685,0,0,0-.129.43l0,.119a.663.663,0,0,0,.175.433.676.676,0,0,0,.409.215l.023,0a1.67,1.67,0,0,0,.087.15q.043.066.092.128l0,.006v.006a.719.719,0,0,0,0,.463.664.664,0,0,0,.318.373l.083.046a.673.673,0,0,0,.482.067.714.714,0,0,0,.392-.248l0,0,0,0,0-.006q.074.007.148.009h.03a1.5,1.5,0,0,0,.156-.008l.013.015a.67.67,0,0,0,.414.226.679.679,0,0,0,.448-.089l.094-.054,0,0,0,0a.708.708,0,0,0,.291-.343.649.649,0,0,0,0-.489l-.007-.017-.007-.02q.05-.074.093-.152t.076-.156l.048-.011a.651.651,0,0,0,.4-.267.691.691,0,0,0,.129-.432v-.007l-.007-.111a.66.66,0,0,0-.174-.426.679.679,0,0,0-.412-.216l-.021,0a1.642,1.642,0,0,0-.087-.151q-.043-.066-.091-.128l0-.006V99.6a.722.722,0,0,0,0-.462.668.668,0,0,0-.319-.374l-.083-.045a.671.671,0,0,0-.326-.085m-.686,2.478a.437.437,0,0,1-.417-.313.433.433,0,0,1,.417-.555.435.435,0,0,1,.416.311.433.433,0,0,1-.29.537h0l-.005,0-.021.006a.431.431,0,0,1-.1.011" transform="translate(-71.013 -89.086)"/>
        </g>
      </g>
    </g>
  </g>
</svg>
