<svg xmlns="http://www.w3.org/2000/svg" xmlns:xlink="http://www.w3.org/1999/xlink" width="20" height="20" viewBox="0 0 20 20">
  <defs>
    <style>
      .cls-1 {
        fill: none;
      }

      .cls-2 {
        clip-path: url(#clip-iconSIGAP2);
      }

      .cls-3 {
        clip-path: url(#clip-path);
      }

      .cls-4 {
        fill: #2e72b9;
      }

      .cls-5 {
        fill: #9bc8fe;
      }

      .cls-6 {
        fill: #fff;
      }
    </style>
    <clipPath id="clip-path">
      <path id="Trazado_16844" data-name="Trazado 16844" class="cls-1" d="M0,0H17.188V18.907H0V0Z"/>
    </clipPath>
    <clipPath id="clip-iconSIGAP2">
      <rect width="20" height="20"/>
    </clipPath>
  </defs>
  <g id="iconSIGAP2" class="cls-2">
    <g id="Grupo_22922" data-name="Grupo 22922" transform="translate(2.406 0.546)">
      <g id="Enmascarar_grupo_22740" data-name="Enmascarar grupo 22740" class="cls-3">
        <path id="Trazado_16839" data-name="Trazado 16839" class="cls-4" d="M8.419,10.7H8.364A5.348,5.348,0,0,1,3.07,5.3V5.279A5.249,5.249,0,0,1,8.275,0L8.48,0A5.348,5.348,0,0,1,8.419,10.7M4.21,5.316A4.208,4.208,0,1,0,8.459,1.142l-.174,0A4.113,4.113,0,0,0,4.21,5.283c0,.011,0,.022,0,.033" transform="translate(-1.32)"/>
        <path id="Trazado_16840" data-name="Trazado 16840" class="cls-5" d="M10.687,22.952A4.044,4.044,0,0,1,12.8,19.4a6.278,6.278,0,0,0-1.212-1.334l-.044-.041a.985.985,0,0,0-1.068-.222,7.225,7.225,0,0,1-5.137-.039A.856.856,0,0,0,5,17.7a.8.8,0,0,0-.543.21A6.687,6.687,0,0,0,1.95,23.312l0,.048-.007.048a.8.8,0,0,0,.556.874l.072.028a12.657,12.657,0,0,0,8.7.732,4.019,4.019,0,0,1-.587-2.09" transform="translate(-0.833 -7.608)"/>
        <path id="Trazado_16841" data-name="Trazado 16841" class="cls-4" d="M23.912,26.784l-.163-.454a2.654,2.654,0,0,0,.342-.486,2.536,2.536,0,0,0,.218-.541l.47-.109a.486.486,0,0,0,.309-.2.545.545,0,0,0,.105-.346l-.013-.212a.494.494,0,0,0-.132-.328.526.526,0,0,0-.321-.169l-.433-.063a2.32,2.32,0,0,0-.255-.527,2.766,2.766,0,0,0-.375-.457l.14-.4a.6.6,0,0,0,0-.386.512.512,0,0,0-.244-.287l-.158-.086a.511.511,0,0,0-.372-.052.58.58,0,0,0-.326.2l-.262.338a2.783,2.783,0,0,0-.588-.067,2.32,2.32,0,0,0-.58.071l-.288-.329a.513.513,0,0,0-.321-.176.523.523,0,0,0-.352.071l-.178.1a.537.537,0,0,0-.232.274.483.483,0,0,0,0,.368l.153.449a2.639,2.639,0,0,0-.34.481,2.682,2.682,0,0,0-.221.546l-.459.115a.484.484,0,0,0-.307.2.535.535,0,0,0-.1.341l.007.222a.5.5,0,0,0,.132.328.525.525,0,0,0,.322.169l.433.063a2.325,2.325,0,0,0,.254.526,2.8,2.8,0,0,0,.375.458l-.14.4a.594.594,0,0,0,0,.386.5.5,0,0,0,.244.287l.158.086a.515.515,0,0,0,.372.052.586.586,0,0,0,.325-.2l.261-.338a2.994,2.994,0,0,0,.585.072,1.992,1.992,0,0,0,.583-.076l.287.33a.515.515,0,0,0,.322.175.524.524,0,0,0,.352-.071l.177-.1a.57.57,0,0,0,.235-.278.482.482,0,0,0,0-.363m-1.588-.7a1.481,1.481,0,1,1,.885-.713,1.43,1.43,0,0,1-.885.713" transform="translate(-8.007 -9.315)"/>
        <path id="Trazado_16842" data-name="Trazado 16842" class="cls-4" d="M10.441,24.09a12.657,12.657,0,0,1-8.7-.732l-.072-.028a.8.8,0,0,1-.556-.874l.007-.048,0-.048a6.687,6.687,0,0,1,2.508-5.406.8.8,0,0,1,.543-.21.856.856,0,0,1,.332.068,7.225,7.225,0,0,0,5.137.039.985.985,0,0,1,1.068.222l.044.04a6.305,6.305,0,0,1,1.212,1.334,4.031,4.031,0,0,1,1.2-.424,7.459,7.459,0,0,0-1.638-1.9,2.119,2.119,0,0,0-2.264-.461,6.066,6.066,0,0,1-4.3-.03,1.939,1.939,0,0,0-2.046.333A7.81,7.81,0,0,0,.012,22.228a1.933,1.933,0,0,0,1.315,2.057,13.772,13.772,0,0,0,9.823.676,4.06,4.06,0,0,1-.709-.87" transform="translate(0 -6.656)"/>
        <path id="Trazado_16843" data-name="Trazado 16843" class="cls-6" d="M4.79,6.032A4.277,4.277,0,0,1,9.03,1.719l.169,0A4.367,4.367,0,1,1,4.79,6.046V6.032" transform="translate(-2.059 -0.739)"/>
      </g>
    </g>
  </g>
</svg>
