<svg xmlns="http://www.w3.org/2000/svg" xmlns:xlink="http://www.w3.org/1999/xlink" width="20" height="20" viewBox="0 0 20 20">
  <defs>
    <style>
      .cls-1 {
        fill: none;
      }

      .cls-2 {
        clip-path: url(#clip-iconSAM2);
      }

      .cls-3 {
        clip-path: url(#clip-path);
      }

      .cls-4 {
        fill: #2a70b8;
      }

      .cls-5 {
        fill: #fdfcfd;
      }

      .cls-6 {
        fill: #9bc8fe;
      }

      .cls-7 {
        fill: #fefefe;
      }

      .cls-8 {
        fill: #2e72b9;
      }
    </style>
    <clipPath id="clip-path">
      <rect id="Rectángulo_11222" data-name="Rectángulo 11222" class="cls-1" width="18.811" height="11.479"/>
    </clipPath>
    <clipPath id="clip-iconSAM2">
      <rect width="20" height="20"/>
    </clipPath>
  </defs>
  <g id="iconSAM2" class="cls-2">
    <g id="Grupo_23026" data-name="Grupo 23026" transform="translate(0.738 5)">
      <g id="Grupo_22961" data-name="Grupo 22961" class="cls-3" transform="translate(0 0)">
        <path id="Trazado_17017" data-name="Trazado 17017" class="cls-4" d="M8.421,9.852l-7.353,0A1.03,1.03,0,0,1,.29,9.583,1,1,0,0,1,0,8.831q0-3.48,0-6.958V1A.954.954,0,0,1,.9,0a.86.86,0,0,1,.107,0H15.836a.953.953,0,0,1,1,.9.836.836,0,0,1,0,.106q0,3.914,0,7.828a.939.939,0,0,1-1.008,1.015c-1.522,0-3.045,0-4.567,0H8.421" transform="translate(0 0)"/>
        <path id="Trazado_17018" data-name="Trazado 17018" class="cls-5" d="M8.577.579c2.457,0,4.915.005,7.372-.006a.582.582,0,0,1,.61.553.407.407,0,0,1,0,.052q-.019,3.894,0,7.788a.6.6,0,0,1-.569.627h-.052q-7.372-.006-14.745,0a.6.6,0,0,1-.622-.577c0-.017,0-.034,0-.051q.019-3.894,0-7.788a.583.583,0,0,1,.56-.605h.051C3.648.585,6.112.579,8.576.579" transform="translate(-0.145 -0.145)"/>
        <path id="Trazado_17019" data-name="Trazado 17019" class="cls-4" d="M14.937,9.847h2.22a.5.5,0,0,1,.111,0,.206.206,0,0,1,.128.232.212.212,0,0,1-.09.169.214.214,0,0,1-.136.027H12.688a.2.2,0,0,1-.1-.01.211.211,0,0,1-.113-.219c0-.1.056-.19.128-.2a.5.5,0,0,1,.111,0Z" transform="translate(-3.168 -2.5)"/>
        <path id="Trazado_17020" data-name="Trazado 17020" class="cls-4" d="M14.948,8.589H17.21c.09,0,.169.012.184.171a.2.2,0,0,1-.1.227.088.088,0,0,1-.031.005.607.607,0,0,1-.11,0h-4.44a.7.7,0,0,1-.125,0c-.069-.006-.122-.091-.117-.19V8.784c-.006-.1.043-.181.11-.19h0a.773.773,0,0,1,.125,0h2.234" transform="translate(-3.167 -2.181)"/>
        <path id="Trazado_17021" data-name="Trazado 17021" class="cls-4" d="M14.961,6.708a2.138,2.138,0,0,1-2.212-2.06c0-.057,0-.115,0-.173a2.213,2.213,0,0,1,4.426.017,2.135,2.135,0,0,1-2.051,2.216q-.082,0-.163,0" transform="translate(-3.236 -0.584)"/>
        <path id="Trazado_17022" data-name="Trazado 17022" class="cls-6" d="M13.8,5.891a1.691,1.691,0,0,1-.442-1.8,1.806,1.806,0,0,1,1.81-1.29,1.831,1.831,0,0,1,1.694,1.355A1.662,1.662,0,0,1,16.4,5.885a1.32,1.32,0,0,0-.519-.931,1.048,1.048,0,0,0,.254-.971,1.1,1.1,0,0,0-.407-.633,1.053,1.053,0,0,0-1.348.081,1.1,1.1,0,0,0-.063,1.527" transform="translate(-3.369 -0.712)"/>
        <path id="Trazado_17023" data-name="Trazado 17023" class="cls-7" d="M16.326,6.886c.031.118-.047.187-.176.24a1.87,1.87,0,0,1-1.54-.018.193.193,0,0,1-.134-.211,1.019,1.019,0,0,1,.381-.825.193.193,0,0,1,.207-.036.94.94,0,0,0,.666.006.22.22,0,0,1,.238.049.976.976,0,0,1,.359.795" transform="translate(-3.674 -1.529)"/>
        <path id="Trazado_17024" data-name="Trazado 17024" class="cls-7" d="M14.8,4.458a.661.661,0,0,1,.655-.666h.026a.675.675,0,1,1-.681.668v0" transform="translate(-3.758 -0.963)"/>
        <path id="Trazado_17025" data-name="Trazado 17025" class="cls-6" d="M2.911,8.337a.918.918,0,0,1-.7-.314,1.057,1.057,0,0,1-.281-.739V3.6a1.059,1.059,0,0,1,.281-.738.918.918,0,0,1,.7-.314H7.437a.921.921,0,0,1,.7.314A1.065,1.065,0,0,1,8.42,3.6V7.285a1.063,1.063,0,0,1-.281.739.921.921,0,0,1-.7.314Z" transform="translate(-0.49 -0.647)"/>
        <path id="Trazado_17026" data-name="Trazado 17026" class="cls-8" d="M7.374,2.671a.734.734,0,0,1,.563.254.877.877,0,0,1,.232.613V7.221a.877.877,0,0,1-.232.613.734.734,0,0,1-.563.254H2.847a.733.733,0,0,1-.563-.254.877.877,0,0,1-.232-.613V3.537a.877.877,0,0,1,.232-.613.733.733,0,0,1,.563-.254Zm0-.373H2.847a1.111,1.111,0,0,0-.839.375,1.242,1.242,0,0,0-.33.864V7.221a1.241,1.241,0,0,0,.33.864,1.111,1.111,0,0,0,.839.375H7.374a1.111,1.111,0,0,0,.839-.375,1.241,1.241,0,0,0,.33-.864V3.537a1.242,1.242,0,0,0-.33-.864A1.111,1.111,0,0,0,7.374,2.3" transform="translate(-0.426 -0.584)"/>
        <path id="Trazado_17027" data-name="Trazado 17027" class="cls-8" d="M3.894,7.363H5.828a.459.459,0,0,0,.457-.457V6.232l.857.689a.312.312,0,0,0,.366.04A.329.329,0,0,0,7.7,6.647v-1.4a.328.328,0,0,0-.195-.313.312.312,0,0,0-.366.04l-.857.689V4.985a.459.459,0,0,0-.457-.457H3.894a.459.459,0,0,0-.457.457v1.92a.459.459,0,0,0,.457.457" transform="translate(-0.873 -1.15)"/>
        <path id="Trazado_17028" data-name="Trazado 17028" class="cls-8" d="M17.492,11.219a2.89,2.89,0,0,1,.281-2.209,2.923,2.923,0,0,1,1.236-1.157,3.048,3.048,0,0,1,1.351-.284,2.872,2.872,0,1,1-2.844,3.715c-.007-.022-.016-.043-.024-.065" transform="translate(-4.414 -1.921)"/>
        <path id="Trazado_17029" data-name="Trazado 17029" class="cls-8" d="M20.231,13.369h-.1A2.964,2.964,0,0,1,17.4,11.279c0-.013-.009-.025-.014-.038l-.008-.023.08-.029-.082.022A2.982,2.982,0,0,1,18.938,7.74a3.114,3.114,0,0,1,1.392-.294,2.962,2.962,0,0,1-.1,5.923m-2.685-2.212c.013.035.019.051.025.067a2.782,2.782,0,1,0,2.755-3.6,2.941,2.941,0,0,0-1.31.275,2.8,2.8,0,0,0-1.469,3.255" transform="translate(-4.383 -1.89)"/>
        <path id="Trazado_17030" data-name="Trazado 17030" class="cls-6" d="M20.369,13.105a2.547,2.547,0,1,1,.012,0h-.012" transform="translate(-4.522 -2.031)"/>
        <path id="Trazado_17031" data-name="Trazado 17031" class="cls-8" d="M22.317,10.184a.633.633,0,0,1-.2.466l-.331.334c-.348.349-.742.745-1.141,1.138a.668.668,0,0,1-.944.033l-.031-.031q-.28-.271-.551-.552a.677.677,0,0,1,.934-.979c.1.089.14.065.216-.013q.443-.453.9-.9a.675.675,0,0,1,1.149.5" transform="translate(-4.804 -2.409)"/>
        <path id="Trazado_17032" data-name="Trazado 17032" class="cls-5" d="M20.271,12.1a.326.326,0,0,1-.251-.105c-.176-.177-.354-.35-.528-.53a.334.334,0,0,1-.033-.472.239.239,0,0,1,.019-.02.33.33,0,0,1,.467-.01.276.276,0,0,1,.025.027c.353.381.373.225.619-.017.3-.292.589-.59.886-.884a.343.343,0,1,1,.478.481q-.694.7-1.389,1.391a.365.365,0,0,1-.292.14" transform="translate(-4.919 -2.525)"/>
      </g>
    </g>
  </g>
</svg>
