<svg xmlns="http://www.w3.org/2000/svg" xmlns:xlink="http://www.w3.org/1999/xlink" width="20" height="20" viewBox="0 0 20 20">
  <defs>
    <style>
      .cls-1 {
        fill: none;
      }

      .cls-2 {
        clip-path: url(#clip-iconHome2);
      }

      .cls-3 {
        clip-path: url(#clip-path);
      }

      .cls-4 {
        fill: #9bc8fe;
      }

      .cls-5 {
        fill: #2b70b9;
      }

      .cls-6 {
        fill: #fefefe;
      }
    </style>
    <clipPath id="clip-path">
      <rect id="Rectángulo_10993" data-name="Rectángulo 10993" class="cls-1" width="17.794" height="19.112"/>
    </clipPath>
    <clipPath id="clip-iconHome2">
      <rect width="20" height="20"/>
    </clipPath>
  </defs>
  <g id="iconHome2" class="cls-2">
    <g id="Grupo_22916" data-name="Grupo 22916" transform="translate(1.103 0.444)">
      <g id="Grupo_22447" data-name="Grupo 22447" class="cls-3">
        <path id="Trazado_16485" data-name="Trazado 16485" class="cls-4" d="M32.592,27.017c-.039.035-.087.061-.086.122,0,.347,0,.694,0,1.041,0,.029.026.058.039.087-.438.137-.472.442-.464.8.019.815.007,1.631.006,2.446a2.306,2.306,0,0,1-2.476,2.205q-.977,0-1.955,0c-.322,0-.372-.046-.373-.336,0-1.777-.013-3.555,0-5.332a2.937,2.937,0,0,0-2.573-2.768,3.177,3.177,0,0,0-3.737,2.335,1.834,1.834,0,0,0-.017.324q0,2.666,0,5.332c0,.076,0,.153,0,.229a.205.205,0,0,1-.227.209,20.682,20.682,0,0,1-2.552-.038,2.209,2.209,0,0,1-2.02-2.111q0-4.186,0-8.371a1.992,1.992,0,0,1,.7-1.513c.719-.658,1.477-1.28,2.214-1.921.788-.685,1.586-1.362,2.38-2.042.33-.282.652-.573.991-.847a2.6,2.6,0,0,1,3.358.011c.495.414.988.831,1.472,1.256.912.8,1.841,1.586,2.764,2.376.449.384.891.774,1.335,1.162a1.963,1.963,0,0,1,.713,1.528c0,1.007.01,2.013,0,3.02-.005.367.012.693.506.8" transform="translate(-15.229 -15.428)"/>
        <path id="Trazado_16486" data-name="Trazado 16486" class="cls-5" d="M17.789,10.065s0,0,0,0c0-.738,0-1.475,0-2.213a2.871,2.871,0,0,0-1.08-2.289L14.685,3.823c-1.2-1.025-2.377-2.064-3.594-3.07a3.579,3.579,0,0,0-4.42.021Q3.806,3.195.98,5.652A2.683,2.683,0,0,0,0,7.746Q0,11.95,0,16.153a2.426,2.426,0,0,0,.071.587A3.272,3.272,0,0,0,3.39,19.11q5.434.005,10.868,0c.2,0,.4-.008.6-.028a3.125,3.125,0,0,0,2.93-2.861c.012-.962,0-5.2,0-6.157m-.988.925c0,1.571,0,4.369,0,5.094a2.239,2.239,0,0,1-2.419,2.147c-.659,0-1.318,0-1.976,0-.28,0-.28,0-.28-.252q0-2.628,0-5.255a3.208,3.208,0,0,0-.049-.646,3.321,3.321,0,0,0-4.351-2.14,2.966,2.966,0,0,0-2.067,2.72c.026,1.783,0,3.567.011,5.351,0,.174-.052.23-.253.227-.673-.011-1.346-.005-2.019,0a2.707,2.707,0,0,1-.573-.06A2.145,2.145,0,0,1,.99,16.112c0-2.746,0-5.491,0-8.237a2.092,2.092,0,0,1,.793-1.687c.8-.675,1.589-1.359,2.382-2.041Q5.7,2.826,7.232,1.5a2.53,2.53,0,0,1,3.123-.147c.368.261.7.566,1.037.858q2.325,2,4.646,4a2.045,2.045,0,0,1,.765,1.64c-.008,1.046,0,2.092,0,3.138" transform="translate(0 0)"/>
        <path id="Trazado_16487" data-name="Trazado 16487" class="cls-6" d="M115.759,212.694c0-.885-.014-1.771,0-2.656a2.135,2.135,0,0,1,2.335-1.96,2.109,2.109,0,0,1,2.139,1.9c.019,1.847.007,3.694.013,5.541,0,.13-.05.159-.185.159q-2.062-.005-4.124,0c-.16,0-.186-.053-.186-.178,0-.936,0-1.873,0-2.809Z" transform="translate(-109.107 -197.447)"/>
      </g>
    </g>
  </g>
</svg>
