<svg xmlns="http://www.w3.org/2000/svg" xmlns:xlink="http://www.w3.org/1999/xlink" width="20" height="20" viewBox="0 0 20 20">
  <defs>
    <style>
      .cls-1 {
        fill: none;
      }

      .cls-2 {
        clip-path: url(#clip-iconSIDE2);
      }

      .cls-3 {
        clip-path: url(#clip-path);
      }

      .cls-4 {
        fill: #9bc8fe;
      }

      .cls-5 {
        fill: #2e72b9;
      }

      .cls-6 {
        fill: #fdfcfd;
      }
    </style>
    <clipPath id="clip-path">
      <rect id="Rectángulo_11094" data-name="Rectángulo 11094" class="cls-1" width="17.686" height="17.379"/>
    </clipPath>
    <clipPath id="clip-iconSIDE2">
      <rect width="20" height="20"/>
    </clipPath>
  </defs>
  <g id="iconSIDE2" class="cls-2">
    <g id="Grupo_22919" data-name="Grupo 22919" transform="translate(1.157 1.31)">
      <g id="Enmascarar_grupo_22733" data-name="Enmascarar grupo 22733" class="cls-3">
        <path id="Trazado_16655" data-name="Trazado 16655" class="cls-4" d="M24.446,28.866h.384a.8.8,0,0,0,.5.127,1.68,1.68,0,0,1,.841.194,1.305,1.305,0,0,1,.67,1.165c.018.872.007,1.745,0,2.617,0,.22-.043.257-.262.264-.059,0-.119,0-.178,0H10.577c-.441,0-.442,0-.442-.443,0-.8-.009-1.591,0-2.386a1.324,1.324,0,0,1,.867-1.308,1.726,1.726,0,0,1,.646-.1.788.788,0,0,0,.5-.128h.384c.072.066.049.154.052.234a5.835,5.835,0,0,0,.02.621,1.211,1.211,0,0,0,2.412-.179c0-.16,0-.32,0-.48,0-.069-.012-.145.054-.2l.385,0a.626.626,0,0,0,.475.13,4.349,4.349,0,0,1,.493,0,.383.383,0,0,0,.393-.167.461.461,0,0,0,.1.034c.279.031.282.022.29-.258a1.78,1.78,0,0,1,.027-.561c.074.064.055.152.056.232,0,.433,0,.865,0,1.3a1.2,1.2,0,0,0,2.392,0c0-.433,0-.865,0-1.3,0-.08-.018-.168.056-.233a1.77,1.77,0,0,1,.028.561c.008.279.011.288.29.258a.458.458,0,0,0,.1-.034.384.384,0,0,0,.394.168c.176-.01.354-.008.53,0a.565.565,0,0,0,.427-.124l.394-.009c.066.053.052.128.054.2,0,.172,0,.344,0,.516a1.241,1.241,0,0,0,.975,1.165,1.221,1.221,0,0,0,1.413-.9,3.555,3.555,0,0,0,.044-.744c0-.08-.02-.168.052-.234" transform="translate(-9.65 -26.711)"/>
        <path id="Trazado_16656" data-name="Trazado 16656" class="cls-5" d="M17.679,39.543h0a1.8,1.8,0,0,0-1.2-1.662,2.377,2.377,0,0,0-.825-.107l-.17,0a.389.389,0,0,0-.44.328l-.008.037.012.036a.394.394,0,0,0,.45.285,1.478,1.478,0,0,1,.181,0l.071,0A1.167,1.167,0,0,1,17,39.724q0,.333,0,.666v.032c0,.594,0,1.209.005,1.815a.351.351,0,0,1,0,.064.435.435,0,0,1-.072,0c-2.054,0-4.119,0-6.231,0H7.709c-2.284,0-4.647,0-6.971,0a.456.456,0,0,1-.054,0,.355.355,0,0,1,0-.047c0-.461,0-.929,0-1.385,0-.4,0-.821,0-1.233a1.131,1.131,0,0,1,.5-.974,1.618,1.618,0,0,1,1.008-.2.4.4,0,0,0,.441-.287l.012-.036L2.644,38.1a.39.39,0,0,0-.446-.327c-.064,0-.13,0-.194,0h-.1a1.82,1.82,0,0,0-1.9,1.9c0,3.92,0,7.886,0,11.79a1.809,1.809,0,0,0,1.887,1.892l6.8,0H15.8a1.953,1.953,0,0,0,.7-.111,1.83,1.83,0,0,0,1.191-1.8q0-4.178,0-8.357V42.2q0-.341,0-.683v-.034c0-.635,0-1.291-.006-1.938" transform="translate(0 -35.973)"/>
        <path id="Trazado_16657" data-name="Trazado 16657" class="cls-5" d="M60.043,2.659V2.651c0-.075,0-.151,0-.23,0-.164,0-.333-.007-.5a1.424,1.424,0,0,0-2.83-.2,2.849,2.849,0,0,0-.025.533,3.184,3.184,0,0,1-.008.385v.031a3.469,3.469,0,0,1,.008.379,2.816,2.816,0,0,0,.032.575,1.421,1.421,0,0,0,2.792,0,2.79,2.79,0,0,0,.032-.576,3.437,3.437,0,0,1,.008-.378Z" transform="translate(-54.448 -0.498)"/>
        <path id="Trazado_16658" data-name="Trazado 16658" class="cls-5" d="M256.337,2.172V2.162c0-.074,0-.148,0-.225,0-.16,0-.326-.007-.489A1.457,1.457,0,0,0,255.033.015a1.43,1.43,0,0,0-1.584,1.209,2.729,2.729,0,0,0-.026.554,3.228,3.228,0,0,1-.005.368l0,.018,0,.018a3.209,3.209,0,0,1,.006.374,2.468,2.468,0,0,0,.04.624,1.485,1.485,0,0,0,1.412,1.133h.031A1.479,1.479,0,0,0,256.3,3.12a2.8,2.8,0,0,0,.03-.566,3.324,3.324,0,0,1,.008-.37Z" transform="translate(-241.351 -0.009)"/>
        <path id="Trazado_16659" data-name="Trazado 16659" class="cls-5" d="M158.212,2.8c-.012-.336-.009-.68-.005-1.013,0-.151,0-.3,0-.46V1.315a1.448,1.448,0,0,0-2.885.006v.015c0,.165,0,.331,0,.5,0,.369-.006.75.01,1.128a1.377,1.377,0,0,0,.467.977,1.437,1.437,0,0,0,.955.362c.036,0,.071,0,.106,0A1.433,1.433,0,0,0,158.212,2.8" transform="translate(-147.924)"/>
        <path id="Trazado_16660" data-name="Trazado 16660" class="cls-5" d="M119.775,37.3h-.008c-.294,0-.566,0-.831,0h-.009a.4.4,0,0,0-.432.35l-.008.042.014.041a.416.416,0,0,0,.435.3h.027c.235-.008.49-.009.8,0a.371.371,0,0,0,.42-.384v-.024l-.006-.023a.385.385,0,0,0-.406-.3" transform="translate(-112.846 -35.525)"/>
        <path id="Trazado_16661" data-name="Trazado 16661" class="cls-5" d="M218.952,37.624a.41.41,0,0,0-.47-.362c-.24.009-.485.006-.721,0h-.08a.385.385,0,0,0-.406.3l-.006.023v.024a.373.373,0,0,0,.422.385c.271-.007.549-.007.826,0h.017a.39.39,0,0,0,.413-.3l.01-.035Z" transform="translate(-206.925 -35.487)"/>
        <path id="Trazado_16662" data-name="Trazado 16662" class="cls-6" d="M23.794,147.2q3.943,0,7.885,0c.157,0,.2.038.2.2q-.008,4.081,0,8.163A1.258,1.258,0,0,1,30.54,156.9H17.028a1.257,1.257,0,0,1-1.335-1.34q0-4.081,0-8.163c0-.163.047-.2.2-.2q3.951.007,7.9,0" transform="translate(-14.942 -140.193)"/>
        <path id="Trazado_16663" data-name="Trazado 16663" class="cls-6" d="M71.23,13.983c0,.243.007.487,0,.73a.844.844,0,0,1-1.687-.009q-.011-.73,0-1.459a.843.843,0,0,1,1.685-.009c.009.249,0,.5,0,.747h0" transform="translate(-66.225 -11.833)"/>
        <path id="Trazado_16664" data-name="Trazado 16664" class="cls-6" d="M267.914,13.972c0,.243.005.487,0,.73a.832.832,0,0,1-.829.826.823.823,0,0,1-.857-.813q-.016-.738,0-1.477a.843.843,0,0,1,1.685.005c.007.243,0,.486,0,.73" transform="translate(-253.544 -11.832)"/>
        <path id="Trazado_16665" data-name="Trazado 16665" class="cls-6" d="M167.784,13.975c0-.231,0-.463,0-.694a.851.851,0,0,1,1.7,0c.007.463.006.926,0,1.389a.852.852,0,1,1-1.7,0c0-.231,0-.463,0-.694" transform="translate(-159.794 -11.838)"/>
        <path id="Trazado_16666" data-name="Trazado 16666" class="cls-5" d="M109.937,167.4a.308.308,0,0,0-.567.056l-.154.51a3.636,3.636,0,0,0-1.551-1.406,4.19,4.19,0,0,0-5.262,1.29,3.21,3.21,0,0,0-.391.851.308.308,0,0,0,.21.382.308.308,0,0,0,.382-.21,2.592,2.592,0,0,1,.317-.688,3.559,3.559,0,0,1,4.473-1.072,3.031,3.031,0,0,1,1.281,1.149l-.65-.149a.308.308,0,1,0-.138.6l1.353.311a.312.312,0,0,0,.069.008.306.306,0,0,0,.295-.219l.357-1.178a.306.306,0,0,0-.023-.235" transform="translate(-97.144 -158.219)"/>
        <path id="Trazado_16667" data-name="Trazado 16667" class="cls-4" d="M225.712,251.03a1.793,1.793,0,1,1-1.793-1.793,1.793,1.793,0,0,1,1.793,1.793" transform="translate(-211.55 -237.371)"/>
        <path id="Trazado_16668" data-name="Trazado 16668" class="cls-5" d="M217.961,242.981a2.091,2.091,0,1,0,2.091,2.091,2.093,2.093,0,0,0-2.091-2.091m0,3.587a1.5,1.5,0,1,1,1.5-1.5,1.5,1.5,0,0,1-1.5,1.5" transform="translate(-205.592 -231.413)"/>
        <path id="Trazado_16669" data-name="Trazado 16669" class="cls-4" d="M77.611,251.03a1.793,1.793,0,1,1-1.793-1.793,1.793,1.793,0,0,1,1.793,1.793" transform="translate(-70.5 -237.371)"/>
        <path id="Trazado_16670" data-name="Trazado 16670" class="cls-5" d="M69.86,242.981a2.091,2.091,0,1,0,2.091,2.091,2.093,2.093,0,0,0-2.091-2.091m0,3.587a1.5,1.5,0,1,1,1.5-1.5,1.5,1.5,0,0,1-1.5,1.5" transform="translate(-64.543 -231.413)"/>
      </g>
    </g>
  </g>
</svg>
