<svg xmlns="http://www.w3.org/2000/svg" xmlns:xlink="http://www.w3.org/1999/xlink" width="82" height="82" viewBox="0 0 82 82">
  <defs>
    <style>
      .cls-1 {
        fill: none;
      }

      .cls-2 {
        clip-path: url(#clip-iconCAE);
      }

      .cls-3 {
        clip-path: url(#clip-path);
      }

      .cls-4 {
        fill: #fff;
      }

      .cls-5 {
        fill: #276fba;
      }

      .cls-6 {
        fill: #9bc8fe;
      }

      .cls-7 {
        fill: #2d72b9;
      }

      .cls-8 {
        fill: #2e72b9;
      }

      .cls-9 {
        fill: #fdfcfd;
      }
    </style>
    <clipPath id="clip-path">
      <rect id="Rectángulo_11221" data-name="Rectángulo 11221" class="cls-1" width="62.329" height="72.31"/>
    </clipPath>
    <clipPath id="clip-iconCAE">
      <rect width="82" height="82"/>
    </clipPath>
  </defs>
  <g id="iconCAE" class="cls-2">
    <g id="Grupo_23011" data-name="Grupo 23011" transform="translate(10 5)">
      <g id="Grupo_22955" data-name="Grupo 22955" class="cls-3" transform="translate(0 0)">
        <path id="Trazado_16994" data-name="Trazado 16994" class="cls-4" d="M3.3,1.1H59.219a2.172,2.172,0,0,1,2.169,2.172V31.313a2.173,2.173,0,0,1-2.172,2.172H3.3a2.172,2.172,0,0,1-2.172-2.172V3.274A2.173,2.173,0,0,1,3.3,1.1" transform="translate(-0.09 -0.088)"/>
        <path id="Trazado_16995" data-name="Trazado 16995" class="cls-5" d="M59.128,34.411H3.21A3.19,3.19,0,0,1,.024,31.225V3.186A3.19,3.19,0,0,1,3.21,0H59.131a3.19,3.19,0,0,1,3.186,3.186V31.225a3.19,3.19,0,0,1-3.186,3.186M3.21,2.023A1.16,1.16,0,0,0,2.047,3.18V31.225a1.16,1.16,0,0,0,1.159,1.159H59.127a1.16,1.16,0,0,0,1.159-1.159V3.186a1.16,1.16,0,0,0-1.159-1.159Z" transform="translate(-0.002 0)"/>
        <path id="Trazado_16996" data-name="Trazado 16996" class="cls-6" d="M44.456,9.993h9.565a3.176,3.176,0,0,1,3.184,3.165v9.494a3.176,3.176,0,0,1-3.186,3.165H44.454a3.175,3.175,0,0,1-3.186-3.164h0V13.158a3.175,3.175,0,0,1,3.185-3.165h0" transform="translate(-3.312 -0.802)"/>
        <path id="Trazado_16997" data-name="Trazado 16997" class="cls-7" d="M53.935,26.659H44.37a4.108,4.108,0,0,1-4.116-4.086v-9.5A4.106,4.106,0,0,1,44.37,8.99h9.565a4.106,4.106,0,0,1,4.116,4.087v9.5a4.106,4.106,0,0,1-4.116,4.087M44.37,10.835a2.252,2.252,0,0,0-2.254,2.241v9.5a2.252,2.252,0,0,0,2.257,2.241h9.563a2.252,2.252,0,0,0,2.257-2.241v-9.5a2.252,2.252,0,0,0-2.257-2.241Z" transform="translate(-3.23 -0.721)"/>
        <path id="Trazado_16998" data-name="Trazado 16998" class="cls-8" d="M54.772,15.96a1.958,1.958,0,0,1-.614,1.445l-1.036,1.033c-1.085,1.083-2.318,2.31-3.56,3.528a2.094,2.094,0,0,1-2.943.1c-.033-.03-.065-.063-.092-.092q-.876-.84-1.722-1.711a2.088,2.088,0,0,1-.014-2.952l.014-.014a2.123,2.123,0,0,1,2.911-.068c.3.276.437.2.675-.041q1.38-1.407,2.8-2.781a2.115,2.115,0,0,1,2.98.02,2.086,2.086,0,0,1,.606,1.537" transform="translate(-3.546 -1.107)"/>
        <path id="Trazado_16999" data-name="Trazado 16999" class="cls-9" d="M48.2,21.475a.965.965,0,0,1-.744-.311c-.522-.521-1.052-1.032-1.564-1.564a.982.982,0,0,1-.1-1.385l.006-.006c.017-.02.036-.04.056-.059a.986.986,0,0,1,1.386-.029.975.975,0,0,1,.073.078c1.048,1.125,1.109.661,1.84-.051.883-.86,1.748-1.741,2.63-2.607a1.024,1.024,0,0,1,1.425-.222,1.013,1.013,0,0,1,.223,1.414h0a1.009,1.009,0,0,1-.229.226q-2.058,2.056-4.125,4.1a1.09,1.09,0,0,1-.869.41" transform="translate(-3.655 -1.213)"/>
        <path id="Trazado_17000" data-name="Trazado 17000" class="cls-5" d="M33.344,11.392H7.109a1.012,1.012,0,1,1,0-2.023H33.344a1.012,1.012,0,0,1,0,2.023" transform="translate(-0.489 -0.752)"/>
        <path id="Trazado_17001" data-name="Trazado 17001" class="cls-5" d="M30.886,19.405H7.137a1.012,1.012,0,0,1,0-2.023h23.75a1.012,1.012,0,0,1,0,2.023" transform="translate(-0.492 -1.395)"/>
        <path id="Trazado_17002" data-name="Trazado 17002" class="cls-5" d="M28.492,27.415H7.04a1.019,1.019,0,0,1,0-2.023H28.492a1.019,1.019,0,0,1,0,2.023" transform="translate(-0.493 -2.037)"/>
        <path id="Trazado_17003" data-name="Trazado 17003" class="cls-8" d="M13.026,60.045h-.074a7.308,7.308,0,0,1-7.235-7.38v-.024a7.174,7.174,0,0,1,7.115-7.22h.282a7.312,7.312,0,1,1-.086,14.624M7.275,52.687a5.75,5.75,0,1,0,5.807-5.7h-.238a5.622,5.622,0,0,0-5.568,5.662v.04" transform="translate(-0.459 -3.645)"/>
        <path id="Trazado_17004" data-name="Trazado 17004" class="cls-6" d="M21.156,68.209l-.009-.066v-.066a9.139,9.139,0,0,0-3.428-7.387,1.1,1.1,0,0,0-.742-.287,1.166,1.166,0,0,0-.454.092,9.871,9.871,0,0,1-5.192.536c-.036-.006-.073-.009-.109-.016-.184-.033-.368-.08-.552-.123-.121-.029-.243-.052-.363-.086-.1-.028-.195-.063-.292-.092-.205-.064-.411-.128-.613-.207a1.166,1.166,0,0,0-.454-.092A1.1,1.1,0,0,0,8.2,60.7a9.179,9.179,0,0,0-1.472,1.48c-.111.14-.217.284-.321.431l-.016.021c-.023.034-.05.066-.073.1h.006a9.132,9.132,0,0,0-1.553,5.353v.066l-.009.066a1.087,1.087,0,0,0,.759,1.2l.1.038a17.3,17.3,0,0,0,10.025,1.4c.12-.019.241-.036.361-.057l.076-.016A17.282,17.282,0,0,0,20.3,69.442l.1-.038a1.086,1.086,0,0,0,.76-1.2" transform="translate(-0.382 -4.847)"/>
        <path id="Trazado_17005" data-name="Trazado 17005" class="cls-8" d="M16.84,60.236a1.1,1.1,0,0,1,.736.286,9.143,9.143,0,0,1,3.432,7.389v.066l.009.066a1.088,1.088,0,0,1-.76,1.2l-.1.038a17.3,17.3,0,0,1-4.21,1.335l-.076.015c-.12.021-.241.039-.361.058a17.312,17.312,0,0,1-10.025-1.4l-.1-.038a1.088,1.088,0,0,1-.76-1.2l.009-.066v-.066a9.134,9.134,0,0,1,1.557-5.353s.292-.417.4-.552a9.1,9.1,0,0,1,1.472-1.48,1.1,1.1,0,0,1,.736-.286,1.166,1.166,0,0,1,.454.092c.2.078.407.142.613.207.1.03.194.066.293.092.12.034.242.058.363.086.184.044.368.092.552.123.036.006.073.009.109.016a9.87,9.87,0,0,0,5.192-.535,1.166,1.166,0,0,1,.454-.092Zm0-1.61h0a2.77,2.77,0,0,0-1.055.209,8.2,8.2,0,0,1-2.97.552,8.3,8.3,0,0,1-1.358-.111l-.107-.016c-.1-.019-.223-.048-.345-.077l-.1-.025-.147-.034c-.051-.011-.1-.021-.151-.036s-.07-.022-.1-.033c-.05-.017-.1-.033-.149-.048l-.044-.014c-.162-.052-.315-.1-.447-.15a2.768,2.768,0,0,0-1.051-.208,2.706,2.706,0,0,0-1.782.664,10.81,10.81,0,0,0-1.693,1.713,5.8,5.8,0,0,0-.512.71A10.685,10.685,0,0,0,3.027,67.9a2.68,2.68,0,0,0,1.828,2.863H4.86a18.919,18.919,0,0,0,10.9,1.507l.086-.013c.1-.016.2-.031.3-.05l.08-.016a18.973,18.973,0,0,0,4.554-1.434h.006A2.682,2.682,0,0,0,22.62,67.9a10.816,10.816,0,0,0-4-8.6,2.7,2.7,0,0,0-1.779-.667" transform="translate(-0.241 -4.704)"/>
        <path id="Trazado_17006" data-name="Trazado 17006" class="cls-4" d="M7.31,52.787a5.721,5.721,0,0,1,5.671-5.771h.228a5.842,5.842,0,1,1-5.9,5.784v-.017" transform="translate(-0.587 -3.773)"/>
        <path id="Trazado_17007" data-name="Trazado 17007" class="cls-8" d="M53.861,60.045h-.074a7.308,7.308,0,0,1-7.236-7.38v-.024a7.174,7.174,0,0,1,7.114-7.22h.282a7.312,7.312,0,0,1-.086,14.624m-5.752-7.358a5.75,5.75,0,1,0,5.806-5.7h-.238a5.621,5.621,0,0,0-5.567,5.662v.04" transform="translate(-3.736 -3.645)"/>
        <path id="Trazado_17008" data-name="Trazado 17008" class="cls-6" d="M61.99,68.209l-.009-.066v-.066a9.139,9.139,0,0,0-3.428-7.387,1.1,1.1,0,0,0-.742-.287,1.166,1.166,0,0,0-.454.092,9.871,9.871,0,0,1-5.192.536c-.036-.006-.073-.009-.109-.016-.184-.033-.368-.08-.552-.123-.121-.029-.243-.052-.363-.086-.1-.028-.195-.063-.292-.092-.205-.064-.411-.128-.613-.207a1.166,1.166,0,0,0-.454-.092,1.1,1.1,0,0,0-.742.286,9.179,9.179,0,0,0-1.472,1.48c-.111.14-.217.284-.321.431l-.016.021c-.023.034-.05.066-.073.1h.006a9.14,9.14,0,0,0-1.553,5.353v.066l-.009.066a1.087,1.087,0,0,0,.759,1.2l.1.038a17.3,17.3,0,0,0,10.025,1.4c.12-.019.241-.036.361-.057l.076-.016a17.282,17.282,0,0,0,4.212-1.337l.1-.038a1.086,1.086,0,0,0,.76-1.2" transform="translate(-3.659 -4.847)"/>
        <path id="Trazado_17009" data-name="Trazado 17009" class="cls-8" d="M57.675,60.236a1.1,1.1,0,0,1,.736.286,9.14,9.14,0,0,1,3.429,7.388v.066l.009.066a1.088,1.088,0,0,1-.76,1.2l-.1.038a17.276,17.276,0,0,1-4.212,1.337l-.076.015c-.12.021-.241.039-.361.058a17.312,17.312,0,0,1-10.025-1.4l-.1-.038a1.088,1.088,0,0,1-.76-1.2l.009-.066v-.066a9.134,9.134,0,0,1,1.557-5.353s.292-.417.4-.552a9.1,9.1,0,0,1,1.472-1.48,1.1,1.1,0,0,1,.736-.286,1.166,1.166,0,0,1,.454.092c.2.078.407.142.613.207.1.03.194.066.293.092.12.034.242.058.363.086.184.044.368.092.552.123.036.006.073.009.109.016a9.87,9.87,0,0,0,5.192-.535,1.166,1.166,0,0,1,.454-.092Zm0-1.61h0a2.77,2.77,0,0,0-1.055.209,8.2,8.2,0,0,1-2.97.552,8.3,8.3,0,0,1-1.358-.111l-.107-.016c-.1-.019-.223-.048-.345-.077l-.1-.025-.147-.034c-.051-.011-.1-.021-.151-.036s-.07-.022-.1-.033c-.05-.017-.1-.033-.149-.048l-.044-.014c-.162-.052-.315-.1-.447-.15a2.768,2.768,0,0,0-1.051-.208,2.7,2.7,0,0,0-1.783.666,10.81,10.81,0,0,0-1.693,1.713,5.8,5.8,0,0,0-.512.71A10.685,10.685,0,0,0,43.861,67.9a2.68,2.68,0,0,0,1.828,2.863h.006a18.919,18.919,0,0,0,10.9,1.507l.086-.013c.1-.016.2-.031.3-.05l.08-.016a18.92,18.92,0,0,0,4.557-1.439h.006a2.683,2.683,0,0,0,1.827-2.864,10.815,10.815,0,0,0-4-8.6,2.7,2.7,0,0,0-1.779-.667" transform="translate(-3.518 -4.704)"/>
        <path id="Trazado_17010" data-name="Trazado 17010" class="cls-4" d="M48.145,52.787a5.721,5.721,0,0,1,5.671-5.771h.228a5.842,5.842,0,1,1-5.9,5.784v-.017" transform="translate(-3.864 -3.773)"/>
        <path id="Trazado_17011" data-name="Trazado 17011" class="cls-8" d="M33.437,64.94h-.075a7.308,7.308,0,0,1-7.235-7.38v-.024a7.174,7.174,0,0,1,7.113-7.215h.282a7.308,7.308,0,0,1-.085,14.616M27.686,57.58a5.75,5.75,0,1,0,5.807-5.7h-.238a5.622,5.622,0,0,0-5.568,5.662v.045" transform="translate(-2.097 -4.038)"/>
        <path id="Trazado_17012" data-name="Trazado 17012" class="cls-6" d="M41.566,73.107l-.009-.066v-.066a9.137,9.137,0,0,0-3.428-7.387,1.1,1.1,0,0,0-.742-.287,1.166,1.166,0,0,0-.454.092,9.871,9.871,0,0,1-5.192.536c-.036-.006-.073-.009-.109-.016-.184-.033-.368-.08-.552-.123-.121-.029-.243-.052-.363-.086-.1-.028-.195-.063-.292-.092-.205-.064-.411-.128-.613-.207a1.166,1.166,0,0,0-.454-.092,1.1,1.1,0,0,0-.742.286,9.178,9.178,0,0,0-1.472,1.48c-.111.14-.217.284-.321.431l-.016.021c-.023.034-.05.066-.073.1h.006a9.133,9.133,0,0,0-1.556,5.353v.066l-.009.066a1.087,1.087,0,0,0,.759,1.2l.1.038a17.3,17.3,0,0,0,10.025,1.4c.12-.019.241-.036.361-.057l.076-.016a17.241,17.241,0,0,0,4.218-1.338l.1-.038a1.086,1.086,0,0,0,.76-1.2" transform="translate(-2.019 -5.24)"/>
        <path id="Trazado_17013" data-name="Trazado 17013" class="cls-8" d="M37.253,65.135a1.1,1.1,0,0,1,.736.286,9.14,9.14,0,0,1,3.429,7.388v.066l.009.066a1.088,1.088,0,0,1-.76,1.2l-.1.038a17.277,17.277,0,0,1-4.212,1.337l-.076.015c-.12.021-.241.039-.361.058a17.312,17.312,0,0,1-10.025-1.4l-.1-.038a1.088,1.088,0,0,1-.76-1.2l.009-.066V72.82A9.134,9.134,0,0,1,26.6,67.467s.292-.417.4-.552a9.105,9.105,0,0,1,1.472-1.48,1.1,1.1,0,0,1,.736-.286,1.166,1.166,0,0,1,.454.092c.2.078.407.142.613.207.1.03.194.066.293.092.12.034.242.058.363.086.184.044.368.092.552.123.036.006.073.009.109.016a9.87,9.87,0,0,0,5.192-.535,1.166,1.166,0,0,1,.454-.092Zm0-1.61h0a2.77,2.77,0,0,0-1.055.209,8.2,8.2,0,0,1-2.97.552,8.3,8.3,0,0,1-1.358-.111l-.107-.016c-.1-.019-.223-.048-.345-.077l-.1-.025-.147-.034c-.051-.011-.1-.021-.151-.036s-.07-.022-.1-.033c-.05-.017-.1-.033-.149-.048l-.044-.014c-.162-.052-.315-.1-.447-.15a2.768,2.768,0,0,0-1.051-.208,2.7,2.7,0,0,0-1.783.666,10.81,10.81,0,0,0-1.693,1.713,5.8,5.8,0,0,0-.512.71A10.685,10.685,0,0,0,23.439,72.8a2.68,2.68,0,0,0,1.828,2.863h.006a18.918,18.918,0,0,0,10.9,1.507l.086-.013c.1-.016.2-.031.3-.05l.08-.016A18.919,18.919,0,0,0,41.2,75.655h.006a2.683,2.683,0,0,0,1.827-2.864,10.817,10.817,0,0,0-4-8.6,2.7,2.7,0,0,0-1.778-.663" transform="translate(-1.88 -5.098)"/>
        <path id="Trazado_17014" data-name="Trazado 17014" class="cls-4" d="M27.721,57.687a5.721,5.721,0,0,1,5.671-5.771h.228a5.842,5.842,0,1,1-5.9,5.784v-.014" transform="translate(-2.225 -4.166)"/>
        <line id="Línea_508" data-name="Línea 508" class="cls-9" y2="10.305" transform="translate(0.966 29.156)"/>
        <path id="Trazado_17015" data-name="Trazado 17015" class="cls-8" d="M.966,42.886A.966.966,0,0,1,0,41.921v-10.3a.966.966,0,0,1,1.931,0v10.3a.966.966,0,0,1-.966.966" transform="translate(0 -2.459)"/>
        <line id="Línea_509" data-name="Línea 509" class="cls-9" y2="10.305" transform="translate(61.363 29.156)"/>
        <path id="Trazado_17016" data-name="Trazado 17016" class="cls-8" d="M66.633,42.886a.966.966,0,0,1-.966-.966v-10.3a.966.966,0,1,1,1.931,0v10.3a.966.966,0,0,1-.966.966" transform="translate(-5.27 -2.459)"/>
      </g>
    </g>
  </g>
</svg>
