<svg xmlns="http://www.w3.org/2000/svg" xmlns:xlink="http://www.w3.org/1999/xlink" width="82" height="82" viewBox="0 0 82 82">
  <defs>
    <style>
      .cls-1 {
        fill: none;
      }

      .cls-2 {
        clip-path: url(#clip-iconGEMMA);
      }

      .cls-3 {
        clip-path: url(#clip-path);
      }

      .cls-4 {
        fill: #9ac7fe;
      }

      .cls-5 {
        fill: #2d72b9;
      }

      .cls-6 {
        fill: #2a70b8;
      }

      .cls-7 {
        fill: #fefefe;
      }

      .cls-8 {
        fill: #fdfefe;
      }
    </style>
    <clipPath id="clip-path">
      <rect id="Rectángulo_11213" data-name="Rectángulo 11213" class="cls-1" width="72.723" height="53.085"/>
    </clipPath>
    <clipPath id="clip-iconGEMMA">
      <rect width="82" height="82"/>
    </clipPath>
  </defs>
  <g id="iconGEMMA" class="cls-2">
    <g id="Grupo_22941" data-name="Grupo 22941" transform="translate(5 14)">
      <g id="Grupo_22940" data-name="Grupo 22940" class="cls-3" transform="translate(0 0)">
        <path id="Trazado_16902" data-name="Trazado 16902" class="cls-4" d="M64.1,26.255H31.871a3.317,3.317,0,0,1-3.317-3.317V4.156A3.317,3.317,0,0,1,31.871.839H64.1a3.317,3.317,0,0,1,3.317,3.317V22.938A3.317,3.317,0,0,1,64.1,26.255" transform="translate(-1.055 -0.031)"/>
        <path id="Trazado_16903" data-name="Trazado 16903" class="cls-5" d="M31.415,27.455a4.447,4.447,0,0,1-4.434-4.434V4.435a4.271,4.271,0,0,1,1.3-3.133A4.269,4.269,0,0,1,31.415,0H64.226a4.273,4.273,0,0,1,3.132,1.3,4.271,4.271,0,0,1,1.3,3.133V23.021a4.447,4.447,0,0,1-4.435,4.434Zm2.261-2.045H61.964a5.051,5.051,0,0,1,1.448-3.634,4.655,4.655,0,0,1,3.48-1.507V7.253a4.643,4.643,0,0,1-3.483-1.51,5.061,5.061,0,0,1-1.446-3.631H33.676a5.056,5.056,0,0,1-1.447,3.634,4.655,4.655,0,0,1-3.481,1.507V20.269a4.648,4.648,0,0,1,3.484,1.51,5.066,5.066,0,0,1,1.445,3.631" transform="translate(-0.997 0)"/>
        <path id="Trazado_16904" data-name="Trazado 16904" class="cls-6" d="M42.886,40.916c2.822-1.006,5.543-1.975,8.264-2.947l14.46-5.163a6,6,0,0,1,5.15.431,3.357,3.357,0,0,1,.186,6.013c-1.376.879-2.844,1.617-4.275,2.408C60.1,45.3,53.511,48.927,46.949,52.594a12.4,12.4,0,0,1-7.838,1.367c-3.274-.405-6.549-.761-9.81-1.246q-6.508-.968-13.013-1.95c-.77-.116-1.55-.22-2.322-.348a.5.5,0,0,0-.628.322c0,.013-.008.026-.011.039A2.865,2.865,0,0,1,10.5,52.555q-3.705,0-7.41,0A2.9,2.9,0,0,1,.009,49.473V30.809a2.88,2.88,0,0,1,3.122-3.092c2.328-.007,4.656.053,6.981-.019A3.123,3.123,0,0,1,13.6,30.266c.976-.235,1.954-.475,2.934-.706a27.953,27.953,0,0,1,3.336-.7,9.923,9.923,0,0,1,5.023.674q7.762,3.275,15.489,6.633A4.142,4.142,0,0,1,43,39.315a5.17,5.17,0,0,1-.113,1.6" transform="translate(0 -1.023)"/>
        <path id="Trazado_16905" data-name="Trazado 16905" class="cls-7" d="M14.087,40.4c0-2.566.018-5.131-.014-7.7-.007-.567.182-.756.72-.867,1.622-.346,3.226-.77,4.842-1.145A8.265,8.265,0,0,1,24.8,31.1q7.733,3.262,15.428,6.61a2.341,2.341,0,0,1,1.707,2.154,2.448,2.448,0,0,1-1.845,2.281,5.3,5.3,0,0,1-4.156-.066q-4.215-1.81-8.435-3.607c-.279-.119-.557-.289-.883-.146a.815.815,0,0,0-.508.718.745.745,0,0,0,.514.77c1,.432,2.005.858,3.009,1.285,1.811.77,3.636,1.505,5.43,2.311a7.018,7.018,0,0,0,5.053.332c4.171-1.212,8.22-2.765,12.3-4.248,4.43-1.614,8.827-3.327,13.322-4.762a8.047,8.047,0,0,1,2.979-.611,3.469,3.469,0,0,1,2.353,1.038,1.658,1.658,0,0,1-.167,2.654,5.774,5.774,0,0,1-.836.538Q58.391,44.825,46.722,51.3a10.955,10.955,0,0,1-7.086,1.181c-3.852-.535-7.717-.995-11.569-1.534-3.617-.506-7.223-1.072-10.838-1.613-.821-.123-1.637-.289-2.462-.364-.546-.051-.7-.264-.69-.8.029-2.589.013-5.178.013-7.768" transform="translate(-0.52 -1.126)"/>
        <path id="Trazado_16906" data-name="Trazado 16906" class="cls-4" d="M12.074,40.226v9.053c0,1.365-.43,1.786-1.783,1.787H3.236c-1.113,0-1.595-.488-1.595-1.6,0-6.2.016-12.4-.018-18.6a1.5,1.5,0,0,1,1.582-1.6q3.669-.014,7.34,0a1.375,1.375,0,0,1,1.529,1.2,1.357,1.357,0,0,1,0,.353c.011,3.136,0,6.271,0,9.407" transform="translate(-0.06 -1.081)"/>
        <path id="Trazado_16907" data-name="Trazado 16907" class="cls-6" d="M9.444,35.115c0,.712.013,1.422,0,2.134a1.121,1.121,0,0,1-1.023,1.21,1.23,1.23,0,0,1-.169,0c-.853.02-1.707.023-2.561,0a1.188,1.188,0,0,1-1.236-1.27q-.027-2.134,0-4.267a1.1,1.1,0,0,1,1.02-1.18,1.051,1.051,0,0,1,.191,0q1.28-.019,2.561,0a1.1,1.1,0,0,1,1.219.977,1.126,1.126,0,0,1,0,.261c.013.711,0,1.422,0,2.134" transform="translate(-0.164 -1.173)"/>
        <path id="Trazado_16908" data-name="Trazado 16908" class="cls-6" d="M7.794,45.416c0,.878.009,1.757,0,2.635-.009.647-.23.909-.732.919-.548.011-.816-.266-.821-.92q-.017-2.6,0-5.2c0-.69.31-1.047.819-1.019.482.027.732.366.737,1.02.006.854,0,1.709,0,2.564" transform="translate(-0.23 -1.546)"/>
        <path id="Trazado_16909" data-name="Trazado 16909" class="cls-8" d="M6.07,36.927V33.813c0-.141.015-.28.026-.461a8.169,8.169,0,0,1,1.8-.044v3.62Z" transform="translate(-0.224 -1.23)"/>
        <path id="Trazado_16910" data-name="Trazado 16910" class="cls-5" d="M48.327,21.288a7.262,7.262,0,0,1-7.315-7.314,7.315,7.315,0,1,1,14.629,0,7.262,7.262,0,0,1-7.314,7.314m0-12.265a4.9,4.9,0,0,0-4.953,4.951,4.952,4.952,0,1,0,9.9,0,4.9,4.9,0,0,0-4.951-4.951" transform="translate(-1.516 -0.246)"/>
      </g>
    </g>
  </g>
</svg>
