<svg xmlns="http://www.w3.org/2000/svg" xmlns:xlink="http://www.w3.org/1999/xlink" width="82" height="82" viewBox="0 0 82 82">
  <defs>
    <style>
      .cls-1 {
        fill: none;
      }

      .cls-2 {
        clip-path: url(#clip-iconSIGAP);
      }

      .cls-3 {
        clip-path: url(#clip-path);
      }

      .cls-4 {
        fill: #2e72b9;
      }

      .cls-5 {
        fill: #9bc8fe;
      }

      .cls-6 {
        fill: #fff;
      }
    </style>
    <clipPath id="clip-path">
      <path id="Trazado_16844" data-name="Trazado 16844" class="cls-1" d="M0,0H63.442V69.791H0V0Z"/>
    </clipPath>
    <clipPath id="clip-iconSIGAP">
      <rect width="82" height="82"/>
    </clipPath>
  </defs>
  <g id="iconSIGAP" class="cls-2">
    <g id="Grupo_22922" data-name="Grupo 22922" transform="translate(9.279 6.105)">
      <g id="Enmascarar_grupo_22740" data-name="Enmascarar grupo 22740" class="cls-3">
        <path id="Trazado_16839" data-name="Trazado 16839" class="cls-4" d="M22.814,39.485h-.2A19.739,19.739,0,0,1,3.07,19.552l0-.065A19.375,19.375,0,0,1,22.284,0c.261,0,.5,0,.757.008a19.739,19.739,0,0,1-.227,39.476M7.279,19.621a15.531,15.531,0,1,0,15.684-15.4c-.24-.006-.442-.008-.644-.008A15.184,15.184,0,0,0,7.281,19.5c0,.042,0,.08,0,.122" transform="translate(3.389)"/>
        <path id="Trazado_16840" data-name="Trazado 16840" class="cls-5" d="M34.235,37.1a14.928,14.928,0,0,1,7.783-13.113,23.172,23.172,0,0,0-4.476-4.926l-.164-.152a3.635,3.635,0,0,0-3.943-.819,26.668,26.668,0,0,1-18.963-.143,3.159,3.159,0,0,0-1.227-.25,2.963,2.963,0,0,0-2,.774A24.684,24.684,0,0,0,1.985,38.426l.006.179-.025.177A2.941,2.941,0,0,0,4.018,42.01l.267.1a46.719,46.719,0,0,0,32.116,2.7A14.835,14.835,0,0,1,34.235,37.1" transform="translate(2.139 19.539)"/>
        <path id="Trazado_16841" data-name="Trazado 16841" class="cls-4" d="M38.149,40.56l-.6-1.675a9.8,9.8,0,0,0,1.262-1.795,9.36,9.36,0,0,0,.806-2l1.734-.4a1.794,1.794,0,0,0,1.14-.749,2.013,2.013,0,0,0,.389-1.277l-.046-.783a1.825,1.825,0,0,0-.488-1.21,1.941,1.941,0,0,0-1.185-.625l-1.6-.231a8.562,8.562,0,0,0-.941-1.944,10.209,10.209,0,0,0-1.385-1.688l.518-1.469a2.208,2.208,0,0,0-.015-1.427,1.889,1.889,0,0,0-.9-1.061l-.585-.318a1.886,1.886,0,0,0-1.372-.191,2.141,2.141,0,0,0-1.2.751l-.966,1.248a10.274,10.274,0,0,0-2.169-.248,8.566,8.566,0,0,0-2.142.263L27.34,22.515a1.894,1.894,0,0,0-1.185-.648,1.931,1.931,0,0,0-1.3.261L24.2,22.5a1.981,1.981,0,0,0-.856,1.01,1.783,1.783,0,0,0-.006,1.357l.564,1.656A9.742,9.742,0,0,0,22.645,28.3a9.9,9.9,0,0,0-.814,2.016l-1.7.423a1.786,1.786,0,0,0-1.132.73,1.975,1.975,0,0,0-.379,1.26l.027.819a1.842,1.842,0,0,0,.486,1.212,1.938,1.938,0,0,0,1.187.623l1.6.234a8.584,8.584,0,0,0,.938,1.942,10.331,10.331,0,0,0,1.385,1.69l-.516,1.469a2.194,2.194,0,0,0,.015,1.427,1.863,1.863,0,0,0,.9,1.058l.583.318a1.9,1.9,0,0,0,1.374.194,2.163,2.163,0,0,0,1.2-.753l.964-1.248a11.05,11.05,0,0,0,2.161.267,7.352,7.352,0,0,0,2.153-.282l1.061,1.218a1.9,1.9,0,0,0,1.187.646,1.936,1.936,0,0,0,1.3-.261l.654-.377a2.1,2.1,0,0,0,.867-1.027,1.78,1.78,0,0,0,0-1.34m-5.86-2.59a5.483,5.483,0,0,1-6.361-7.878A5.478,5.478,0,0,1,36,31.17a5.467,5.467,0,0,1-3.708,6.8" transform="translate(20.562 23.921)"/>
        <path id="Trazado_16842" data-name="Trazado 16842" class="cls-4" d="M38.541,47.261a46.719,46.719,0,0,1-32.116-2.7l-.267-.1a2.941,2.941,0,0,1-2.052-3.228l.025-.177-.006-.179a24.684,24.684,0,0,1,9.258-19.956,2.963,2.963,0,0,1,2-.774,3.159,3.159,0,0,1,1.227.25,26.668,26.668,0,0,0,18.963.143,3.635,3.635,0,0,1,3.943.819l.164.149a23.274,23.274,0,0,1,4.476,4.926A14.88,14.88,0,0,1,48.6,24.865a27.533,27.533,0,0,0-6.045-7,7.823,7.823,0,0,0-8.358-1.7,22.389,22.389,0,0,1-15.867-.112,7.158,7.158,0,0,0-7.554,1.229A28.828,28.828,0,0,0,.045,40.389,7.137,7.137,0,0,0,4.9,47.981a50.836,50.836,0,0,0,36.259,2.493,14.988,14.988,0,0,1-2.615-3.213" transform="translate(-0.001 17.092)"/>
        <path id="Trazado_16843" data-name="Trazado 16843" class="cls-6" d="M4.79,17.639A15.786,15.786,0,0,1,20.443,1.719c.208,0,.417,0,.625.011A16.12,16.12,0,1,1,4.79,17.69v-.05" transform="translate(5.288 1.898)"/>
      </g>
    </g>
  </g>
</svg>
