<svg xmlns="http://www.w3.org/2000/svg" xmlns:xlink="http://www.w3.org/1999/xlink" width="82" height="82" viewBox="0 0 82 82">
  <defs>
    <style>
      .cls-1 {
        fill: none;
      }

      .cls-2 {
        clip-path: url(#clip-iconSCM);
      }

      .cls-3 {
        clip-path: url(#clip-path);
      }

      .cls-4 {
        fill: #fff;
      }

      .cls-5 {
        fill: #276fba;
      }

      .cls-6 {
        fill: #9bc8fe;
      }

      .cls-7 {
        fill: #2e72b9;
      }

      .cls-8 {
        fill: #fdfcfd;
      }
    </style>
    <clipPath id="clip-path">
      <rect id="Rectángulo_11228" data-name="Rectángulo 11228" class="cls-1" width="67.952" height="54.458"/>
    </clipPath>
    <clipPath id="clip-iconSCM">
      <rect width="82" height="82"/>
    </clipPath>
  </defs>
  <g id="iconSCM" class="cls-2">
    <g id="Grupo_23013" data-name="Grupo 23013" transform="translate(8.024 16.94)">
      <g id="Grupo_22979" data-name="Grupo 22979" class="cls-3" transform="translate(0 0.001)">
        <path id="Trazado_17101" data-name="Trazado 17101" class="cls-4" d="M5.625,4.319H51.05A3.756,3.756,0,0,1,54.8,8.077V33.4A3.753,3.753,0,0,1,51.05,37.15H5.625A3.756,3.756,0,0,1,1.867,33.4V8.077A3.759,3.759,0,0,1,5.625,4.319" transform="translate(4.331 10.017)"/>
        <path id="Trazado_17102" data-name="Trazado 17102" class="cls-5" d="M51.92,39.267H6.495a5.008,5.008,0,0,1-5-5V8.946a5.008,5.008,0,0,1,5-5H51.92a5.005,5.005,0,0,1,5,5V34.264a5.005,5.005,0,0,1-5,5M6.495,6.433A2.518,2.518,0,0,0,3.982,8.946V34.264a2.518,2.518,0,0,0,2.513,2.513H51.92a2.515,2.515,0,0,0,2.51-2.513V8.946a2.515,2.515,0,0,0-2.51-2.513Z" transform="translate(3.461 9.145)"/>
        <path id="Trazado_17103" data-name="Trazado 17103" class="cls-5" d="M45.094,8.248H4.615a1.245,1.245,0,0,1,0-2.49H45.094a1.245,1.245,0,1,1,0,2.49" transform="translate(7.817 13.355)"/>
        <path id="Trazado_17104" data-name="Trazado 17104" class="cls-6" d="M28.222,19.489H6.582V2.958A2.585,2.585,0,0,1,9.161.375H25.636a2.586,2.586,0,0,1,2.586,2.583Z" transform="translate(15.268 0.868)"/>
        <path id="Trazado_17105" data-name="Trazado 17105" class="cls-5" d="M30.337,21.6H6.207V3.831A3.833,3.833,0,0,1,10.031,0H26.506a3.837,3.837,0,0,1,3.831,3.831ZM8.7,19.114H27.847V3.831A1.342,1.342,0,0,0,26.506,2.49H10.031A1.34,1.34,0,0,0,8.7,3.831Z" transform="translate(14.398 -0.002)"/>
        <path id="Trazado_17106" data-name="Trazado 17106" class="cls-5" d="M58.754,18.191H1.122A1.121,1.121,0,0,1,0,17.069V15.011a1.121,1.121,0,0,1,1.122-1.122H58.754a1.121,1.121,0,0,1,1.122,1.122v2.058a1.121,1.121,0,0,1-1.122,1.122" transform="translate(0 32.215)"/>
        <path id="Trazado_17107" data-name="Trazado 17107" class="cls-7" d="M14.095,23.705a11.133,11.133,0,0,1,1.082-8.511,11.254,11.254,0,0,1,4.764-4.462,11.741,11.741,0,0,1,5.205-1.1A11.067,11.067,0,1,1,14.188,23.954c-.027-.086-.063-.169-.093-.252" transform="translate(31.765 22.346)"/>
        <path id="Trazado_17108" data-name="Trazado 17108" class="cls-7" d="M25.011,32.358c-.133,0-.266,0-.4-.007A11.427,11.427,0,0,1,14.1,24.3a1.29,1.29,0,0,0-.053-.146l-.03-.09.305-.113-.315.09a11.5,11.5,0,0,1,6.025-13.378A11.984,11.984,0,0,1,25.4,9.532a11.414,11.414,0,0,1-.385,22.822M14.667,23.833c.053.133.076.2.1.259A10.718,10.718,0,1,0,25.376,10.226a11.307,11.307,0,0,0-5.046,1.062,10.806,10.806,0,0,0-5.663,12.545" transform="translate(31.522 22.102)"/>
        <path id="Trazado_17109" data-name="Trazado 17109" class="cls-6" d="M23.9,29.689a9.816,9.816,0,1,1,.046,0H23.9" transform="translate(32.625 23.211)"/>
        <path id="Trazado_17110" data-name="Trazado 17110" class="cls-7" d="M28.1,13.984a2.445,2.445,0,0,1-.757,1.8l-1.281,1.285c-1.338,1.348-2.858,2.875-4.4,4.385a2.568,2.568,0,0,1-3.635.129,1.384,1.384,0,0,1-.12-.123q-1.081-1.041-2.128-2.128a2.607,2.607,0,0,1,3.6-3.771c.375.342.541.249.833-.053q1.708-1.748,3.456-3.456A2.6,2.6,0,0,1,28.1,13.984" transform="translate(34.85 26.205)"/>
        <path id="Trazado_17111" data-name="Trazado 17111" class="cls-8" d="M18.86,19.993a1.256,1.256,0,0,1-.966-.4c-.677-.681-1.364-1.351-2.032-2.042a1.291,1.291,0,0,1-.129-1.819l.073-.076a1.274,1.274,0,0,1,1.8-.04c.033.033.066.066.1.1,1.358,1.467,1.437.866,2.387-.066,1.145-1.125,2.271-2.274,3.413-3.406a1.322,1.322,0,1,1,1.839,1.852q-2.669,2.684-5.351,5.358a1.412,1.412,0,0,1-1.129.538" transform="translate(35.764 27.12)"/>
      </g>
    </g>
  </g>
</svg>
