<svg xmlns="http://www.w3.org/2000/svg" xmlns:xlink="http://www.w3.org/1999/xlink" width="82" height="82" viewBox="0 0 82 82">
  <defs>
    <style>
      .cls-1 {
        fill: none;
      }

      .cls-2 {
        clip-path: url(#clip-iconCLARIDAD);
      }

      .cls-3 {
        clip-path: url(#clip-path);
      }

      .cls-4 {
        fill: #fdfcfd;
      }

      .cls-5 {
        fill: #2e72b9;
      }

      .cls-6 {
        fill: #9bc8fe;
      }
    </style>
    <clipPath id="clip-path">
      <rect id="Rectángulo_11116" data-name="Rectángulo 11116" class="cls-1" width="64.499" height="73.136"/>
    </clipPath>
    <clipPath id="clip-iconCLARIDAD">
      <rect width="82" height="82"/>
    </clipPath>
  </defs>
  <g id="iconCLARIDAD" class="cls-2">
    <g id="Grupo_22898" data-name="Grupo 22898" transform="translate(11.476 4.922)">
      <g id="Grupo_22771" data-name="Grupo 22771" class="cls-3" transform="translate(0 0)">
        <rect id="Rectángulo_11111" data-name="Rectángulo 11111" class="cls-4" width="51.889" height="69.366" rx="7" transform="translate(1.316 1.315)"/>
        <path id="Trazado_16705" data-name="Trazado 16705" class="cls-5" d="M46.329,2.63a5.562,5.562,0,0,1,5.562,5.562V63.8a5.562,5.562,0,0,1-5.562,5.563H8.191A5.562,5.562,0,0,1,2.63,63.8V8.191A5.562,5.562,0,0,1,8.191,2.63Zm0-2.63H8.191A8.2,8.2,0,0,0,0,8.191V63.8A8.2,8.2,0,0,0,8.191,72H46.329A8.2,8.2,0,0,0,54.52,63.8V8.191A8.2,8.2,0,0,0,46.329,0" transform="translate(0 0)"/>
        <path id="Rectángulo_11112" data-name="Rectángulo 11112" class="cls-6" d="M.779,0H4.9a.78.78,0,0,1,.78.78V6.5a.779.779,0,0,1-.779.779H.78A.78.78,0,0,1,0,6.495V.779A.779.779,0,0,1,.779,0Z" transform="translate(12.313 26.549)"/>
        <path id="Trazado_16706" data-name="Trazado 16706" class="cls-5" d="M14.235,21.308a.124.124,0,0,1,.124.125v5.224a.124.124,0,0,1-.124.125h-3.63a.124.124,0,0,1-.125-.125V21.433a.124.124,0,0,1,.125-.125Zm0-1.8h-3.63a1.928,1.928,0,0,0-1.926,1.926v5.224a1.928,1.928,0,0,0,1.926,1.926h3.63a1.928,1.928,0,0,0,1.925-1.926V21.433a1.928,1.928,0,0,0-1.925-1.926" transform="translate(2.732 6.141)"/>
        <rect id="Rectángulo_11113" data-name="Rectángulo 11113" class="cls-6" width="5.68" height="15.965" rx="0.838" transform="translate(20.386 17.86)"/>
        <path id="Trazado_16707" data-name="Trazado 16707" class="cls-5" d="M20.3,14.7a.2.2,0,0,1,.2.2V28.661a.2.2,0,0,1-.2.2H16.822a.2.2,0,0,1-.2-.2V14.9a.2.2,0,0,1,.2-.2Zm0-1.8H16.822a2,2,0,0,0-2,2V28.661a2,2,0,0,0,2,2H20.3a2,2,0,0,0,2-2V14.9a2,2,0,0,0-2-2" transform="translate(4.666 4.061)"/>
        <path id="Rectángulo_11114" data-name="Rectángulo 11114" class="cls-6" d="M.816,0H4.864A.816.816,0,0,1,5.68.816v10.5a.815.815,0,0,1-.815.815H.816A.816.816,0,0,1,0,11.315V.816A.816.816,0,0,1,.816,0Z" transform="translate(28.461 21.694)"/>
        <path id="Trazado_16708" data-name="Trazado 16708" class="cls-5" d="M26.47,17.614a.173.173,0,0,1,.172.174v9.986a.173.173,0,0,1-.172.172H22.934a.173.173,0,0,1-.172-.172V17.788a.173.173,0,0,1,.172-.174Zm0-1.8H22.934a1.975,1.975,0,0,0-1.972,1.974v9.986a1.975,1.975,0,0,0,1.972,1.972H26.47a1.976,1.976,0,0,0,1.974-1.972V17.788a1.976,1.976,0,0,0-1.974-1.974" transform="translate(6.599 4.979)"/>
        <path id="Rectángulo_11115" data-name="Rectángulo 11115" class="cls-6" d="M.863,0H4.817A.863.863,0,0,1,5.68.863V19.991a.862.862,0,0,1-.862.862H.863A.863.863,0,0,1,0,19.99V.863A.863.863,0,0,1,.863,0Z" transform="translate(36.528 12.971)"/>
        <path id="Trazado_16709" data-name="Trazado 16709" class="cls-5" d="M32.543,10.98a.235.235,0,0,1,.234.234V29.8a.235.235,0,0,1-.234.234H29.131A.235.235,0,0,1,28.9,29.8V11.214a.235.235,0,0,1,.234-.234Zm0-1.8H29.131A2.036,2.036,0,0,0,27.1,11.214V29.8a2.036,2.036,0,0,0,2.034,2.034h3.412A2.036,2.036,0,0,0,34.577,29.8V11.214A2.036,2.036,0,0,0,32.543,9.18" transform="translate(8.531 2.89)"/>
        <path id="Trazado_16710" data-name="Trazado 16710" class="cls-5" d="M25.363,32.764H8.744a3.664,3.664,0,0,1-.78-.032.873.873,0,0,1-.759-.922.846.846,0,0,1,.738-.845,3.945,3.945,0,0,1,.78-.041h33.5c.174,0,.348-.008.522.005.592.042,1.023.288,1,.949-.02.6-.419.852-.98.884-.231.013-.464,0-.7,0h-16.7" transform="translate(2.268 9.734)"/>
        <path id="Trazado_16711" data-name="Trazado 16711" class="cls-5" d="M25.514,38.717H8.9c-.233,0-.465.008-.7-.005-.564-.032-.972-.308-.989-.888-.017-.635.415-.914,1.011-.958.172-.012.347-.005.522-.005q16.748,0,33.5,0a3.412,3.412,0,0,1,.86.076.813.813,0,0,1,.648.82.837.837,0,0,1-.668.9,3.357,3.357,0,0,1-.863.058q-8.352.006-16.7,0" transform="translate(2.27 11.604)"/>
        <path id="Trazado_16712" data-name="Trazado 16712" class="cls-5" d="M18.582,44.665H8.764a4.163,4.163,0,0,1-.78-.034.864.864,0,0,1-.778-.9A.884.884,0,0,1,8,42.84a3.1,3.1,0,0,1,.606-.029q9.991,0,19.984,0a3.015,3.015,0,0,1,.69.041.9.9,0,0,1-.02,1.77,3.652,3.652,0,0,1-.778.041q-4.952,0-9.9,0" transform="translate(2.269 13.478)"/>
        <path id="Trazado_16713" data-name="Trazado 16713" class="cls-5" d="M25.371,51.334a15.794,15.794,0,0,1,1.534-12.073,15.973,15.973,0,0,1,6.756-6.327,16.645,16.645,0,0,1,7.381-1.55A15.694,15.694,0,1,1,25.5,51.686c-.037-.12-.085-.237-.13-.355" transform="translate(7.808 9.879)"/>
        <path id="Trazado_16714" data-name="Trazado 16714" class="cls-5" d="M40.624,63.375q-.28,0-.564-.008A16.2,16.2,0,0,1,25.147,51.951c-.022-.068-.049-.139-.076-.209l-.046-.121.435-.16-.448.124a16.3,16.3,0,0,1,8.546-18.972,17.021,17.021,0,0,1,7.61-1.6,16.188,16.188,0,0,1-.544,32.366M25.953,51.289c.074.191.107.277.135.365A15.2,15.2,0,1,0,41.142,32,16.02,16.02,0,0,0,33.984,33.5a15.319,15.319,0,0,0-8.031,17.788" transform="translate(7.692 9.761)"/>
        <path id="Trazado_16715" data-name="Trazado 16715" class="cls-6" d="M40.086,60.627A13.955,13.955,0,1,1,54.04,46.605,13.954,13.954,0,0,1,40.086,60.627" transform="translate(8.226 10.3)"/>
        <path id="Trazado_16716" data-name="Trazado 16716" class="cls-5" d="M48.113,41.145a3.46,3.46,0,0,1-1.076,2.548l-1.813,1.821c-1.9,1.909-4.057,4.075-6.233,6.221a3.649,3.649,0,0,1-5.328.009q-1.532-1.481-3.015-3.018a3.7,3.7,0,0,1,5.1-5.351c.531.488.764.356,1.182-.072q2.42-2.481,4.9-4.9a3.689,3.689,0,0,1,6.278,2.745" transform="translate(9.304 11.753)"/>
        <path id="Trazado_16717" data-name="Trazado 16717" class="cls-4" d="M35.857,50.518a1.773,1.773,0,0,1-1.369-.576c-.962-.964-1.937-1.913-2.883-2.893a1.829,1.829,0,0,1-.078-2.689,1.8,1.8,0,0,1,2.686.088c1.928,2.084,2.037,1.228,3.384-.093,1.626-1.6,3.223-3.224,4.84-4.829.952-.945,2-1.029,2.814-.249.841.81.777,1.895-.2,2.878q-3.789,3.806-7.59,7.6a2,2,0,0,1-1.6.761" transform="translate(9.752 12.199)"/>
      </g>
    </g>
  </g>
</svg>
