<svg xmlns="http://www.w3.org/2000/svg" xmlns:xlink="http://www.w3.org/1999/xlink" width="20" height="20" viewBox="0 0 20 20">
  <defs>
    <style>
      .cls-1 {
        fill: none;
      }

      .cls-2 {
        clip-path: url(#clip-iconONPEDUCA2);
      }

      .cls-3 {
        clip-path: url(#clip-path);
      }

      .cls-4 {
        fill: #fff;
      }

      .cls-5 {
        fill: #276fba;
      }

      .cls-6 {
        fill: #2a70b8;
      }

      .cls-7 {
        fill: #9bc8fe;
      }

      .cls-8 {
        fill: #fefefe;
      }
    </style>
    <clipPath id="clip-path">
      <rect id="Rectángulo_11155" data-name="Rectángulo 11155" class="cls-1" width="14.361" height="16.928"/>
    </clipPath>
    <clipPath id="clip-iconONPEDUCA2">
      <rect width="20" height="20"/>
    </clipPath>
  </defs>
  <g id="iconONPEDUCA2" class="cls-2">
    <g id="Grupo_23036" data-name="Grupo 23036" transform="translate(0.588 1.339)">
      <g id="Grupo_23006" data-name="Grupo 23006" transform="translate(0 0)">
        <g id="Grupo_22826" data-name="Grupo 22826" class="cls-3" transform="translate(0 0)">
          <path id="Trazado_16845" data-name="Trazado 16845" class="cls-4" d="M13.356,17.129H2.137A1.206,1.206,0,0,1,.931,15.923V2.138A1.206,1.206,0,0,1,2.137.932H13.356a1.206,1.206,0,0,1,1.206,1.206V15.923a1.206,1.206,0,0,1-1.206,1.206" transform="translate(-0.566 -0.566)"/>
          <path id="Trazado_16846" data-name="Trazado 16846" class="cls-5" d="M12.79,16.928H1.571A1.573,1.573,0,0,1,0,15.356V1.572A1.573,1.573,0,0,1,1.571,0H12.79a1.573,1.573,0,0,1,1.571,1.572V15.356a1.573,1.573,0,0,1-1.571,1.571M1.571.731a.841.841,0,0,0-.84.841V15.356a.841.841,0,0,0,.84.84H12.79a.841.841,0,0,0,.84-.84V1.572a.841.841,0,0,0-.84-.841Z" transform="translate(0 0)"/>
          <path id="Trazado_16847" data-name="Trazado 16847" class="cls-6" d="M10.76,33.759h4.732c.188,0,.353.018.384.251a.275.275,0,0,1-.2.333.287.287,0,0,1-.063.008,1.988,1.988,0,0,1-.232,0H6.09a2,2,0,0,1-.261-.007.262.262,0,0,1-.244-.279.188.188,0,0,1,0-.025.255.255,0,0,1,.23-.278h.006a2,2,0,0,1,.261-.005h4.674" transform="translate(-3.394 -20.514)"/>
          <path id="Trazado_16848" data-name="Trazado 16848" class="cls-6" d="M9.923,29.68H6.091a1.117,1.117,0,0,1-.287-.022.275.275,0,0,1-.215-.275.287.287,0,0,1,.2-.314.721.721,0,0,1,.228-.025H13.8a.713.713,0,0,1,.173.006.311.311,0,0,1,.275.321.307.307,0,0,1-.264.3,1.069,1.069,0,0,1-.26.009h-3.8" transform="translate(-3.395 -17.648)"/>
          <path id="Trazado_16849" data-name="Trazado 16849" class="cls-6" d="M9.9,25.039H5.989c-.3,0-.4-.078-.4-.3a.262.262,0,0,1,.226-.293l.026,0a2.079,2.079,0,0,1,.232,0h7.832c.23.008.339.1.344.3s-.1.295-.342.3q-2,0-4,0" transform="translate(-3.395 -14.852)"/>
          <path id="Trazado_16850" data-name="Trazado 16850" class="cls-6" d="M8.328,11.754A3.547,3.547,0,0,1,4.657,8.336q0-.144,0-.287A3.673,3.673,0,0,1,12,8.077a3.543,3.543,0,0,1-3.4,3.677q-.135.005-.272,0" transform="translate(-2.829 -2.699)"/>
          <path id="Trazado_16851" data-name="Trazado 16851" class="cls-7" d="M8.038,9.6a2.181,2.181,0,0,0-.852,1.548,2.809,2.809,0,0,1-.734-2.982,3,3,0,0,1,3-2.14,3.038,3.038,0,0,1,2.811,2.249,2.761,2.761,0,0,1-.773,2.864,2.194,2.194,0,0,0-.86-1.545,1.744,1.744,0,0,0,.421-1.611,1.836,1.836,0,0,0-.675-1.052,1.749,1.749,0,0,0-2.236.135,1.833,1.833,0,0,0-.1,2.535" transform="translate(-3.834 -3.661)"/>
          <path id="Trazado_16852" data-name="Trazado 16852" class="cls-4" d="M13.18,17.615c.051.2-.078.31-.293.4a3.1,3.1,0,0,1-2.555-.03.321.321,0,0,1-.223-.351,1.687,1.687,0,0,1,.631-1.369.323.323,0,0,1,.344-.059,1.56,1.56,0,0,0,1.106.009.365.365,0,0,1,.394.082,1.622,1.622,0,0,1,.6,1.319" transform="translate(-6.141 -9.832)"/>
          <path id="Trazado_16853" data-name="Trazado 16853" class="cls-8" d="M11.151,10.254a1.1,1.1,0,0,1,1.087-1.105h.043a1.119,1.119,0,1,1-1.13,1.108v0" transform="translate(-6.776 -5.559)"/>
        </g>
      </g>
      <path id="Trazado_17130" data-name="Trazado 17130" class="cls-7" d="M40.443,39.444a1.4,1.4,0,0,1-.688-.173l-3.119-1.815a.8.8,0,0,1,0-1.393l3.118-1.814a1.451,1.451,0,0,1,1.379,0l3.119,1.814a.8.8,0,0,1,0,1.393l-3.118,1.814a1.4,1.4,0,0,1-.692.175" transform="translate(-26.081 -26.315)"/>
      <path id="Trazado_17131" data-name="Trazado 17131" class="cls-5" d="M39.691,33.573a1.145,1.145,0,0,1,.566.142l3.115,1.812a.551.551,0,0,1,0,.963L40.258,38.3a1.2,1.2,0,0,1-1.132,0L36.01,36.49a.551.551,0,0,1,0-.963l3.115-1.812a1.145,1.145,0,0,1,.566-.142m0-.5a1.643,1.643,0,0,0-.809.2L35.76,35.1a1.05,1.05,0,0,0-.006,1.822l3.121,1.816a1.7,1.7,0,0,0,1.626,0l3.123-1.817a1.05,1.05,0,0,0,.006-1.822l-3.121-1.816a1.652,1.652,0,0,0-.817-.209" transform="translate(-25.33 -25.564)"/>
      <path id="Trazado_17132" data-name="Trazado 17132" class="cls-7" d="M43,57.331a1.4,1.4,0,0,1-.688-.173l-1.985-1.134a1.32,1.32,0,0,1-.5-.5,1.387,1.387,0,0,1-.189-.706v-2.16l2.923,1.689a.954.954,0,0,0,.887,0l2.919-1.687v2.16a1.388,1.388,0,0,1-.189.706,1.323,1.323,0,0,1-.505.5l-1.979,1.131a1.4,1.4,0,0,1-.69.174" transform="translate(-28.634 -40.258)"/>
      <path id="Trazado_17133" data-name="Trazado 17133" class="cls-5" d="M45.36,51.788v1.727a1.138,1.138,0,0,1-.156.58,1.072,1.072,0,0,1-.411.411l-1.982,1.133a1.2,1.2,0,0,1-1.133,0L39.7,54.506a1.074,1.074,0,0,1-.41-.411,1.138,1.138,0,0,1-.156-.58V51.788l2.548,1.472a1.2,1.2,0,0,0,1.133,0Zm-6.729-.865v2.592a1.636,1.636,0,0,0,.223.831,1.568,1.568,0,0,0,.6.6l1.977,1.13a1.7,1.7,0,0,0,1.623,0l1.987-1.136a1.564,1.564,0,0,0,.6-.594,1.638,1.638,0,0,0,.223-.831V50.923l-.749.433-2.548,1.472a.707.707,0,0,1-.64,0L39.38,51.356Z" transform="translate(-27.884 -38.957)"/>
    </g>
  </g>
</svg>
