<svg xmlns="http://www.w3.org/2000/svg" xmlns:xlink="http://www.w3.org/1999/xlink" width="20" height="20" viewBox="0 0 20 20">
  <defs>
    <style>
      .cls-1 {
        fill: none;
      }

      .cls-2 {
        clip-path: url(#clip-iconCLV2);
      }

      .cls-3 {
        clip-path: url(#clip-path);
      }

      .cls-4 {
        fill: #2d72b9;
      }

      .cls-5 {
        fill: #fff;
      }

      .cls-6 {
        fill: #276fba;
      }

      .cls-7 {
        fill: #9bc8fe;
      }

      .cls-8 {
        fill: #2e72b9;
      }

      .cls-9 {
        fill: #fdfcfd;
      }
    </style>
    <clipPath id="clip-path">
      <rect id="Rectángulo_11151" data-name="Rectángulo 11151" class="cls-1" width="16.73" height="19.753" transform="translate(0 0)"/>
    </clipPath>
    <clipPath id="clip-iconCLV2">
      <rect width="20" height="20"/>
    </clipPath>
  </defs>
  <g id="iconCLV2" class="cls-2">
    <g id="Grupo_22921" data-name="Grupo 22921" transform="translate(2 0)">
      <g id="Grupo_22817" data-name="Grupo 22817" class="cls-3" transform="translate(0 0)">
        <path id="Trazado_16809" data-name="Trazado 16809" class="cls-4" d="M16.4,68.7H.341a.335.335,0,1,1,0-.669H16.4a.335.335,0,1,1,0,.669" transform="translate(-0.004 -48.966)"/>
        <path id="Trazado_16810" data-name="Trazado 16810" class="cls-5" d="M29.47,1.038l.108,0c.036,0,.072,0,.108,0Z" transform="translate(-21.213 -0.747)"/>
        <path id="Trazado_16811" data-name="Trazado 16811" class="cls-6" d="M29.587.584h-.115V0h.216V.581h-.1Z" transform="translate(-21.214 0)"/>
        <path id="Trazado_16812" data-name="Trazado 16812" class="cls-5" d="M17.758,1.047a4.8,4.8,0,0,0-4.709,4.814,6.077,6.077,0,0,0,1.312,3.5A25.427,25.427,0,0,1,16.9,13.419.963.963,0,0,0,17.75,14a.94.94,0,0,0,.864-.581,25.427,25.427,0,0,1,2.541-4.053,6.077,6.077,0,0,0,1.312-3.5,4.8,4.8,0,0,0-4.709-4.814M17.751,8.3a1.827,1.827,0,1,1,1.827-1.827A1.827,1.827,0,0,1,17.751,8.3" transform="translate(-9.393 -0.754)"/>
        <path id="Trazado_16813" data-name="Trazado 16813" class="cls-4" d="M17,13.545a1.256,1.256,0,0,1-1.112-.753A17.93,17.93,0,0,0,13.97,9.639c-.208-.293-.41-.577-.6-.856a6.393,6.393,0,0,1-1.363-3.668A5.072,5.072,0,0,1,17,.011h.013a5.071,5.071,0,0,1,4.993,5.1,6.4,6.4,0,0,1-1.361,3.667c-.189.28-.392.564-.6.857a17.922,17.922,0,0,0-1.918,3.152A1.233,1.233,0,0,1,17,13.545M17.009.772a4.364,4.364,0,0,0-4.29,4.392,5.563,5.563,0,0,0,1.226,3.245c.181.267.374.539.573.82a18.108,18.108,0,0,1,1.918,3.158.656.656,0,0,0,.564.4.627.627,0,0,0,.579-.392A18.126,18.126,0,0,1,19.5,9.228c.2-.28.393-.552.574-.82A5.56,5.56,0,0,0,21.3,5.164,4.364,4.364,0,0,0,17.009.772M17,7.953a2.23,2.23,0,1,1,2.231-2.231A2.23,2.23,0,0,1,17,7.953m0-3.767a1.536,1.536,0,1,0,1.536,1.537h0A1.538,1.538,0,0,0,17,4.186" transform="translate(-8.644 -0.008)"/>
        <path id="Trazado_16814" data-name="Trazado 16814" class="cls-7" d="M15.863,48.983h6.371A1.021,1.021,0,0,1,23.255,50v3.629a1.021,1.021,0,0,1-1.021,1.021H15.863a1.021,1.021,0,0,1-1.021-1.021V50a1.021,1.021,0,0,1,1.021-1.021" transform="translate(-10.683 -35.258)"/>
        <path id="Trazado_16815" data-name="Trazado 16815" class="cls-4" d="M21.316,54.093H14.945a1.38,1.38,0,0,1-1.378-1.378V49.086a1.38,1.38,0,0,1,1.378-1.378h6.371a1.38,1.38,0,0,1,1.379,1.378v3.629a1.38,1.38,0,0,1-1.379,1.378m-6.371-5.67a.664.664,0,0,0-.664.664v3.629a.664.664,0,0,0,.664.664h6.371a.665.665,0,0,0,.664-.664V49.086a.665.665,0,0,0-.664-.664Z" transform="translate(-9.766 -34.34)"/>
        <path id="Trazado_16816" data-name="Trazado 16816" class="cls-8" d="M26.248,54.017A.79.79,0,0,1,26,54.6l-.414.417c-.434.436-.925.93-1.423,1.419a.833.833,0,0,1-1.177.041l-.039-.039q-.35-.338-.688-.689a.844.844,0,1,1,1.164-1.222c.121.112.174.081.27-.017q.552-.566,1.118-1.119a.841.841,0,0,1,1.433.627" transform="translate(-15.836 -38.255)"/>
        <path id="Trazado_16817" data-name="Trazado 16817" class="cls-9" d="M24.9,57.461a.384.384,0,0,1-.3-.125c-.209-.209-.42-.415-.626-.628a.4.4,0,0,1-.039-.56l.022-.023a.392.392,0,0,1,.555-.011.365.365,0,0,1,.029.03c.419.453.442.267.735-.02.353-.347.7-.7,1.051-1.049a.407.407,0,1,1,.659.48.413.413,0,0,1-.092.091q-.821.825-1.646,1.65a.434.434,0,0,1-.347.165" transform="translate(-17.163 -39.523)"/>
      </g>
    </g>
  </g>
</svg>
