<svg xmlns="http://www.w3.org/2000/svg" xmlns:xlink="http://www.w3.org/1999/xlink" width="20" height="20" viewBox="0 0 20 20">
  <defs>
    <style>
      .cls-1 {
        fill: none;
      }

      .cls-2 {
        clip-path: url(#clip-iconSIGMA2);
      }

      .cls-3 {
        clip-path: url(#clip-path);
      }

      .cls-4 {
        fill: #fdfcfd;
      }

      .cls-5 {
        fill: #2e72b9;
      }

      .cls-6 {
        fill: #9bc8fe;
      }
    </style>
    <clipPath id="clip-path">
      <rect id="Rectángulo_11207" data-name="Rectángulo 11207" class="cls-1" width="15.615" height="17.703"/>
    </clipPath>
    <clipPath id="clip-iconSIGMA2">
      <rect width="20" height="20"/>
    </clipPath>
  </defs>
  <g id="iconSIGMA2" class="cls-2">
    <g id="Grupo_23039" data-name="Grupo 23039" transform="translate(2.192 1.627)">
      <g id="Grupo_22927" data-name="Grupo 22927" class="cls-3">
        <path id="Trazado_16855" data-name="Trazado 16855" class="cls-4" d="M4.019,2.76h10.05a1.255,1.255,0,0,1,1.255,1.255V18.3a1.255,1.255,0,0,1-1.255,1.255H4.019A1.255,1.255,0,0,1,2.764,18.3V4.015A1.255,1.255,0,0,1,4.019,2.76" transform="translate(-2.445 -2.442)"/>
        <path id="Trazado_16856" data-name="Trazado 16856" class="cls-5" d="M11.214.636A1.346,1.346,0,0,1,12.56,1.983V15.443a1.346,1.346,0,0,1-1.346,1.346H1.983A1.346,1.346,0,0,1,.636,15.443V1.983A1.346,1.346,0,0,1,1.983.636Zm0-.636H1.983A1.985,1.985,0,0,0,0,1.983V15.443a1.985,1.985,0,0,0,1.983,1.983h9.231A1.985,1.985,0,0,0,13.2,15.443V1.983A1.985,1.985,0,0,0,11.214,0"/>
        <path id="Trazado_16857" data-name="Trazado 16857" class="cls-5" d="M24.288,83.818H20.266a.885.885,0,0,1-.189-.008.211.211,0,0,1-.184-.223.2.2,0,0,1,.179-.2.959.959,0,0,1,.189-.01h8.108c.042,0,.084,0,.126,0,.144.01.248.07.242.23s-.1.206-.237.214c-.056,0-.112,0-.168,0H24.288" transform="translate(-17.6 -73.762)"/>
        <path id="Trazado_16858" data-name="Trazado 16858" class="cls-5" d="M24.338,100.21H20.316c-.056,0-.113,0-.168,0-.137-.008-.235-.074-.24-.216s.1-.221.245-.232c.042,0,.084,0,.126,0h8.109a.831.831,0,0,1,.208.018.2.2,0,0,1,.157.2.2.2,0,0,1-.162.216.813.813,0,0,1-.209.014H24.34" transform="translate(-17.613 -88.26)"/>
        <path id="Trazado_16859" data-name="Trazado 16859" class="cls-5" d="M22.658,116.641H20.282a1,1,0,0,1-.189-.008.209.209,0,0,1-.188-.218.214.214,0,0,1,.193-.216.754.754,0,0,1,.147-.007h4.837a.732.732,0,0,1,.168.01.218.218,0,0,1,0,.428.88.88,0,0,1-.188.01h-2.4" transform="translate(-17.611 -102.798)"/>
        <path id="Trazado_16860" data-name="Trazado 16860" class="cls-5" d="M24.288,50.969H20.266a.884.884,0,0,1-.189-.008.211.211,0,0,1-.184-.223.2.2,0,0,1,.179-.2.958.958,0,0,1,.189-.01h8.108c.042,0,.084,0,.126,0,.144.01.248.07.242.23s-.1.206-.237.214c-.056,0-.112,0-.168,0H24.288" transform="translate(-17.6 -44.699)"/>
        <path id="Trazado_16861" data-name="Trazado 16861" class="cls-5" d="M24.338,67.361H20.316c-.056,0-.113,0-.168,0-.137-.008-.235-.074-.24-.216s.1-.221.245-.232c.042,0,.084,0,.126,0h8.109a.832.832,0,0,1,.208.018.2.2,0,0,1,.157.2.2.2,0,0,1-.162.216.813.813,0,0,1-.209.014H24.34" transform="translate(-17.613 -59.198)"/>
        <path id="Trazado_16862" data-name="Trazado 16862" class="cls-5" d="M24.288,34.554H20.266a.884.884,0,0,1-.189-.008.211.211,0,0,1-.184-.223.2.2,0,0,1,.179-.2.957.957,0,0,1,.189-.01h8.108c.042,0,.084,0,.126,0,.144.01.248.07.242.23s-.1.206-.237.214c-.056,0-.112,0-.168,0H24.288" transform="translate(-17.6 -30.176)"/>
        <path id="Trazado_16863" data-name="Trazado 16863" class="cls-5" d="M68.62,91.473a3.823,3.823,0,0,1,.371-2.922,3.867,3.867,0,0,1,1.635-1.531,4.028,4.028,0,0,1,1.787-.375,3.8,3.8,0,1,1-3.762,4.914c-.009-.029-.021-.057-.031-.086" transform="translate(-60.589 -76.656)"/>
        <path id="Trazado_16864" data-name="Trazado 16864" class="cls-5" d="M71.363,93.434l-.136,0a3.921,3.921,0,0,1-3.61-2.763c-.006-.017-.012-.034-.019-.051l-.011-.03.105-.039-.108.03a3.946,3.946,0,0,1,2.069-4.592A4.12,4.12,0,0,1,71.5,85.6a3.918,3.918,0,0,1-.132,7.834m-3.551-2.925c.018.046.026.067.033.089a3.679,3.679,0,1,0,3.643-4.759,3.878,3.878,0,0,0-1.733.364,3.708,3.708,0,0,0-1.943,4.306" transform="translate(-59.669 -75.732)"/>
        <path id="Trazado_16865" data-name="Trazado 16865" class="cls-6" d="M75.523,97.088a3.37,3.37,0,1,1,.016,0h-.016" transform="translate(-63.829 -79.92)"/>
        <path id="Trazado_16866" data-name="Trazado 16866" class="cls-4" d="M82.2,105.042a.572.572,0,0,1-.28-.073l-.1-.055a.558.558,0,0,1-.269-.318.622.622,0,0,1,0-.4l.047-.134a2.075,2.075,0,0,1-.176-.231,1.769,1.769,0,0,1-.142-.265l-.152-.022a.574.574,0,0,1-.35-.185.558.558,0,0,1-.146-.366l0-.143a.582.582,0,0,1,.112-.369.544.544,0,0,1,.338-.219l.172-.043a1.883,1.883,0,0,1,.29-.532l-.057-.169a.546.546,0,0,1,0-.411.58.58,0,0,1,.25-.291l.117-.068a.568.568,0,0,1,.3-.082.585.585,0,0,1,.088.007.566.566,0,0,1,.352.2l.1.113a1.768,1.768,0,0,1,.291-.024,2.123,2.123,0,0,1,.3.023l.086-.112a.617.617,0,0,1,.344-.218.56.56,0,0,1,.131-.015.57.57,0,0,1,.279.073l.1.055a.566.566,0,0,1,.269.318.626.626,0,0,1,0,.4l-.047.134a2.051,2.051,0,0,1,.176.231,1.773,1.773,0,0,1,.142.265l.152.022a.577.577,0,0,1,.35.185.554.554,0,0,1,.146.366l.008.13a.6.6,0,0,1-.114.378.542.542,0,0,1-.346.224l-.173.04a1.929,1.929,0,0,1-.122.272,1.992,1.992,0,0,1-.167.256l.053.147.008.02a.545.545,0,0,1,0,.413.607.607,0,0,1-.25.294l-.12.069a.57.57,0,0,1-.3.081A.581.581,0,0,1,83.8,105a.566.566,0,0,1-.352-.193l-.1-.112a1.533,1.533,0,0,1-.278.025h-.028a2.229,2.229,0,0,1-.286-.026l-.086.111a.621.621,0,0,1-.343.218.565.565,0,0,1-.131.015m.818-2.951a.747.747,0,1,0,.179,1.473l.03-.009a.747.747,0,0,0-.209-1.464" transform="translate(-71.331 -89.036)"/>
        <path id="Trazado_16867" data-name="Trazado 16867" class="cls-5" d="M82.067,99.1a.337.337,0,0,1,.166.044l.1.057a.337.337,0,0,1,.161.189.394.394,0,0,1,0,.255l-.092.262a1.818,1.818,0,0,1,.247.3,1.53,1.53,0,0,1,.168.347l.285.041a.346.346,0,0,1,.211.112.325.325,0,0,1,.087.216l.008.14a.359.359,0,0,1-.07.228.32.32,0,0,1-.2.134l-.309.072a1.67,1.67,0,0,1-.144.356,1.753,1.753,0,0,1-.225.32l.107.3h0a.318.318,0,0,1,0,.239.376.376,0,0,1-.155.183l-.116.067a.345.345,0,0,1-.18.051.354.354,0,0,1-.265-.119l-.189-.217a1.314,1.314,0,0,1-.36.05h-.024a1.975,1.975,0,0,1-.386-.048l-.172.223a.387.387,0,0,1-.214.135.341.341,0,0,1-.245-.035l-.1-.057a.333.333,0,0,1-.161-.189.391.391,0,0,1,0-.255l.092-.262a1.847,1.847,0,0,1-.247-.3,1.533,1.533,0,0,1-.168-.347l-.285-.042a.346.346,0,0,1-.212-.111.329.329,0,0,1-.087-.216l0-.146a.352.352,0,0,1,.068-.225.319.319,0,0,1,.2-.13l.3-.076a1.768,1.768,0,0,1,.145-.36,1.735,1.735,0,0,1,.224-.317l-.1-.3a.318.318,0,0,1,0-.242.353.353,0,0,1,.153-.18l.117-.067a.346.346,0,0,1,.233-.047.338.338,0,0,1,.211.117l.19.217a1.53,1.53,0,0,1,.376-.047h.007a1.825,1.825,0,0,1,.387.044l.172-.223a.382.382,0,0,1,.214-.134.334.334,0,0,1,.079-.009m-.816,2.95a.978.978,0,0,0,.276-.04h0a.974.974,0,1,0-.278.041m.816-3.411a.793.793,0,0,0-.185.022.847.847,0,0,0-.468.3l0,0,0,0-.007.009c-.062-.005-.123-.008-.185-.009h-.01q-.1,0-.2.01l-.018-.02a.8.8,0,0,0-.493-.271.807.807,0,0,0-.535.106l-.113.065a.818.818,0,0,0-.351.409.774.774,0,0,0-.006.571l.017.051c-.04.058-.077.119-.111.181s-.066.129-.093.195l-.052.013a.775.775,0,0,0-.476.312.816.816,0,0,0-.153.511l0,.141a.789.789,0,0,0,.208.516.805.805,0,0,0,.487.256l.027,0a1.99,1.99,0,0,0,.1.179q.052.079.109.153l0,.007v.007a.856.856,0,0,0,0,.551.791.791,0,0,0,.378.445l.1.054a.8.8,0,0,0,.574.08.85.85,0,0,0,.467-.295l0,0,0,0,.005-.007q.088.009.176.011h.035a1.782,1.782,0,0,0,.186-.01l.016.018a.8.8,0,0,0,.493.269.809.809,0,0,0,.534-.106l.112-.065,0,0,0,0a.842.842,0,0,0,.346-.408.773.773,0,0,0,0-.583l-.008-.02-.009-.024q.059-.088.111-.181t.09-.186l.057-.013a.775.775,0,0,0,.482-.318.822.822,0,0,0,.154-.514v-.008l-.008-.132a.786.786,0,0,0-.208-.507.809.809,0,0,0-.49-.257l-.025,0a1.957,1.957,0,0,0-.1-.179q-.051-.078-.109-.152l0-.007,0,0v0a.86.86,0,0,0,0-.55.8.8,0,0,0-.38-.445l-.1-.053a.8.8,0,0,0-.388-.1m-.816,2.95a.52.52,0,0,1-.5-.372.515.515,0,0,1,.5-.661.517.517,0,0,1,.495.371.515.515,0,0,1-.345.64h0l-.006,0-.026.008a.514.514,0,0,1-.117.013" transform="translate(-69.563 -87.267)"/>
      </g>
    </g>
  </g>
</svg>
