<svg xmlns="http://www.w3.org/2000/svg" xmlns:xlink="http://www.w3.org/1999/xlink" width="20" height="20" viewBox="0 0 20 20">
  <defs>
    <style>
      .cls-1 {
        fill: none;
      }

      .cls-2 {
        clip-path: url(#clip-iconSCIAP2);
      }

      .cls-3 {
        clip-path: url(#clip-path);
      }

      .cls-4 {
        fill: #fdfcfd;
      }

      .cls-5 {
        fill: #2e72b9;
      }

      .cls-6 {
        clip-path: url(#clip-path-2);
      }

      .cls-7 {
        fill: #9bc8fe;
      }

      .cls-8 {
        fill: #276fba;
      }
    </style>
    <clipPath id="clip-path">
      <rect id="Rect치ngulo_11229" data-name="Rect치ngulo 11229" class="cls-1" width="15.504" height="17.576"/>
    </clipPath>
    <clipPath id="clip-path-2">
      <rect id="Rect치ngulo_11230" data-name="Rect치ngulo 11230" class="cls-1" width="19" height="17.576"/>
    </clipPath>
    <clipPath id="clip-iconSCIAP2">
      <rect width="20" height="20"/>
    </clipPath>
  </defs>
  <g id="iconSCIAP2" class="cls-2">
    <g id="Grupo_23038" data-name="Grupo 23038" transform="translate(1 1.386)">
      <g id="Grupo_22997" data-name="Grupo 22997" transform="translate(0 0)">
        <g id="Grupo_22996" data-name="Grupo 22996" class="cls-3">
          <path id="Trazado_17112" data-name="Trazado 17112" class="cls-4" d="M2.529,1.281h9.979a1.246,1.246,0,0,1,1.246,1.246v14.18a1.246,1.246,0,0,1-1.246,1.245H2.529a1.246,1.246,0,0,1-1.246-1.246V2.527A1.245,1.245,0,0,1,2.529,1.281" transform="translate(-0.967 -0.965)"/>
          <path id="Trazado_17113" data-name="Trazado 17113" class="cls-5" d="M11.134.632a1.337,1.337,0,0,1,1.337,1.337V15.335a1.337,1.337,0,0,1-1.337,1.337H1.968A1.337,1.337,0,0,1,.632,15.335V1.968A1.337,1.337,0,0,1,1.968.632Zm0-.632H1.968A1.971,1.971,0,0,0,0,1.968V15.334A1.971,1.971,0,0,0,1.968,17.3h9.166A1.971,1.971,0,0,0,13.1,15.334V1.968A1.971,1.971,0,0,0,11.134,0" transform="translate(0 0)"/>
          <path id="Trazado_17114" data-name="Trazado 17114" class="cls-5" d="M13.592,39.133h-4a.882.882,0,0,1-.187-.008.21.21,0,0,1-.182-.222.2.2,0,0,1,.177-.2.953.953,0,0,1,.187-.01h8.051c.042,0,.084,0,.126,0,.143.01.247.069.24.228s-.1.2-.235.212c-.055,0-.111,0-.167,0H13.592" transform="translate(-6.952 -29.149)"/>
          <path id="Trazado_17115" data-name="Trazado 17115" class="cls-5" d="M13.638,46.747H9.645c-.056,0-.112,0-.167,0-.136-.008-.234-.074-.238-.215s.1-.22.243-.23c.041,0,.083,0,.126,0H17.66a.82.82,0,0,1,.207.018.2.2,0,0,1,.156.2.2.2,0,0,1-.161.214.8.8,0,0,1-.207.014H13.64" transform="translate(-6.961 -34.883)"/>
          <path id="Trazado_17116" data-name="Trazado 17116" class="cls-5" d="M11.97,54.364H9.612a.993.993,0,0,1-.187-.008.208.208,0,0,1-.187-.217.213.213,0,0,1,.192-.214.739.739,0,0,1,.146-.007h4.8a.726.726,0,0,1,.167.01.216.216,0,0,1,0,.425.879.879,0,0,1-.187.01h-2.38" transform="translate(-6.959 -40.621)"/>
          <path id="Trazado_17117" data-name="Trazado 17117" class="cls-5" d="M13.592,23.888h-4a.882.882,0,0,1-.187-.008.21.21,0,0,1-.182-.222.2.2,0,0,1,.177-.2.953.953,0,0,1,.187-.01h8.051c.042,0,.084,0,.126,0,.143.01.247.069.24.228s-.1.2-.235.212c-.055,0-.111,0-.167,0H13.592" transform="translate(-6.952 -17.663)"/>
          <path id="Trazado_17118" data-name="Trazado 17118" class="cls-5" d="M13.638,31.5H9.645c-.056,0-.112,0-.167,0-.136-.008-.234-.074-.238-.215s.1-.22.243-.23c.041,0,.083,0,.126,0H17.66a.82.82,0,0,1,.207.018.2.2,0,0,1,.156.2.2.2,0,0,1-.161.214.8.8,0,0,1-.207.014H13.64" transform="translate(-6.961 -23.398)"/>
          <path id="Trazado_17119" data-name="Trazado 17119" class="cls-5" d="M13.592,16.266h-4a.882.882,0,0,1-.187-.008.21.21,0,0,1-.182-.222.2.2,0,0,1,.177-.2.953.953,0,0,1,.187-.01h8.051c.042,0,.084,0,.126,0,.143.01.247.069.24.228s-.1.2-.235.212c-.055,0-.111,0-.167,0H13.592" transform="translate(-6.952 -11.921)"/>
        </g>
      </g>
      <g id="Grupo_22999" data-name="Grupo 22999" transform="translate(0 0)">
        <g id="Grupo_22998" data-name="Grupo 22998" class="cls-6">
          <path id="Trazado_17120" data-name="Trazado 17120" class="cls-7" d="M43.493,45.482a1.069,1.069,0,0,1-1.067-1.067v-.574h-.574a1.069,1.069,0,0,1-1.067-1.067v-1.64a1.425,1.425,0,0,1,.432-1.053,1.439,1.439,0,0,1,1.045-.424h.164v-.984a1.069,1.069,0,0,1,1.067-1.067h3.281a1.07,1.07,0,0,1,1.067,1.067v.984H48a1.455,1.455,0,0,1,1.477,1.477v1.64a1.069,1.069,0,0,1-1.067,1.067h-.574v.574a1.07,1.07,0,0,1-1.067,1.067Zm3.034-2.461H43.74v1.147h2.788Zm1.067-1.846a.156.156,0,1,0,.118.046.153.153,0,0,0-.118-.046" transform="translate(-30.728 -28.332)"/>
          <path id="Trazado_17121" data-name="Trazado 17121" class="cls-8" d="M46.02,37.1a.823.823,0,0,1,.82.82v.82H41.919v-.82a.823.823,0,0,1,.82-.82Zm1.23,2.051a1.208,1.208,0,0,1,1.23,1.23v1.641a.823.823,0,0,1-.82.82h-.82v.82a.823.823,0,0,1-.82.82H42.739a.823.823,0,0,1-.82-.82v-.82H41.1a.823.823,0,0,1-.82-.82V40.38a1.182,1.182,0,0,1,.359-.876,1.2,1.2,0,0,1,.872-.354H47.25M46.84,41a.4.4,0,1,0-.292-.118A.4.4,0,0,0,46.84,41m-4.1,2.666H46.02v-1.64H42.739Zm3.281-7.055H42.739a1.316,1.316,0,0,0-1.313,1.313v.739a1.709,1.709,0,0,0-1.64,1.722v1.641A1.316,1.316,0,0,0,41.1,43.334h.327v.327a1.316,1.316,0,0,0,1.313,1.313H46.02a1.316,1.316,0,0,0,1.313-1.313v-.327h.327a1.316,1.316,0,0,0,1.313-1.313V40.38a1.7,1.7,0,0,0-1.64-1.722v-.739a1.316,1.316,0,0,0-1.313-1.313m-2.788,5.908h2.295v.654H43.232Z" transform="translate(-29.974 -27.579)"/>
        </g>
      </g>
    </g>
  </g>
</svg>
