<svg xmlns="http://www.w3.org/2000/svg" xmlns:xlink="http://www.w3.org/1999/xlink" width="20" height="20" viewBox="0 0 20 20">
  <defs>
    <style>
      .cls-1 {
        fill: none;
      }

      .cls-2 {
        clip-path: url(#clip-iconSIGEA2);
      }

      .cls-3 {
        clip-path: url(#clip-path);
      }

      .cls-4 {
        fill: #2e72b9;
      }

      .cls-5 {
        fill: #7db5f0;
      }

      .cls-6 {
        fill: #9bc8fe;
      }

      .cls-7 {
        fill: #fefefe;
      }

      .cls-8 {
        fill: #7cb5f0;
      }

      .cls-9 {
        fill: #7db6f0;
      }

      .cls-10 {
        fill: #fdfdfe;
      }

      .cls-11 {
        fill: #fdfcfd;
      }

      .cls-12 {
        fill: #3b7cc5;
      }

      .cls-13 {
        fill: #3b7cc4;
      }
    </style>
    <clipPath id="clip-path">
      <rect id="Rect치ngulo_11130" data-name="Rect치ngulo 11130" class="cls-1" width="19.801" height="16.737"/>
    </clipPath>
    <clipPath id="clip-iconSIGEA2">
      <rect width="20" height="20"/>
    </clipPath>
  </defs>
  <g id="iconSIGEA2" class="cls-2">
    <g id="Grupo_22859" data-name="Grupo 22859" transform="translate(0.1 1.529)">
      <g id="Grupo_22789" data-name="Grupo 22789" class="cls-3">
        <path id="Trazado_16736" data-name="Trazado 16736" class="cls-4" d="M.183,54.842a4.218,4.218,0,0,1,.239-1.86C1,51.63,2.286,51.243,3.575,50.827A4.031,4.031,0,0,0,4,50.709a2.862,2.862,0,0,0-.015-.5,2.429,2.429,0,0,0-.266-.168A3.045,3.045,0,0,1,2.56,48.417c-.026-.091-.085-.488-.1-.506s-.233-.037-.3-.063A1.027,1.027,0,0,1,2,46c.09-.049.418-.133.43-.152.036-.056-.012-1.145,0-1.337a1.67,1.67,0,0,1,1.456-1.469l4.245-.008a.594.594,0,0,1,.5.608c-.227,2.208.8,5.164-1.527,6.52-.076.044-.478.215-.493.238a1.6,1.6,0,0,0-.013.362,4.525,4.525,0,0,0,.506.258c1.056.5,2.014.7,2.515,1.9l.885,2.542,1.3,0,.751-3.813a1.074,1.074,0,0,1,1-.792H19.1a.908.908,0,0,1,.419.164.93.93,0,0,1,.268.823l-.973,4.906c-.005.057,0,.035.041.041.175.026.4-.069.463.188a8.227,8.227,0,0,1,.013,1.289.3.3,0,0,1-.285.311q-1.808,0-3.617,0c-4.5.006-9.011.016-13.516,0-.483,0-1.156.055-1.612,0-.2-.024-.269-.153-.285-.338a7.5,7.5,0,0,1,.008-1.186c.016-.093.1-.244.2-.263.038-.007.14.007.148,0s-.086-.2-.1-.238a5.84,5.84,0,0,1-.089-1.712M8.065,43.6c-.42,0-.84,0-1.261,0-.953,0-1.928-.007-2.89.006a1.162,1.162,0,0,0-.914.9v1.557a.747.747,0,0,0,.719-.486c.068-.285-.029-.572.242-.787.407-.323,1,.066,1.454.171a4.15,4.15,0,0,0,2.3-.078,2.182,2.182,0,0,0,.353-.161Zm0,1.733a4.437,4.437,0,0,1-2.655.2c-.364-.075-.707-.217-1.065-.31-.076.024-.038.276-.047.361A1.247,1.247,0,0,1,3,46.608a3.723,3.723,0,0,0,.427,2.322,2.536,2.536,0,0,0,4.2-.011,2.817,2.817,0,0,0,.438-1.187ZM2.431,46.446a.453.453,0,0,0,0,.894Zm3.6,4.117a2.859,2.859,0,0,1-1.463-.108v.637a1.434,1.434,0,0,0,.113.294.726.726,0,0,0,1.242-.022,1.556,1.556,0,0,0,.108-.272Zm-2.167,6.2c.026-.04,0-.82,0-.948a2.013,2.013,0,0,0-.34,0,9.28,9.28,0,0,1-1.327.029.326.326,0,0,1-.285-.311c-.047-.5.033-1.083.007-1.593a.289.289,0,0,1,.426-.194.544.544,0,0,1,.137.161v1.368l2.031-.027c.011-.092-.048-.169-.055-.258a.284.284,0,0,1,.549-.141,4.136,4.136,0,0,0,.117.533c.02.03.311.166.392.231a1.72,1.72,0,0,1,.548.806c.022.071.062.358.075.371a6.392,6.392,0,0,0,.718,0c.048,0,.092-.022.134-.023s.366.067.366-.019V53.908a.434.434,0,0,1,.109-.134.312.312,0,0,1,.432.108l.7,1.584h1.3c-.137-.431-.281-.861-.433-1.287C9.1,53.142,9,52.526,7.939,52c-.45-.223-.933-.39-1.378-.626a1.313,1.313,0,0,1-2.464.107c-.042-.1-.01-.2-.1-.184a7.235,7.235,0,0,0-2.334.97C.4,53.3.822,54.72.752,56.156a.693.693,0,0,0,.453.6,8.2,8.2,0,0,0,1.349.034c.392,0,.8-.007,1.191,0a.559.559,0,0,0,.121-.028m8.261.027c.023.023.562-.017.65,0l1.056-5.363c-.316-.031-.636.03-.718.379-.238,1.6-.778,3.255-.981,4.842a.537.537,0,0,0-.008.141m6.094,0,.995-5c.036-.21.006-.339-.221-.36H14.447l-1.059,5.365ZM7.9,55.33v1.422c0,.063.407.048.407.027,0-.047-.094-.247-.105-.355a1.754,1.754,0,0,0-.233-1.013c-.018-.03-.028-.075-.068-.081M5.546,56.793a1.1,1.1,0,0,0-1.111-.975v.934a.27.27,0,0,0,.041.041Zm6.148-.758H8.769v.42a.43.43,0,0,0,.4.335l2.35.005ZM.561,58.011h18.2v-.677H.561Z" transform="translate(0 -41.867)"/>
        <path id="Trazado_16737" data-name="Trazado 16737" class="cls-4" d="M391.173,0a1.064,1.064,0,0,1,.891.91l0,5.063a1.183,1.183,0,0,1-.191.527,1.12,1.12,0,0,1-.8.433h-3.109l-.875,1.136a.288.288,0,0,1-.417-.011l-.867-1.11c-.649-.064-1.348.038-1.991-.013a1.106,1.106,0,0,1-1.042-.99V.936A1.056,1.056,0,0,1,383.71,0ZM386.92,7.4l.651-.879.181-.144,3.326-.006a.487.487,0,0,0,.421-.419V.988a.488.488,0,0,0-.5-.447h-7.18a.487.487,0,0,0-.474.474V5.893a.489.489,0,0,0,.448.473l2.263.012a7.8,7.8,0,0,1,.8.991c.013.022.051.038.068.026" transform="translate(-372.409)"/>
        <path id="Trazado_16738" data-name="Trazado 16738" class="cls-5" d="M30.323,353.626a.558.558,0,0,1-.121.028c-.39-.006-.8,0-1.191,0a8.206,8.206,0,0,1-1.349-.034.693.693,0,0,1-.453-.6c.069-1.435-.357-2.856.908-3.886a7.235,7.235,0,0,1,2.334-.97c.093-.017.062.08.1.184a1.313,1.313,0,0,0,2.464-.107c.444.236.928.4,1.378.626,1.056.524,1.165,1.14,1.535,2.176.152.426.3.856.433,1.287h-1.3l-.7-1.584a.312.312,0,0,0-.432-.108.433.433,0,0,0-.109.134v2.844c0,.086-.315.018-.366.019s-.087.022-.134.023a6.384,6.384,0,0,1-.718,0c-.014-.013-.054-.3-.076-.371a1.72,1.72,0,0,0-.548-.806c-.081-.065-.372-.2-.392-.231a4.141,4.141,0,0,1-.117-.533.284.284,0,0,0-.549.141c.007.089.066.165.055.258l-2.031.027v-1.368a.545.545,0,0,0-.137-.161.289.289,0,0,0-.426.194c.025.51-.055,1.092-.007,1.593a.326.326,0,0,0,.285.311,9.273,9.273,0,0,0,1.327-.029,2.021,2.021,0,0,1,.34,0c0,.128.026.908,0,.948" transform="translate(-26.456 -338.728)"/>
        <path id="Trazado_16739" data-name="Trazado 16739" class="cls-6" d="M499.1,358.341h-4.835l1.059-5.365h4.549c.227.021.258.149.221.36Zm-.932-2.672a1,1,0,1,0-1,1,1,1,0,0,0,1-1" transform="translate(-480.878 -343.415)"/>
        <path id="Trazado_16740" data-name="Trazado 16740" class="cls-7" d="M115.56,124.223v2.4a2.817,2.817,0,0,1-.438,1.187,2.536,2.536,0,0,1-4.2.011,3.723,3.723,0,0,1-.427-2.322,1.247,1.247,0,0,0,1.3-1.018c.01-.084-.028-.336.047-.361.358.093.7.235,1.065.31a4.437,4.437,0,0,0,2.655-.2" transform="translate(-107.495 -120.755)"/>
        <rect id="Rect치ngulo_11129" data-name="Rect치ngulo 11129" class="cls-8" width="18.203" height="0.677" transform="translate(0.561 15.467)"/>
        <path id="Trazado_16741" data-name="Trazado 16741" class="cls-9" d="M115.832,63.982v1.124a2.182,2.182,0,0,1-.353.161,4.15,4.15,0,0,1-2.3.078c-.449-.105-1.047-.494-1.454-.171-.271.215-.174.5-.242.787a.747.747,0,0,1-.719.486V64.89a1.162,1.162,0,0,1,.914-.9c.962-.013,1.937-.008,2.89-.006.42,0,.841,0,1.261,0" transform="translate(-107.767 -62.248)"/>
        <path id="Trazado_16742" data-name="Trazado 16742" class="cls-7" d="M447.645,358.149a.539.539,0,0,1,.008-.141c.2-1.588.743-3.247.981-4.843.082-.349.4-.41.718-.379l-1.056,5.363c-.088-.017-.627.023-.65,0" transform="translate(-435.517 -343.224)"/>
        <path id="Trazado_16743" data-name="Trazado 16743" class="cls-6" d="M326.692,523.036l-.179.76-2.35-.005a.43.43,0,0,1-.4-.335v-.42Z" transform="translate(-314.998 -508.869)"/>
        <path id="Trazado_16744" data-name="Trazado 16744" class="cls-7" d="M170.23,317.144v.528a1.554,1.554,0,0,1-.108.272.726.726,0,0,1-1.242.022,1.435,1.435,0,0,1-.113-.294v-.637a2.858,2.858,0,0,0,1.463.108" transform="translate(-164.196 -308.449)"/>
        <path id="Trazado_16745" data-name="Trazado 16745" class="cls-10" d="M164.878,516.011h-1.07a.271.271,0,0,1-.041-.041v-.935a1.1,1.1,0,0,1,1.111.975" transform="translate(-159.331 -501.086)"/>
        <path id="Trazado_16746" data-name="Trazado 16746" class="cls-11" d="M76.222,169.036v.894a.453.453,0,0,1,0-.894" transform="translate(-73.791 -164.458)"/>
        <path id="Trazado_16747" data-name="Trazado 16747" class="cls-6" d="M407.3,26.85c-.017.012-.055,0-.068-.026a7.8,7.8,0,0,0-.8-.991l-2.263-.012a.489.489,0,0,1-.448-.473V20.47A.487.487,0,0,1,404.2,20h7.18a.488.488,0,0,1,.5.447V25.4a.488.488,0,0,1-.421.419l-3.326.006-.181.144Zm-2.147-5.438a.293.293,0,0,0,.075.564h5.147a.288.288,0,0,0,.027-.57Zm0,1.327c-.345.162-.182.59.183.564h5.012c.345-.012.4-.528.055-.569Zm-.027,1.327a.284.284,0,0,0,.075.537H409a.276.276,0,0,0,0-.544Z" transform="translate(-392.791 -19.454)"/>
        <path id="Trazado_16748" data-name="Trazado 16748" class="cls-4" d="M566.577,416.508a1,1,0,1,1-1-1,1,1,0,0,1,1,1m-.581,0a.421.421,0,1,0-.421.421.421.421,0,0,0,.421-.421" transform="translate(-549.287 -404.255)"/>
        <path id="Trazado_16749" data-name="Trazado 16749" class="cls-12" d="M449.785,72.019l5.25-.006a.288.288,0,0,1-.027.57H449.86a.293.293,0,0,1-.075-.564" transform="translate(-437.421 -70.062)"/>
        <path id="Trazado_16750" data-name="Trazado 16750" class="cls-13" d="M449.648,121.019l5.249-.006c.347.041.29.558-.055.569h-5.012c-.365.026-.528-.4-.183-.564" transform="translate(-437.284 -117.735)"/>
        <path id="Trazado_16751" data-name="Trazado 16751" class="cls-13" d="M449.752,170.02l3.868-.006a.276.276,0,0,1,0,.544h-3.794a.284.284,0,0,1-.075-.537" transform="translate(-437.415 -165.409)"/>
        <path id="Trazado_16752" data-name="Trazado 16752" class="cls-7" d="M586.684,437.437a.421.421,0,1,1-.421-.421.421.421,0,0,1,.421.421" transform="translate(-569.974 -425.179)"/>
      </g>
    </g>
  </g>
</svg>
