<svg xmlns="http://www.w3.org/2000/svg" xmlns:xlink="http://www.w3.org/1999/xlink" width="20" height="20" viewBox="0 0 20 20">
  <defs>
    <style>
      .cls-1 {
        fill: none;
      }

      .cls-2 {
        clip-path: url(#clip-iconSCE2);
      }

      .cls-3 {
        clip-path: url(#clip-path);
      }

      .cls-4 {
        fill: #fff;
      }

      .cls-5 {
        fill: #9bc8fe;
      }

      .cls-6 {
        fill: #2d72b9;
      }

      .cls-7 {
        fill: #2e72b9;
      }

      .cls-8 {
        fill: #fdfcfd;
      }
    </style>
    <clipPath id="clip-path">
      <rect id="Rectángulo_11146" data-name="Rectángulo 11146" class="cls-1" width="19.554" height="18.608"/>
    </clipPath>
    <clipPath id="clip-iconSCE2">
      <rect width="20" height="20"/>
    </clipPath>
  </defs>
  <g id="iconSCE2" class="cls-2">
    <g id="Grupo_22897" data-name="Grupo 22897" transform="translate(0.223 0.696)">
      <g id="Grupo_22806" data-name="Grupo 22806" class="cls-3" transform="translate(0 0)">
        <path id="Trazado_16760" data-name="Trazado 16760" class="cls-4" d="M9.737,52.021a1.991,1.991,0,0,0-1.991,1.991h3.982a1.991,1.991,0,0,0-1.991-1.991" transform="translate(-6.197 -41.618)"/>
        <path id="Trazado_16761" data-name="Trazado 16761" class="cls-4" d="M39.167,42.77a2.261,2.261,0,0,0-2.145,2.361h4.291a2.261,2.261,0,0,0-2.145-2.361" transform="translate(-29.618 -34.217)"/>
        <path id="Trazado_16762" data-name="Trazado 16762" class="cls-4" d="M69.784,57.771a2.1,2.1,0,0,0-1.991,2.191h3.982a2.1,2.1,0,0,0-1.991-2.191" transform="translate(-54.236 -46.218)"/>
        <path id="Trazado_16763" data-name="Trazado 16763" class="cls-4" d="M72.4,40.122a1.782,1.782,0,1,1-1.782-1.782A1.782,1.782,0,0,1,72.4,40.122" transform="translate(-55.073 -30.673)"/>
        <path id="Trazado_16764" data-name="Trazado 16764" class="cls-4" d="M42.4,24.165a1.782,1.782,0,1,1-1.782-1.782A1.782,1.782,0,0,1,42.4,24.165" transform="translate(-31.073 -17.907)"/>
        <path id="Trazado_16765" data-name="Trazado 16765" class="cls-4" d="M12.4,33.622a1.782,1.782,0,1,1-1.782-1.782A1.782,1.782,0,0,1,12.4,33.622" transform="translate(-7.072 -25.473)"/>
        <path id="Trazado_16766" data-name="Trazado 16766" class="cls-5" d="M4.55,63.25h4a.8.8,0,0,1,.8.8v4a.8.8,0,0,1-.8.8h-4a.8.8,0,0,1-.8-.8v-4a.8.8,0,0,1,.8-.8" transform="translate(-3 -50.601)"/>
        <path id="Trazado_16767" data-name="Trazado 16767" class="cls-5" d="M34.55,55.25h4a.8.8,0,0,1,.8.8v5.6a.8.8,0,0,1-.8.8h-4a.8.8,0,0,1-.8-.8v-5.6a.8.8,0,0,1,.8-.8" transform="translate(-27.001 -44.201)"/>
        <path id="Trazado_16768" data-name="Trazado 16768" class="cls-5" d="M64.55,69.25h4a.8.8,0,0,1,.8.8v2.8a.8.8,0,0,1-.8.8h-4a.8.8,0,0,1-.8-.8v-2.8a.8.8,0,0,1,.8-.8" transform="translate(-51.001 -55.401)"/>
        <path id="Trazado_16769" data-name="Trazado 16769" class="cls-6" d="M18.748,33.943H18.6a1.145,1.145,0,0,0,.1-.46v-2.8a1.152,1.152,0,0,0-.815-1.1A2.375,2.375,0,0,0,16.5,27.52a2.25,2.25,0,1,0-1.9,0,2.375,2.375,0,0,0-1.385,2.063,1.149,1.149,0,0,0-.515.331V27.884a1.151,1.151,0,0,0-.816-1.1.343.343,0,0,0,.016-.1,2.441,2.441,0,0,0-1.391-2.359,2.25,2.25,0,1,0-1.917,0A2.441,2.441,0,0,0,7.2,26.684a.343.343,0,0,0,.016.1,1.151,1.151,0,0,0-.816,1.1v.828a1.151,1.151,0,0,0-.5-.324A2.436,2.436,0,0,0,4.6,26.171a2.25,2.25,0,1,0-2.1,0A2.436,2.436,0,0,0,1.2,28.387a1.152,1.152,0,0,0-.8,1.1v4a1.145,1.145,0,0,0,.1.46H.35a.35.35,0,1,0,0,.7h18.4a.35.35,0,1,0,0-.7M14,25.484a1.55,1.55,0,1,1,1.55,1.55A1.552,1.552,0,0,1,14,25.484m1.55,2.55a1.6,1.6,0,0,1,1.625,1.5h-3.25a1.6,1.6,0,0,1,1.625-1.5m-2.45,2.65a.451.451,0,0,1,.45-.45h4a.451.451,0,0,1,.45.45v2.8a.451.451,0,0,1-.45.45h-4a.451.451,0,0,1-.45-.45ZM8,22.293a1.55,1.55,0,1,1,1.55,1.55A1.552,1.552,0,0,1,8,22.293m-.1,4.391a1.661,1.661,0,1,1,3.3,0,.342.342,0,0,0,.005.05H7.894a.341.341,0,0,0,0-.05m-.8,1.2a.451.451,0,0,1,.45-.45h4a.451.451,0,0,1,.45.45v5.6a.451.451,0,0,1-.45.45h-4a.451.451,0,0,1-.45-.45ZM2,24.184a1.55,1.55,0,1,1,1.55,1.55A1.552,1.552,0,0,1,2,24.184m1.55,2.45a1.636,1.636,0,0,1,1.644,1.7H1.905a1.636,1.636,0,0,1,1.644-1.7M1.1,29.483a.451.451,0,0,1,.45-.45h4a.451.451,0,0,1,.45.45v4a.451.451,0,0,1-.45.45h-4a.451.451,0,0,1-.45-.45Z" transform="translate(0 -16.035)"/>
        <path id="Trazado_16770" data-name="Trazado 16770" class="cls-5" d="M67.232,1.75h3.6a1.2,1.2,0,0,1,1.2,1.2v3.6a1.2,1.2,0,0,1-1.2,1.2h-3.6a1.2,1.2,0,0,1-1.2-1.2V2.95a1.2,1.2,0,0,1,1.2-1.2" transform="translate(-52.827 -1.4)"/>
        <path id="Trazado_16771" data-name="Trazado 16771" class="cls-6" d="M69.431,6.7h-3.6a1.552,1.552,0,0,1-1.55-1.55V1.55A1.552,1.552,0,0,1,65.832,0h3.6a1.552,1.552,0,0,1,1.55,1.55v3.6a1.552,1.552,0,0,1-1.55,1.55m-3.6-6a.851.851,0,0,0-.85.85v3.6a.851.851,0,0,0,.85.85h3.6a.851.851,0,0,0,.85-.85V1.55a.851.851,0,0,0-.85-.85Z" transform="translate(-51.427 0)"/>
        <path id="Trazado_16805" data-name="Trazado 16805" class="cls-7" d="M33.544,38.153a.744.744,0,0,1-.231.548l-.39.392c-.409.41-.872.876-1.34,1.338a.785.785,0,0,1-1.146,0q-.33-.319-.648-.649a.8.8,0,0,1,1.1-1.151c.114.1.164.077.254-.016q.52-.534,1.054-1.054a.793.793,0,0,1,1.35.59" transform="translate(-15.343 -35.657)"/>
        <path id="Trazado_16806" data-name="Trazado 16806" class="cls-8" d="M31.974,41.156a.363.363,0,0,1-.28-.118c-.2-.2-.4-.391-.59-.592a.374.374,0,0,1-.016-.55.369.369,0,0,1,.55.018c.394.426.417.251.692-.019.333-.327.659-.66.99-.988a.384.384,0,1,1,.534.538Q33.079,40.224,32.3,41a.409.409,0,0,1-.327.156" transform="translate(-16.291 -36.61)"/>
      </g>
    </g>
  </g>
</svg>
