<svg xmlns="http://www.w3.org/2000/svg" xmlns:xlink="http://www.w3.org/1999/xlink" width="20" height="20" viewBox="0 0 20 20">
  <defs>
    <style>
      .cls-1 {
        fill: none;
      }

      .cls-2 {
        clip-path: url(#clip-iconCEMM2);
      }

      .cls-3 {
        clip-path: url(#clip-path);
      }

      .cls-4 {
        fill: #2e72b9;
      }

      .cls-5 {
        fill: #9bc8fe;
      }

      .cls-6 {
        fill: #fff;
      }

      .cls-7 {
        fill: #2d72b9;
      }

      .cls-8 {
        fill: #9ac7fe;
      }
    </style>
    <clipPath id="clip-path">
      <rect id="Rectángulo_11218" data-name="Rectángulo 11218" class="cls-1" width="17.203" height="14.663"/>
    </clipPath>
    <clipPath id="clip-iconCEMM2">
      <rect width="20" height="20"/>
    </clipPath>
  </defs>
  <g id="iconCEMM2" class="cls-2">
    <g id="Grupo_23027" data-name="Grupo 23027" transform="translate(1.399 3.344)">
      <g id="Grupo_22948" data-name="Grupo 22948" class="cls-3" transform="translate(0 0)">
        <path id="Trazado_16947" data-name="Trazado 16947" class="cls-4" d="M34.432,18.017H34.4a3.042,3.042,0,0,1-3.012-3.072v-.01a2.986,2.986,0,0,1,2.961-3h.117a3.042,3.042,0,1,1-.035,6.084m-2.395-3.061a2.394,2.394,0,1,0,2.417-2.374h-.1a2.34,2.34,0,0,0-2.318,2.357v.019" transform="translate(-21.32 -8.104)"/>
        <path id="Trazado_16948" data-name="Trazado 16948" class="cls-5" d="M37.07,33.06l0-.027V33a3.8,3.8,0,0,0-1.427-3.076.457.457,0,0,0-.309-.119.492.492,0,0,0-.189.038,4.106,4.106,0,0,1-2.161.223l-.046-.007c-.077-.014-.154-.033-.231-.051-.05-.012-.1-.022-.151-.036s-.081-.027-.122-.039c-.085-.027-.171-.054-.255-.086a.492.492,0,0,0-.189-.039.457.457,0,0,0-.309.119,3.8,3.8,0,0,0-.611.616c-.047.058-.091.119-.133.18l-.006.009c-.01.014-.021.028-.03.042h0a3.805,3.805,0,0,0-.648,2.228v.028l0,.027a.453.453,0,0,0,.316.5l.041.016a7.2,7.2,0,0,0,4.172.583l.15-.024.032-.006a7.194,7.194,0,0,0,1.753-.557l.041-.016a.453.453,0,0,0,.316-.5" transform="translate(-20.542 -20.248)"/>
        <path id="Trazado_16949" data-name="Trazado 16949" class="cls-4" d="M33.912,28.361a.458.458,0,0,1,.308.119,3.8,3.8,0,0,1,1.427,3.076v.028l0,.027a.452.452,0,0,1-.316.5l-.041.016a7.191,7.191,0,0,1-1.753.557l-.032.006c-.05.009-.1.016-.15.024a7.2,7.2,0,0,1-4.171-.583l-.041-.016a.452.452,0,0,1-.316-.5l0-.027V31.56a3.8,3.8,0,0,1,.648-2.228s.121-.173.168-.232a3.825,3.825,0,0,1,.611-.616.458.458,0,0,1,.308-.119h0a.484.484,0,0,1,.189.038c.084.033.17.059.255.086.041.013.081.028.122.039s.1.024.151.036c.077.018.153.038.231.051l.046.006a4.115,4.115,0,0,0,2.161-.223.484.484,0,0,1,.189-.038Zm0-.67h0a1.155,1.155,0,0,0-.439.087,3.445,3.445,0,0,1-1.8.183l-.045-.006c-.044-.008-.092-.02-.144-.032l-.043-.01-.061-.014-.063-.015-.043-.014-.062-.02-.019-.006c-.067-.021-.131-.041-.186-.063a1.155,1.155,0,0,0-.438-.087,1.127,1.127,0,0,0-.743.277,4.477,4.477,0,0,0-.7.713,2.392,2.392,0,0,0-.213.3,4.449,4.449,0,0,0-.747,2.572,1.116,1.116,0,0,0,.761,1.192h0a7.874,7.874,0,0,0,4.539.628l.036-.005.126-.021.033-.006a7.868,7.868,0,0,0,1.9-.6h0a1.116,1.116,0,0,0,.761-1.192,4.5,4.5,0,0,0-1.665-3.58,1.126,1.126,0,0,0-.741-.277" transform="translate(-19.122 -18.808)"/>
        <path id="Trazado_16950" data-name="Trazado 16950" class="cls-6" d="M33.291,16.235a2.382,2.382,0,0,1,2.361-2.4h0c.032,0,.063,0,.095,0a2.432,2.432,0,1,1-2.456,2.408h0v-.007" transform="translate(-22.612 -9.396)"/>
        <path id="Trazado_16951" data-name="Trazado 16951" class="cls-7" d="M18.85,23.9l-1.162-.128a.456.456,0,0,0-.1.906l2.172.24a.516.516,0,0,0,.224-.019.625.625,0,0,0,.325-.26.522.522,0,0,0,.067-.214l.24-2.171a.434.434,0,0,0-.1-.333.44.44,0,0,0-.638-.07.435.435,0,0,0-.171.3l-.128,1.162-1.1-1.372a.456.456,0,0,0-.654-.072.46.46,0,0,0-.177.313.445.445,0,0,0,.1.344l1.1,1.372" transform="translate(-11.672 -14.771)"/>
        <path id="Trazado_16952" data-name="Trazado 16952" class="cls-8" d="M9.047,6.277H1.805a.745.745,0,0,1-.745-.745V1.311A.745.745,0,0,1,1.805.566H9.047a.745.745,0,0,1,.745.745v4.22a.745.745,0,0,1-.745.745" transform="translate(-0.72 -0.384)"/>
        <path id="Trazado_16953" data-name="Trazado 16953" class="cls-7" d="M1,6.169a1,1,0,0,1-1-1V1a.958.958,0,0,1,.293-.7A.959.959,0,0,1,1,0H8.367a.959.959,0,0,1,.7.293.96.96,0,0,1,.293.7V5.173a1,1,0,0,1-1,1Zm.508-.46H7.859a1.135,1.135,0,0,1,.325-.816,1.047,1.047,0,0,1,.782-.339V1.629a1.043,1.043,0,0,1-.783-.339A1.139,1.139,0,0,1,7.859.474H1.5a1.136,1.136,0,0,1-.325.817A1.045,1.045,0,0,1,.4,1.629V4.554a1.044,1.044,0,0,1,.783.339,1.138,1.138,0,0,1,.325.816" transform="translate(0 0)"/>
        <path id="Trazado_16954" data-name="Trazado 16954" class="cls-7" d="M11.1,7.655A1.632,1.632,0,0,1,9.458,6.036V6.01A1.645,1.645,0,1,1,12.745,5.9c0,.038,0,.075,0,.113a1.632,1.632,0,0,1-1.619,1.645H11.1m0-2.756a1.1,1.1,0,0,0-1.113,1.09c0,.007,0,.015,0,.022a1.113,1.113,0,1,0,2.225,0h0A1.1,1.1,0,0,0,11.125,4.9H11.1" transform="translate(-6.423 -2.927)"/>
      </g>
    </g>
  </g>
</svg>
