<svg xmlns="http://www.w3.org/2000/svg" xmlns:xlink="http://www.w3.org/1999/xlink" width="20" height="20" viewBox="0 0 20 20">
  <defs>
    <style>
      .cls-1 {
        fill: none;
      }

      .cls-2 {
        clip-path: url(#clip-iconGEMMA2);
      }

      .cls-3 {
        clip-path: url(#clip-path);
      }

      .cls-4 {
        fill: #9ac7fe;
      }

      .cls-5 {
        fill: #2d72b9;
      }

      .cls-6 {
        fill: #2a70b8;
      }

      .cls-7 {
        fill: #fefefe;
      }

      .cls-8 {
        fill: #fdfefe;
      }
    </style>
    <clipPath id="clip-path">
      <rect id="Rectángulo_11213" data-name="Rectángulo 11213" class="cls-1" width="18.298" height="13.356"/>
    </clipPath>
    <clipPath id="clip-iconGEMMA2">
      <rect width="20" height="20"/>
    </clipPath>
  </defs>
  <g id="iconGEMMA2" class="cls-2">
    <g id="Grupo_23030" data-name="Grupo 23030" transform="translate(0.851 3.322)">
      <g id="Grupo_22940" data-name="Grupo 22940" class="cls-3" transform="translate(0 0)">
        <path id="Trazado_16902" data-name="Trazado 16902" class="cls-4" d="M37.5,7.234H29.389a.835.835,0,0,1-.835-.835V1.674a.835.835,0,0,1,.835-.835H37.5a.835.835,0,0,1,.835.835V6.4a.835.835,0,0,1-.835.835" transform="translate(-21.635 -0.636)"/>
        <path id="Trazado_16903" data-name="Trazado 16903" class="cls-5" d="M28.1,6.908a1.119,1.119,0,0,1-1.116-1.116V1.116a1.075,1.075,0,0,1,.328-.788A1.074,1.074,0,0,1,28.1,0h8.255a1.075,1.075,0,0,1,.788.328,1.075,1.075,0,0,1,.328.788V5.792a1.119,1.119,0,0,1-1.116,1.116Zm.569-.515h7.118a1.271,1.271,0,0,1,.364-.914,1.171,1.171,0,0,1,.876-.379V1.825a1.168,1.168,0,0,1-.876-.38,1.273,1.273,0,0,1-.364-.913H28.666a1.272,1.272,0,0,1-.364.914,1.171,1.171,0,0,1-.876.379V5.1a1.17,1.17,0,0,1,.877.38,1.275,1.275,0,0,1,.363.913" transform="translate(-20.443 0)"/>
        <path id="Trazado_16904" data-name="Trazado 16904" class="cls-6" d="M10.79,31l2.079-.741,3.638-1.3a1.511,1.511,0,0,1,1.3.109.845.845,0,0,1,.047,1.513c-.346.221-.716.407-1.076.606-1.654.917-3.311,1.829-4.962,2.752a3.12,3.12,0,0,1-1.972.344c-.824-.1-1.648-.191-2.468-.314q-1.637-.244-3.274-.491c-.194-.029-.39-.055-.584-.087a.126.126,0,0,0-.158.081l0,.01a.721.721,0,0,1-.711.447H.777A.731.731,0,0,1,0,33.156v-4.7a.725.725,0,0,1,.786-.778c.586,0,1.172.013,1.756,0a.786.786,0,0,1,.876.646c.245-.059.492-.119.738-.178A7.033,7.033,0,0,1,5,27.97a2.5,2.5,0,0,1,1.264.17q1.953.824,3.9,1.669a1.042,1.042,0,0,1,.659.791,1.3,1.3,0,0,1-.028.4" transform="translate(0 -20.966)"/>
        <path id="Trazado_16905" data-name="Trazado 16905" class="cls-7" d="M14.076,32.955c0-.646,0-1.291,0-1.937,0-.143.046-.19.181-.218.408-.087.812-.194,1.218-.288a2.079,2.079,0,0,1,1.3.1q1.946.821,3.882,1.663a.589.589,0,0,1,.429.542.616.616,0,0,1-.464.574,1.332,1.332,0,0,1-1.046-.017q-1.061-.455-2.122-.907c-.07-.03-.14-.073-.222-.037a.205.205,0,0,0-.128.181.187.187,0,0,0,.129.194c.252.109.5.216.757.323.456.194.915.379,1.366.582a1.766,1.766,0,0,0,1.271.084c1.049-.3,2.068-.7,3.094-1.069,1.115-.406,2.221-.837,3.352-1.2a2.025,2.025,0,0,1,.749-.154.873.873,0,0,1,.592.261.417.417,0,0,1-.042.668,1.453,1.453,0,0,1-.21.135L22.288,35.7a2.756,2.756,0,0,1-1.783.3c-.969-.135-1.942-.25-2.911-.386-.91-.127-1.817-.27-2.727-.406-.206-.031-.412-.073-.62-.092-.137-.013-.175-.066-.173-.2.007-.651,0-1.3,0-1.954" transform="translate(-10.663 -23.075)"/>
        <path id="Trazado_16906" data-name="Trazado 16906" class="cls-4" d="M4.25,32.016v2.278c0,.343-.108.449-.449.45H2.026c-.28,0-.4-.123-.4-.4,0-1.56,0-3.12,0-4.68a.377.377,0,0,1,.4-.4q.923,0,1.847,0a.346.346,0,0,1,.385.3.341.341,0,0,1,0,.089c0,.789,0,1.578,0,2.367" transform="translate(-1.227 -22.167)"/>
        <path id="Trazado_16907" data-name="Trazado 16907" class="cls-6" d="M5.7,32.586c0,.179,0,.358,0,.537a.282.282,0,0,1-.257.3.31.31,0,0,1-.042,0c-.215.005-.43.006-.644,0a.3.3,0,0,1-.311-.32q-.007-.537,0-1.074a.277.277,0,0,1,.257-.3.264.264,0,0,1,.048,0q.322,0,.644,0a.278.278,0,0,1,.307.246.283.283,0,0,1,0,.066c0,.179,0,.358,0,.537" transform="translate(-3.366 -24.046)"/>
        <path id="Trazado_16908" data-name="Trazado 16908" class="cls-6" d="M6.626,42.732c0,.221,0,.442,0,.663,0,.163-.058.229-.184.231s-.205-.067-.206-.231q0-.654,0-1.308c0-.173.078-.263.206-.256s.184.092.185.257c0,.215,0,.43,0,.645" transform="translate(-4.723 -31.694)"/>
        <path id="Trazado_16909" data-name="Trazado 16909" class="cls-8" d="M6.07,34.2v-.783c0-.035,0-.071.007-.116a2.056,2.056,0,0,1,.452-.011V34.2Z" transform="translate(-4.599 -25.215)"/>
        <path id="Trazado_16910" data-name="Trazado 16910" class="cls-5" d="M42.853,10.34A1.827,1.827,0,0,1,41.012,8.5a1.84,1.84,0,1,1,3.146,1.305,1.783,1.783,0,0,1-1.305.535m0-3.086a1.251,1.251,0,0,0-.885,2.131,1.251,1.251,0,0,0,1.77-1.77,1.193,1.193,0,0,0-.885-.361" transform="translate(-31.074 -5.046)"/>
      </g>
    </g>
  </g>
</svg>
