<svg xmlns="http://www.w3.org/2000/svg" xmlns:xlink="http://www.w3.org/1999/xlink" width="20" height="20" viewBox="0 0 20 20">
  <defs>
    <style>
      .cls-1 {
        fill: none;
      }

      .cls-2 {
        clip-path: url(#clip-iconSGCAE2);
      }

      .cls-3 {
        clip-path: url(#clip-path);
      }

      .cls-4 {
        fill: #fff;
      }

      .cls-5 {
        fill: #276fba;
      }

      .cls-6 {
        fill: #2e72b9;
      }

      .cls-7 {
        fill: #9bc8fe;
      }

      .cls-8 {
        fill: #fdfcfd;
      }
    </style>
    <clipPath id="clip-path">
      <rect id="Rectángulo_11225" data-name="Rectángulo 11225" class="cls-1" width="13.604" height="17.863"/>
    </clipPath>
    <clipPath id="clip-iconSGCAE2">
      <rect width="20" height="20"/>
    </clipPath>
  </defs>
  <g id="iconSGCAE2" class="cls-2">
    <g id="Grupo_23031" data-name="Grupo 23031" transform="translate(3 1)">
      <g id="Grupo_22973" data-name="Grupo 22973" class="cls-3" transform="translate(0 0)">
        <path id="Trazado_17065" data-name="Trazado 17065" class="cls-4" d="M16.318.943V9.132c0,.241-.279.437-.622.437H7.673c-.343,0-.622-.2-.622-.437V.943c0-.242.278-.437.622-.437H15.7c.343,0,.622.2.622.437" transform="translate(-5.217 -0.374)"/>
        <path id="Trazado_17066" data-name="Trazado 17066" class="cls-5" d="M5.951,8.629V.9a.9.9,0,0,1,.9-.9H14.78a.9.9,0,0,1,.9.9V8.63a.9.9,0,0,1-.9.9H6.852a.9.9,0,0,1-.9-.9M15.109.9a.328.328,0,0,0-.327-.329H6.852A.328.328,0,0,0,6.524.9V8.629a.328.328,0,0,0,.328.328H14.78a.328.328,0,0,0,.328-.328Z" transform="translate(-4.403 0)"/>
        <path id="Trazado_17067" data-name="Trazado 17067" class="cls-5" d="M17.057,8.686H9.812a.286.286,0,0,1,0-.572h7.244a.286.286,0,0,1,0,.572" transform="translate(-7.05 -6.004)"/>
        <path id="Trazado_17068" data-name="Trazado 17068" class="cls-5" d="M16.4,16.7H9.84a.286.286,0,0,1,0-.572H16.4a.286.286,0,0,1,0,.572" transform="translate(-7.078 -11.931)"/>
        <path id="Trazado_17069" data-name="Trazado 17069" class="cls-5" d="M14.161,24.709H9.474a.289.289,0,0,1,0-.572h4.687a.289.289,0,0,1,0,.572" transform="translate(-6.744 -17.86)"/>
        <path id="Trazado_17070" data-name="Trazado 17070" class="cls-6" d="M4.017,44.237H4a1.738,1.738,0,0,1-1.721-1.755v-.006a1.706,1.706,0,0,1,1.693-1.717h.067a1.739,1.739,0,1,1-.021,3.479m-1.368-1.75A1.368,1.368,0,1,0,4.031,41.13H3.974A1.337,1.337,0,0,0,2.65,42.477v.01" transform="translate(-1.686 -30.158)"/>
        <path id="Trazado_17071" data-name="Trazado 17071" class="cls-7" d="M5.371,55.218l0-.016v-.016a2.174,2.174,0,0,0-.816-1.757.261.261,0,0,0-.177-.068.28.28,0,0,0-.108.022,2.349,2.349,0,0,1-1.235.128l-.026,0c-.044-.008-.088-.019-.131-.029s-.058-.012-.086-.021l-.07-.022c-.049-.015-.1-.03-.146-.049a.281.281,0,0,0-.108-.022.261.261,0,0,0-.177.068,2.2,2.2,0,0,0-.35.352c-.027.033-.051.068-.076.1l0,0-.017.024h0a2.173,2.173,0,0,0-.37,1.273V55.2l0,.016a.258.258,0,0,0,.18.285l.024.009a4.113,4.113,0,0,0,2.385.333l.086-.014.018,0a4.106,4.106,0,0,0,1-.318L5.19,55.5a.259.259,0,0,0,.181-.285" transform="translate(-1.087 -39.484)"/>
        <path id="Trazado_17072" data-name="Trazado 17072" class="cls-6" d="M3.29,52.25a.261.261,0,0,1,.175.068,2.174,2.174,0,0,1,.816,1.758v.016l0,.016a.259.259,0,0,1-.181.284l-.023.009a4.1,4.1,0,0,1-1,.317l-.018,0-.086.014A4.118,4.118,0,0,1,.589,54.4l-.023-.009a.259.259,0,0,1-.181-.285l0-.016v-.016A2.174,2.174,0,0,1,.757,52.8s.069-.1.1-.131a2.165,2.165,0,0,1,.35-.352.261.261,0,0,1,.175-.068.275.275,0,0,1,.108.022c.048.019.1.034.146.049.023.007.046.016.07.022s.057.014.086.021.088.022.131.029l.026,0a2.351,2.351,0,0,0,1.235-.127.276.276,0,0,1,.108-.022Zm0-.383h0a.659.659,0,0,0-.251.05,1.952,1.952,0,0,1-.706.131,1.979,1.979,0,0,1-.323-.027l-.025,0L1.9,52l-.024-.006-.035-.008-.036-.009-.024-.008-.035-.011-.011,0c-.038-.012-.075-.024-.106-.036a.654.654,0,0,0-.25-.05.644.644,0,0,0-.424.158,2.573,2.573,0,0,0-.4.408,1.366,1.366,0,0,0-.122.169A2.543,2.543,0,0,0,0,54.073a.638.638,0,0,0,.435.681h0a4.5,4.5,0,0,0,2.594.359l.02,0,.072-.012.019,0a4.512,4.512,0,0,0,1.083-.341h0a.638.638,0,0,0,.435-.681,2.573,2.573,0,0,0-.953-2.046.642.642,0,0,0-.423-.159" transform="translate(0 -38.378)"/>
        <path id="Trazado_17073" data-name="Trazado 17073" class="cls-4" d="M3.618,43.473A1.361,1.361,0,0,1,4.967,42.1h.054a1.39,1.39,0,1,1-1.4,1.376v0" transform="translate(-2.677 -31.151)"/>
        <path id="Trazado_17074" data-name="Trazado 17074" class="cls-6" d="M38.371,44.237h-.018a1.739,1.739,0,0,1-1.721-1.755v-.006a1.707,1.707,0,0,1,1.692-1.717h.067a1.739,1.739,0,0,1-.021,3.479M37,42.486a1.368,1.368,0,1,0,1.381-1.357h-.057A1.337,1.337,0,0,0,37,42.477v.01" transform="translate(-27.105 -30.158)"/>
        <path id="Trazado_17075" data-name="Trazado 17075" class="cls-7" d="M39.723,55.218l0-.016v-.016a2.174,2.174,0,0,0-.816-1.757.261.261,0,0,0-.177-.068.28.28,0,0,0-.108.022,2.349,2.349,0,0,1-1.235.128l-.026,0c-.044-.008-.088-.019-.131-.029s-.058-.012-.086-.021l-.07-.022c-.049-.015-.1-.03-.146-.049a.281.281,0,0,0-.108-.022.261.261,0,0,0-.177.068,2.2,2.2,0,0,0-.35.352c-.027.033-.051.068-.076.1l0,0-.017.024h0a2.173,2.173,0,0,0-.369,1.273V55.2l0,.016a.259.259,0,0,0,.181.285l.023.009a4.114,4.114,0,0,0,2.385.333l.086-.014.018,0a4.106,4.106,0,0,0,1-.318l.023-.009a.259.259,0,0,0,.181-.285" transform="translate(-26.506 -39.484)"/>
        <path id="Trazado_17076" data-name="Trazado 17076" class="cls-6" d="M37.642,52.248a.261.261,0,0,1,.175.068,2.173,2.173,0,0,1,.816,1.758v.016l0,.016a.259.259,0,0,1-.181.284l-.023.009a4.108,4.108,0,0,1-1,.318l-.018,0-.086.014A4.118,4.118,0,0,1,34.94,54.4l-.023-.009a.259.259,0,0,1-.181-.285l0-.016v-.016a2.173,2.173,0,0,1,.37-1.273s.069-.1.1-.131a2.176,2.176,0,0,1,.35-.352.26.26,0,0,1,.175-.068.275.275,0,0,1,.108.022c.048.018.1.034.146.049.023.007.046.016.07.022s.057.014.086.021.087.022.131.029l.026,0a2.348,2.348,0,0,0,1.235-.127.273.273,0,0,1,.108-.022Zm0-.383h0a.659.659,0,0,0-.251.05,1.953,1.953,0,0,1-.707.131,1.976,1.976,0,0,1-.323-.027l-.026,0L36.254,52l-.024-.006-.035-.008-.036-.009-.024-.008-.036-.011-.011,0c-.038-.012-.074-.024-.106-.036a.654.654,0,0,0-.25-.05.644.644,0,0,0-.424.158,2.6,2.6,0,0,0-.4.408,1.421,1.421,0,0,0-.122.169,2.546,2.546,0,0,0-.427,1.47.637.637,0,0,0,.435.681h0a4.5,4.5,0,0,0,2.594.359l.02,0,.072-.012.019,0a4.507,4.507,0,0,0,1.084-.342h0a.638.638,0,0,0,.434-.681,2.573,2.573,0,0,0-.952-2.046.643.643,0,0,0-.423-.159" transform="translate(-25.418 -38.376)"/>
        <path id="Trazado_17077" data-name="Trazado 17077" class="cls-4" d="M37.971,43.473A1.361,1.361,0,0,1,39.32,42.1h.054a1.39,1.39,0,1,1-1.4,1.376v0" transform="translate(-28.096 -31.151)"/>
        <path id="Trazado_17078" data-name="Trazado 17078" class="cls-6" d="M21.188,48.359h-.018A1.738,1.738,0,0,1,19.45,46.6V46.6a1.706,1.706,0,0,1,1.692-1.716h.067a1.738,1.738,0,0,1-.02,3.477m-1.368-1.75A1.368,1.368,0,1,0,21.2,45.252h-.057A1.337,1.337,0,0,0,19.821,46.6v.011" transform="translate(-14.391 -33.21)"/>
        <path id="Trazado_17079" data-name="Trazado 17079" class="cls-7" d="M22.539,59.338l0-.016v-.016a2.174,2.174,0,0,0-.816-1.757.261.261,0,0,0-.177-.068.28.28,0,0,0-.108.022,2.349,2.349,0,0,1-1.235.128l-.026,0c-.044-.008-.088-.019-.131-.029s-.058-.012-.086-.021l-.07-.022c-.049-.015-.1-.03-.146-.049a.281.281,0,0,0-.108-.022.261.261,0,0,0-.177.068,2.2,2.2,0,0,0-.35.352c-.027.033-.051.068-.076.1l0,0-.017.024h0a2.172,2.172,0,0,0-.37,1.273v.016l0,.016a.259.259,0,0,0,.18.285l.024.009a4.114,4.114,0,0,0,2.385.333l.086-.014.018,0a4.1,4.1,0,0,0,1-.318l.023-.009a.259.259,0,0,0,.181-.285" transform="translate(-13.79 -42.532)"/>
        <path id="Trazado_17080" data-name="Trazado 17080" class="cls-6" d="M20.462,56.372a.261.261,0,0,1,.175.068,2.173,2.173,0,0,1,.816,1.758v.016l0,.016a.259.259,0,0,1-.181.284l-.023.009a4.111,4.111,0,0,1-1,.318l-.018,0-.086.014a4.118,4.118,0,0,1-2.385-.333l-.023-.009a.259.259,0,0,1-.181-.285l0-.016V58.2a2.173,2.173,0,0,1,.37-1.273s.069-.1.1-.131a2.177,2.177,0,0,1,.35-.352.261.261,0,0,1,.175-.068.275.275,0,0,1,.108.022c.048.018.1.034.146.049.023.007.046.016.07.022s.057.014.086.021.088.022.131.029l.026,0a2.348,2.348,0,0,0,1.235-.127.276.276,0,0,1,.108-.022Zm0-.383h0a.659.659,0,0,0-.251.05,1.952,1.952,0,0,1-.706.131,1.979,1.979,0,0,1-.323-.027l-.025,0-.082-.018-.024-.006-.035-.008-.036-.009-.024-.008-.035-.011-.011,0c-.038-.012-.075-.024-.106-.036a.654.654,0,0,0-.25-.05.643.643,0,0,0-.424.158,2.575,2.575,0,0,0-.4.408,1.392,1.392,0,0,0-.122.169,2.544,2.544,0,0,0-.427,1.47.637.637,0,0,0,.435.681h0a4.5,4.5,0,0,0,2.594.359l.02,0,.072-.012.019,0a4.5,4.5,0,0,0,1.084-.342h0a.638.638,0,0,0,.435-.681,2.572,2.572,0,0,0-.953-2.046.641.641,0,0,0-.423-.158" transform="translate(-12.706 -41.428)"/>
        <path id="Trazado_17081" data-name="Trazado 17081" class="cls-4" d="M20.789,47.595a1.361,1.361,0,0,1,1.349-1.373h.054a1.39,1.39,0,1,1-1.4,1.376v0" transform="translate(-15.382 -34.201)"/>
        <g id="Grupo_22990" data-name="Grupo 22990" transform="translate(7.665 4.894)">
          <path id="Trazado_16987" data-name="Trazado 16987" class="cls-6" d="M27.353,23.45a2.633,2.633,0,0,1,.256-2.013,2.663,2.663,0,0,1,1.126-1.055,2.78,2.78,0,0,1,1.231-.259,2.617,2.617,0,1,1-2.592,3.386c-.006-.02-.015-.039-.022-.059" transform="translate(-27.175 -20.039)"/>
          <path id="Trazado_16988" data-name="Trazado 16988" class="cls-6" d="M29.8,25.361H29.7a2.7,2.7,0,0,1-2.487-1.9c0-.011-.008-.023-.012-.035L27.2,23.4l.073-.027-.075.021a2.719,2.719,0,0,1,1.425-3.164,2.84,2.84,0,0,1,1.269-.267,2.7,2.7,0,0,1-.091,5.4m-2.446-2.015c.012.032.018.046.023.061a2.535,2.535,0,1,0,2.51-3.279,2.674,2.674,0,0,0-1.194.251,2.555,2.555,0,0,0-1.339,2.966" transform="translate(-27.097 -19.963)"/>
          <path id="Trazado_16989" data-name="Trazado 16989" class="cls-7" d="M30.145,25.335a2.322,2.322,0,1,1,.011,0h-.011" transform="translate(-27.444 -20.309)"/>
          <path id="Trazado_16990" data-name="Trazado 16990" class="cls-8" d="M30.207,25.509a.269.269,0,0,1-.267-.267v-.22a.391.391,0,0,1,.118-.281l1.414-1.415.65.651-1.414,1.414a.407.407,0,0,1-.129.088.388.388,0,0,1-.152.03Z" transform="translate(-28.466 -21.583)"/>
          <path id="Trazado_16991" data-name="Trazado 16991" class="cls-6" d="M31.347,23.341l.459.459-1.319,1.319a.265.265,0,0,1-.086.059.255.255,0,0,1-.1.02h-.22a.134.134,0,0,1-.132-.132v-.22a.257.257,0,0,1,.019-.1.267.267,0,0,1,.059-.086Zm0-.383-.191.191-1.319,1.319a.542.542,0,0,0-.117.172.527.527,0,0,0-.04.205v.22a.4.4,0,0,0,.4.4h.22a.528.528,0,0,0,.205-.041.536.536,0,0,0,.172-.117L32,23.992l.191-.192L32,23.608l-.459-.459Z" transform="translate(-28.341 -21.405)"/>
          <path id="Trazado_16992" data-name="Trazado 16992" class="cls-8" d="M32.754,23.149l.281-.281a.217.217,0,0,1,.309,0l.342.341a.218.218,0,0,1,0,.308L33.4,23.8Z" transform="translate(-29.822 -21.331)"/>
          <path id="Trazado_16993" data-name="Trazado 16993" class="cls-6" d="M33.011,22.813a.08.08,0,0,1,.059.024l.342.342a.083.083,0,0,1,0,.117l-.186.186-.459-.459.186-.186a.08.08,0,0,1,.059-.024m0-.271a.351.351,0,0,0-.25.1l-.186.186-.192.191.192.192.459.459.192.192.191-.192.186-.186a.353.353,0,0,0,0-.5l-.342-.342a.351.351,0,0,0-.25-.1" transform="translate(-29.644 -21.205)"/>
        </g>
      </g>
    </g>
  </g>
</svg>
