<svg xmlns="http://www.w3.org/2000/svg" xmlns:xlink="http://www.w3.org/1999/xlink" width="20" height="20" viewBox="0 0 20 20">
  <defs>
    <style>
      .cls-1 {
        fill: none;
      }

      .cls-2 {
        clip-path: url(#clip-iconSIGLOC2);
      }

      .cls-3 {
        clip-path: url(#clip-path);
      }

      .cls-4 {
        fill: #fff;
      }

      .cls-5 {
        fill: #276fba;
      }

      .cls-6 {
        fill: #2a70b8;
      }

      .cls-7 {
        fill: #9bc8fe;
      }

      .cls-8 {
        fill: #fefefe;
      }
    </style>
    <clipPath id="clip-path">
      <rect id="Rectángulo_11155" data-name="Rectángulo 11155" class="cls-1" width="16.48" height="19.426"/>
    </clipPath>
    <clipPath id="clip-iconSIGLOC2">
      <rect width="20" height="20"/>
    </clipPath>
  </defs>
  <g id="iconSIGLOC2" class="cls-2">
    <g id="Grupo_22917" data-name="Grupo 22917" transform="translate(2.162 0.422)">
      <g id="Grupo_22826" data-name="Grupo 22826" class="cls-3" transform="translate(0 0)">
        <path id="Trazado_16845" data-name="Trazado 16845" class="cls-4" d="M15.189,19.518H2.315A1.384,1.384,0,0,1,.931,18.134V2.316A1.384,1.384,0,0,1,2.315.932H15.189a1.384,1.384,0,0,1,1.384,1.384V18.134a1.384,1.384,0,0,1-1.384,1.384" transform="translate(-0.512 -0.512)"/>
        <path id="Trazado_16846" data-name="Trazado 16846" class="cls-5" d="M14.677,19.425H1.8a1.805,1.805,0,0,1-1.8-1.8V1.8A1.806,1.806,0,0,1,1.8,0H14.677a1.806,1.806,0,0,1,1.8,1.8V17.622a1.805,1.805,0,0,1-1.8,1.8M1.8.839A.966.966,0,0,0,.839,1.8V17.622a.966.966,0,0,0,.964.964H14.677a.965.965,0,0,0,.964-.964V1.8a.966.966,0,0,0-.964-.965Z" transform="translate(0 0)"/>
        <path id="Trazado_16847" data-name="Trazado 16847" class="cls-6" d="M11.523,33.759h5.43c.216,0,.405.021.441.289a.315.315,0,0,1-.23.382.329.329,0,0,1-.072.009,2.283,2.283,0,0,1-.266,0H6.165a2.29,2.29,0,0,1-.3-.008.3.3,0,0,1-.28-.32.215.215,0,0,1,0-.029.293.293,0,0,1,.263-.319h.007a2.291,2.291,0,0,1,.3-.006h5.363" transform="translate(-3.07 -18.56)"/>
        <path id="Trazado_16848" data-name="Trazado 16848" class="cls-6" d="M10.562,29.774h-4.4a1.281,1.281,0,0,1-.329-.025.315.315,0,0,1-.246-.315.33.33,0,0,1,.234-.36.827.827,0,0,1,.262-.029h8.926a.818.818,0,0,1,.2.007.357.357,0,0,1,.315.368.352.352,0,0,1-.3.346,1.227,1.227,0,0,1-.3.011H10.562" transform="translate(-3.072 -15.966)"/>
        <path id="Trazado_16849" data-name="Trazado 16849" class="cls-6" d="M10.542,25.127H6.048c-.343,0-.458-.09-.458-.339a.3.3,0,0,1,.26-.337l.029,0a2.386,2.386,0,0,1,.266,0h8.987c.264.009.389.118.395.342s-.115.338-.392.339q-2.3,0-4.592,0" transform="translate(-3.072 -13.438)"/>
        <path id="Trazado_16850" data-name="Trazado 16850" class="cls-6" d="M8.87,12.833A4.071,4.071,0,0,1,4.657,8.91q-.005-.165,0-.33a4.215,4.215,0,0,1,8.428.032,4.066,4.066,0,0,1-3.905,4.22q-.155.006-.312,0" transform="translate(-2.559 -2.442)"/>
        <path id="Trazado_16851" data-name="Trazado 16851" class="cls-7" d="M8.293,10.13a2.5,2.5,0,0,0-.978,1.776,3.224,3.224,0,0,1-.843-3.422A3.439,3.439,0,0,1,9.92,6.029a3.486,3.486,0,0,1,3.225,2.58,3.168,3.168,0,0,1-.887,3.287,2.518,2.518,0,0,0-.987-1.773,2,2,0,0,0,.483-1.849,2.107,2.107,0,0,0-.774-1.207,2.007,2.007,0,0,0-2.566.155,2.1,2.1,0,0,0-.119,2.908" transform="translate(-3.469 -3.312)"/>
        <path id="Trazado_16852" data-name="Trazado 16852" class="cls-4" d="M13.633,17.827c.059.225-.09.355-.336.458a3.558,3.558,0,0,1-2.932-.034.368.368,0,0,1-.256-.4,1.936,1.936,0,0,1,.724-1.571.37.37,0,0,1,.394-.068,1.79,1.79,0,0,0,1.269.011.419.419,0,0,1,.452.094,1.861,1.861,0,0,1,.684,1.513" transform="translate(-5.556 -8.895)"/>
        <path id="Trazado_16853" data-name="Trazado 16853" class="cls-8" d="M11.151,10.417A1.257,1.257,0,0,1,12.4,9.149h.049a1.285,1.285,0,1,1-1.3,1.272v0" transform="translate(-6.13 -5.029)"/>
      </g>
    </g>
  </g>
</svg>
