<svg xmlns="http://www.w3.org/2000/svg" xmlns:xlink="http://www.w3.org/1999/xlink" width="82" height="82" viewBox="0 0 82 82">
  <defs>
    <style>
      .cls-1 {
        fill: none;
      }

      .cls-2 {
        clip-path: url(#clip-iconREP);
      }

      .cls-3 {
        clip-path: url(#clip-path);
      }

      .cls-4 {
        fill: #fdfcfd;
      }

      .cls-5 {
        fill: #2e72b9;
      }

      .cls-6 {
        fill: #9bc8fe;
      }

      .cls-7 {
        clip-path: url(#clip-path-2);
      }

      .cls-8 {
        fill: #fff;
      }

      .cls-9 {
        fill: #2d72b9;
      }
    </style>
    <clipPath id="clip-path">
      <rect id="Rect치ngulo_11207" data-name="Rect치ngulo 11207" class="cls-1" width="63.969" height="72.522"/>
    </clipPath>
    <clipPath id="clip-path-2">
      <rect id="Rect치ngulo_11146" data-name="Rect치ngulo 11146" class="cls-1" width="44.507" height="42.354"/>
    </clipPath>
    <clipPath id="clip-iconREP">
      <rect width="82" height="82"/>
    </clipPath>
  </defs>
  <g id="iconREP" class="cls-2">
    <g id="Grupo_23008" data-name="Grupo 23008" transform="translate(11.554 4.739)">
      <g id="Grupo_22927" data-name="Grupo 22927" class="cls-3">
        <path id="Trazado_16855" data-name="Trazado 16855" class="cls-4" d="M7.9,2.76H49.076A5.141,5.141,0,0,1,54.218,7.9V66.4a5.14,5.14,0,0,1-5.14,5.14H7.9a5.14,5.14,0,0,1-5.14-5.14V7.9A5.139,5.139,0,0,1,7.9,2.76" transform="translate(-1.459 -1.457)"/>
        <path id="Trazado_16856" data-name="Trazado 16856" class="cls-5" d="M45.94,2.607a5.515,5.515,0,0,1,5.515,5.515V63.267a5.516,5.516,0,0,1-5.515,5.516H8.122a5.516,5.516,0,0,1-5.515-5.516V8.122A5.515,5.515,0,0,1,8.122,2.607ZM45.94,0H8.122A8.132,8.132,0,0,0,0,8.122V63.267A8.132,8.132,0,0,0,8.122,71.39H45.94a8.132,8.132,0,0,0,8.119-8.123V8.122A8.132,8.132,0,0,0,45.94,0"/>
        <path id="Trazado_16857" data-name="Trazado 16857" class="cls-5" d="M37.9,85.2H21.421a3.622,3.622,0,0,1-.773-.032.866.866,0,0,1-.752-.914.839.839,0,0,1,.731-.839,3.925,3.925,0,0,1,.773-.04H54.615c.172,0,.346-.008.518,0,.59.042,1.014.286.992.942-.02.6-.416.845-.971.876-.229.013-.46,0-.688,0H37.9" transform="translate(-10.5 -44.004)"/>
        <path id="Trazado_16858" data-name="Trazado 16858" class="cls-5" d="M38.057,101.606H21.58c-.231,0-.462.008-.688,0-.56-.032-.963-.305-.983-.885-.017-.63.412-.906,1-.951.171-.012.344,0,.518,0H54.65a3.4,3.4,0,0,1,.853.076.806.806,0,0,1,.643.814.83.83,0,0,1-.663.884,3.331,3.331,0,0,1-.855.057q-8.283.006-16.564,0" transform="translate(-13.56 -52.653)"/>
        <path id="Trazado_16859" data-name="Trazado 16859" class="cls-5" d="M31.182,118.036H21.451a4.113,4.113,0,0,1-.773-.034.857.857,0,0,1-.772-.893.877.877,0,0,1,.791-.884,3.086,3.086,0,0,1,.6-.029H41.115a3,3,0,0,1,.688.041.892.892,0,0,1-.02,1.754,3.607,3.607,0,0,1-.772.041H31.19" transform="translate(-13.558 -61.326)"/>
        <path id="Trazado_16863" data-name="Trazado 16863" class="cls-5" d="M69.046,106.429a15.662,15.662,0,0,1,1.521-11.972,15.842,15.842,0,0,1,6.7-6.274,16.5,16.5,0,0,1,7.319-1.537,15.563,15.563,0,1,1-15.411,20.131c-.036-.119-.085-.235-.129-.352" transform="translate(-36.145 -45.73)"/>
        <path id="Trazado_16864" data-name="Trazado 16864" class="cls-5" d="M83.505,117.7q-.278,0-.559-.008a16.064,16.064,0,0,1-14.787-11.32c-.023-.068-.048-.139-.076-.208l-.045-.123.431-.159-.444.123A16.167,16.167,0,0,1,76.5,87.192,16.877,16.877,0,0,1,84.046,85.6a16.051,16.051,0,0,1-.54,32.094M68.96,105.713c.073.189.105.275.135.363A15.073,15.073,0,1,0,84.02,86.58a15.886,15.886,0,0,0-7.1,1.493,15.191,15.191,0,0,0-7.961,17.639" transform="translate(-35.596 -45.179)"/>
        <path id="Trazado_16865" data-name="Trazado 16865" class="cls-6" d="M85.984,118.008a13.8,13.8,0,1,1,.066,0h-.066" transform="translate(-38.078 -47.677)"/>
        <path id="Trazado_16866" data-name="Trazado 16866" class="cls-4" d="M87.084,118.687a2.345,2.345,0,0,1-1.146-.3l-.415-.226a2.286,2.286,0,0,1-1.1-1.3,2.548,2.548,0,0,1-.012-1.641l.192-.547a8.5,8.5,0,0,1-.721-.947,7.244,7.244,0,0,1-.58-1.084l-.622-.091a2.352,2.352,0,0,1-1.433-.758,2.287,2.287,0,0,1-.6-1.5l-.019-.586a2.384,2.384,0,0,1,.459-1.511,2.227,2.227,0,0,1,1.385-.9l.706-.176a7.715,7.715,0,0,1,1.188-2.179l-.235-.69a2.237,2.237,0,0,1,.02-1.683,2.375,2.375,0,0,1,1.022-1.191l.481-.277a2.329,2.329,0,0,1,1.209-.334,2.4,2.4,0,0,1,.362.028,2.317,2.317,0,0,1,1.442.8l.4.462a7.245,7.245,0,0,1,1.192-.1,8.7,8.7,0,0,1,1.22.093l.354-.457a2.526,2.526,0,0,1,1.41-.892,2.293,2.293,0,0,1,.535-.063,2.334,2.334,0,0,1,1.144.3l.414.224a2.317,2.317,0,0,1,1.1,1.3,2.564,2.564,0,0,1,.014,1.643l-.193.549a8.4,8.4,0,0,1,.721.946,7.267,7.267,0,0,1,.581,1.084l.621.09a2.363,2.363,0,0,1,1.432.76,2.268,2.268,0,0,1,.6,1.5l.033.533a2.439,2.439,0,0,1-.467,1.55,2.219,2.219,0,0,1-1.416.916l-.708.165a7.9,7.9,0,0,1-.5,1.114,8.162,8.162,0,0,1-.683,1.047l.216.6.034.082a2.232,2.232,0,0,1,0,1.691,2.486,2.486,0,0,1-1.024,1.2l-.493.284a2.334,2.334,0,0,1-1.209.334,2.382,2.382,0,0,1-.361-.028,2.321,2.321,0,0,1-1.44-.79l-.4-.458a6.278,6.278,0,0,1-1.137.1h-.115a9.13,9.13,0,0,1-1.17-.1l-.351.454a2.545,2.545,0,0,1-1.407.893,2.314,2.314,0,0,1-.536.062M90.433,106.6a3.062,3.062,0,1,0,.735,6.034l.121-.037a3.06,3.06,0,0,0-.856-6" transform="translate(-42.554 -53.116)"/>
        <path id="Trazado_16867" data-name="Trazado 16867" class="cls-5" d="M92.725,100.525a1.382,1.382,0,0,1,.679.178l.428.232a1.382,1.382,0,0,1,.658.775,1.615,1.615,0,0,1,.011,1.044l-.379,1.074a7.448,7.448,0,0,1,1.012,1.234,6.266,6.266,0,0,1,.688,1.422l1.169.17a1.417,1.417,0,0,1,.866.458,1.332,1.332,0,0,1,.357.884l.034.572a1.472,1.472,0,0,1-.285.934,1.313,1.313,0,0,1-.834.548l-1.268.3a6.841,6.841,0,0,1-.589,1.46,7.179,7.179,0,0,1-.923,1.312l.44,1.225H94.8a1.3,1.3,0,0,1,0,.98,1.541,1.541,0,0,1-.637.751l-.477.275a1.415,1.415,0,0,1-.738.207,1.452,1.452,0,0,1-1.084-.489l-.775-.891a5.384,5.384,0,0,1-1.476.207h-.1a8.09,8.09,0,0,1-1.58-.2l-.7.912a1.584,1.584,0,0,1-.875.552,1.4,1.4,0,0,1-1-.142l-.426-.232a1.364,1.364,0,0,1-.659-.774,1.6,1.6,0,0,1-.011-1.044l.377-1.073a7.569,7.569,0,0,1-1.012-1.236,6.279,6.279,0,0,1-.687-1.42l-1.169-.171a1.417,1.417,0,0,1-.867-.456,1.348,1.348,0,0,1-.356-.886l-.02-.6a1.442,1.442,0,0,1,.277-.922,1.306,1.306,0,0,1,.828-.534l1.24-.309a7.247,7.247,0,0,1,.6-1.475,7.11,7.11,0,0,1,.917-1.3l-.413-1.212a1.3,1.3,0,0,1,.005-.993,1.447,1.447,0,0,1,.626-.739l.477-.275a1.417,1.417,0,0,1,.954-.191,1.386,1.386,0,0,1,.866.477l.777.889a6.27,6.27,0,0,1,1.539-.192h.027a7.474,7.474,0,0,1,1.587.181l.706-.912a1.563,1.563,0,0,1,.875-.55,1.369,1.369,0,0,1,.324-.039m-3.344,12.086a4,4,0,0,0,1.13-.163l0,0,.014,0a3.99,3.99,0,1,0-1.139.17m3.344-13.975a3.251,3.251,0,0,0-.758.089,3.468,3.468,0,0,0-1.918,1.21l-.009.011-.009.011-.027.035c-.252-.022-.506-.034-.759-.036h-.041q-.408,0-.814.041l-.072-.083A3.271,3.271,0,0,0,86.3,98.8a3.307,3.307,0,0,0-2.191.433l-.461.266a3.352,3.352,0,0,0-1.437,1.677,3.172,3.172,0,0,0-.024,2.34l.071.209c-.164.239-.316.487-.456.741s-.269.528-.382.8l-.213.053a3.175,3.175,0,0,0-1.949,1.277,3.342,3.342,0,0,0-.628,2.095l.019.578a3.232,3.232,0,0,0,.853,2.112,3.3,3.3,0,0,0,2,1.047l.11.016a8.153,8.153,0,0,0,.425.734q.212.323.447.626l-.01.029-.006.015,0,.015a3.507,3.507,0,0,0,.018,2.256,3.239,3.239,0,0,0,1.55,1.821l.407.222a3.284,3.284,0,0,0,2.353.326A3.484,3.484,0,0,0,88.7,117.28l.01-.013.01-.013.021-.027q.361.035.723.044h.144a7.312,7.312,0,0,0,.761-.04l.066.075a3.265,3.265,0,0,0,2.021,1.1,3.313,3.313,0,0,0,2.186-.433l.46-.265.016-.009.016-.009a3.451,3.451,0,0,0,1.418-1.673,3.165,3.165,0,0,0-.006-2.386l-.033-.081-.035-.1q.244-.359.453-.74t.369-.762l.232-.054a3.176,3.176,0,0,0,1.975-1.3,3.369,3.369,0,0,0,.631-2.105v-.033l-.033-.542a3.22,3.22,0,0,0-.851-2.078,3.313,3.313,0,0,0-2.007-1.054l-.1-.015a8.019,8.019,0,0,0-.426-.735q-.21-.321-.445-.623l.009-.027.007-.018.006-.018a3.523,3.523,0,0,0-.02-2.252,3.258,3.258,0,0,0-1.555-1.825l-.4-.219a3.274,3.274,0,0,0-1.591-.414m-3.344,12.086a2.132,2.132,0,0,1-2.034-1.526,2.111,2.111,0,0,1,2.032-2.709,2.12,2.12,0,0,1,2.027,1.519,2.112,2.112,0,0,1-1.412,2.62h0l-.025.008-.1.031a2.1,2.1,0,0,1-.478.055" transform="translate(-41.499 -52.06)"/>
      </g>
      <g id="Grupo_22807" data-name="Grupo 22807" transform="translate(6.456)">
        <g id="Grupo_22806" data-name="Grupo 22806" class="cls-7">
          <path id="Trazado_16760" data-name="Trazado 16760" class="cls-8" d="M12.278,52.021a4.532,4.532,0,0,0-4.532,4.532H16.81a4.532,4.532,0,0,0-4.532-4.532" transform="translate(-4.22 -28.343)"/>
          <path id="Trazado_16761" data-name="Trazado 16761" class="cls-8" d="M41.905,42.77a5.146,5.146,0,0,0-4.883,5.374h9.766a5.146,5.146,0,0,0-4.883-5.374" transform="translate(-20.171 -23.302)"/>
          <path id="Trazado_16762" data-name="Trazado 16762" class="cls-8" d="M72.325,57.771a4.776,4.776,0,0,0-4.532,4.988h9.064a4.776,4.776,0,0,0-4.532-4.988" transform="translate(-36.936 -31.475)"/>
          <path id="Trazado_16763" data-name="Trazado 16763" class="cls-8" d="M76.951,42.4A4.056,4.056,0,1,1,72.9,38.34,4.055,4.055,0,0,1,76.951,42.4" transform="translate(-37.506 -20.889)"/>
          <path id="Trazado_16764" data-name="Trazado 16764" class="cls-8" d="M46.951,26.439A4.056,4.056,0,1,1,42.9,22.383a4.055,4.055,0,0,1,4.056,4.056" transform="translate(-21.161 -12.195)"/>
          <path id="Trazado_16765" data-name="Trazado 16765" class="cls-8" d="M16.951,35.9A4.056,4.056,0,1,1,12.9,31.84,4.055,4.055,0,0,1,16.951,35.9" transform="translate(-4.816 -17.348)"/>
          <path id="Trazado_16766" data-name="Trazado 16766" class="cls-6" d="M5.571,63.25h9.1a1.821,1.821,0,0,1,1.821,1.821v9.1a1.821,1.821,0,0,1-1.821,1.821h-9.1A1.821,1.821,0,0,1,3.75,74.174v-9.1A1.821,1.821,0,0,1,5.571,63.25" transform="translate(-2.043 -34.461)"/>
          <path id="Trazado_16767" data-name="Trazado 16767" class="cls-6" d="M35.571,55.25h9.1a1.821,1.821,0,0,1,1.821,1.821V69.815a1.821,1.821,0,0,1-1.821,1.821h-9.1a1.821,1.821,0,0,1-1.821-1.821V57.071a1.821,1.821,0,0,1,1.821-1.821" transform="translate(-18.388 -30.102)"/>
          <path id="Trazado_16768" data-name="Trazado 16768" class="cls-6" d="M65.571,69.25h9.1a1.821,1.821,0,0,1,1.821,1.821v6.372a1.821,1.821,0,0,1-1.821,1.821h-9.1a1.821,1.821,0,0,1-1.821-1.821V71.071a1.821,1.821,0,0,1,1.821-1.821" transform="translate(-34.733 -37.73)"/>
          <path id="Trazado_16769" data-name="Trazado 16769" class="cls-9" d="M42.672,51.681h-.334a2.605,2.605,0,0,0,.22-1.048V44.261a2.621,2.621,0,0,0-1.854-2.5,5.4,5.4,0,0,0-3.153-4.7,5.121,5.121,0,1,0-4.322,0,5.4,5.4,0,0,0-3.153,4.7,2.616,2.616,0,0,0-1.172.754V37.889a2.621,2.621,0,0,0-1.858-2.5.781.781,0,0,0,.037-.227,5.556,5.556,0,0,0-3.167-5.368,5.121,5.121,0,1,0-4.363,0,5.556,5.556,0,0,0-3.167,5.368.781.781,0,0,0,.037.227,2.621,2.621,0,0,0-1.858,2.5v1.885a2.621,2.621,0,0,0-1.144-.738,5.545,5.545,0,0,0-2.946-5.045,5.121,5.121,0,1,0-4.791,0,5.545,5.545,0,0,0-2.946,5.045A2.622,2.622,0,0,0,.91,41.53v9.1a2.605,2.605,0,0,0,.22,1.048H.8a.8.8,0,1,0,0,1.593H42.672a.8.8,0,1,0,0-1.593M31.862,32.427a3.528,3.528,0,1,1,3.528,3.528,3.532,3.532,0,0,1-3.528-3.528m3.528,5.8a3.649,3.649,0,0,1,3.7,3.414h-7.4a3.649,3.649,0,0,1,3.7-3.414m-5.576,6.031a1.025,1.025,0,0,1,1.024-1.024h9.1a1.025,1.025,0,0,1,1.024,1.024v6.372a1.025,1.025,0,0,1-1.024,1.024h-9.1a1.025,1.025,0,0,1-1.024-1.024Zm-11.607-19.1a3.528,3.528,0,1,1,3.528,3.528,3.532,3.532,0,0,1-3.528-3.528m-.228,9.995c0-2.518,1.509-4.21,3.755-4.21s3.755,1.692,3.755,4.21a.777.777,0,0,0,.011.114H17.968a.777.777,0,0,0,.011-.114m-1.821,2.731a1.025,1.025,0,0,1,1.024-1.024h9.1a1.025,1.025,0,0,1,1.024,1.024V50.634a1.025,1.025,0,0,1-1.024,1.024h-9.1a1.025,1.025,0,0,1-1.024-1.024ZM4.552,29.468A3.528,3.528,0,1,1,8.079,33a3.532,3.532,0,0,1-3.528-3.528m3.528,5.576c2.142,0,3.611,1.542,3.742,3.869H4.337c.132-2.327,1.6-3.869,3.742-3.869M2.5,41.53a1.025,1.025,0,0,1,1.024-1.024h9.1a1.025,1.025,0,0,1,1.024,1.024v9.1a1.025,1.025,0,0,1-1.024,1.024h-9.1A1.025,1.025,0,0,1,2.5,50.634Z" transform="translate(0 -10.92)"/>
          <path id="Trazado_16806" data-name="Trazado 16806" class="cls-4" d="M33.248,44.229a.826.826,0,0,1-.637-.268c-.448-.449-.9-.891-1.343-1.347a.852.852,0,0,1-.036-1.252.84.84,0,0,1,1.251.041c.9.97.948.572,1.576-.043.757-.743,1.5-1.5,2.254-2.249a.874.874,0,1,1,1.215,1.224q-1.764,1.772-3.535,3.539a.931.931,0,0,1-.745.354" transform="translate(2.448 -33.881)"/>
        </g>
      </g>
    </g>
  </g>
</svg>
