<svg xmlns="http://www.w3.org/2000/svg" xmlns:xlink="http://www.w3.org/1999/xlink" width="82" height="82" viewBox="0 0 82 82">
  <defs>
    <style>
      .cls-1 {
        fill: none;
      }

      .cls-2 {
        clip-path: url(#clip-iconSCIAP);
      }

      .cls-3 {
        clip-path: url(#clip-path);
      }

      .cls-4 {
        fill: #fdfcfd;
      }

      .cls-5 {
        fill: #2e72b9;
      }

      .cls-6 {
        clip-path: url(#clip-path-2);
      }

      .cls-7 {
        fill: #9bc8fe;
      }

      .cls-8 {
        fill: #276fba;
      }
    </style>
    <clipPath id="clip-path">
      <rect id="Rect치ngulo_11229" data-name="Rect치ngulo 11229" class="cls-1" width="62.868" height="71.273" transform="translate(0 0)"/>
    </clipPath>
    <clipPath id="clip-path-2">
      <rect id="Rect치ngulo_11230" data-name="Rect치ngulo 11230" class="cls-1" width="77.046" height="71.273" transform="translate(0 0)"/>
    </clipPath>
    <clipPath id="clip-iconSCIAP">
      <rect width="82" height="82"/>
    </clipPath>
  </defs>
  <g id="iconSCIAP" class="cls-2">
    <g id="Grupo_23034" data-name="Grupo 23034" transform="translate(2.477 4.739)">
      <g id="Grupo_22997" data-name="Grupo 22997">
        <g id="Grupo_22996" data-name="Grupo 22996" class="cls-3">
          <path id="Trazado_17112" data-name="Trazado 17112" class="cls-4" d="M6.334,1.281H46.8a5.053,5.053,0,0,1,5.053,5.053v57.5A5.052,5.052,0,0,1,46.8,68.881H6.335a5.052,5.052,0,0,1-5.052-5.052V6.332A5.05,5.05,0,0,1,6.334,1.281"/>
          <path id="Trazado_17113" data-name="Trazado 17113" class="cls-5" d="M45.149,2.563a5.42,5.42,0,0,1,5.42,5.42v54.2a5.421,5.421,0,0,1-5.42,5.421H7.982a5.421,5.421,0,0,1-5.42-5.421V7.982a5.42,5.42,0,0,1,5.42-5.42Zm0-2.563H7.982A7.993,7.993,0,0,0,0,7.982v54.2a7.993,7.993,0,0,0,7.982,7.983H45.149a7.992,7.992,0,0,0,7.979-7.983V7.982A7.992,7.992,0,0,0,45.149,0"/>
          <path id="Trazado_17114" data-name="Trazado 17114" class="cls-5" d="M26.928,40.488h-16.2a3.576,3.576,0,0,1-.76-.031.851.851,0,0,1-.739-.9.824.824,0,0,1,.719-.824,3.863,3.863,0,0,1,.76-.039H43.357c.169,0,.34-.008.509,0,.58.041,1,.281.975.925-.019.588-.408.831-.954.861-.225.013-.452,0-.676,0H26.928"/>
          <path id="Trazado_17115" data-name="Trazado 17115" class="cls-5" d="M27.076,48.11H10.882c-.227,0-.454.008-.676,0-.55-.031-.947-.3-.966-.87-.016-.619.4-.891.985-.934.168-.012.338,0,.509,0h32.65a3.324,3.324,0,0,1,.838.074.793.793,0,0,1,.632.8.815.815,0,0,1-.651.869,3.242,3.242,0,0,1-.84.056q-8.14.006-16.279,0"/>
          <path id="Trazado_17116" data-name="Trazado 17116" class="cls-5" d="M20.319,55.73H10.756A4.024,4.024,0,0,1,10,55.7a.842.842,0,0,1-.758-.878.862.862,0,0,1,.778-.869,3,3,0,0,1,.591-.028H30.082a2.944,2.944,0,0,1,.676.04.877.877,0,0,1-.019,1.724,3.565,3.565,0,0,1-.758.04H20.332"/>
          <path id="Trazado_17117" data-name="Trazado 17117" class="cls-5" d="M26.928,25.243h-16.2a3.576,3.576,0,0,1-.76-.031.851.851,0,0,1-.739-.9.824.824,0,0,1,.719-.824,3.863,3.863,0,0,1,.76-.039H43.357c.169,0,.34-.008.509,0,.58.041,1,.281.975.925-.019.588-.408.831-.954.861-.225.013-.452,0-.676,0H26.928"/>
          <path id="Trazado_17118" data-name="Trazado 17118" class="cls-5" d="M27.076,32.866H10.882c-.227,0-.454.008-.676,0-.55-.031-.947-.3-.966-.87-.016-.619.4-.891.985-.934.168-.012.338,0,.509,0h32.65a3.324,3.324,0,0,1,.838.074.793.793,0,0,1,.632.8.815.815,0,0,1-.651.869,3.242,3.242,0,0,1-.84.056q-8.14.006-16.279,0"/>
          <path id="Trazado_17119" data-name="Trazado 17119" class="cls-5" d="M26.928,17.621h-16.2a3.576,3.576,0,0,1-.76-.031.851.851,0,0,1-.739-.9.824.824,0,0,1,.719-.824,3.863,3.863,0,0,1,.76-.039H43.357c.169,0,.34-.008.509,0,.58.041,1,.281.975.925-.019.588-.408.831-.954.861-.225.013-.452,0-.676,0H26.928"/>
        </g>
      </g>
      <g id="Grupo_22999" data-name="Grupo 22999">
        <g id="Grupo_22998" data-name="Grupo 22998" class="cls-6">
          <path id="Trazado_17120" data-name="Trazado 17120" class="cls-7" d="M51.764,69.542a4.336,4.336,0,0,1-4.326-4.326V62.89H45.112a4.336,4.336,0,0,1-4.326-4.327V51.911a5.777,5.777,0,0,1,1.753-4.268,5.837,5.837,0,0,1,4.236-1.721h.663V41.933a4.336,4.336,0,0,1,4.326-4.327h13.3a4.338,4.338,0,0,1,4.326,4.327v3.989h.663a5.9,5.9,0,0,1,5.989,5.989v6.652A4.336,4.336,0,0,1,71.72,62.89H69.394v2.326a4.338,4.338,0,0,1-4.326,4.326Zm12.3-9.979h-11.3v4.652h11.3Zm4.326-7.484a.634.634,0,1,0,.479.186.62.62,0,0,0-.479-.186"/>
          <path id="Trazado_17121" data-name="Trazado 17121" class="cls-8" d="M65.068,38.606a3.336,3.336,0,0,1,3.326,3.326v3.326H48.437V41.932a3.336,3.336,0,0,1,3.326-3.326Zm4.989,8.315a4.9,4.9,0,0,1,4.989,4.989v6.653a3.336,3.336,0,0,1-3.326,3.326H68.394v3.326a3.336,3.336,0,0,1-3.326,3.326H51.763a3.336,3.336,0,0,1-3.326-3.326V61.889H45.111a3.336,3.336,0,0,1-3.326-3.326V51.91a4.791,4.791,0,0,1,1.455-3.554,4.844,4.844,0,0,1,3.534-1.435H70.057M68.394,54.4a1.633,1.633,0,1,0-1.185-.478,1.609,1.609,0,0,0,1.185.478M51.763,65.215H65.068V58.563H51.763ZM65.068,36.606H51.763a5.336,5.336,0,0,0-5.326,5.326v3a6.93,6.93,0,0,0-6.652,6.982v6.653a5.336,5.336,0,0,0,5.326,5.326h1.326v1.326a5.336,5.336,0,0,0,5.326,5.326H65.068a5.336,5.336,0,0,0,5.326-5.326V63.889H71.72a5.336,5.336,0,0,0,5.326-5.326V51.91a6.895,6.895,0,0,0-6.652-6.982v-3a5.336,5.336,0,0,0-5.326-5.326M53.763,60.563h9.305v2.652H53.763Z"/>
        </g>
      </g>
    </g>
  </g>
</svg>
