<svg xmlns="http://www.w3.org/2000/svg" xmlns:xlink="http://www.w3.org/1999/xlink" width="20" height="20" viewBox="0 0 20 20">
  <defs>
    <style>
      .cls-1 {
        fill: none;
      }

      .cls-2 {
        clip-path: url(#clip-iconREP2);
      }

      .cls-3 {
        clip-path: url(#clip-path);
      }

      .cls-4 {
        fill: #fdfcfd;
      }

      .cls-5 {
        fill: #2e72b9;
      }

      .cls-6 {
        fill: #9bc8fe;
      }

      .cls-7 {
        clip-path: url(#clip-path-2);
      }

      .cls-8 {
        fill: #fff;
      }

      .cls-9 {
        fill: #2d72b9;
      }
    </style>
    <clipPath id="clip-path">
      <rect id="Rect치ngulo_11207" data-name="Rect치ngulo 11207" class="cls-1" width="16.309" height="18.489"/>
    </clipPath>
    <clipPath id="clip-path-2">
      <rect id="Rect치ngulo_11146" data-name="Rect치ngulo 11146" class="cls-1" width="11.347" height="10.798"/>
    </clipPath>
    <clipPath id="clip-iconREP2">
      <rect width="20" height="20"/>
    </clipPath>
  </defs>
  <g id="iconREP2" class="cls-2">
    <g id="Grupo_23037" data-name="Grupo 23037" transform="translate(1.846 0.691)">
      <g id="Grupo_22927" data-name="Grupo 22927" class="cls-3">
        <path id="Trazado_16855" data-name="Trazado 16855" class="cls-4" d="M4.074,2.76h10.5a1.311,1.311,0,0,1,1.311,1.311V18.986A1.311,1.311,0,0,1,14.571,20.3H4.075a1.311,1.311,0,0,1-1.311-1.311V4.07a1.31,1.31,0,0,1,1.31-1.31" transform="translate(-2.431 -2.428)"/>
        <path id="Trazado_16856" data-name="Trazado 16856" class="cls-5" d="M11.712.665a1.406,1.406,0,0,1,1.406,1.406V16.13a1.406,1.406,0,0,1-1.406,1.406H2.071A1.406,1.406,0,0,1,.665,16.13V2.071A1.406,1.406,0,0,1,2.071.665Zm0-.665H2.071A2.073,2.073,0,0,0,0,2.071V16.13A2.073,2.073,0,0,0,2.071,18.2h9.641a2.073,2.073,0,0,0,2.07-2.071V2.071A2.073,2.073,0,0,0,11.712,0"/>
        <path id="Trazado_16857" data-name="Trazado 16857" class="cls-5" d="M24.484,83.838h-4.2a.923.923,0,0,1-.2-.008.221.221,0,0,1-.192-.233.214.214,0,0,1,.186-.214,1,1,0,0,1,.2-.01h8.468c.044,0,.088,0,.132,0,.15.011.259.073.253.24s-.106.215-.248.223c-.058,0-.117,0-.175,0H24.484" transform="translate(-17.498 -73.335)"/>
        <path id="Trazado_16858" data-name="Trazado 16858" class="cls-5" d="M24.535,100.23h-4.2c-.059,0-.118,0-.175,0-.143-.008-.246-.078-.251-.226s.1-.231.256-.242c.044,0,.088,0,.132,0h8.47a.868.868,0,0,1,.217.019.206.206,0,0,1,.164.208.212.212,0,0,1-.169.225.849.849,0,0,1-.218.015H24.537" transform="translate(-18.29 -87.749)"/>
        <path id="Trazado_16859" data-name="Trazado 16859" class="cls-5" d="M22.78,116.661H20.3a1.049,1.049,0,0,1-.2-.009.219.219,0,0,1-.2-.228.223.223,0,0,1,.2-.225.787.787,0,0,1,.153-.007h5.052a.765.765,0,0,1,.175.01.227.227,0,0,1-.005.447.919.919,0,0,1-.2.01h-2.5" transform="translate(-18.287 -102.203)"/>
        <path id="Trazado_16863" data-name="Trazado 16863" class="cls-5" d="M68.626,91.687a3.993,3.993,0,0,1,.388-3.052,4.039,4.039,0,0,1,1.708-1.6,4.207,4.207,0,0,1,1.866-.392,3.968,3.968,0,1,1-3.929,5.132c-.009-.03-.022-.06-.033-.09" transform="translate(-60.238 -76.212)"/>
        <path id="Trazado_16864" data-name="Trazado 16864" class="cls-5" d="M71.537,93.783l-.143,0a4.1,4.1,0,0,1-3.77-2.886c-.006-.017-.012-.035-.019-.053l-.011-.031.11-.041-.113.031A4.122,4.122,0,0,1,69.751,86a4.3,4.3,0,0,1,1.924-.405,4.092,4.092,0,0,1-.138,8.182m-3.709-3.055c.019.048.027.07.034.092a3.843,3.843,0,1,0,3.805-4.97,4.05,4.05,0,0,0-1.81.381,3.873,3.873,0,0,0-2.03,4.5" transform="translate(-59.323 -75.294)"/>
        <path id="Trazado_16865" data-name="Trazado 16865" class="cls-6" d="M75.673,97.388a3.519,3.519,0,1,1,.017,0h-.017" transform="translate(-63.46 -79.457)"/>
        <path id="Trazado_16866" data-name="Trazado 16866" class="cls-4" d="M82.271,105.238a.6.6,0,0,1-.292-.077l-.106-.058a.583.583,0,0,1-.281-.332.65.65,0,0,1,0-.418l.049-.14a2.167,2.167,0,0,1-.184-.241,1.847,1.847,0,0,1-.148-.276l-.159-.023a.6.6,0,0,1-.365-.193.583.583,0,0,1-.153-.382l0-.15a.608.608,0,0,1,.117-.385.568.568,0,0,1,.353-.229l.18-.045a1.967,1.967,0,0,1,.3-.555l-.06-.176a.57.57,0,0,1,.005-.429.606.606,0,0,1,.261-.3l.123-.071a.594.594,0,0,1,.308-.085.612.612,0,0,1,.092.007.591.591,0,0,1,.368.2l.1.118a1.847,1.847,0,0,1,.3-.025,2.218,2.218,0,0,1,.311.024l.09-.117a.644.644,0,0,1,.36-.227.585.585,0,0,1,.136-.016.6.6,0,0,1,.292.077l.105.057a.591.591,0,0,1,.281.332.654.654,0,0,1,0,.419l-.049.14a2.142,2.142,0,0,1,.184.241,1.853,1.853,0,0,1,.148.276l.158.023a.6.6,0,0,1,.365.194.578.578,0,0,1,.153.382l.008.136a.622.622,0,0,1-.119.4.566.566,0,0,1-.361.234l-.181.042a2.013,2.013,0,0,1-.127.284,2.08,2.08,0,0,1-.174.267l.055.153.009.021a.569.569,0,0,1,0,.431.634.634,0,0,1-.261.307l-.126.072a.6.6,0,0,1-.308.085.607.607,0,0,1-.092-.007.592.592,0,0,1-.367-.2l-.1-.117a1.6,1.6,0,0,1-.29.026h-.029a2.328,2.328,0,0,1-.3-.027l-.089.116a.649.649,0,0,1-.359.228.589.589,0,0,1-.137.016m.854-3.082a.781.781,0,1,0,.187,1.538l.031-.009a.78.78,0,0,0-.218-1.529" transform="translate(-70.918 -88.521)"/>
        <path id="Trazado_16867" data-name="Trazado 16867" class="cls-5" d="M82.22,99.118a.353.353,0,0,1,.173.046l.109.059a.352.352,0,0,1,.168.2.412.412,0,0,1,0,.266l-.1.274a1.9,1.9,0,0,1,.258.315,1.6,1.6,0,0,1,.175.362l.3.043a.361.361,0,0,1,.221.117.339.339,0,0,1,.091.225l.009.146a.375.375,0,0,1-.073.238.335.335,0,0,1-.213.14l-.323.075a1.745,1.745,0,0,1-.15.372,1.83,1.83,0,0,1-.235.335l.112.312h0a.332.332,0,0,1,0,.25.393.393,0,0,1-.162.192l-.122.07a.361.361,0,0,1-.188.053A.37.37,0,0,1,82,103.08l-.2-.227a1.373,1.373,0,0,1-.376.053H81.4a2.062,2.062,0,0,1-.4-.05l-.18.233a.4.4,0,0,1-.223.141.356.356,0,0,1-.256-.036l-.109-.059a.348.348,0,0,1-.168-.2.409.409,0,0,1,0-.266l.1-.274a1.93,1.93,0,0,1-.258-.315,1.6,1.6,0,0,1-.175-.362l-.3-.044a.361.361,0,0,1-.221-.116.344.344,0,0,1-.091-.226l-.005-.153a.368.368,0,0,1,.071-.235.333.333,0,0,1,.211-.136l.316-.079a1.848,1.848,0,0,1,.152-.376,1.813,1.813,0,0,1,.234-.331l-.105-.309a.333.333,0,0,1,0-.253.369.369,0,0,1,.16-.188l.122-.07a.361.361,0,0,1,.243-.049.353.353,0,0,1,.221.122l.2.227a1.6,1.6,0,0,1,.392-.049h.007a1.905,1.905,0,0,1,.4.046l.18-.233a.4.4,0,0,1,.223-.14.349.349,0,0,1,.083-.01m-.853,3.081a1.021,1.021,0,0,0,.288-.042h0a1.017,1.017,0,1,0-.29.043m.853-3.563a.829.829,0,0,0-.193.023.884.884,0,0,0-.489.308l0,0,0,0-.007.009c-.064-.006-.129-.009-.193-.009h-.01q-.1,0-.208.01l-.018-.021a.834.834,0,0,0-.515-.284.843.843,0,0,0-.559.11l-.117.068a.855.855,0,0,0-.366.427.809.809,0,0,0-.006.6l.018.053c-.042.061-.081.124-.116.189s-.069.135-.1.2l-.054.014a.81.81,0,0,0-.5.326.852.852,0,0,0-.16.534l0,.147a.824.824,0,0,0,.218.538.841.841,0,0,0,.509.267l.028,0a2.078,2.078,0,0,0,.108.187q.054.082.114.16l0,.007v.008a.894.894,0,0,0,0,.575.826.826,0,0,0,.4.464l.1.057a.837.837,0,0,0,.6.083.888.888,0,0,0,.488-.308l0,0,0,0,.005-.007q.092.009.184.011h.037a1.863,1.863,0,0,0,.194-.01l.017.019a.832.832,0,0,0,.515.281.845.845,0,0,0,.557-.111l.117-.068,0,0,0,0a.88.88,0,0,0,.361-.427.807.807,0,0,0,0-.608l-.008-.021-.009-.025q.062-.092.115-.189t.094-.194l.059-.014a.81.81,0,0,0,.5-.332.859.859,0,0,0,.161-.537v-.008L84.1,101a.821.821,0,0,0-.217-.53.845.845,0,0,0-.512-.269l-.026,0a2.042,2.042,0,0,0-.109-.187q-.053-.082-.113-.159l0-.007,0,0,0,0a.9.9,0,0,0-.005-.574.831.831,0,0,0-.4-.465l-.1-.056a.835.835,0,0,0-.406-.105m-.853,3.081a.543.543,0,0,1-.518-.389.538.538,0,0,1,.518-.691.54.54,0,0,1,.517.387.538.538,0,0,1-.36.668h0l-.006,0-.027.008a.537.537,0,0,1-.122.014" transform="translate(-69.16 -86.762)"/>
      </g>
      <g id="Grupo_22807" data-name="Grupo 22807" transform="translate(1.646)">
        <g id="Grupo_22806" data-name="Grupo 22806" class="cls-7">
          <path id="Trazado_16760" data-name="Trazado 16760" class="cls-8" d="M8.9,52.021a1.155,1.155,0,0,0-1.155,1.155h2.311A1.155,1.155,0,0,0,8.9,52.021" transform="translate(-6.847 -45.984)"/>
          <path id="Trazado_16761" data-name="Trazado 16761" class="cls-8" d="M38.267,42.77a1.312,1.312,0,0,0-1.245,1.37h2.49a1.312,1.312,0,0,0-1.245-1.37" transform="translate(-32.726 -37.807)"/>
          <path id="Trazado_16762" data-name="Trazado 16762" class="cls-8" d="M68.948,57.771a1.218,1.218,0,0,0-1.155,1.272H70.1a1.218,1.218,0,0,0-1.155-1.272" transform="translate(-59.926 -51.067)"/>
          <path id="Trazado_16763" data-name="Trazado 16763" class="cls-8" d="M70.908,39.374a1.034,1.034,0,1,1-1.034-1.034,1.034,1.034,0,0,1,1.034,1.034" transform="translate(-60.852 -33.891)"/>
          <path id="Trazado_16764" data-name="Trazado 16764" class="cls-8" d="M40.908,23.417a1.034,1.034,0,1,1-1.034-1.034,1.034,1.034,0,0,1,1.034,1.034" transform="translate(-34.333 -19.786)"/>
          <path id="Trazado_16765" data-name="Trazado 16765" class="cls-8" d="M10.908,32.874A1.034,1.034,0,1,1,9.874,31.84a1.034,1.034,0,0,1,1.034,1.034" transform="translate(-7.814 -28.145)"/>
          <path id="Trazado_16766" data-name="Trazado 16766" class="cls-6" d="M4.214,63.25H6.535A.464.464,0,0,1,7,63.714v2.321a.464.464,0,0,1-.464.464H4.214a.464.464,0,0,1-.464-.464V63.714a.464.464,0,0,1,.464-.464" transform="translate(-3.315 -55.91)"/>
          <path id="Trazado_16767" data-name="Trazado 16767" class="cls-6" d="M34.214,55.25h2.321a.464.464,0,0,1,.464.464v3.249a.464.464,0,0,1-.464.464H34.214a.464.464,0,0,1-.464-.464V55.714a.464.464,0,0,1,.464-.464" transform="translate(-29.834 -48.839)"/>
          <path id="Trazado_16768" data-name="Trazado 16768" class="cls-6" d="M64.214,69.25h2.321a.464.464,0,0,1,.464.464v1.625a.464.464,0,0,1-.464.464H64.214a.464.464,0,0,1-.464-.464V69.714a.464.464,0,0,1,.464-.464" transform="translate(-56.352 -61.214)"/>
          <path id="Trazado_16769" data-name="Trazado 16769" class="cls-9" d="M10.879,28.109h-.085a.664.664,0,0,0,.056-.267V26.217a.668.668,0,0,0-.473-.638,1.378,1.378,0,0,0-.8-1.2,1.305,1.305,0,1,0-1.1,0,1.378,1.378,0,0,0-.8,1.2.667.667,0,0,0-.3.192V24.593a.668.668,0,0,0-.474-.638A.2.2,0,0,0,6.9,23.9,1.417,1.417,0,0,0,6.1,22.528a1.305,1.305,0,1,0-1.112,0A1.417,1.417,0,0,0,4.178,23.9a.2.2,0,0,0,.009.058.668.668,0,0,0-.474.638v.481a.668.668,0,0,0-.292-.188A1.414,1.414,0,0,0,2.671,23.6a1.305,1.305,0,1,0-1.221,0A1.414,1.414,0,0,0,.7,24.885a.668.668,0,0,0-.466.636v2.321a.664.664,0,0,0,.056.267H.2a.2.2,0,1,0,0,.406H10.879a.2.2,0,1,0,0-.406M8.123,23.2a.9.9,0,1,1,.9.9.9.9,0,0,1-.9-.9m.9,1.48a.93.93,0,0,1,.943.87H8.079a.93.93,0,0,1,.943-.87M7.6,26.217a.261.261,0,0,1,.261-.261h2.321a.261.261,0,0,1,.261.261v1.625a.261.261,0,0,1-.261.261H7.862a.261.261,0,0,1-.261-.261ZM4.642,21.348a.9.9,0,1,1,.9.9.9.9,0,0,1-.9-.9M4.584,23.9a.964.964,0,1,1,1.915,0,.2.2,0,0,0,0,.029H4.581a.2.2,0,0,0,0-.029m-.464.7a.261.261,0,0,1,.261-.261H6.7a.261.261,0,0,1,.261.261v3.249A.261.261,0,0,1,6.7,28.1H4.381a.261.261,0,0,1-.261-.261ZM1.16,22.446a.9.9,0,1,1,.9.9.9.9,0,0,1-.9-.9m.9,1.422a.949.949,0,0,1,.954.986H1.106a.949.949,0,0,1,.954-.986M.638,25.521A.261.261,0,0,1,.9,25.26H3.22a.261.261,0,0,1,.261.261v2.321a.261.261,0,0,1-.261.261H.9a.261.261,0,0,1-.261-.261Z" transform="translate(0 -17.717)"/>
          <path id="Trazado_16806" data-name="Trazado 16806" class="cls-4" d="M31.555,40.146a.211.211,0,0,1-.162-.068c-.114-.114-.23-.227-.342-.343a.217.217,0,0,1-.009-.319.214.214,0,0,1,.319.01c.229.247.242.146.4-.011.193-.189.383-.383.575-.573a.223.223,0,1,1,.31.312l-.9.9a.237.237,0,0,1-.19.09" transform="translate(-22.454 -37.508)"/>
        </g>
      </g>
    </g>
  </g>
</svg>
