<svg xmlns="http://www.w3.org/2000/svg" xmlns:xlink="http://www.w3.org/1999/xlink" width="82" height="82" viewBox="0 0 82 82">
  <defs>
    <style>
      .cls-1 {
        fill: none;
      }

      .cls-2 {
        clip-path: url(#clip-iconSAM);
      }

      .cls-3 {
        clip-path: url(#clip-path);
      }

      .cls-4 {
        fill: #2a70b8;
      }

      .cls-5 {
        fill: #fdfcfd;
      }

      .cls-6 {
        fill: #9bc8fe;
      }

      .cls-7 {
        fill: #fefefe;
      }

      .cls-8 {
        fill: #2e72b9;
      }
    </style>
    <clipPath id="clip-path">
      <rect id="Rectángulo_11222" data-name="Rectángulo 11222" class="cls-1" width="70.803" height="43.205"/>
    </clipPath>
    <clipPath id="clip-iconSAM">
      <rect width="82" height="82"/>
    </clipPath>
  </defs>
  <g id="iconSAM" class="cls-2">
    <g id="Grupo_22962" data-name="Grupo 22962" transform="translate(5.895 21.284)">
      <g id="Grupo_22961" data-name="Grupo 22961" class="cls-3" transform="translate(0 0)">
        <path id="Trazado_17017" data-name="Trazado 17017" class="cls-4" d="M31.7,37.083q-13.838,0-27.677.008a3.876,3.876,0,0,1-2.926-1.022A3.778,3.778,0,0,1,.005,33.241q.013-13.1,0-26.188V3.778A3.59,3.59,0,0,1,3.4.006a3.238,3.238,0,0,1,.4,0h55.8a3.587,3.587,0,0,1,3.78,3.384,3.15,3.15,0,0,1,0,.4q.008,14.732,0,29.463a3.533,3.533,0,0,1-3.794,3.819c-5.729.014-11.461,0-17.19,0H31.7" transform="translate(0 -0.001)"/>
        <path id="Trazado_17018" data-name="Trazado 17018" class="cls-5" d="M30.7.6C39.95.6,49.2.617,58.449.575a2.189,2.189,0,0,1,2.294,2.081,1.531,1.531,0,0,1,0,.2q-.072,14.656,0,29.311a2.255,2.255,0,0,1-2.14,2.359c-.067,0-.132,0-.2,0q-27.749-.021-55.5,0A2.26,2.26,0,0,1,.573,32.355c0-.065,0-.129,0-.191q.072-14.656,0-29.311A2.194,2.194,0,0,1,2.685.575c.062,0,.126,0,.191,0C12.149.62,21.425.6,30.7.6" transform="translate(1.034 1.034)"/>
        <path id="Trazado_17019" data-name="Trazado 17019" class="cls-4" d="M21.731,9.852h8.355a1.9,1.9,0,0,1,.418.014.776.776,0,0,1,.48.873.8.8,0,0,1-.34.635.807.807,0,0,1-.511.1H13.267a.757.757,0,0,1-.362-.037.8.8,0,0,1-.424-.826c0-.39.211-.716.483-.747a1.9,1.9,0,0,1,.418-.014Z" transform="translate(22.566 17.805)"/>
        <path id="Trazado_17020" data-name="Trazado 17020" class="cls-4" d="M21.786,8.59H30.3c.337,0,.635.045.691.643a.762.762,0,0,1-.359.854.331.331,0,0,1-.115.02,2.286,2.286,0,0,1-.416.011H13.386a2.621,2.621,0,0,1-.469-.017c-.258-.022-.458-.343-.441-.713l.006-.065c-.022-.359.163-.68.413-.713l.011,0a2.909,2.909,0,0,1,.469-.014h8.408" transform="translate(22.559 15.531)"/>
        <path id="Trazado_17021" data-name="Trazado 17021" class="cls-4" d="M21.079,18.887a8.046,8.046,0,0,1-8.327-7.754c-.008-.216-.006-.432,0-.652a8.331,8.331,0,0,1,16.66.065,8.038,8.038,0,0,1-7.72,8.341q-.308.013-.615,0" transform="translate(23.052 4.161)"/>
        <path id="Trazado_17022" data-name="Trazado 17022" class="cls-6" d="M15.259,14.428c-1.722-1.191-2.469-4.308-1.665-6.763a6.8,6.8,0,0,1,6.813-4.856,6.892,6.892,0,0,1,6.375,5.1c.831,2.921-.525,5.721-1.752,6.5a4.969,4.969,0,0,0-1.952-3.5,3.945,3.945,0,0,0,.955-3.654A4.138,4.138,0,0,0,22.5,4.862a3.965,3.965,0,0,0-5.072.306c-1.592,1.528-1.691,3.584-.236,5.749" transform="translate(24 5.068)"/>
        <path id="Trazado_17023" data-name="Trazado 17023" class="cls-7" d="M21.445,9.277c.118.444-.177.7-.663.9a7.038,7.038,0,0,1-5.8-.067.728.728,0,0,1-.506-.795,3.835,3.835,0,0,1,1.432-3.106.727.727,0,0,1,.778-.135A3.539,3.539,0,0,0,19.2,6.1a.828.828,0,0,1,.9.185,3.672,3.672,0,0,1,1.351,2.991" transform="translate(26.174 10.886)"/>
        <path id="Trazado_17024" data-name="Trazado 17024" class="cls-7" d="M14.805,6.3a2.487,2.487,0,0,1,2.466-2.508c.034,0,.065,0,.1,0a2.539,2.539,0,1,1-2.564,2.514V6.3" transform="translate(26.774 6.857)"/>
        <path id="Trazado_17025" data-name="Trazado 17025" class="cls-6" d="M5.625,24.339a3.454,3.454,0,0,1-2.637-1.182,3.98,3.98,0,0,1-1.059-2.78V6.508A3.988,3.988,0,0,1,2.988,3.73,3.454,3.454,0,0,1,5.625,2.548H22.661A3.465,3.465,0,0,1,25.3,3.73a4.008,4.008,0,0,1,1.056,2.778V20.376a4,4,0,0,1-1.056,2.78,3.465,3.465,0,0,1-2.643,1.182Z" transform="translate(3.488 4.607)"/>
        <path id="Trazado_17026" data-name="Trazado 17026" class="cls-8" d="M23.116,3.7a2.764,2.764,0,0,1,2.12.955,3.3,3.3,0,0,1,.873,2.306V20.828a3.3,3.3,0,0,1-.873,2.306,2.764,2.764,0,0,1-2.12.955H6.077a2.759,2.759,0,0,1-2.12-.955,3.3,3.3,0,0,1-.873-2.306V6.963a3.3,3.3,0,0,1,.873-2.306A2.759,2.759,0,0,1,6.077,3.7Zm0-1.4H6.077A4.181,4.181,0,0,0,2.92,3.711,4.676,4.676,0,0,0,1.679,6.963V20.828A4.671,4.671,0,0,0,2.92,24.08a4.181,4.181,0,0,0,3.157,1.413H23.116a4.181,4.181,0,0,0,3.157-1.413,4.671,4.671,0,0,0,1.241-3.252V6.963a4.676,4.676,0,0,0-1.241-3.252A4.181,4.181,0,0,0,23.116,2.3" transform="translate(3.036 4.155)"/>
        <path id="Trazado_17027" data-name="Trazado 17027" class="cls-8" d="M5.159,15.2h7.279a1.726,1.726,0,0,0,1.722-1.722V10.942l3.227,2.595a1.176,1.176,0,0,0,1.376.149A1.24,1.24,0,0,0,19.5,12.5V7.218a1.236,1.236,0,0,0-.733-1.18,1.176,1.176,0,0,0-1.376.149L14.16,8.783V6.25a1.726,1.726,0,0,0-1.722-1.722H5.159A1.726,1.726,0,0,0,3.437,6.25v7.226A1.726,1.726,0,0,0,5.159,15.2" transform="translate(6.216 8.188)"/>
        <path id="Trazado_17028" data-name="Trazado 17028" class="cls-8" d="M17.779,21.311A10.879,10.879,0,0,1,18.835,13,11,11,0,0,1,23.489,8.64a11.474,11.474,0,0,1,5.083-1.07,10.81,10.81,0,1,1-10.7,13.983c-.025-.081-.059-.163-.09-.244" transform="translate(31.444 13.684)"/>
        <path id="Trazado_17029" data-name="Trazado 17029" class="cls-8" d="M28.423,29.744c-.126,0-.258,0-.388-.006a11.157,11.157,0,0,1-10.27-7.864c-.017-.048-.034-.1-.053-.143l-.031-.087.3-.11-.309.084A11.225,11.225,0,0,1,23.558,8.554,11.721,11.721,0,0,1,28.8,7.448a11.15,11.15,0,0,1-.374,22.293m-10.1-8.324c.051.132.073.191.093.253A10.47,10.47,0,1,0,28.782,8.127,11.068,11.068,0,0,0,23.85,9.164a10.557,10.557,0,0,0-5.53,12.253" transform="translate(31.225 13.463)"/>
        <path id="Trazado_17030" data-name="Trazado 17030" class="cls-6" d="M27.428,27.222a9.588,9.588,0,1,1,.045,0h-.045" transform="translate(32.217 14.463)"/>
        <path id="Trazado_17031" data-name="Trazado 17031" class="cls-8" d="M31.694,12.11a2.383,2.383,0,0,1-.741,1.755L29.706,15.12c-1.309,1.314-2.794,2.806-4.294,4.283a2.515,2.515,0,0,1-3.553.124q-.059-.055-.118-.118-1.053-1.019-2.075-2.078a2.547,2.547,0,0,1,3.516-3.685c.365.334.525.244.812-.051q1.668-1.706,3.376-3.376a2.54,2.54,0,0,1,4.325,1.89" transform="translate(34.222 17.156)"/>
        <path id="Trazado_17032" data-name="Trazado 17032" class="cls-5" d="M22.74,18.05a1.226,1.226,0,0,1-.944-.4c-.663-.666-1.334-1.317-1.986-1.994a1.256,1.256,0,0,1-.124-1.775.9.9,0,0,1,.07-.076,1.243,1.243,0,0,1,1.758-.039,1.041,1.041,0,0,1,.093.1c1.328,1.432,1.4.845,2.331-.065,1.121-1.1,2.219-2.221,3.334-3.328a1.291,1.291,0,1,1,1.8,1.809q-2.612,2.624-5.229,5.235a1.374,1.374,0,0,1-1.1.525" transform="translate(35.043 17.982)"/>
      </g>
    </g>
  </g>
</svg>
