<svg xmlns="http://www.w3.org/2000/svg" xmlns:xlink="http://www.w3.org/1999/xlink" width="82" height="82" viewBox="0 0 82 82">
  <defs>
    <style>
      .cls-1 {
        fill: none;
      }

      .cls-2 {
        clip-path: url(#clip-iconCEMM);
      }

      .cls-3 {
        clip-path: url(#clip-path);
      }

      .cls-4 {
        fill: #2e72b9;
      }

      .cls-5 {
        fill: #9bc8fe;
      }

      .cls-6 {
        fill: #fff;
      }

      .cls-7 {
        fill: #2d72b9;
      }

      .cls-8 {
        fill: #9ac7fe;
      }
    </style>
    <clipPath id="clip-path">
      <rect id="Rectángulo_11218" data-name="Rectángulo 11218" class="cls-1" width="68.683" height="58.541"/>
    </clipPath>
    <clipPath id="clip-iconCEMM">
      <rect width="82" height="82"/>
    </clipPath>
  </defs>
  <g id="iconCEMM" class="cls-2">
    <g id="Grupo_23012" data-name="Grupo 23012" transform="translate(7 12)">
      <g id="Grupo_22948" data-name="Grupo 22948" class="cls-3" transform="translate(0 0)">
        <path id="Trazado_16947" data-name="Trazado 16947" class="cls-4" d="M43.538,36.227h-.123A12.144,12.144,0,0,1,31.389,23.963v-.041a11.92,11.92,0,0,1,11.822-11.99c.161,0,.311,0,.469.005a12.146,12.146,0,1,1-.14,24.291M33.979,24a9.557,9.557,0,1,0,9.651-9.48c-.149,0-.271-.005-.4-.005a9.342,9.342,0,0,0-9.254,9.409V24" transform="translate(8.81 3.349)"/>
        <path id="Trazado_16948" data-name="Trazado 16948" class="cls-5" d="M57.5,42.785l-.015-.109,0-.11a15.19,15.19,0,0,0-5.7-12.279,1.826,1.826,0,0,0-1.232-.476,1.963,1.963,0,0,0-.756.154,16.392,16.392,0,0,1-8.629.891c-.06-.01-.122-.015-.182-.027-.309-.055-.615-.132-.921-.2-.2-.049-.4-.087-.6-.143-.164-.046-.324-.106-.487-.156-.341-.108-.683-.214-1.018-.343a1.964,1.964,0,0,0-.756-.155,1.826,1.826,0,0,0-1.232.476,15.168,15.168,0,0,0-2.44,2.459c-.186.233-.362.474-.533.717l-.026.035c-.04.058-.083.11-.122.168l.009.005a15.193,15.193,0,0,0-2.587,8.9l0,.11-.015.109a1.809,1.809,0,0,0,1.263,1.986l.164.064a28.753,28.753,0,0,0,16.655,2.327c.2-.032.4-.06.6-.1l.127-.024a28.72,28.72,0,0,0,7-2.223l.164-.063A1.807,1.807,0,0,0,57.5,42.785" transform="translate(8.489 8.368)"/>
        <path id="Trazado_16949" data-name="Trazado 16949" class="cls-4" d="M51.147,30.368a1.828,1.828,0,0,1,1.229.476,15.19,15.19,0,0,1,5.7,12.279l0,.11.015.109a1.806,1.806,0,0,1-1.261,1.986l-.165.063a28.71,28.71,0,0,1-7,2.223l-.128.024c-.2.036-.4.064-.6.095a28.731,28.731,0,0,1-16.654-2.327l-.165-.063a1.806,1.806,0,0,1-1.261-1.986l.015-.109,0-.11a15.174,15.174,0,0,1,2.587-8.9s.484-.692.67-.925a15.273,15.273,0,0,1,2.44-2.459,1.828,1.828,0,0,1,1.229-.476h0a1.933,1.933,0,0,1,.754.154c.336.131.677.237,1.018.345.163.05.324.11.488.155.2.056.4.1.6.145.306.073.612.15.921.2.06.01.122.015.183.026a16.428,16.428,0,0,0,8.629-.89,1.933,1.933,0,0,1,.754-.154Zm0-2.677h0a4.612,4.612,0,0,0-1.753.347,13.753,13.753,0,0,1-7.194.733c-.054-.009-.115-.018-.178-.026-.175-.032-.369-.079-.574-.128l-.172-.041-.245-.056c-.083-.019-.168-.036-.251-.059-.064-.018-.117-.037-.17-.055-.082-.028-.164-.055-.247-.081l-.074-.023c-.268-.085-.523-.165-.743-.25a4.613,4.613,0,0,0-1.747-.346,4.5,4.5,0,0,0-2.965,1.108,17.876,17.876,0,0,0-2.814,2.847,9.55,9.55,0,0,0-.852,1.181,17.761,17.761,0,0,0-2.983,10.267,4.457,4.457,0,0,0,3.037,4.759l.01,0a31.437,31.437,0,0,0,18.122,2.506l.142-.022c.169-.026.337-.053.5-.082l.132-.026A31.414,31.414,0,0,0,57.7,47.857l.01,0a4.457,4.457,0,0,0,3.036-4.759A17.98,17.98,0,0,0,54.1,28.8a4.494,4.494,0,0,0-2.957-1.108" transform="translate(7.902 7.773)"/>
        <path id="Trazado_16950" data-name="Trazado 16950" class="cls-6" d="M33.291,23.423a9.509,9.509,0,0,1,9.427-9.59h0c.127,0,.251,0,.378.006a9.71,9.71,0,1,1-9.806,9.613V23.42" transform="translate(9.344 3.883)"/>
        <path id="Trazado_16951" data-name="Trazado 16951" class="cls-7" d="M23.833,30.351l-4.639-.512a1.854,1.854,0,0,0-2,1.6,1.76,1.76,0,0,0,.409,1.334,1.73,1.73,0,0,0,1.208.684l8.67.958a2.059,2.059,0,0,0,.893-.077,2.494,2.494,0,0,0,1.3-1.04,2.085,2.085,0,0,0,.268-.853l.957-8.669a1.733,1.733,0,0,0-.4-1.328,1.758,1.758,0,0,0-2.546-.28,1.735,1.735,0,0,0-.684,1.206l-.512,4.639-4.389-5.477a1.822,1.822,0,0,0-2.61-.288,1.837,1.837,0,0,0-.708,1.251,1.777,1.777,0,0,0,.4,1.374l4.388,5.477" transform="translate(4.823 6.105)"/>
        <path id="Trazado_16952" data-name="Trazado 16952" class="cls-8" d="M32.946,23.366H4.036A2.975,2.975,0,0,1,1.06,20.391V3.541A2.975,2.975,0,0,1,4.036.566h28.91a2.975,2.975,0,0,1,2.975,2.975V20.388a2.975,2.975,0,0,1-2.975,2.975" transform="translate(0.298 0.159)"/>
        <path id="Trazado_16953" data-name="Trazado 16953" class="cls-7" d="M3.974,24.63A3.99,3.99,0,0,1,0,20.656V3.978a3.826,3.826,0,0,1,1.169-2.81A3.828,3.828,0,0,1,3.974,0H33.408a3.83,3.83,0,0,1,2.81,1.168,3.831,3.831,0,0,1,1.169,2.81V20.652a3.99,3.99,0,0,1-3.979,3.974ZM6,22.795H31.379a4.532,4.532,0,0,1,1.3-3.259A4.179,4.179,0,0,1,35.8,18.183V6.506a4.163,4.163,0,0,1-3.125-1.354,4.549,4.549,0,0,1-1.3-3.258H6a4.537,4.537,0,0,1-1.3,3.261A4.173,4.173,0,0,1,1.583,6.506V18.183a4.169,4.169,0,0,1,3.126,1.355,4.544,4.544,0,0,1,1.3,3.257" transform="translate(0 0)"/>
        <path id="Trazado_16954" data-name="Trazado 16954" class="cls-7" d="M16.027,17.668A6.515,6.515,0,0,1,9.461,11.2v-.1a6.566,6.566,0,1,1,13.124-.452c.005.15.005.3,0,.452a6.516,6.516,0,0,1-6.464,6.566h-.1m0-11a4.4,4.4,0,0,0-4.443,4.352c0,.029,0,.06,0,.09a4.442,4.442,0,1,0,8.884,0h0a4.4,4.4,0,0,0-4.349-4.441h-.092" transform="translate(2.654 1.21)"/>
      </g>
    </g>
  </g>
</svg>
