<svg xmlns="http://www.w3.org/2000/svg" xmlns:xlink="http://www.w3.org/1999/xlink" width="82" height="82" viewBox="0 0 82 82">
  <defs>
    <style>
      .cls-1 {
        fill: none;
      }

      .cls-2 {
        clip-path: url(#clip-iconSISGOE);
      }

      .cls-3 {
        clip-path: url(#clip-path);
      }

      .cls-4 {
        fill: #fff;
      }

      .cls-5 {
        fill: #276fba;
      }

      .cls-6 {
        fill: #9bc8fe;
      }

      .cls-7 {
        fill: #2e72b9;
      }

      .cls-8 {
        fill: #fdfcfd;
      }
    </style>
    <clipPath id="clip-path">
      <rect id="Rectángulo_11226" data-name="Rectángulo 11226" class="cls-1" width="64.757" height="55.98"/>
    </clipPath>
    <clipPath id="clip-iconSISGOE">
      <rect width="82" height="82"/>
    </clipPath>
  </defs>
  <g id="iconSISGOE" class="cls-2">
    <g id="Grupo_22987" data-name="Grupo 22987" transform="translate(-1392.235 -820.484)">
      <g id="Grupo_22977" data-name="Grupo 22977" transform="translate(1401.65 832.912)">
        <g id="Grupo_22976" data-name="Grupo 22976" class="cls-3" transform="translate(0 0)">
          <path id="Trazado_17091" data-name="Trazado 17091" class="cls-4" d="M4.237,4.318h46.7a3.861,3.861,0,0,1,3.859,3.863V34.207a3.858,3.858,0,0,1-3.859,3.859H4.237A3.861,3.861,0,0,1,.374,34.207V8.181A3.864,3.864,0,0,1,4.237,4.318" transform="translate(0.902 10.416)"/>
          <path id="Trazado_17092" data-name="Trazado 17092" class="cls-5" d="M51.838,40.254H5.139A5.147,5.147,0,0,1,0,35.112V9.085A5.147,5.147,0,0,1,5.139,3.943h46.7a5.144,5.144,0,0,1,5.136,5.142V35.112a5.144,5.144,0,0,1-5.136,5.142M5.139,6.5a2.585,2.585,0,0,0-2.58,2.583V35.112a2.585,2.585,0,0,0,2.58,2.583h46.7a2.582,2.582,0,0,0,2.576-2.583V9.085A2.582,2.582,0,0,0,51.838,6.5Z" transform="translate(0 9.511)"/>
          <path id="Trazado_17093" data-name="Trazado 17093" class="cls-5" d="M44.766,8.317H3.156a1.28,1.28,0,1,1,0-2.559H44.766a1.28,1.28,0,0,1,0,2.559" transform="translate(4.526 13.89)"/>
          <path id="Trazado_17099" data-name="Trazado 17099" class="cls-6" d="M27.333,20.024H5.088V3.03A2.658,2.658,0,0,1,7.743.375H24.679A2.656,2.656,0,0,1,27.333,3.03Z" transform="translate(12.274 0.904)"/>
          <path id="Trazado_17100" data-name="Trazado 17100" class="cls-5" d="M29.519,22.208H4.714V3.938A3.94,3.94,0,0,1,8.645,0H25.581a3.944,3.944,0,0,1,3.938,3.938ZM7.273,19.649H26.959V3.938a1.379,1.379,0,0,0-1.379-1.379H8.645A1.378,1.378,0,0,0,7.273,3.938Z" transform="translate(11.372 -0.001)"/>
        </g>
      </g>
      <g id="Grupo_22986" data-name="Grupo 22986" transform="translate(1441.775 866.876)">
        <path id="Trazado_16863" data-name="Trazado 16863" class="cls-7" d="M68.915,101.815a12.01,12.01,0,0,1,1.167-9.18,12.148,12.148,0,0,1,5.137-4.811,12.655,12.655,0,0,1,5.612-1.179,11.934,11.934,0,1,1-11.817,15.437c-.028-.091-.065-.18-.1-.27" transform="translate(-68.106 -86.265)"/>
        <path id="Trazado_16864" data-name="Trazado 16864" class="cls-7" d="M79.76,110.214q-.213,0-.429-.006a12.318,12.318,0,0,1-11.339-8.681c-.017-.052-.037-.106-.058-.159l-.034-.094.331-.122-.341.094a12.4,12.4,0,0,1,6.5-14.426A12.941,12.941,0,0,1,80.174,85.6a12.308,12.308,0,0,1-.414,24.61m-11.155-9.19c.056.145.081.211.1.278A11.559,11.559,0,1,0,80.154,86.351,12.182,12.182,0,0,0,74.711,87.5a11.649,11.649,0,0,0-6.1,13.526" transform="translate(-67.442 -85.599)"/>
        <path id="Trazado_16865" data-name="Trazado 16865" class="cls-6" d="M82.757,111.554a10.585,10.585,0,1,1,.051,0h-.051" transform="translate(-70.442 -88.618)"/>
        <path id="Trazado_16866" data-name="Trazado 16866" class="cls-8" d="M85.578,114.478a1.8,1.8,0,0,1-.879-.23l-.318-.173a1.753,1.753,0,0,1-.845-1,1.954,1.954,0,0,1-.009-1.258l.147-.42a6.522,6.522,0,0,1-.553-.726,5.556,5.556,0,0,1-.445-.831l-.477-.07a1.8,1.8,0,0,1-1.1-.582,1.753,1.753,0,0,1-.459-1.15l-.015-.45a1.828,1.828,0,0,1,.352-1.158,1.708,1.708,0,0,1,1.062-.689l.541-.135a5.915,5.915,0,0,1,.911-1.671l-.18-.529a1.715,1.715,0,0,1,.015-1.29,1.822,1.822,0,0,1,.784-.914l.369-.212a1.786,1.786,0,0,1,.927-.256,1.84,1.84,0,0,1,.277.021,1.777,1.777,0,0,1,1.106.614l.31.354a5.555,5.555,0,0,1,.914-.076,6.672,6.672,0,0,1,.935.071l.272-.351a1.937,1.937,0,0,1,1.082-.684,1.759,1.759,0,0,1,.41-.048,1.79,1.79,0,0,1,.877.231l.317.172a1.777,1.777,0,0,1,.845,1,1.966,1.966,0,0,1,.01,1.26l-.148.421a6.442,6.442,0,0,1,.553.726,5.571,5.571,0,0,1,.445.831l.477.069a1.812,1.812,0,0,1,1.1.583,1.739,1.739,0,0,1,.46,1.15l.025.409a1.87,1.87,0,0,1-.358,1.188,1.7,1.7,0,0,1-1.086.7l-.543.127a6.054,6.054,0,0,1-.382.855,6.258,6.258,0,0,1-.524.8l.165.461.026.063a1.711,1.711,0,0,1,0,1.3,1.907,1.907,0,0,1-.785.923l-.378.218a1.79,1.79,0,0,1-.927.256,1.827,1.827,0,0,1-.277-.021,1.779,1.779,0,0,1-1.1-.606l-.305-.351a4.815,4.815,0,0,1-.872.079h-.088a7,7,0,0,1-.9-.08l-.269.348a1.951,1.951,0,0,1-1.079.685,1.774,1.774,0,0,1-.411.048m2.568-9.27a2.348,2.348,0,1,0,.563,4.627l.093-.028a2.347,2.347,0,0,0-.656-4.6" transform="translate(-75.851 -95.191)"/>
        <path id="Trazado_16867" data-name="Trazado 16867" class="cls-7" d="M89.437,100.084a1.06,1.06,0,0,1,.52.137l.328.178a1.06,1.06,0,0,1,.5.595,1.239,1.239,0,0,1,.009.8l-.29.823a5.711,5.711,0,0,1,.776.946,4.8,4.8,0,0,1,.528,1.09l.9.13a1.087,1.087,0,0,1,.664.351,1.021,1.021,0,0,1,.274.678l.026.439a1.129,1.129,0,0,1-.218.716,1.007,1.007,0,0,1-.64.42l-.972.226a5.246,5.246,0,0,1-.452,1.12,5.505,5.505,0,0,1-.708,1.006l.337.939h0a1,1,0,0,1,0,.751,1.181,1.181,0,0,1-.488.576l-.366.211a1.085,1.085,0,0,1-.566.159,1.113,1.113,0,0,1-.831-.375l-.595-.683a4.128,4.128,0,0,1-1.132.159h-.075a6.2,6.2,0,0,1-1.212-.15l-.54.7a1.214,1.214,0,0,1-.671.423,1.07,1.07,0,0,1-.77-.109l-.327-.178a1.046,1.046,0,0,1-.505-.593,1.229,1.229,0,0,1-.008-.8l.289-.823a5.8,5.8,0,0,1-.776-.948,4.815,4.815,0,0,1-.526-1.089l-.9-.131a1.087,1.087,0,0,1-.665-.349,1.034,1.034,0,0,1-.273-.679l-.015-.459a1.106,1.106,0,0,1,.212-.707,1,1,0,0,1,.635-.409l.951-.237a5.558,5.558,0,0,1,.457-1.131,5.451,5.451,0,0,1,.7-1l-.317-.929a1,1,0,0,1,0-.761,1.11,1.11,0,0,1,.48-.566l.366-.211a1.086,1.086,0,0,1,.732-.147,1.063,1.063,0,0,1,.664.366l.6.682a4.807,4.807,0,0,1,1.18-.147h.021a5.732,5.732,0,0,1,1.217.139l.542-.7a1.2,1.2,0,0,1,.671-.421,1.05,1.05,0,0,1,.248-.03m-2.564,9.268a3.071,3.071,0,0,0,.866-.125l0,0,.011,0a3.059,3.059,0,1,0-.873.13m2.564-10.716a2.493,2.493,0,0,0-.581.068,2.659,2.659,0,0,0-1.47.928l-.007.008-.007.008-.021.027c-.193-.017-.388-.026-.582-.028h-.032q-.313,0-.624.031l-.055-.063a2.508,2.508,0,0,0-1.549-.853,2.535,2.535,0,0,0-1.68.332l-.353.2a2.57,2.57,0,0,0-1.1,1.286,2.432,2.432,0,0,0-.018,1.794l.055.16c-.126.184-.243.374-.35.568s-.206.405-.293.612l-.163.041a2.435,2.435,0,0,0-1.494.979,2.562,2.562,0,0,0-.482,1.606l.015.444a2.478,2.478,0,0,0,.654,1.62,2.53,2.53,0,0,0,1.53.8l.084.012a6.247,6.247,0,0,0,.326.563q.162.248.343.48l-.008.022,0,.012,0,.012a2.69,2.69,0,0,0,.014,1.73,2.483,2.483,0,0,0,1.189,1.4l.312.17a2.518,2.518,0,0,0,1.8.25,2.672,2.672,0,0,0,1.467-.926l.008-.01.008-.01.016-.021q.277.027.554.034h.11a5.608,5.608,0,0,0,.584-.031l.05.058a2.5,2.5,0,0,0,1.549.845,2.541,2.541,0,0,0,1.676-.332l.353-.2.012-.007.012-.007a2.646,2.646,0,0,0,1.087-1.283,2.427,2.427,0,0,0,0-1.83l-.025-.062L92.314,110q.187-.275.347-.568t.283-.584l.178-.041a2.436,2.436,0,0,0,1.514-1,2.584,2.584,0,0,0,.484-1.614v-.025l-.025-.416a2.469,2.469,0,0,0-.652-1.593,2.54,2.54,0,0,0-1.539-.808l-.077-.011a6.15,6.15,0,0,0-.327-.564q-.161-.246-.341-.478l.007-.021.005-.014,0-.014a2.7,2.7,0,0,0-.016-1.727,2.5,2.5,0,0,0-1.192-1.4l-.31-.168a2.51,2.51,0,0,0-1.22-.317M86.873,107.9a1.635,1.635,0,0,1-1.56-1.17,1.619,1.619,0,0,1,1.558-2.077,1.626,1.626,0,0,1,1.554,1.165,1.619,1.619,0,0,1-1.083,2.009h0l-.019.006-.08.024a1.613,1.613,0,0,1-.367.042" transform="translate(-74.576 -93.915)"/>
      </g>
    </g>
  </g>
</svg>
