<svg xmlns="http://www.w3.org/2000/svg" xmlns:xlink="http://www.w3.org/1999/xlink" width="82" height="82" viewBox="0 0 82 82">
  <defs>
    <style>
      .cls-1 {
        fill: none;
      }

      .cls-2 {
        clip-path: url(#clip-iconSIGLOC);
      }

      .cls-3 {
        clip-path: url(#clip-path);
      }

      .cls-4 {
        fill: #fff;
      }

      .cls-5 {
        fill: #276fba;
      }

      .cls-6 {
        fill: #2a70b8;
      }

      .cls-7 {
        fill: #9bc8fe;
      }

      .cls-8 {
        fill: #fefefe;
      }
    </style>
    <clipPath id="clip-path">
      <rect id="Rectángulo_11155" data-name="Rectángulo 11155" class="cls-1" width="56.4" height="66.48"/>
    </clipPath>
    <clipPath id="clip-iconSIGLOC">
      <rect width="82" height="82"/>
    </clipPath>
  </defs>
  <g id="iconSIGLOC" class="cls-2">
    <g id="Grupo_22917" data-name="Grupo 22917" transform="translate(12.8 7.761)">
      <g id="Grupo_22826" data-name="Grupo 22826" class="cls-3" transform="translate(0 0)">
        <path id="Trazado_16845" data-name="Trazado 16845" class="cls-4" d="M49.725,64.54H5.667A4.736,4.736,0,0,1,.931,59.8V5.668A4.736,4.736,0,0,1,5.667.932H49.725a4.736,4.736,0,0,1,4.736,4.736V59.8a4.736,4.736,0,0,1-4.736,4.736" transform="translate(0.503 0.505)"/>
        <path id="Trazado_16846" data-name="Trazado 16846" class="cls-5" d="M50.23,66.478H6.171A6.179,6.179,0,0,1,0,60.307V6.172A6.179,6.179,0,0,1,6.171,0H50.23A6.179,6.179,0,0,1,56.4,6.172V60.307a6.179,6.179,0,0,1-6.171,6.171M6.171,2.871a3.3,3.3,0,0,0-3.3,3.3V60.307a3.3,3.3,0,0,0,3.3,3.3H50.23a3.3,3.3,0,0,0,3.3-3.3V6.172a3.3,3.3,0,0,0-3.3-3.3Z" transform="translate(0 0.001)"/>
        <path id="Trazado_16847" data-name="Trazado 16847" class="cls-6" d="M25.909,33.761H44.491c.74,0,1.387.071,1.51.988a1.079,1.079,0,0,1-.787,1.307,1.127,1.127,0,0,1-.248.031,7.814,7.814,0,0,1-.911.017H7.571a7.838,7.838,0,0,1-1.025-.026,1.029,1.029,0,0,1-.96-1.094.737.737,0,0,1,.011-.1,1,1,0,0,1,.9-1.092l.023,0a7.84,7.84,0,0,1,1.025-.022H25.9" transform="translate(3.02 18.258)"/>
        <path id="Trazado_16848" data-name="Trazado 16848" class="cls-6" d="M22.613,31.547H7.567a4.385,4.385,0,0,1-1.126-.085A1.079,1.079,0,0,1,5.6,30.384a1.128,1.128,0,0,1,.8-1.233,2.83,2.83,0,0,1,.9-.1H37.841a2.8,2.8,0,0,1,.681.025,1.221,1.221,0,0,1,1.079,1.26,1.2,1.2,0,0,1-1.035,1.183,4.2,4.2,0,0,1-1.022.037H22.611" transform="translate(3.022 15.707)"/>
        <path id="Trazado_16849" data-name="Trazado 16849" class="cls-6" d="M22.542,26.784H7.163c-1.173,0-1.567-.308-1.567-1.159a1.029,1.029,0,0,1,.889-1.153c.034,0,.066-.006.1-.008a8.167,8.167,0,0,1,.911-.017H38.253c.9.032,1.331.4,1.351,1.171s-.394,1.157-1.342,1.16q-7.858.016-15.716,0" transform="translate(3.022 13.219)"/>
        <path id="Trazado_16850" data-name="Trazado 16850" class="cls-6" d="M19.082,33.16A13.931,13.931,0,0,1,4.663,19.735q-.018-.564.006-1.128a14.424,14.424,0,0,1,28.844.111A13.914,13.914,0,0,1,20.148,33.16q-.532.021-1.066,0" transform="translate(2.517 2.403)"/>
        <path id="Trazado_16851" data-name="Trazado 16851" class="cls-7" d="M13.1,20.074a8.565,8.565,0,0,0-3.347,6.078c-2.978-2.06-4.273-7.461-2.884-11.71a11.77,11.77,0,0,1,11.8-8.405A11.931,11.931,0,0,1,29.7,14.867c1.439,5.054-.912,9.9-3.035,11.248a8.618,8.618,0,0,0-3.377-6.069,6.849,6.849,0,0,0,1.653-6.327,7.212,7.212,0,0,0-2.65-4.131,6.867,6.867,0,0,0-8.783.532c-2.757,2.646-2.928,6.2-.408,9.954" transform="translate(3.412 3.259)"/>
        <path id="Trazado_16852" data-name="Trazado 16852" class="cls-4" d="M22.177,21.818c.2.77-.308,1.216-1.149,1.567a12.176,12.176,0,0,1-10.034-.117,1.261,1.261,0,0,1-.875-1.377A6.624,6.624,0,0,1,12.6,16.513a1.267,1.267,0,0,1,1.35-.233,6.127,6.127,0,0,0,4.342.037,1.433,1.433,0,0,1,1.549.322,6.37,6.37,0,0,1,2.342,5.179" transform="translate(5.466 8.751)"/>
        <path id="Trazado_16853" data-name="Trazado 16853" class="cls-8" d="M11.151,13.49a4.3,4.3,0,0,1,4.27-4.34c.054,0,.112,0,.168,0A4.4,4.4,0,1,1,11.151,13.5V13.49" transform="translate(6.03 4.948)"/>
      </g>
    </g>
  </g>
</svg>
