<svg xmlns="http://www.w3.org/2000/svg" xmlns:xlink="http://www.w3.org/1999/xlink" width="82" height="82" viewBox="0 0 82 82">
  <defs>
    <style>
      .cls-1 {
        fill: none;
      }

      .cls-2 {
        clip-path: url(#clip-iconCLV);
      }

      .cls-3 {
        clip-path: url(#clip-path);
      }

      .cls-4 {
        fill: #2d72b9;
      }

      .cls-5 {
        fill: #fff;
      }

      .cls-6 {
        fill: #276fba;
      }

      .cls-7 {
        fill: #9bc8fe;
      }

      .cls-8 {
        fill: #2e72b9;
      }

      .cls-9 {
        fill: #fdfcfd;
      }
    </style>
    <clipPath id="clip-path">
      <rect id="Rectángulo_11151" data-name="Rectángulo 11151" class="cls-1" width="61.35" height="72.435" transform="translate(0 0)"/>
    </clipPath>
    <clipPath id="clip-iconCLV">
      <rect width="82" height="82"/>
    </clipPath>
  </defs>
  <g id="iconCLV" class="cls-2">
    <g id="Grupo_22921" data-name="Grupo 22921" transform="translate(10.325 4.783)">
      <g id="Grupo_22817" data-name="Grupo 22817" class="cls-3" transform="translate(0 0)">
        <path id="Trazado_16809" data-name="Trazado 16809" class="cls-4" d="M60.124,70.481H1.233a1.227,1.227,0,1,1,0-2.454h58.9a1.227,1.227,0,1,1,0,2.454" transform="translate(0 1.87)"/>
        <path id="Trazado_16810" data-name="Trazado 16810" class="cls-5" d="M29.47,1.038c.133,0,.264.007.4.01s.263-.01.4-.01Z" transform="translate(0.81 0.029)"/>
        <path id="Trazado_16811" data-name="Trazado 16811" class="cls-6" d="M29.9,2.142h-.2c-.076,0-.151-.005-.227-.005V0h.791V2.132c-.076,0-.151,0-.226.005Z" transform="translate(0.81 0)"/>
        <path id="Trazado_16812" data-name="Trazado 16812" class="cls-5" d="M30.317,1.047A17.593,17.593,0,0,0,13.049,18.7c0,4.995,2.071,8.772,4.812,12.852,2.924,4.325,6.7,8.954,9.319,14.862a3.53,3.53,0,0,0,3.108,2.132,3.448,3.448,0,0,0,3.167-2.131c2.619-5.908,6.4-10.537,9.319-14.862,2.74-4.08,4.812-7.857,4.812-12.852A17.593,17.593,0,0,0,30.317,1.047m-.024,26.582a6.7,6.7,0,1,1,6.7-6.7,6.7,6.7,0,0,1-6.7,6.7" transform="translate(0.359 0.029)"/>
        <path id="Trazado_16813" data-name="Trazado 16813" class="cls-4" d="M30.314,49.64a4.6,4.6,0,0,1-4.078-2.761A65.75,65.75,0,0,0,19.2,35.318c-.762-1.073-1.5-2.115-2.2-3.14-2.531-3.765-5-7.9-5-13.449A18.6,18.6,0,0,1,30.322.011h.046a18.6,18.6,0,0,1,18.31,18.718c0,5.548-2.466,9.685-4.993,13.446-.695,1.027-1.438,2.069-2.2,3.141a65.72,65.72,0,0,0-7.033,11.558,4.52,4.52,0,0,1-4.142,2.765M30.345,2.8a16,16,0,0,0-15.731,16.1c0,4.354,1.649,7.661,4.5,11.9.663.98,1.373,1.978,2.1,3.005a66.4,66.4,0,0,1,7.032,11.581,2.406,2.406,0,0,0,2.069,1.454,2.3,2.3,0,0,0,2.125-1.437,66.47,66.47,0,0,1,7.038-11.6c.731-1.027,1.44-2.025,2.1-3.007,2.846-4.236,4.494-7.542,4.494-11.9A16,16,0,0,0,30.345,2.8m-.024,26.333a8.179,8.179,0,1,1,8.18-8.181,8.178,8.178,0,0,1-8.18,8.181m0-13.813a5.634,5.634,0,1,0,5.633,5.635h0a5.639,5.639,0,0,0-5.634-5.634" transform="translate(0.33 0)"/>
        <path id="Trazado_16814" data-name="Trazado 16814" class="cls-7" d="M18.586,48.983H41.948a3.744,3.744,0,0,1,3.744,3.744V66.033a3.744,3.744,0,0,1-3.744,3.744H18.586a3.744,3.744,0,0,1-3.744-3.744V52.727a3.744,3.744,0,0,1,3.744-3.744" transform="translate(0.408 1.346)"/>
        <path id="Trazado_16815" data-name="Trazado 16815" class="cls-4" d="M41.983,71.121H18.621a5.06,5.06,0,0,1-5.054-5.054v-13.3a5.06,5.06,0,0,1,5.054-5.054H41.983a5.06,5.06,0,0,1,5.055,5.054V66.068a5.06,5.06,0,0,1-5.055,5.054M18.621,50.329a2.436,2.436,0,0,0-2.434,2.434V66.069A2.436,2.436,0,0,0,18.621,68.5H41.983a2.437,2.437,0,0,0,2.434-2.434V52.762a2.437,2.437,0,0,0-2.434-2.434Z" transform="translate(0.373 1.311)"/>
        <path id="Trazado_16816" data-name="Trazado 16816" class="cls-8" d="M37.577,56.339a2.9,2.9,0,0,1-.9,2.132L35.159,60c-1.591,1.6-3.391,3.41-5.217,5.205a3.054,3.054,0,0,1-4.316.15q-.072-.068-.142-.142-1.282-1.239-2.524-2.526a3.095,3.095,0,1,1,4.269-4.482c.445.411.639.3.989-.061q2.025-2.076,4.1-4.1a3.082,3.082,0,0,1,5.254,2.3" transform="translate(0.605 1.461)"/>
        <path id="Trazado_16817" data-name="Trazado 16817" class="cls-9" d="M27.73,64.27a1.409,1.409,0,0,1-1.09-.458c-.767-.768-1.541-1.523-2.3-2.3a1.456,1.456,0,0,1-.144-2.054c.025-.029.051-.058.079-.084a1.437,1.437,0,0,1,2.033-.041,1.336,1.336,0,0,1,.1.111c1.535,1.659,1.621.978,2.694-.074,1.295-1.271,2.569-2.569,3.853-3.845a1.494,1.494,0,1,1,2.416,1.759,1.515,1.515,0,0,1-.338.335q-3.012,3.027-6.036,6.049a1.593,1.593,0,0,1-1.274.606" transform="translate(0.655 1.509)"/>
      </g>
    </g>
  </g>
</svg>
